G04 #@! TF.GenerationSoftware,KiCad,Pcbnew,7.0.11-2.fc39*
G04 #@! TF.CreationDate,2024-05-02T20:43:30+03:00*
G04 #@! TF.ProjectId,mainboard_v1.1,6d61696e-626f-4617-9264-5f76312e312e,rev?*
G04 #@! TF.SameCoordinates,Original*
G04 #@! TF.FileFunction,Soldermask,Top*
G04 #@! TF.FilePolarity,Negative*
%FSLAX46Y46*%
G04 Gerber Fmt 4.6, Leading zero omitted, Abs format (unit mm)*
G04 Created by KiCad (PCBNEW 7.0.11-2.fc39) date 2024-05-02 20:43:30*
%MOMM*%
%LPD*%
G01*
G04 APERTURE LIST*
G04 Aperture macros list*
%AMRoundRect*
0 Rectangle with rounded corners*
0 $1 Rounding radius*
0 $2 $3 $4 $5 $6 $7 $8 $9 X,Y pos of 4 corners*
0 Add a 4 corners polygon primitive as box body*
4,1,4,$2,$3,$4,$5,$6,$7,$8,$9,$2,$3,0*
0 Add four circle primitives for the rounded corners*
1,1,$1+$1,$2,$3*
1,1,$1+$1,$4,$5*
1,1,$1+$1,$6,$7*
1,1,$1+$1,$8,$9*
0 Add four rect primitives between the rounded corners*
20,1,$1+$1,$2,$3,$4,$5,0*
20,1,$1+$1,$4,$5,$6,$7,0*
20,1,$1+$1,$6,$7,$8,$9,0*
20,1,$1+$1,$8,$9,$2,$3,0*%
%AMFreePoly0*
4,1,45,-0.098130,1.726870,-0.087000,1.700000,-0.087000,1.238000,0.087000,1.238000,0.087000,1.700000,0.098130,1.726870,0.125000,1.738000,0.375000,1.738000,0.401870,1.726870,0.413000,1.700000,0.413000,1.238000,0.825000,1.238000,0.851870,1.226870,0.863000,1.200000,0.863000,-1.200000,0.851870,-1.226870,0.825000,-1.238000,0.413000,-1.238000,0.413000,-1.700000,0.401870,-1.726870,
0.375000,-1.738000,0.125000,-1.738000,0.098130,-1.726870,0.087000,-1.700000,0.087000,-1.238000,-0.087000,-1.238000,-0.087000,-1.700000,-0.098130,-1.726870,-0.125000,-1.738000,-0.375000,-1.738000,-0.401870,-1.726870,-0.413000,-1.700000,-0.413000,-1.238000,-0.825000,-1.238000,-0.851870,-1.226870,-0.863000,-1.200000,-0.863000,1.200000,-0.851870,1.226870,-0.825000,1.238000,-0.413000,1.238000,
-0.413000,1.700000,-0.401870,1.726870,-0.375000,1.738000,-0.125000,1.738000,-0.098130,1.726870,-0.098130,1.726870,$1*%
G04 Aperture macros list end*
%ADD10RoundRect,0.079000X0.369000X0.079000X-0.369000X0.079000X-0.369000X-0.079000X0.369000X-0.079000X0*%
%ADD11C,0.776000*%
%ADD12FreePoly0,180.000000*%
%ADD13RoundRect,0.169000X0.606500X0.169000X-0.606500X0.169000X-0.606500X-0.169000X0.606500X-0.169000X0*%
%ADD14RoundRect,0.261176X0.626824X0.776824X-0.626824X0.776824X-0.626824X-0.776824X0.626824X-0.776824X0*%
%ADD15O,1.776000X2.076000*%
%ADD16C,2.276000*%
%ADD17RoundRect,0.038000X-0.950000X0.550000X-0.950000X-0.550000X0.950000X-0.550000X0.950000X0.550000X0*%
%ADD18RoundRect,0.174000X-0.174000X0.231500X-0.174000X-0.231500X0.174000X-0.231500X0.174000X0.231500X0*%
%ADD19RoundRect,0.264340X-1.123660X0.436160X-1.123660X-0.436160X1.123660X-0.436160X1.123660X0.436160X0*%
%ADD20RoundRect,0.256500X-0.256500X0.319000X-0.256500X-0.319000X0.256500X-0.319000X0.256500X0.319000X0*%
%ADD21RoundRect,0.260556X-1.027444X-0.677444X1.027444X-0.677444X1.027444X0.677444X-1.027444X0.677444X0*%
%ADD22RoundRect,0.219000X-0.219000X-0.294000X0.219000X-0.294000X0.219000X0.294000X-0.219000X0.294000X0*%
%ADD23RoundRect,0.219000X0.294000X-0.219000X0.294000X0.219000X-0.294000X0.219000X-0.294000X-0.219000X0*%
%ADD24RoundRect,0.266170X0.359330X0.496830X-0.359330X0.496830X-0.359330X-0.496830X0.359330X-0.496830X0*%
%ADD25RoundRect,0.256500X-0.319000X-0.256500X0.319000X-0.256500X0.319000X0.256500X-0.319000X0.256500X0*%
%ADD26RoundRect,0.266170X-0.496830X0.359330X-0.496830X-0.359330X0.496830X-0.359330X0.496830X0.359330X0*%
%ADD27RoundRect,0.394000X-0.744000X0.394000X-0.744000X-0.394000X0.744000X-0.394000X0.744000X0.394000X0*%
%ADD28RoundRect,0.038000X-0.125000X-0.350000X0.125000X-0.350000X0.125000X0.350000X-0.125000X0.350000X0*%
%ADD29RoundRect,0.038000X-0.350000X0.125000X-0.350000X-0.125000X0.350000X-0.125000X0.350000X0.125000X0*%
%ADD30RoundRect,0.038000X-0.181250X0.181250X-0.181250X-0.181250X0.181250X-0.181250X0.181250X0.181250X0*%
%ADD31RoundRect,0.169000X-0.169000X0.606500X-0.169000X-0.606500X0.169000X-0.606500X0.169000X0.606500X0*%
%ADD32RoundRect,0.038000X1.600000X0.500000X-1.600000X0.500000X-1.600000X-0.500000X1.600000X-0.500000X0*%
%ADD33RoundRect,0.256500X0.319000X0.256500X-0.319000X0.256500X-0.319000X-0.256500X0.319000X-0.256500X0*%
%ADD34RoundRect,0.256500X-0.256500X0.306500X-0.256500X-0.306500X0.256500X-0.306500X0.256500X0.306500X0*%
%ADD35RoundRect,0.256500X0.269000X0.256500X-0.269000X0.256500X-0.269000X-0.256500X0.269000X-0.256500X0*%
%ADD36RoundRect,0.038000X0.200000X0.430000X-0.200000X0.430000X-0.200000X-0.430000X0.200000X-0.430000X0*%
%ADD37RoundRect,0.038000X0.200000X0.400000X-0.200000X0.400000X-0.200000X-0.400000X0.200000X-0.400000X0*%
%ADD38RoundRect,0.264340X1.123660X-0.436160X1.123660X0.436160X-1.123660X0.436160X-1.123660X-0.436160X0*%
%ADD39RoundRect,0.260556X1.027444X0.677444X-1.027444X0.677444X-1.027444X-0.677444X1.027444X-0.677444X0*%
%ADD40RoundRect,0.038000X0.600000X-0.750000X0.600000X0.750000X-0.600000X0.750000X-0.600000X-0.750000X0*%
%ADD41RoundRect,0.256500X-0.256500X0.269000X-0.256500X-0.269000X0.256500X-0.269000X0.256500X0.269000X0*%
%ADD42RoundRect,0.094000X-0.681500X-0.094000X0.681500X-0.094000X0.681500X0.094000X-0.681500X0.094000X0*%
%ADD43RoundRect,0.094000X-0.094000X-0.681500X0.094000X-0.681500X0.094000X0.681500X-0.094000X0.681500X0*%
%ADD44RoundRect,0.079000X-0.369000X-0.079000X0.369000X-0.079000X0.369000X0.079000X-0.369000X0.079000X0*%
%ADD45FreePoly0,0.000000*%
%ADD46RoundRect,0.256500X0.256500X-0.269000X0.256500X0.269000X-0.256500X0.269000X-0.256500X-0.269000X0*%
%ADD47RoundRect,0.256500X-0.269000X-0.256500X0.269000X-0.256500X0.269000X0.256500X-0.269000X0.256500X0*%
%ADD48RoundRect,0.261176X-0.776824X0.626824X-0.776824X-0.626824X0.776824X-0.626824X0.776824X0.626824X0*%
%ADD49O,2.076000X1.776000*%
%ADD50RoundRect,0.260556X-0.677444X1.027444X-0.677444X-1.027444X0.677444X-1.027444X0.677444X1.027444X0*%
%ADD51RoundRect,0.219000X0.219000X0.294000X-0.219000X0.294000X-0.219000X-0.294000X0.219000X-0.294000X0*%
%ADD52RoundRect,0.038000X0.675000X-0.200000X0.675000X0.200000X-0.675000X0.200000X-0.675000X-0.200000X0*%
%ADD53O,1.976000X1.276000*%
%ADD54RoundRect,0.038000X0.950000X-0.600000X0.950000X0.600000X-0.950000X0.600000X-0.950000X-0.600000X0*%
%ADD55C,1.526000*%
%ADD56RoundRect,0.038000X0.950000X-0.750000X0.950000X0.750000X-0.950000X0.750000X-0.950000X-0.750000X0*%
%ADD57RoundRect,0.261176X0.751824X-0.626824X0.751824X0.626824X-0.751824X0.626824X-0.751824X-0.626824X0*%
%ADD58O,2.026000X1.776000*%
%ADD59RoundRect,0.038000X0.500000X0.400000X-0.500000X0.400000X-0.500000X-0.400000X0.500000X-0.400000X0*%
%ADD60C,0.976000*%
%ADD61RoundRect,0.038000X0.350000X0.750000X-0.350000X0.750000X-0.350000X-0.750000X0.350000X-0.750000X0*%
%ADD62RoundRect,0.219000X-0.294000X0.219000X-0.294000X-0.219000X0.294000X-0.219000X0.294000X0.219000X0*%
%ADD63RoundRect,0.174000X0.174000X-0.231500X0.174000X0.231500X-0.174000X0.231500X-0.174000X-0.231500X0*%
%ADD64RoundRect,0.038000X-0.500000X0.350000X-0.500000X-0.350000X0.500000X-0.350000X0.500000X0.350000X0*%
%ADD65RoundRect,0.038000X-0.300000X0.350000X-0.300000X-0.350000X0.300000X-0.350000X0.300000X0.350000X0*%
%ADD66RoundRect,0.038000X-1.625000X1.250000X-1.625000X-1.250000X1.625000X-1.250000X1.625000X1.250000X0*%
%ADD67RoundRect,0.264340X-0.436160X-1.123660X0.436160X-1.123660X0.436160X1.123660X-0.436160X1.123660X0*%
%ADD68C,4.576000*%
%ADD69C,3.076000*%
%ADD70RoundRect,0.038000X2.100000X-0.675000X2.100000X0.675000X-2.100000X0.675000X-2.100000X-0.675000X0*%
G04 APERTURE END LIST*
D10*
X161666250Y-70463750D03*
X161666250Y-69963750D03*
X161666250Y-69463750D03*
X161666250Y-68963750D03*
X161666250Y-68463750D03*
X158646250Y-68463750D03*
X158646250Y-68963750D03*
X158646250Y-69463750D03*
X158646250Y-69963750D03*
X158646250Y-70463750D03*
D11*
X160166250Y-69483750D03*
D12*
X160156250Y-69463750D03*
D13*
X187467500Y-68110000D03*
X187467500Y-66210000D03*
X185592500Y-67160000D03*
D14*
X155300000Y-39200000D03*
D15*
X152800000Y-39200000D03*
D16*
X129140000Y-37690000D03*
D17*
X178720000Y-49700000D03*
X178720000Y-52200000D03*
D18*
X178690000Y-53952500D03*
X178690000Y-55087500D03*
D19*
X132980000Y-68397500D03*
X132980000Y-71522500D03*
D20*
X199086250Y-58073750D03*
X199086250Y-59798750D03*
D21*
X171500000Y-39210000D03*
X175500000Y-39210000D03*
D22*
X185825000Y-60610000D03*
X187475000Y-60610000D03*
D23*
X143740000Y-53155000D03*
X143740000Y-51505000D03*
D24*
X163137500Y-72680000D03*
X161062500Y-72680000D03*
D25*
X147217500Y-61320000D03*
X148942500Y-61320000D03*
D26*
X145273750Y-58888750D03*
X145273750Y-60963750D03*
D25*
X175387500Y-75890000D03*
X177112500Y-75890000D03*
D27*
X159557500Y-50690000D03*
X159557500Y-56190000D03*
D28*
X166806250Y-51713750D03*
X166306250Y-51713750D03*
X165806250Y-51713750D03*
X165306250Y-51713750D03*
D29*
X164606250Y-52413750D03*
X164606250Y-52913750D03*
X164606250Y-53413750D03*
X164606250Y-53913750D03*
D28*
X165306250Y-54613750D03*
X165806250Y-54613750D03*
X166306250Y-54613750D03*
X166806250Y-54613750D03*
D29*
X167506250Y-53913750D03*
X167506250Y-53413750D03*
X167506250Y-52913750D03*
X167506250Y-52413750D03*
D30*
X166600000Y-52620000D03*
X166237500Y-52620000D03*
X165875000Y-52620000D03*
X165512500Y-52620000D03*
X166600000Y-52982500D03*
X166237500Y-52982500D03*
X165875000Y-52982500D03*
X165512500Y-52982500D03*
X166600000Y-53345000D03*
X166237500Y-53345000D03*
X165875000Y-53345000D03*
X165512500Y-53345000D03*
X166600000Y-53707500D03*
X166237500Y-53707500D03*
X165875000Y-53707500D03*
X165512500Y-53707500D03*
D20*
X183036250Y-57113750D03*
X183036250Y-58838750D03*
D23*
X183417500Y-67155000D03*
X183417500Y-65505000D03*
D31*
X152360000Y-55082500D03*
X150460000Y-55082500D03*
X151410000Y-56957500D03*
D16*
X217040000Y-37690000D03*
D32*
X179630000Y-63310000D03*
X172830000Y-63310000D03*
X179630000Y-59310000D03*
X172830000Y-59310000D03*
D33*
X179682500Y-56910000D03*
X177957500Y-56910000D03*
D34*
X204470000Y-55635000D03*
X204470000Y-57385000D03*
D35*
X173592500Y-52060000D03*
X171767500Y-52060000D03*
D33*
X166682500Y-49930000D03*
X164957500Y-49930000D03*
D19*
X136490000Y-68407500D03*
X136490000Y-71532500D03*
D36*
X215340000Y-85910000D03*
D37*
X214340000Y-85910000D03*
X213340000Y-85910000D03*
X213340000Y-88610000D03*
X214340000Y-88610000D03*
X215340000Y-88610000D03*
D38*
X157590000Y-61902500D03*
X157590000Y-58777500D03*
D39*
X165277500Y-39200000D03*
X161277500Y-39200000D03*
D35*
X173592500Y-53640000D03*
X171767500Y-53640000D03*
D16*
X129076250Y-89513750D03*
D40*
X167086250Y-70773750D03*
X167086250Y-68073750D03*
D21*
X147870000Y-70840000D03*
X151870000Y-70840000D03*
D41*
X194982500Y-41237500D03*
X194982500Y-43062500D03*
D20*
X197446250Y-58093750D03*
X197446250Y-59818750D03*
D35*
X162147500Y-46170000D03*
X160322500Y-46170000D03*
D13*
X187482500Y-64300000D03*
X187482500Y-62400000D03*
X185607500Y-63350000D03*
D42*
X186187500Y-49900000D03*
X186187500Y-50400000D03*
X186187500Y-50900000D03*
X186187500Y-51400000D03*
X186187500Y-51900000D03*
X186187500Y-52400000D03*
X186187500Y-52900000D03*
X186187500Y-53400000D03*
X186187500Y-53900000D03*
X186187500Y-54400000D03*
X186187500Y-54900000D03*
X186187500Y-55400000D03*
D43*
X187600000Y-56812500D03*
X188100000Y-56812500D03*
X188600000Y-56812500D03*
X189100000Y-56812500D03*
X189600000Y-56812500D03*
X190100000Y-56812500D03*
X190600000Y-56812500D03*
X191100000Y-56812500D03*
X191600000Y-56812500D03*
X192100000Y-56812500D03*
X192600000Y-56812500D03*
X193100000Y-56812500D03*
D42*
X194512500Y-55400000D03*
X194512500Y-54900000D03*
X194512500Y-54400000D03*
X194512500Y-53900000D03*
X194512500Y-53400000D03*
X194512500Y-52900000D03*
X194512500Y-52400000D03*
X194512500Y-51900000D03*
X194512500Y-51400000D03*
X194512500Y-50900000D03*
X194512500Y-50400000D03*
X194512500Y-49900000D03*
D43*
X193100000Y-48487500D03*
X192600000Y-48487500D03*
X192100000Y-48487500D03*
X191600000Y-48487500D03*
X191100000Y-48487500D03*
X190600000Y-48487500D03*
X190100000Y-48487500D03*
X189600000Y-48487500D03*
X189100000Y-48487500D03*
X188600000Y-48487500D03*
X188100000Y-48487500D03*
X187600000Y-48487500D03*
D44*
X143806250Y-63183750D03*
X143806250Y-63683750D03*
X143806250Y-64183750D03*
X143806250Y-64683750D03*
X143806250Y-65183750D03*
X146826250Y-65183750D03*
X146826250Y-64683750D03*
X146826250Y-64183750D03*
X146826250Y-63683750D03*
X146826250Y-63183750D03*
D11*
X145306250Y-64163750D03*
D45*
X145316250Y-64183750D03*
D41*
X196812500Y-41267500D03*
X196812500Y-43092500D03*
X167756250Y-59161250D03*
X167756250Y-60986250D03*
D25*
X136292500Y-60500000D03*
X138017500Y-60500000D03*
D34*
X207400000Y-55622500D03*
X207400000Y-57372500D03*
D46*
X204470000Y-61012500D03*
X204470000Y-59187500D03*
D47*
X169097500Y-55810000D03*
X170922500Y-55810000D03*
D20*
X211450000Y-86387500D03*
X211450000Y-88112500D03*
D48*
X130910000Y-56570000D03*
D49*
X130910000Y-59070000D03*
D24*
X163147500Y-74970000D03*
X161072500Y-74970000D03*
D50*
X129290000Y-65060000D03*
X129290000Y-69060000D03*
D48*
X130900000Y-47360000D03*
D49*
X130900000Y-49860000D03*
D46*
X207380000Y-61007500D03*
X207380000Y-59182500D03*
D20*
X194236250Y-58122750D03*
X194236250Y-59847750D03*
D26*
X140970000Y-58892500D03*
X140970000Y-60967500D03*
D51*
X161691250Y-64513750D03*
X160041250Y-64513750D03*
D52*
X214777500Y-52610000D03*
X214777500Y-51960000D03*
X214777500Y-51310000D03*
X214777500Y-50660000D03*
X214777500Y-50010000D03*
D53*
X217477500Y-54810000D03*
D54*
X217477500Y-54210000D03*
D55*
X214777500Y-53810000D03*
D56*
X217477500Y-52310000D03*
X217477500Y-50310000D03*
D55*
X214777500Y-48810000D03*
D54*
X217477500Y-48410000D03*
D53*
X217477500Y-47810000D03*
D31*
X148650000Y-55062500D03*
X146750000Y-55062500D03*
X147700000Y-56937500D03*
D57*
X215220000Y-75860000D03*
D58*
X215220000Y-73360000D03*
X215220000Y-70860000D03*
D20*
X195846250Y-58093750D03*
X195846250Y-59818750D03*
D47*
X175297500Y-73910000D03*
X177122500Y-73910000D03*
D26*
X143100000Y-58892500D03*
X143100000Y-60967500D03*
D51*
X138040000Y-62340000D03*
X136390000Y-62340000D03*
D26*
X201040000Y-57888750D03*
X201040000Y-59963750D03*
D59*
X193430000Y-39040000D03*
X193430000Y-36830000D03*
D60*
X191280000Y-37930000D03*
X188280000Y-37930000D03*
D59*
X186130000Y-39040000D03*
X186130000Y-36830000D03*
D61*
X192030000Y-39690000D03*
X189030000Y-39690000D03*
X187530000Y-39690000D03*
D62*
X149480000Y-51515000D03*
X149480000Y-53165000D03*
D46*
X169526250Y-60966250D03*
X169526250Y-59141250D03*
D20*
X184706250Y-57106250D03*
X184706250Y-58831250D03*
D24*
X161687500Y-66320000D03*
X159612500Y-66320000D03*
D51*
X139568750Y-64213750D03*
X137918750Y-64213750D03*
D25*
X168367500Y-49930000D03*
X170092500Y-49930000D03*
D23*
X189570000Y-64125000D03*
X189570000Y-62475000D03*
D35*
X158557500Y-46150000D03*
X156732500Y-46150000D03*
D63*
X178720000Y-48197500D03*
X178720000Y-47062500D03*
D32*
X179580000Y-71560000D03*
X172780000Y-71560000D03*
X179580000Y-67560000D03*
X172780000Y-67560000D03*
D22*
X137878750Y-66003750D03*
X139528750Y-66003750D03*
D64*
X202810000Y-50640000D03*
D65*
X201110000Y-50640000D03*
X201110000Y-52640000D03*
X203010000Y-52640000D03*
D19*
X143370000Y-68387500D03*
X143370000Y-71512500D03*
D66*
X152450000Y-61820000D03*
X152450000Y-67820000D03*
D23*
X189660000Y-67825000D03*
X189660000Y-66175000D03*
D46*
X166066250Y-60986250D03*
X166066250Y-59161250D03*
D62*
X191420000Y-66147500D03*
X191420000Y-67797500D03*
D67*
X165827500Y-46950000D03*
X168952500Y-46950000D03*
D62*
X189132500Y-42520000D03*
X189132500Y-44170000D03*
D19*
X139930000Y-68397500D03*
X139930000Y-71522500D03*
D57*
X215295000Y-64490000D03*
D58*
X215295000Y-61990000D03*
X215295000Y-59490000D03*
D33*
X158152500Y-64580000D03*
X156427500Y-64580000D03*
D62*
X146640000Y-51525000D03*
X146640000Y-53175000D03*
X141453750Y-64863750D03*
X141453750Y-66513750D03*
D68*
X200746250Y-46553750D03*
X147046250Y-46553750D03*
D69*
X139646250Y-56253750D03*
X138196250Y-46553750D03*
X209596250Y-46553750D03*
D11*
X164631250Y-80128750D03*
X163281250Y-80128750D03*
X164631250Y-81478750D03*
X163281250Y-81478750D03*
D70*
X128592500Y-81865000D03*
X128592500Y-76215000D03*
M02*
