G04 #@! TF.GenerationSoftware,KiCad,Pcbnew,7.0.11-2.fc39*
G04 #@! TF.CreationDate,2024-05-02T20:43:30+03:00*
G04 #@! TF.ProjectId,mainboard_v1.1,6d61696e-626f-4617-9264-5f76312e312e,rev?*
G04 #@! TF.SameCoordinates,Original*
G04 #@! TF.FileFunction,Legend,Bot*
G04 #@! TF.FilePolarity,Positive*
%FSLAX46Y46*%
G04 Gerber Fmt 4.6, Leading zero omitted, Abs format (unit mm)*
G04 Created by KiCad (PCBNEW 7.0.11-2.fc39) date 2024-05-02 20:43:30*
%MOMM*%
%LPD*%
G01*
G04 APERTURE LIST*
G04 Aperture macros list*
%AMRoundRect*
0 Rectangle with rounded corners*
0 $1 Rounding radius*
0 $2 $3 $4 $5 $6 $7 $8 $9 X,Y pos of 4 corners*
0 Add a 4 corners polygon primitive as box body*
4,1,4,$2,$3,$4,$5,$6,$7,$8,$9,$2,$3,0*
0 Add four circle primitives for the rounded corners*
1,1,$1+$1,$2,$3*
1,1,$1+$1,$4,$5*
1,1,$1+$1,$6,$7*
1,1,$1+$1,$8,$9*
0 Add four rect primitives between the rounded corners*
20,1,$1+$1,$2,$3,$4,$5,0*
20,1,$1+$1,$4,$5,$6,$7,0*
20,1,$1+$1,$6,$7,$8,$9,0*
20,1,$1+$1,$8,$9,$2,$3,0*%
G04 Aperture macros list end*
%ADD10C,0.150000*%
%ADD11C,0.100000*%
%ADD12C,0.120000*%
%ADD13C,0.300000*%
%ADD14C,0.200000*%
%ADD15C,0.776000*%
%ADD16RoundRect,0.261176X0.626824X0.776824X-0.626824X0.776824X-0.626824X-0.776824X0.626824X-0.776824X0*%
%ADD17O,1.776000X2.076000*%
%ADD18C,2.276000*%
%ADD19RoundRect,0.261176X-0.776824X0.626824X-0.776824X-0.626824X0.776824X-0.626824X0.776824X0.626824X0*%
%ADD20O,2.076000X1.776000*%
%ADD21O,1.976000X1.276000*%
%ADD22C,1.526000*%
%ADD23RoundRect,0.261176X0.751824X-0.626824X0.751824X0.626824X-0.751824X0.626824X-0.751824X-0.626824X0*%
%ADD24O,2.026000X1.776000*%
%ADD25C,0.976000*%
%ADD26RoundRect,0.256500X0.306500X0.256500X-0.306500X0.256500X-0.306500X-0.256500X0.306500X-0.256500X0*%
%ADD27RoundRect,0.256500X0.319000X0.256500X-0.319000X0.256500X-0.319000X-0.256500X0.319000X-0.256500X0*%
%ADD28RoundRect,0.256500X0.256500X-0.319000X0.256500X0.319000X-0.256500X0.319000X-0.256500X-0.319000X0*%
%ADD29RoundRect,0.174000X0.174000X-0.231500X0.174000X0.231500X-0.174000X0.231500X-0.174000X-0.231500X0*%
%ADD30RoundRect,0.174000X-0.174000X0.231500X-0.174000X-0.231500X0.174000X-0.231500X0.174000X0.231500X0*%
%ADD31RoundRect,0.256500X0.256500X-0.306500X0.256500X0.306500X-0.256500X0.306500X-0.256500X-0.306500X0*%
%ADD32C,4.576000*%
%ADD33C,3.076000*%
%ADD34RoundRect,0.174000X0.231500X0.174000X-0.231500X0.174000X-0.231500X-0.174000X0.231500X-0.174000X0*%
%ADD35RoundRect,0.038000X0.150000X0.400000X-0.150000X0.400000X-0.150000X-0.400000X0.150000X-0.400000X0*%
%ADD36RoundRect,0.038000X-0.337500X0.337500X-0.337500X-0.337500X0.337500X-0.337500X0.337500X0.337500X0*%
%ADD37RoundRect,0.038000X-0.400000X0.150000X-0.400000X-0.150000X0.400000X-0.150000X0.400000X0.150000X0*%
%ADD38RoundRect,0.256500X-0.256500X0.306500X-0.256500X-0.306500X0.256500X-0.306500X0.256500X0.306500X0*%
%ADD39RoundRect,0.038000X1.800000X-0.635000X1.800000X0.635000X-1.800000X0.635000X-1.800000X-0.635000X0*%
%ADD40RoundRect,0.038000X2.100000X-0.675000X2.100000X0.675000X-2.100000X0.675000X-2.100000X-0.675000X0*%
%ADD41RoundRect,0.256500X-0.256500X0.319000X-0.256500X-0.319000X0.256500X-0.319000X0.256500X0.319000X0*%
%ADD42RoundRect,0.038000X0.425000X0.375000X-0.425000X0.375000X-0.425000X-0.375000X0.425000X-0.375000X0*%
G04 APERTURE END LIST*
D10*
X158066666Y-85299580D02*
X158114285Y-85347200D01*
X158114285Y-85347200D02*
X158257142Y-85394819D01*
X158257142Y-85394819D02*
X158352380Y-85394819D01*
X158352380Y-85394819D02*
X158495237Y-85347200D01*
X158495237Y-85347200D02*
X158590475Y-85251961D01*
X158590475Y-85251961D02*
X158638094Y-85156723D01*
X158638094Y-85156723D02*
X158685713Y-84966247D01*
X158685713Y-84966247D02*
X158685713Y-84823390D01*
X158685713Y-84823390D02*
X158638094Y-84632914D01*
X158638094Y-84632914D02*
X158590475Y-84537676D01*
X158590475Y-84537676D02*
X158495237Y-84442438D01*
X158495237Y-84442438D02*
X158352380Y-84394819D01*
X158352380Y-84394819D02*
X158257142Y-84394819D01*
X158257142Y-84394819D02*
X158114285Y-84442438D01*
X158114285Y-84442438D02*
X158066666Y-84490057D01*
X157590475Y-85394819D02*
X157399999Y-85394819D01*
X157399999Y-85394819D02*
X157304761Y-85347200D01*
X157304761Y-85347200D02*
X157257142Y-85299580D01*
X157257142Y-85299580D02*
X157161904Y-85156723D01*
X157161904Y-85156723D02*
X157114285Y-84966247D01*
X157114285Y-84966247D02*
X157114285Y-84585295D01*
X157114285Y-84585295D02*
X157161904Y-84490057D01*
X157161904Y-84490057D02*
X157209523Y-84442438D01*
X157209523Y-84442438D02*
X157304761Y-84394819D01*
X157304761Y-84394819D02*
X157495237Y-84394819D01*
X157495237Y-84394819D02*
X157590475Y-84442438D01*
X157590475Y-84442438D02*
X157638094Y-84490057D01*
X157638094Y-84490057D02*
X157685713Y-84585295D01*
X157685713Y-84585295D02*
X157685713Y-84823390D01*
X157685713Y-84823390D02*
X157638094Y-84918628D01*
X157638094Y-84918628D02*
X157590475Y-84966247D01*
X157590475Y-84966247D02*
X157495237Y-85013866D01*
X157495237Y-85013866D02*
X157304761Y-85013866D01*
X157304761Y-85013866D02*
X157209523Y-84966247D01*
X157209523Y-84966247D02*
X157161904Y-84918628D01*
X157161904Y-84918628D02*
X157114285Y-84823390D01*
X156732916Y-77966069D02*
X157209106Y-77966069D01*
X157209106Y-77966069D02*
X157209106Y-76966069D01*
X156447201Y-77061307D02*
X156399582Y-77013688D01*
X156399582Y-77013688D02*
X156304344Y-76966069D01*
X156304344Y-76966069D02*
X156066249Y-76966069D01*
X156066249Y-76966069D02*
X155971011Y-77013688D01*
X155971011Y-77013688D02*
X155923392Y-77061307D01*
X155923392Y-77061307D02*
X155875773Y-77156545D01*
X155875773Y-77156545D02*
X155875773Y-77251783D01*
X155875773Y-77251783D02*
X155923392Y-77394640D01*
X155923392Y-77394640D02*
X156494820Y-77966069D01*
X156494820Y-77966069D02*
X155875773Y-77966069D01*
X141352916Y-78026069D02*
X141829106Y-78026069D01*
X141829106Y-78026069D02*
X141829106Y-77026069D01*
X141114820Y-77026069D02*
X140448154Y-77026069D01*
X140448154Y-77026069D02*
X140876725Y-78026069D01*
X148032916Y-77976069D02*
X148509106Y-77976069D01*
X148509106Y-77976069D02*
X148509106Y-76976069D01*
X147271011Y-76976069D02*
X147461487Y-76976069D01*
X147461487Y-76976069D02*
X147556725Y-77023688D01*
X147556725Y-77023688D02*
X147604344Y-77071307D01*
X147604344Y-77071307D02*
X147699582Y-77214164D01*
X147699582Y-77214164D02*
X147747201Y-77404640D01*
X147747201Y-77404640D02*
X147747201Y-77785592D01*
X147747201Y-77785592D02*
X147699582Y-77880830D01*
X147699582Y-77880830D02*
X147651963Y-77928450D01*
X147651963Y-77928450D02*
X147556725Y-77976069D01*
X147556725Y-77976069D02*
X147366249Y-77976069D01*
X147366249Y-77976069D02*
X147271011Y-77928450D01*
X147271011Y-77928450D02*
X147223392Y-77880830D01*
X147223392Y-77880830D02*
X147175773Y-77785592D01*
X147175773Y-77785592D02*
X147175773Y-77547497D01*
X147175773Y-77547497D02*
X147223392Y-77452259D01*
X147223392Y-77452259D02*
X147271011Y-77404640D01*
X147271011Y-77404640D02*
X147366249Y-77357021D01*
X147366249Y-77357021D02*
X147556725Y-77357021D01*
X147556725Y-77357021D02*
X147651963Y-77404640D01*
X147651963Y-77404640D02*
X147699582Y-77452259D01*
X147699582Y-77452259D02*
X147747201Y-77547497D01*
X170175830Y-85357083D02*
X170223450Y-85309464D01*
X170223450Y-85309464D02*
X170271069Y-85166607D01*
X170271069Y-85166607D02*
X170271069Y-85071369D01*
X170271069Y-85071369D02*
X170223450Y-84928512D01*
X170223450Y-84928512D02*
X170128211Y-84833274D01*
X170128211Y-84833274D02*
X170032973Y-84785655D01*
X170032973Y-84785655D02*
X169842497Y-84738036D01*
X169842497Y-84738036D02*
X169699640Y-84738036D01*
X169699640Y-84738036D02*
X169509164Y-84785655D01*
X169509164Y-84785655D02*
X169413926Y-84833274D01*
X169413926Y-84833274D02*
X169318688Y-84928512D01*
X169318688Y-84928512D02*
X169271069Y-85071369D01*
X169271069Y-85071369D02*
X169271069Y-85166607D01*
X169271069Y-85166607D02*
X169318688Y-85309464D01*
X169318688Y-85309464D02*
X169366307Y-85357083D01*
X169271069Y-85690417D02*
X169271069Y-86309464D01*
X169271069Y-86309464D02*
X169652021Y-85976131D01*
X169652021Y-85976131D02*
X169652021Y-86118988D01*
X169652021Y-86118988D02*
X169699640Y-86214226D01*
X169699640Y-86214226D02*
X169747259Y-86261845D01*
X169747259Y-86261845D02*
X169842497Y-86309464D01*
X169842497Y-86309464D02*
X170080592Y-86309464D01*
X170080592Y-86309464D02*
X170175830Y-86261845D01*
X170175830Y-86261845D02*
X170223450Y-86214226D01*
X170223450Y-86214226D02*
X170271069Y-86118988D01*
X170271069Y-86118988D02*
X170271069Y-85833274D01*
X170271069Y-85833274D02*
X170223450Y-85738036D01*
X170223450Y-85738036D02*
X170175830Y-85690417D01*
X159309366Y-80043333D02*
X159342700Y-80010000D01*
X159342700Y-80010000D02*
X159376033Y-79910000D01*
X159376033Y-79910000D02*
X159376033Y-79843333D01*
X159376033Y-79843333D02*
X159342700Y-79743333D01*
X159342700Y-79743333D02*
X159276033Y-79676667D01*
X159276033Y-79676667D02*
X159209366Y-79643333D01*
X159209366Y-79643333D02*
X159076033Y-79610000D01*
X159076033Y-79610000D02*
X158976033Y-79610000D01*
X158976033Y-79610000D02*
X158842700Y-79643333D01*
X158842700Y-79643333D02*
X158776033Y-79676667D01*
X158776033Y-79676667D02*
X158709366Y-79743333D01*
X158709366Y-79743333D02*
X158676033Y-79843333D01*
X158676033Y-79843333D02*
X158676033Y-79910000D01*
X158676033Y-79910000D02*
X158709366Y-80010000D01*
X158709366Y-80010000D02*
X158742700Y-80043333D01*
X158676033Y-80643333D02*
X158676033Y-80510000D01*
X158676033Y-80510000D02*
X158709366Y-80443333D01*
X158709366Y-80443333D02*
X158742700Y-80410000D01*
X158742700Y-80410000D02*
X158842700Y-80343333D01*
X158842700Y-80343333D02*
X158976033Y-80310000D01*
X158976033Y-80310000D02*
X159242700Y-80310000D01*
X159242700Y-80310000D02*
X159309366Y-80343333D01*
X159309366Y-80343333D02*
X159342700Y-80376667D01*
X159342700Y-80376667D02*
X159376033Y-80443333D01*
X159376033Y-80443333D02*
X159376033Y-80576667D01*
X159376033Y-80576667D02*
X159342700Y-80643333D01*
X159342700Y-80643333D02*
X159309366Y-80676667D01*
X159309366Y-80676667D02*
X159242700Y-80710000D01*
X159242700Y-80710000D02*
X159076033Y-80710000D01*
X159076033Y-80710000D02*
X159009366Y-80676667D01*
X159009366Y-80676667D02*
X158976033Y-80643333D01*
X158976033Y-80643333D02*
X158942700Y-80576667D01*
X158942700Y-80576667D02*
X158942700Y-80443333D01*
X158942700Y-80443333D02*
X158976033Y-80376667D01*
X158976033Y-80376667D02*
X159009366Y-80343333D01*
X159009366Y-80343333D02*
X159076033Y-80310000D01*
X153255830Y-83018392D02*
X153303450Y-82970773D01*
X153303450Y-82970773D02*
X153351069Y-82827916D01*
X153351069Y-82827916D02*
X153351069Y-82732678D01*
X153351069Y-82732678D02*
X153303450Y-82589821D01*
X153303450Y-82589821D02*
X153208211Y-82494583D01*
X153208211Y-82494583D02*
X153112973Y-82446964D01*
X153112973Y-82446964D02*
X152922497Y-82399345D01*
X152922497Y-82399345D02*
X152779640Y-82399345D01*
X152779640Y-82399345D02*
X152589164Y-82446964D01*
X152589164Y-82446964D02*
X152493926Y-82494583D01*
X152493926Y-82494583D02*
X152398688Y-82589821D01*
X152398688Y-82589821D02*
X152351069Y-82732678D01*
X152351069Y-82732678D02*
X152351069Y-82827916D01*
X152351069Y-82827916D02*
X152398688Y-82970773D01*
X152398688Y-82970773D02*
X152446307Y-83018392D01*
X153351069Y-83970773D02*
X153351069Y-83399345D01*
X153351069Y-83685059D02*
X152351069Y-83685059D01*
X152351069Y-83685059D02*
X152493926Y-83589821D01*
X152493926Y-83589821D02*
X152589164Y-83494583D01*
X152589164Y-83494583D02*
X152636783Y-83399345D01*
X152351069Y-84589821D02*
X152351069Y-84685059D01*
X152351069Y-84685059D02*
X152398688Y-84780297D01*
X152398688Y-84780297D02*
X152446307Y-84827916D01*
X152446307Y-84827916D02*
X152541545Y-84875535D01*
X152541545Y-84875535D02*
X152732021Y-84923154D01*
X152732021Y-84923154D02*
X152970116Y-84923154D01*
X152970116Y-84923154D02*
X153160592Y-84875535D01*
X153160592Y-84875535D02*
X153255830Y-84827916D01*
X153255830Y-84827916D02*
X153303450Y-84780297D01*
X153303450Y-84780297D02*
X153351069Y-84685059D01*
X153351069Y-84685059D02*
X153351069Y-84589821D01*
X153351069Y-84589821D02*
X153303450Y-84494583D01*
X153303450Y-84494583D02*
X153255830Y-84446964D01*
X153255830Y-84446964D02*
X153160592Y-84399345D01*
X153160592Y-84399345D02*
X152970116Y-84351726D01*
X152970116Y-84351726D02*
X152732021Y-84351726D01*
X152732021Y-84351726D02*
X152541545Y-84399345D01*
X152541545Y-84399345D02*
X152446307Y-84446964D01*
X152446307Y-84446964D02*
X152398688Y-84494583D01*
X152398688Y-84494583D02*
X152351069Y-84589821D01*
X160871069Y-82357083D02*
X160871069Y-81880893D01*
X160871069Y-81880893D02*
X159871069Y-81880893D01*
X159871069Y-82595179D02*
X159871069Y-83214226D01*
X159871069Y-83214226D02*
X160252021Y-82880893D01*
X160252021Y-82880893D02*
X160252021Y-83023750D01*
X160252021Y-83023750D02*
X160299640Y-83118988D01*
X160299640Y-83118988D02*
X160347259Y-83166607D01*
X160347259Y-83166607D02*
X160442497Y-83214226D01*
X160442497Y-83214226D02*
X160680592Y-83214226D01*
X160680592Y-83214226D02*
X160775830Y-83166607D01*
X160775830Y-83166607D02*
X160823450Y-83118988D01*
X160823450Y-83118988D02*
X160871069Y-83023750D01*
X160871069Y-83023750D02*
X160871069Y-82738036D01*
X160871069Y-82738036D02*
X160823450Y-82642798D01*
X160823450Y-82642798D02*
X160775830Y-82595179D01*
X152162916Y-77976069D02*
X152639106Y-77976069D01*
X152639106Y-77976069D02*
X152639106Y-76976069D01*
X151353392Y-76976069D02*
X151829582Y-76976069D01*
X151829582Y-76976069D02*
X151877201Y-77452259D01*
X151877201Y-77452259D02*
X151829582Y-77404640D01*
X151829582Y-77404640D02*
X151734344Y-77357021D01*
X151734344Y-77357021D02*
X151496249Y-77357021D01*
X151496249Y-77357021D02*
X151401011Y-77404640D01*
X151401011Y-77404640D02*
X151353392Y-77452259D01*
X151353392Y-77452259D02*
X151305773Y-77547497D01*
X151305773Y-77547497D02*
X151305773Y-77785592D01*
X151305773Y-77785592D02*
X151353392Y-77880830D01*
X151353392Y-77880830D02*
X151401011Y-77928450D01*
X151401011Y-77928450D02*
X151496249Y-77976069D01*
X151496249Y-77976069D02*
X151734344Y-77976069D01*
X151734344Y-77976069D02*
X151829582Y-77928450D01*
X151829582Y-77928450D02*
X151877201Y-77880830D01*
X168455830Y-85367083D02*
X168503450Y-85319464D01*
X168503450Y-85319464D02*
X168551069Y-85176607D01*
X168551069Y-85176607D02*
X168551069Y-85081369D01*
X168551069Y-85081369D02*
X168503450Y-84938512D01*
X168503450Y-84938512D02*
X168408211Y-84843274D01*
X168408211Y-84843274D02*
X168312973Y-84795655D01*
X168312973Y-84795655D02*
X168122497Y-84748036D01*
X168122497Y-84748036D02*
X167979640Y-84748036D01*
X167979640Y-84748036D02*
X167789164Y-84795655D01*
X167789164Y-84795655D02*
X167693926Y-84843274D01*
X167693926Y-84843274D02*
X167598688Y-84938512D01*
X167598688Y-84938512D02*
X167551069Y-85081369D01*
X167551069Y-85081369D02*
X167551069Y-85176607D01*
X167551069Y-85176607D02*
X167598688Y-85319464D01*
X167598688Y-85319464D02*
X167646307Y-85367083D01*
X167884402Y-86224226D02*
X168551069Y-86224226D01*
X167503450Y-85986131D02*
X168217735Y-85748036D01*
X168217735Y-85748036D02*
X168217735Y-86367083D01*
X152579107Y-75540830D02*
X152626726Y-75588450D01*
X152626726Y-75588450D02*
X152769583Y-75636069D01*
X152769583Y-75636069D02*
X152864821Y-75636069D01*
X152864821Y-75636069D02*
X153007678Y-75588450D01*
X153007678Y-75588450D02*
X153102916Y-75493211D01*
X153102916Y-75493211D02*
X153150535Y-75397973D01*
X153150535Y-75397973D02*
X153198154Y-75207497D01*
X153198154Y-75207497D02*
X153198154Y-75064640D01*
X153198154Y-75064640D02*
X153150535Y-74874164D01*
X153150535Y-74874164D02*
X153102916Y-74778926D01*
X153102916Y-74778926D02*
X153007678Y-74683688D01*
X153007678Y-74683688D02*
X152864821Y-74636069D01*
X152864821Y-74636069D02*
X152769583Y-74636069D01*
X152769583Y-74636069D02*
X152626726Y-74683688D01*
X152626726Y-74683688D02*
X152579107Y-74731307D01*
X151626726Y-75636069D02*
X152198154Y-75636069D01*
X151912440Y-75636069D02*
X151912440Y-74636069D01*
X151912440Y-74636069D02*
X152007678Y-74778926D01*
X152007678Y-74778926D02*
X152102916Y-74874164D01*
X152102916Y-74874164D02*
X152198154Y-74921783D01*
X150674345Y-75636069D02*
X151245773Y-75636069D01*
X150960059Y-75636069D02*
X150960059Y-74636069D01*
X150960059Y-74636069D02*
X151055297Y-74778926D01*
X151055297Y-74778926D02*
X151150535Y-74874164D01*
X151150535Y-74874164D02*
X151245773Y-74921783D01*
X157462916Y-80780830D02*
X157510535Y-80828450D01*
X157510535Y-80828450D02*
X157653392Y-80876069D01*
X157653392Y-80876069D02*
X157748630Y-80876069D01*
X157748630Y-80876069D02*
X157891487Y-80828450D01*
X157891487Y-80828450D02*
X157986725Y-80733211D01*
X157986725Y-80733211D02*
X158034344Y-80637973D01*
X158034344Y-80637973D02*
X158081963Y-80447497D01*
X158081963Y-80447497D02*
X158081963Y-80304640D01*
X158081963Y-80304640D02*
X158034344Y-80114164D01*
X158034344Y-80114164D02*
X157986725Y-80018926D01*
X157986725Y-80018926D02*
X157891487Y-79923688D01*
X157891487Y-79923688D02*
X157748630Y-79876069D01*
X157748630Y-79876069D02*
X157653392Y-79876069D01*
X157653392Y-79876069D02*
X157510535Y-79923688D01*
X157510535Y-79923688D02*
X157462916Y-79971307D01*
X157129582Y-79876069D02*
X156462916Y-79876069D01*
X156462916Y-79876069D02*
X156891487Y-80876069D01*
X145269107Y-78160830D02*
X145316726Y-78208450D01*
X145316726Y-78208450D02*
X145459583Y-78256069D01*
X145459583Y-78256069D02*
X145554821Y-78256069D01*
X145554821Y-78256069D02*
X145697678Y-78208450D01*
X145697678Y-78208450D02*
X145792916Y-78113211D01*
X145792916Y-78113211D02*
X145840535Y-78017973D01*
X145840535Y-78017973D02*
X145888154Y-77827497D01*
X145888154Y-77827497D02*
X145888154Y-77684640D01*
X145888154Y-77684640D02*
X145840535Y-77494164D01*
X145840535Y-77494164D02*
X145792916Y-77398926D01*
X145792916Y-77398926D02*
X145697678Y-77303688D01*
X145697678Y-77303688D02*
X145554821Y-77256069D01*
X145554821Y-77256069D02*
X145459583Y-77256069D01*
X145459583Y-77256069D02*
X145316726Y-77303688D01*
X145316726Y-77303688D02*
X145269107Y-77351307D01*
X144316726Y-78256069D02*
X144888154Y-78256069D01*
X144602440Y-78256069D02*
X144602440Y-77256069D01*
X144602440Y-77256069D02*
X144697678Y-77398926D01*
X144697678Y-77398926D02*
X144792916Y-77494164D01*
X144792916Y-77494164D02*
X144888154Y-77541783D01*
X143983392Y-77256069D02*
X143364345Y-77256069D01*
X143364345Y-77256069D02*
X143697678Y-77637021D01*
X143697678Y-77637021D02*
X143554821Y-77637021D01*
X143554821Y-77637021D02*
X143459583Y-77684640D01*
X143459583Y-77684640D02*
X143411964Y-77732259D01*
X143411964Y-77732259D02*
X143364345Y-77827497D01*
X143364345Y-77827497D02*
X143364345Y-78065592D01*
X143364345Y-78065592D02*
X143411964Y-78160830D01*
X143411964Y-78160830D02*
X143459583Y-78208450D01*
X143459583Y-78208450D02*
X143554821Y-78256069D01*
X143554821Y-78256069D02*
X143840535Y-78256069D01*
X143840535Y-78256069D02*
X143935773Y-78208450D01*
X143935773Y-78208450D02*
X143983392Y-78160830D01*
X159911069Y-80041845D02*
X160720592Y-80041845D01*
X160720592Y-80041845D02*
X160815830Y-80089464D01*
X160815830Y-80089464D02*
X160863450Y-80137083D01*
X160863450Y-80137083D02*
X160911069Y-80232321D01*
X160911069Y-80232321D02*
X160911069Y-80422797D01*
X160911069Y-80422797D02*
X160863450Y-80518035D01*
X160863450Y-80518035D02*
X160815830Y-80565654D01*
X160815830Y-80565654D02*
X160720592Y-80613273D01*
X160720592Y-80613273D02*
X159911069Y-80613273D01*
X160911069Y-81613273D02*
X160911069Y-81041845D01*
X160911069Y-81327559D02*
X159911069Y-81327559D01*
X159911069Y-81327559D02*
X160053926Y-81232321D01*
X160053926Y-81232321D02*
X160149164Y-81137083D01*
X160149164Y-81137083D02*
X160196783Y-81041845D01*
X168541069Y-76417083D02*
X168541069Y-75940893D01*
X168541069Y-75940893D02*
X167541069Y-75940893D01*
X168541069Y-77274226D02*
X168541069Y-76702798D01*
X168541069Y-76988512D02*
X167541069Y-76988512D01*
X167541069Y-76988512D02*
X167683926Y-76893274D01*
X167683926Y-76893274D02*
X167779164Y-76798036D01*
X167779164Y-76798036D02*
X167826783Y-76702798D01*
X170185830Y-76307083D02*
X170233450Y-76259464D01*
X170233450Y-76259464D02*
X170281069Y-76116607D01*
X170281069Y-76116607D02*
X170281069Y-76021369D01*
X170281069Y-76021369D02*
X170233450Y-75878512D01*
X170233450Y-75878512D02*
X170138211Y-75783274D01*
X170138211Y-75783274D02*
X170042973Y-75735655D01*
X170042973Y-75735655D02*
X169852497Y-75688036D01*
X169852497Y-75688036D02*
X169709640Y-75688036D01*
X169709640Y-75688036D02*
X169519164Y-75735655D01*
X169519164Y-75735655D02*
X169423926Y-75783274D01*
X169423926Y-75783274D02*
X169328688Y-75878512D01*
X169328688Y-75878512D02*
X169281069Y-76021369D01*
X169281069Y-76021369D02*
X169281069Y-76116607D01*
X169281069Y-76116607D02*
X169328688Y-76259464D01*
X169328688Y-76259464D02*
X169376307Y-76307083D01*
X169376307Y-76688036D02*
X169328688Y-76735655D01*
X169328688Y-76735655D02*
X169281069Y-76830893D01*
X169281069Y-76830893D02*
X169281069Y-77068988D01*
X169281069Y-77068988D02*
X169328688Y-77164226D01*
X169328688Y-77164226D02*
X169376307Y-77211845D01*
X169376307Y-77211845D02*
X169471545Y-77259464D01*
X169471545Y-77259464D02*
X169566783Y-77259464D01*
X169566783Y-77259464D02*
X169709640Y-77211845D01*
X169709640Y-77211845D02*
X170281069Y-76640417D01*
X170281069Y-76640417D02*
X170281069Y-77259464D01*
X143175830Y-80608392D02*
X143223450Y-80560773D01*
X143223450Y-80560773D02*
X143271069Y-80417916D01*
X143271069Y-80417916D02*
X143271069Y-80322678D01*
X143271069Y-80322678D02*
X143223450Y-80179821D01*
X143223450Y-80179821D02*
X143128211Y-80084583D01*
X143128211Y-80084583D02*
X143032973Y-80036964D01*
X143032973Y-80036964D02*
X142842497Y-79989345D01*
X142842497Y-79989345D02*
X142699640Y-79989345D01*
X142699640Y-79989345D02*
X142509164Y-80036964D01*
X142509164Y-80036964D02*
X142413926Y-80084583D01*
X142413926Y-80084583D02*
X142318688Y-80179821D01*
X142318688Y-80179821D02*
X142271069Y-80322678D01*
X142271069Y-80322678D02*
X142271069Y-80417916D01*
X142271069Y-80417916D02*
X142318688Y-80560773D01*
X142318688Y-80560773D02*
X142366307Y-80608392D01*
X143271069Y-81560773D02*
X143271069Y-80989345D01*
X143271069Y-81275059D02*
X142271069Y-81275059D01*
X142271069Y-81275059D02*
X142413926Y-81179821D01*
X142413926Y-81179821D02*
X142509164Y-81084583D01*
X142509164Y-81084583D02*
X142556783Y-80989345D01*
X142604402Y-82417916D02*
X143271069Y-82417916D01*
X142223450Y-82179821D02*
X142937735Y-81941726D01*
X142937735Y-81941726D02*
X142937735Y-82560773D01*
X160509366Y-80063333D02*
X160542700Y-80030000D01*
X160542700Y-80030000D02*
X160576033Y-79930000D01*
X160576033Y-79930000D02*
X160576033Y-79863333D01*
X160576033Y-79863333D02*
X160542700Y-79763333D01*
X160542700Y-79763333D02*
X160476033Y-79696667D01*
X160476033Y-79696667D02*
X160409366Y-79663333D01*
X160409366Y-79663333D02*
X160276033Y-79630000D01*
X160276033Y-79630000D02*
X160176033Y-79630000D01*
X160176033Y-79630000D02*
X160042700Y-79663333D01*
X160042700Y-79663333D02*
X159976033Y-79696667D01*
X159976033Y-79696667D02*
X159909366Y-79763333D01*
X159909366Y-79763333D02*
X159876033Y-79863333D01*
X159876033Y-79863333D02*
X159876033Y-79930000D01*
X159876033Y-79930000D02*
X159909366Y-80030000D01*
X159909366Y-80030000D02*
X159942700Y-80063333D01*
X159876033Y-80696667D02*
X159876033Y-80363333D01*
X159876033Y-80363333D02*
X160209366Y-80330000D01*
X160209366Y-80330000D02*
X160176033Y-80363333D01*
X160176033Y-80363333D02*
X160142700Y-80430000D01*
X160142700Y-80430000D02*
X160142700Y-80596667D01*
X160142700Y-80596667D02*
X160176033Y-80663333D01*
X160176033Y-80663333D02*
X160209366Y-80696667D01*
X160209366Y-80696667D02*
X160276033Y-80730000D01*
X160276033Y-80730000D02*
X160442700Y-80730000D01*
X160442700Y-80730000D02*
X160509366Y-80696667D01*
X160509366Y-80696667D02*
X160542700Y-80663333D01*
X160542700Y-80663333D02*
X160576033Y-80596667D01*
X160576033Y-80596667D02*
X160576033Y-80430000D01*
X160576033Y-80430000D02*
X160542700Y-80363333D01*
X160542700Y-80363333D02*
X160509366Y-80330000D01*
D11*
X166696190Y-75551228D02*
X166696190Y-76027419D01*
X167029523Y-75027419D02*
X166696190Y-75551228D01*
X166696190Y-75551228D02*
X166362857Y-75027419D01*
X166124761Y-75027419D02*
X165505714Y-75027419D01*
X165505714Y-75027419D02*
X165839047Y-75408371D01*
X165839047Y-75408371D02*
X165696190Y-75408371D01*
X165696190Y-75408371D02*
X165600952Y-75455990D01*
X165600952Y-75455990D02*
X165553333Y-75503609D01*
X165553333Y-75503609D02*
X165505714Y-75598847D01*
X165505714Y-75598847D02*
X165505714Y-75836942D01*
X165505714Y-75836942D02*
X165553333Y-75932180D01*
X165553333Y-75932180D02*
X165600952Y-75979800D01*
X165600952Y-75979800D02*
X165696190Y-76027419D01*
X165696190Y-76027419D02*
X165981904Y-76027419D01*
X165981904Y-76027419D02*
X166077142Y-75979800D01*
X166077142Y-75979800D02*
X166124761Y-75932180D01*
D10*
X139245830Y-81188392D02*
X139293450Y-81140773D01*
X139293450Y-81140773D02*
X139341069Y-80997916D01*
X139341069Y-80997916D02*
X139341069Y-80902678D01*
X139341069Y-80902678D02*
X139293450Y-80759821D01*
X139293450Y-80759821D02*
X139198211Y-80664583D01*
X139198211Y-80664583D02*
X139102973Y-80616964D01*
X139102973Y-80616964D02*
X138912497Y-80569345D01*
X138912497Y-80569345D02*
X138769640Y-80569345D01*
X138769640Y-80569345D02*
X138579164Y-80616964D01*
X138579164Y-80616964D02*
X138483926Y-80664583D01*
X138483926Y-80664583D02*
X138388688Y-80759821D01*
X138388688Y-80759821D02*
X138341069Y-80902678D01*
X138341069Y-80902678D02*
X138341069Y-80997916D01*
X138341069Y-80997916D02*
X138388688Y-81140773D01*
X138388688Y-81140773D02*
X138436307Y-81188392D01*
X139341069Y-82140773D02*
X139341069Y-81569345D01*
X139341069Y-81855059D02*
X138341069Y-81855059D01*
X138341069Y-81855059D02*
X138483926Y-81759821D01*
X138483926Y-81759821D02*
X138579164Y-81664583D01*
X138579164Y-81664583D02*
X138626783Y-81569345D01*
X138341069Y-83045535D02*
X138341069Y-82569345D01*
X138341069Y-82569345D02*
X138817259Y-82521726D01*
X138817259Y-82521726D02*
X138769640Y-82569345D01*
X138769640Y-82569345D02*
X138722021Y-82664583D01*
X138722021Y-82664583D02*
X138722021Y-82902678D01*
X138722021Y-82902678D02*
X138769640Y-82997916D01*
X138769640Y-82997916D02*
X138817259Y-83045535D01*
X138817259Y-83045535D02*
X138912497Y-83093154D01*
X138912497Y-83093154D02*
X139150592Y-83093154D01*
X139150592Y-83093154D02*
X139245830Y-83045535D01*
X139245830Y-83045535D02*
X139293450Y-82997916D01*
X139293450Y-82997916D02*
X139341069Y-82902678D01*
X139341069Y-82902678D02*
X139341069Y-82664583D01*
X139341069Y-82664583D02*
X139293450Y-82569345D01*
X139293450Y-82569345D02*
X139245830Y-82521726D01*
X151465830Y-83080892D02*
X151513450Y-83033273D01*
X151513450Y-83033273D02*
X151561069Y-82890416D01*
X151561069Y-82890416D02*
X151561069Y-82795178D01*
X151561069Y-82795178D02*
X151513450Y-82652321D01*
X151513450Y-82652321D02*
X151418211Y-82557083D01*
X151418211Y-82557083D02*
X151322973Y-82509464D01*
X151322973Y-82509464D02*
X151132497Y-82461845D01*
X151132497Y-82461845D02*
X150989640Y-82461845D01*
X150989640Y-82461845D02*
X150799164Y-82509464D01*
X150799164Y-82509464D02*
X150703926Y-82557083D01*
X150703926Y-82557083D02*
X150608688Y-82652321D01*
X150608688Y-82652321D02*
X150561069Y-82795178D01*
X150561069Y-82795178D02*
X150561069Y-82890416D01*
X150561069Y-82890416D02*
X150608688Y-83033273D01*
X150608688Y-83033273D02*
X150656307Y-83080892D01*
X151561069Y-84033273D02*
X151561069Y-83461845D01*
X151561069Y-83747559D02*
X150561069Y-83747559D01*
X150561069Y-83747559D02*
X150703926Y-83652321D01*
X150703926Y-83652321D02*
X150799164Y-83557083D01*
X150799164Y-83557083D02*
X150846783Y-83461845D01*
X150656307Y-84414226D02*
X150608688Y-84461845D01*
X150608688Y-84461845D02*
X150561069Y-84557083D01*
X150561069Y-84557083D02*
X150561069Y-84795178D01*
X150561069Y-84795178D02*
X150608688Y-84890416D01*
X150608688Y-84890416D02*
X150656307Y-84938035D01*
X150656307Y-84938035D02*
X150751545Y-84985654D01*
X150751545Y-84985654D02*
X150846783Y-84985654D01*
X150846783Y-84985654D02*
X150989640Y-84938035D01*
X150989640Y-84938035D02*
X151561069Y-84366607D01*
X151561069Y-84366607D02*
X151561069Y-84985654D01*
X157472916Y-81970830D02*
X157520535Y-82018450D01*
X157520535Y-82018450D02*
X157663392Y-82066069D01*
X157663392Y-82066069D02*
X157758630Y-82066069D01*
X157758630Y-82066069D02*
X157901487Y-82018450D01*
X157901487Y-82018450D02*
X157996725Y-81923211D01*
X157996725Y-81923211D02*
X158044344Y-81827973D01*
X158044344Y-81827973D02*
X158091963Y-81637497D01*
X158091963Y-81637497D02*
X158091963Y-81494640D01*
X158091963Y-81494640D02*
X158044344Y-81304164D01*
X158044344Y-81304164D02*
X157996725Y-81208926D01*
X157996725Y-81208926D02*
X157901487Y-81113688D01*
X157901487Y-81113688D02*
X157758630Y-81066069D01*
X157758630Y-81066069D02*
X157663392Y-81066069D01*
X157663392Y-81066069D02*
X157520535Y-81113688D01*
X157520535Y-81113688D02*
X157472916Y-81161307D01*
X156901487Y-81494640D02*
X156996725Y-81447021D01*
X156996725Y-81447021D02*
X157044344Y-81399402D01*
X157044344Y-81399402D02*
X157091963Y-81304164D01*
X157091963Y-81304164D02*
X157091963Y-81256545D01*
X157091963Y-81256545D02*
X157044344Y-81161307D01*
X157044344Y-81161307D02*
X156996725Y-81113688D01*
X156996725Y-81113688D02*
X156901487Y-81066069D01*
X156901487Y-81066069D02*
X156711011Y-81066069D01*
X156711011Y-81066069D02*
X156615773Y-81113688D01*
X156615773Y-81113688D02*
X156568154Y-81161307D01*
X156568154Y-81161307D02*
X156520535Y-81256545D01*
X156520535Y-81256545D02*
X156520535Y-81304164D01*
X156520535Y-81304164D02*
X156568154Y-81399402D01*
X156568154Y-81399402D02*
X156615773Y-81447021D01*
X156615773Y-81447021D02*
X156711011Y-81494640D01*
X156711011Y-81494640D02*
X156901487Y-81494640D01*
X156901487Y-81494640D02*
X156996725Y-81542259D01*
X156996725Y-81542259D02*
X157044344Y-81589878D01*
X157044344Y-81589878D02*
X157091963Y-81685116D01*
X157091963Y-81685116D02*
X157091963Y-81875592D01*
X157091963Y-81875592D02*
X157044344Y-81970830D01*
X157044344Y-81970830D02*
X156996725Y-82018450D01*
X156996725Y-82018450D02*
X156901487Y-82066069D01*
X156901487Y-82066069D02*
X156711011Y-82066069D01*
X156711011Y-82066069D02*
X156615773Y-82018450D01*
X156615773Y-82018450D02*
X156568154Y-81970830D01*
X156568154Y-81970830D02*
X156520535Y-81875592D01*
X156520535Y-81875592D02*
X156520535Y-81685116D01*
X156520535Y-81685116D02*
X156568154Y-81589878D01*
X156568154Y-81589878D02*
X156615773Y-81542259D01*
X156615773Y-81542259D02*
X156711011Y-81494640D01*
D12*
X155681267Y-83700000D02*
X155338733Y-83700000D01*
X155681267Y-82680000D02*
X155338733Y-82680000D01*
X155646267Y-85340000D02*
X155353733Y-85340000D01*
X155646267Y-84320000D02*
X155353733Y-84320000D01*
X156737517Y-79451250D02*
X156394983Y-79451250D01*
X156737517Y-78431250D02*
X156394983Y-78431250D01*
X141357517Y-79511250D02*
X141014983Y-79511250D01*
X141357517Y-78491250D02*
X141014983Y-78491250D01*
X148037517Y-79461250D02*
X147694983Y-79461250D01*
X148037517Y-78441250D02*
X147694983Y-78441250D01*
X169316250Y-82970017D02*
X169316250Y-82677483D01*
X170336250Y-82970017D02*
X170336250Y-82677483D01*
X158516250Y-78497085D02*
X158516250Y-78265415D01*
X159236250Y-78497085D02*
X159236250Y-78265415D01*
X153256250Y-80925415D02*
X153256250Y-81157085D01*
X152536250Y-80925415D02*
X152536250Y-81157085D01*
X158476250Y-82695017D02*
X158476250Y-82352483D01*
X159496250Y-82695017D02*
X159496250Y-82352483D01*
X152167517Y-79461250D02*
X151824983Y-79461250D01*
X152167517Y-78441250D02*
X151824983Y-78441250D01*
D13*
X197136250Y-46583750D02*
X191166250Y-46583750D01*
X156896250Y-46543750D02*
X150906250Y-46543750D01*
X153876250Y-43553750D02*
X153876250Y-49543750D01*
D12*
X167536250Y-82970017D02*
X167536250Y-82677483D01*
X168556250Y-82970017D02*
X168556250Y-82677483D01*
X152052085Y-76701250D02*
X151820415Y-76701250D01*
X152052085Y-75981250D02*
X151820415Y-75981250D01*
X155232085Y-80781250D02*
X155000415Y-80781250D01*
X155232085Y-80061250D02*
X155000415Y-80061250D01*
X144742085Y-79321250D02*
X144510415Y-79321250D01*
X144742085Y-78601250D02*
X144510415Y-78601250D01*
X166106250Y-78653750D02*
X165706250Y-78653750D01*
X166106250Y-79053750D02*
X166106250Y-78653750D01*
X161806250Y-79053750D02*
X161806250Y-78403750D01*
X166106250Y-82553750D02*
X166106250Y-82953750D01*
X161806250Y-82553750D02*
X161806250Y-82953750D01*
X166106250Y-82953750D02*
X165706250Y-82953750D01*
X161806250Y-82953750D02*
X162206250Y-82953750D01*
X168576250Y-79032483D02*
X168576250Y-79375017D01*
X167556250Y-79032483D02*
X167556250Y-79375017D01*
X126592500Y-80990000D02*
X126592500Y-79880000D01*
X130302500Y-80990000D02*
X130302500Y-79880000D01*
X131352500Y-79290000D02*
X130852500Y-79040000D01*
X130852500Y-79040000D02*
X131352500Y-78790000D01*
X131352500Y-78790000D02*
X131352500Y-79290000D01*
X126592500Y-78200000D02*
X126592500Y-77090000D01*
X130302500Y-78200000D02*
X130302500Y-77090000D01*
X170336250Y-79039983D02*
X170336250Y-79332517D01*
X169316250Y-79039983D02*
X169316250Y-79332517D01*
X144406250Y-81085415D02*
X144406250Y-81317085D01*
X143686250Y-81085415D02*
X143686250Y-81317085D01*
X159836250Y-78497085D02*
X159836250Y-78265415D01*
X160556250Y-78497085D02*
X160556250Y-78265415D01*
D11*
X165096250Y-76543750D02*
X162696250Y-76543750D01*
X165096250Y-74543750D02*
X165096250Y-76543750D01*
X162696250Y-76543750D02*
X162696250Y-74543750D01*
X162696250Y-74543750D02*
X165096250Y-74543750D01*
D12*
X140826250Y-81684983D02*
X140826250Y-81977517D01*
X139806250Y-81684983D02*
X139806250Y-81977517D01*
X151466250Y-80925415D02*
X151466250Y-81157085D01*
X150746250Y-80925415D02*
X150746250Y-81157085D01*
X155232085Y-81991250D02*
X155000415Y-81991250D01*
X155232085Y-81271250D02*
X155000415Y-81271250D01*
%LPC*%
D14*
X160170000Y-76920000D02*
X158970000Y-76930000D01*
X158970000Y-73650000D01*
X126560000Y-73650000D01*
X126560000Y-72380000D01*
X160170000Y-72380000D01*
X160170000Y-76920000D01*
G36*
X160170000Y-76920000D02*
G01*
X158970000Y-76930000D01*
X158970000Y-73650000D01*
X126560000Y-73650000D01*
X126560000Y-72380000D01*
X160170000Y-72380000D01*
X160170000Y-76920000D01*
G37*
X160210000Y-87430000D02*
X126550000Y-87430000D01*
X126550000Y-86240000D01*
X158960000Y-86260000D01*
X158960000Y-84820000D01*
X160210000Y-84810000D01*
X160210000Y-87430000D01*
G36*
X160210000Y-87430000D02*
G01*
X126550000Y-87430000D01*
X126550000Y-86240000D01*
X158960000Y-86260000D01*
X158960000Y-84820000D01*
X160210000Y-84810000D01*
X160210000Y-87430000D01*
G37*
D15*
X160166250Y-69483750D03*
D16*
X155300000Y-39200000D03*
D17*
X152800000Y-39200000D03*
D18*
X129140000Y-37690000D03*
X217040000Y-37690000D03*
X129076250Y-89513750D03*
D15*
X145306250Y-64163750D03*
D19*
X130910000Y-56570000D03*
D20*
X130910000Y-59070000D03*
D19*
X130900000Y-47360000D03*
D20*
X130900000Y-49860000D03*
D21*
X217477500Y-54810000D03*
D22*
X214777500Y-53810000D03*
X214777500Y-48810000D03*
D21*
X217477500Y-47810000D03*
D23*
X215220000Y-75860000D03*
D24*
X215220000Y-73360000D03*
X215220000Y-70860000D03*
D25*
X191280000Y-37930000D03*
X188280000Y-37930000D03*
D23*
X215295000Y-64490000D03*
D24*
X215295000Y-61990000D03*
X215295000Y-59490000D03*
D26*
X156385000Y-83190000D03*
X154635000Y-83190000D03*
D27*
X156362500Y-84830000D03*
X154637500Y-84830000D03*
D26*
X157441250Y-78941250D03*
X155691250Y-78941250D03*
X142061250Y-79001250D03*
X140311250Y-79001250D03*
X148741250Y-78951250D03*
X146991250Y-78951250D03*
D28*
X169826250Y-83686250D03*
X169826250Y-81961250D03*
D29*
X158876250Y-78948750D03*
X158876250Y-77813750D03*
D30*
X152896250Y-80473750D03*
X152896250Y-81608750D03*
D31*
X158986250Y-83398750D03*
X158986250Y-81648750D03*
D26*
X152871250Y-78951250D03*
X151121250Y-78951250D03*
D32*
X200746250Y-46553750D03*
X147046250Y-46553750D03*
D33*
X139646250Y-56253750D03*
X138196250Y-46553750D03*
X209596250Y-46553750D03*
D28*
X168046250Y-83686250D03*
X168046250Y-81961250D03*
D34*
X152503750Y-76341250D03*
X151368750Y-76341250D03*
X155683750Y-80421250D03*
X154548750Y-80421250D03*
X145193750Y-78961250D03*
X144058750Y-78961250D03*
D35*
X162706250Y-78803750D03*
X163206250Y-78803750D03*
D36*
X164968750Y-79791250D03*
X164293750Y-79791250D03*
X163618750Y-79791250D03*
X162943750Y-79791250D03*
D15*
X164631250Y-80128750D03*
X163281250Y-80128750D03*
D36*
X164968750Y-80466250D03*
X164293750Y-80466250D03*
X163618750Y-80466250D03*
X162943750Y-80466250D03*
X164968750Y-81141250D03*
X164293750Y-81141250D03*
X163618750Y-81141250D03*
X162943750Y-81141250D03*
D15*
X164631250Y-81478750D03*
X163281250Y-81478750D03*
D36*
X164968750Y-81816250D03*
X164293750Y-81816250D03*
X163618750Y-81816250D03*
X162943750Y-81816250D03*
D35*
X163706250Y-78803750D03*
X164206250Y-78803750D03*
X164706250Y-78803750D03*
X165206250Y-78803750D03*
D37*
X165956250Y-79553750D03*
X165956250Y-80053750D03*
X165956250Y-80553750D03*
X165956250Y-81053750D03*
X165956250Y-81553750D03*
X165956250Y-82053750D03*
D35*
X165206250Y-82803750D03*
X164706250Y-82803750D03*
X164206250Y-82803750D03*
X163706250Y-82803750D03*
X163206250Y-82803750D03*
X162706250Y-82803750D03*
D37*
X161956250Y-82053750D03*
X161956250Y-81553750D03*
X161956250Y-81053750D03*
X161956250Y-80553750D03*
X161956250Y-80053750D03*
X161956250Y-79553750D03*
D38*
X168066250Y-78328750D03*
X168066250Y-80078750D03*
D39*
X128392500Y-79040000D03*
D40*
X128592500Y-81865000D03*
X128592500Y-76215000D03*
D41*
X169826250Y-78323750D03*
X169826250Y-80048750D03*
D30*
X144046250Y-80633750D03*
X144046250Y-81768750D03*
D29*
X160196250Y-78948750D03*
X160196250Y-77813750D03*
D42*
X164571250Y-76068750D03*
X163221250Y-76068750D03*
X163221250Y-75018750D03*
X164571250Y-75018750D03*
D41*
X140316250Y-80968750D03*
X140316250Y-82693750D03*
D30*
X151106250Y-80473750D03*
X151106250Y-81608750D03*
D34*
X155683750Y-81631250D03*
X154548750Y-81631250D03*
%LPD*%
M02*
