G04 #@! TF.GenerationSoftware,KiCad,Pcbnew,7.0.11-2.fc39*
G04 #@! TF.CreationDate,2024-05-02T20:43:30+03:00*
G04 #@! TF.ProjectId,mainboard_v1.1,6d61696e-626f-4617-9264-5f76312e312e,rev?*
G04 #@! TF.SameCoordinates,Original*
G04 #@! TF.FileFunction,Soldermask,Bot*
G04 #@! TF.FilePolarity,Negative*
%FSLAX46Y46*%
G04 Gerber Fmt 4.6, Leading zero omitted, Abs format (unit mm)*
G04 Created by KiCad (PCBNEW 7.0.11-2.fc39) date 2024-05-02 20:43:30*
%MOMM*%
%LPD*%
G01*
G04 APERTURE LIST*
G04 Aperture macros list*
%AMRoundRect*
0 Rectangle with rounded corners*
0 $1 Rounding radius*
0 $2 $3 $4 $5 $6 $7 $8 $9 X,Y pos of 4 corners*
0 Add a 4 corners polygon primitive as box body*
4,1,4,$2,$3,$4,$5,$6,$7,$8,$9,$2,$3,0*
0 Add four circle primitives for the rounded corners*
1,1,$1+$1,$2,$3*
1,1,$1+$1,$4,$5*
1,1,$1+$1,$6,$7*
1,1,$1+$1,$8,$9*
0 Add four rect primitives between the rounded corners*
20,1,$1+$1,$2,$3,$4,$5,0*
20,1,$1+$1,$4,$5,$6,$7,0*
20,1,$1+$1,$6,$7,$8,$9,0*
20,1,$1+$1,$8,$9,$2,$3,0*%
G04 Aperture macros list end*
%ADD10C,0.200000*%
%ADD11C,0.776000*%
%ADD12RoundRect,0.261176X0.626824X0.776824X-0.626824X0.776824X-0.626824X-0.776824X0.626824X-0.776824X0*%
%ADD13O,1.776000X2.076000*%
%ADD14C,2.276000*%
%ADD15RoundRect,0.261176X-0.776824X0.626824X-0.776824X-0.626824X0.776824X-0.626824X0.776824X0.626824X0*%
%ADD16O,2.076000X1.776000*%
%ADD17O,1.976000X1.276000*%
%ADD18C,1.526000*%
%ADD19RoundRect,0.261176X0.751824X-0.626824X0.751824X0.626824X-0.751824X0.626824X-0.751824X-0.626824X0*%
%ADD20O,2.026000X1.776000*%
%ADD21C,0.976000*%
%ADD22RoundRect,0.256500X0.306500X0.256500X-0.306500X0.256500X-0.306500X-0.256500X0.306500X-0.256500X0*%
%ADD23RoundRect,0.256500X0.319000X0.256500X-0.319000X0.256500X-0.319000X-0.256500X0.319000X-0.256500X0*%
%ADD24RoundRect,0.256500X0.256500X-0.319000X0.256500X0.319000X-0.256500X0.319000X-0.256500X-0.319000X0*%
%ADD25RoundRect,0.174000X0.174000X-0.231500X0.174000X0.231500X-0.174000X0.231500X-0.174000X-0.231500X0*%
%ADD26RoundRect,0.174000X-0.174000X0.231500X-0.174000X-0.231500X0.174000X-0.231500X0.174000X0.231500X0*%
%ADD27RoundRect,0.256500X0.256500X-0.306500X0.256500X0.306500X-0.256500X0.306500X-0.256500X-0.306500X0*%
%ADD28C,4.576000*%
%ADD29C,3.076000*%
%ADD30RoundRect,0.174000X0.231500X0.174000X-0.231500X0.174000X-0.231500X-0.174000X0.231500X-0.174000X0*%
%ADD31RoundRect,0.038000X0.150000X0.400000X-0.150000X0.400000X-0.150000X-0.400000X0.150000X-0.400000X0*%
%ADD32RoundRect,0.038000X-0.337500X0.337500X-0.337500X-0.337500X0.337500X-0.337500X0.337500X0.337500X0*%
%ADD33RoundRect,0.038000X-0.400000X0.150000X-0.400000X-0.150000X0.400000X-0.150000X0.400000X0.150000X0*%
%ADD34RoundRect,0.256500X-0.256500X0.306500X-0.256500X-0.306500X0.256500X-0.306500X0.256500X0.306500X0*%
%ADD35RoundRect,0.038000X1.800000X-0.635000X1.800000X0.635000X-1.800000X0.635000X-1.800000X-0.635000X0*%
%ADD36RoundRect,0.038000X2.100000X-0.675000X2.100000X0.675000X-2.100000X0.675000X-2.100000X-0.675000X0*%
%ADD37RoundRect,0.256500X-0.256500X0.319000X-0.256500X-0.319000X0.256500X-0.319000X0.256500X0.319000X0*%
%ADD38RoundRect,0.038000X0.425000X0.375000X-0.425000X0.375000X-0.425000X-0.375000X0.425000X-0.375000X0*%
G04 APERTURE END LIST*
D10*
X160170000Y-76920000D02*
X158970000Y-76930000D01*
X158970000Y-73650000D01*
X126560000Y-73650000D01*
X126560000Y-72380000D01*
X160170000Y-72380000D01*
X160170000Y-76920000D01*
G36*
X160170000Y-76920000D02*
G01*
X158970000Y-76930000D01*
X158970000Y-73650000D01*
X126560000Y-73650000D01*
X126560000Y-72380000D01*
X160170000Y-72380000D01*
X160170000Y-76920000D01*
G37*
X160210000Y-87430000D02*
X126550000Y-87430000D01*
X126550000Y-86240000D01*
X158960000Y-86260000D01*
X158960000Y-84820000D01*
X160210000Y-84810000D01*
X160210000Y-87430000D01*
G36*
X160210000Y-87430000D02*
G01*
X126550000Y-87430000D01*
X126550000Y-86240000D01*
X158960000Y-86260000D01*
X158960000Y-84820000D01*
X160210000Y-84810000D01*
X160210000Y-87430000D01*
G37*
D11*
X160166250Y-69483750D03*
D12*
X155300000Y-39200000D03*
D13*
X152800000Y-39200000D03*
D14*
X129140000Y-37690000D03*
X217040000Y-37690000D03*
X129076250Y-89513750D03*
D11*
X145306250Y-64163750D03*
D15*
X130910000Y-56570000D03*
D16*
X130910000Y-59070000D03*
D15*
X130900000Y-47360000D03*
D16*
X130900000Y-49860000D03*
D17*
X217477500Y-54810000D03*
D18*
X214777500Y-53810000D03*
X214777500Y-48810000D03*
D17*
X217477500Y-47810000D03*
D19*
X215220000Y-75860000D03*
D20*
X215220000Y-73360000D03*
X215220000Y-70860000D03*
D21*
X191280000Y-37930000D03*
X188280000Y-37930000D03*
D19*
X215295000Y-64490000D03*
D20*
X215295000Y-61990000D03*
X215295000Y-59490000D03*
D22*
X156385000Y-83190000D03*
X154635000Y-83190000D03*
D23*
X156362500Y-84830000D03*
X154637500Y-84830000D03*
D22*
X157441250Y-78941250D03*
X155691250Y-78941250D03*
X142061250Y-79001250D03*
X140311250Y-79001250D03*
X148741250Y-78951250D03*
X146991250Y-78951250D03*
D24*
X169826250Y-83686250D03*
X169826250Y-81961250D03*
D25*
X158876250Y-78948750D03*
X158876250Y-77813750D03*
D26*
X152896250Y-80473750D03*
X152896250Y-81608750D03*
D27*
X158986250Y-83398750D03*
X158986250Y-81648750D03*
D22*
X152871250Y-78951250D03*
X151121250Y-78951250D03*
D28*
X200746250Y-46553750D03*
X147046250Y-46553750D03*
D29*
X139646250Y-56253750D03*
X138196250Y-46553750D03*
X209596250Y-46553750D03*
D24*
X168046250Y-83686250D03*
X168046250Y-81961250D03*
D30*
X152503750Y-76341250D03*
X151368750Y-76341250D03*
X155683750Y-80421250D03*
X154548750Y-80421250D03*
X145193750Y-78961250D03*
X144058750Y-78961250D03*
D31*
X162706250Y-78803750D03*
X163206250Y-78803750D03*
D32*
X164968750Y-79791250D03*
X164293750Y-79791250D03*
X163618750Y-79791250D03*
X162943750Y-79791250D03*
D11*
X164631250Y-80128750D03*
X163281250Y-80128750D03*
D32*
X164968750Y-80466250D03*
X164293750Y-80466250D03*
X163618750Y-80466250D03*
X162943750Y-80466250D03*
X164968750Y-81141250D03*
X164293750Y-81141250D03*
X163618750Y-81141250D03*
X162943750Y-81141250D03*
D11*
X164631250Y-81478750D03*
X163281250Y-81478750D03*
D32*
X164968750Y-81816250D03*
X164293750Y-81816250D03*
X163618750Y-81816250D03*
X162943750Y-81816250D03*
D31*
X163706250Y-78803750D03*
X164206250Y-78803750D03*
X164706250Y-78803750D03*
X165206250Y-78803750D03*
D33*
X165956250Y-79553750D03*
X165956250Y-80053750D03*
X165956250Y-80553750D03*
X165956250Y-81053750D03*
X165956250Y-81553750D03*
X165956250Y-82053750D03*
D31*
X165206250Y-82803750D03*
X164706250Y-82803750D03*
X164206250Y-82803750D03*
X163706250Y-82803750D03*
X163206250Y-82803750D03*
X162706250Y-82803750D03*
D33*
X161956250Y-82053750D03*
X161956250Y-81553750D03*
X161956250Y-81053750D03*
X161956250Y-80553750D03*
X161956250Y-80053750D03*
X161956250Y-79553750D03*
D34*
X168066250Y-78328750D03*
X168066250Y-80078750D03*
D35*
X128392500Y-79040000D03*
D36*
X128592500Y-81865000D03*
X128592500Y-76215000D03*
D37*
X169826250Y-78323750D03*
X169826250Y-80048750D03*
D26*
X144046250Y-80633750D03*
X144046250Y-81768750D03*
D25*
X160196250Y-78948750D03*
X160196250Y-77813750D03*
D38*
X164571250Y-76068750D03*
X163221250Y-76068750D03*
X163221250Y-75018750D03*
X164571250Y-75018750D03*
D37*
X140316250Y-80968750D03*
X140316250Y-82693750D03*
D26*
X151106250Y-80473750D03*
X151106250Y-81608750D03*
D30*
X155683750Y-81631250D03*
X154548750Y-81631250D03*
M02*
