G04 #@! TF.GenerationSoftware,KiCad,Pcbnew,7.0.11-2.fc39*
G04 #@! TF.CreationDate,2024-05-02T20:43:30+03:00*
G04 #@! TF.ProjectId,mainboard_v1.1,6d61696e-626f-4617-9264-5f76312e312e,rev?*
G04 #@! TF.SameCoordinates,Original*
G04 #@! TF.FileFunction,Copper,L3,Inr*
G04 #@! TF.FilePolarity,Positive*
%FSLAX46Y46*%
G04 Gerber Fmt 4.6, Leading zero omitted, Abs format (unit mm)*
G04 Created by KiCad (PCBNEW 7.0.11-2.fc39) date 2024-05-02 20:43:30*
%MOMM*%
%LPD*%
G01*
G04 APERTURE LIST*
G04 Aperture macros list*
%AMRoundRect*
0 Rectangle with rounded corners*
0 $1 Rounding radius*
0 $2 $3 $4 $5 $6 $7 $8 $9 X,Y pos of 4 corners*
0 Add a 4 corners polygon primitive as box body*
4,1,4,$2,$3,$4,$5,$6,$7,$8,$9,$2,$3,0*
0 Add four circle primitives for the rounded corners*
1,1,$1+$1,$2,$3*
1,1,$1+$1,$4,$5*
1,1,$1+$1,$6,$7*
1,1,$1+$1,$8,$9*
0 Add four rect primitives between the rounded corners*
20,1,$1+$1,$2,$3,$4,$5,0*
20,1,$1+$1,$4,$5,$6,$7,0*
20,1,$1+$1,$6,$7,$8,$9,0*
20,1,$1+$1,$8,$9,$2,$3,0*%
G04 Aperture macros list end*
G04 #@! TA.AperFunction,ComponentPad*
%ADD10C,0.700000*%
G04 #@! TD*
G04 #@! TA.AperFunction,ComponentPad*
%ADD11RoundRect,0.250000X0.600000X0.750000X-0.600000X0.750000X-0.600000X-0.750000X0.600000X-0.750000X0*%
G04 #@! TD*
G04 #@! TA.AperFunction,ComponentPad*
%ADD12O,1.700000X2.000000*%
G04 #@! TD*
G04 #@! TA.AperFunction,ComponentPad*
%ADD13RoundRect,0.250000X-0.750000X0.600000X-0.750000X-0.600000X0.750000X-0.600000X0.750000X0.600000X0*%
G04 #@! TD*
G04 #@! TA.AperFunction,ComponentPad*
%ADD14O,2.000000X1.700000*%
G04 #@! TD*
G04 #@! TA.AperFunction,ComponentPad*
%ADD15O,1.900000X1.200000*%
G04 #@! TD*
G04 #@! TA.AperFunction,ComponentPad*
%ADD16C,1.450000*%
G04 #@! TD*
G04 #@! TA.AperFunction,ComponentPad*
%ADD17RoundRect,0.250000X0.725000X-0.600000X0.725000X0.600000X-0.725000X0.600000X-0.725000X-0.600000X0*%
G04 #@! TD*
G04 #@! TA.AperFunction,ComponentPad*
%ADD18O,1.950000X1.700000*%
G04 #@! TD*
G04 #@! TA.AperFunction,ComponentPad*
%ADD19C,3.000000*%
G04 #@! TD*
G04 #@! TA.AperFunction,ViaPad*
%ADD20C,0.700000*%
G04 #@! TD*
G04 #@! TA.AperFunction,ViaPad*
%ADD21C,0.800000*%
G04 #@! TD*
G04 APERTURE END LIST*
D10*
X160166250Y-69483750D03*
D11*
X155300000Y-39200000D03*
D12*
X152800000Y-39200000D03*
D10*
X145306250Y-64163750D03*
D13*
X130910000Y-56570000D03*
D14*
X130910000Y-59070000D03*
D13*
X130900000Y-47360000D03*
D14*
X130900000Y-49860000D03*
D15*
X217477500Y-54810000D03*
D16*
X214777500Y-53810000D03*
X214777500Y-48810000D03*
D15*
X217477500Y-47810000D03*
D17*
X215220000Y-75860000D03*
D18*
X215220000Y-73360000D03*
X215220000Y-70860000D03*
D17*
X215295000Y-64490000D03*
D18*
X215295000Y-61990000D03*
X215295000Y-59490000D03*
D19*
X138196250Y-46553750D03*
X209596250Y-46553750D03*
D10*
X164631250Y-80128750D03*
X163281250Y-80128750D03*
X164631250Y-81478750D03*
X163281250Y-81478750D03*
D20*
X155506250Y-48133750D03*
D21*
X144000000Y-73050000D03*
D20*
X148093750Y-63093750D03*
D21*
X128560000Y-77510000D03*
X152760000Y-37340000D03*
D20*
X167140000Y-62590000D03*
D21*
X182670000Y-54010000D03*
X150930000Y-39140000D03*
D20*
X143946250Y-66123750D03*
D21*
X155890000Y-73050000D03*
D20*
X163360000Y-45190000D03*
X184190000Y-61610000D03*
X193430000Y-40270000D03*
X184440000Y-47490000D03*
X198340000Y-61010000D03*
X130870000Y-54740000D03*
X167229665Y-42798741D03*
X127580000Y-69420000D03*
X154250000Y-65320000D03*
D21*
X162218750Y-77531250D03*
D20*
X161410000Y-57640000D03*
D21*
X168980000Y-84930000D03*
X213380000Y-70950000D03*
X159550000Y-85540000D03*
X182840000Y-36970000D03*
D20*
X153240000Y-44770000D03*
X139420000Y-61350000D03*
D21*
X159590000Y-86800000D03*
X151810000Y-73030000D03*
X169510000Y-51480000D03*
D20*
X184410000Y-55350000D03*
D21*
X139830000Y-73050000D03*
X152030000Y-82700000D03*
X131750000Y-73080000D03*
D20*
X205980000Y-55475000D03*
D21*
X153120000Y-84450000D03*
X214050000Y-81490000D03*
X214080000Y-49740000D03*
X127450000Y-86930000D03*
X196716250Y-49816250D03*
X139700000Y-86890000D03*
X165326750Y-77523750D03*
X159550000Y-74790000D03*
X211170000Y-81520000D03*
X135660000Y-73050000D03*
X131350000Y-81790000D03*
D20*
X132870000Y-56520000D03*
X136376250Y-64233750D03*
X190522500Y-39170000D03*
X181170000Y-52620000D03*
D21*
X128600000Y-74870000D03*
X141530000Y-82750000D03*
D20*
X128890000Y-56530000D03*
D21*
X167820000Y-55810000D03*
X171150000Y-80170000D03*
X145130000Y-82050000D03*
D20*
X177280000Y-48260000D03*
X182440000Y-47490000D03*
X202910000Y-49510000D03*
D21*
X127860000Y-73040000D03*
X193086250Y-58356250D03*
D20*
X164440000Y-69390000D03*
D21*
X159480000Y-73010000D03*
D20*
X164540000Y-42790000D03*
X164740000Y-66190000D03*
D21*
X155890000Y-86890000D03*
X170970000Y-57010000D03*
D20*
X213480000Y-59370000D03*
D21*
X147850000Y-73050000D03*
X151870000Y-86870000D03*
D20*
X163696250Y-77103750D03*
D21*
X135490000Y-86850000D03*
X157720000Y-77350000D03*
D20*
X195190000Y-61010000D03*
D21*
X187482500Y-46640000D03*
X128580000Y-80530000D03*
X148020000Y-86930000D03*
X143660000Y-86890000D03*
X152700000Y-41410000D03*
X159590000Y-76270000D03*
X131530000Y-86890000D03*
D20*
X181220000Y-49880000D03*
D21*
X131410000Y-76210000D03*
X128560000Y-83240000D03*
D20*
X180140000Y-47490000D03*
X162270000Y-53650000D03*
X159040000Y-71490000D03*
X166237500Y-52982500D03*
D21*
X160216250Y-84213750D03*
X165980000Y-87730000D03*
D20*
X174000000Y-75380000D03*
D21*
X164640000Y-73440000D03*
D20*
X195302500Y-40030000D03*
X174810000Y-52120000D03*
X186290000Y-40550000D03*
D21*
X200266250Y-56346250D03*
D20*
X196436250Y-39996250D03*
D21*
X185886250Y-56586250D03*
X195812500Y-49320000D03*
X213440000Y-62010000D03*
X210070000Y-81520000D03*
D20*
X161246250Y-77933750D03*
D21*
X184712500Y-49900000D03*
X213340000Y-73360000D03*
X171176250Y-81413750D03*
X157616250Y-70913750D03*
X179280000Y-39210000D03*
D20*
X204220000Y-52950000D03*
D21*
X194060000Y-62870000D03*
D20*
X190410000Y-58470000D03*
X216203750Y-86326250D03*
X193322500Y-42190000D03*
X216163750Y-88206250D03*
X198020000Y-44220000D03*
X195570000Y-46460000D03*
D21*
X170520000Y-53690000D03*
D20*
X196350000Y-45770000D03*
D21*
X169920000Y-54690000D03*
D20*
X197150000Y-45180000D03*
D21*
X142796250Y-66153750D03*
X143700000Y-54460000D03*
D20*
X162946250Y-52923750D03*
D21*
X161975000Y-48750000D03*
D20*
X188740000Y-45870000D03*
X187670000Y-45240000D03*
X191913945Y-59373995D03*
X192750000Y-59450000D03*
X197000000Y-54730000D03*
X197690000Y-54130000D03*
D21*
X162286250Y-84163750D03*
D20*
X196310000Y-55340000D03*
D21*
X167110000Y-88520000D03*
X161246250Y-84173750D03*
D20*
X195660000Y-55910000D03*
D21*
X166734055Y-85005945D03*
X190410000Y-55170000D03*
X192880000Y-64220000D03*
G04 #@! TA.AperFunction,Conductor*
G36*
X217101950Y-35090695D02*
G01*
X217110660Y-35091184D01*
X217212344Y-35096893D01*
X217389993Y-35107651D01*
X217403252Y-35109174D01*
X217535740Y-35131683D01*
X217537121Y-35131927D01*
X217688776Y-35159718D01*
X217700713Y-35162524D01*
X217834853Y-35201168D01*
X217837332Y-35201912D01*
X217979410Y-35246185D01*
X217989972Y-35250009D01*
X218120828Y-35304210D01*
X218124243Y-35305685D01*
X218258011Y-35365888D01*
X218267070Y-35370420D01*
X218372172Y-35428508D01*
X218391998Y-35439465D01*
X218396136Y-35441857D01*
X218520785Y-35517209D01*
X218528355Y-35522175D01*
X218645216Y-35605090D01*
X218649893Y-35608578D01*
X218745787Y-35683706D01*
X218764148Y-35698091D01*
X218770302Y-35703242D01*
X218877300Y-35798861D01*
X218882353Y-35803639D01*
X218984838Y-35906122D01*
X218989617Y-35911176D01*
X219085249Y-36018187D01*
X219090401Y-36024342D01*
X219179892Y-36138569D01*
X219183410Y-36143286D01*
X219266305Y-36260115D01*
X219271286Y-36267710D01*
X219346626Y-36392337D01*
X219349036Y-36396505D01*
X219418058Y-36521389D01*
X219422601Y-36530469D01*
X219435637Y-36559432D01*
X219482797Y-36664217D01*
X219484282Y-36667654D01*
X219538487Y-36798514D01*
X219542311Y-36809078D01*
X219586561Y-36951082D01*
X219587330Y-36953645D01*
X219625965Y-37087751D01*
X219628780Y-37099726D01*
X219656554Y-37251283D01*
X219656833Y-37252864D01*
X219679317Y-37385191D01*
X219680843Y-37398475D01*
X219691783Y-37579343D01*
X219691814Y-37579877D01*
X219697781Y-37686120D01*
X219697976Y-37693126D01*
X219678876Y-82214392D01*
X219659163Y-82281423D01*
X219606339Y-82327155D01*
X219555425Y-82338338D01*
X207993192Y-82389499D01*
X207992643Y-82389500D01*
X206354760Y-82389500D01*
X206354554Y-82389459D01*
X206327742Y-82389459D01*
X206320340Y-82396901D01*
X206327630Y-89549668D01*
X206327435Y-89556748D01*
X206323023Y-89635297D01*
X206322992Y-89635829D01*
X206312378Y-89811318D01*
X206310852Y-89824604D01*
X206288049Y-89958803D01*
X206287770Y-89960382D01*
X206260341Y-90110063D01*
X206257526Y-90122039D01*
X206218565Y-90257278D01*
X206217796Y-90259842D01*
X206173902Y-90400701D01*
X206170078Y-90411263D01*
X206115519Y-90542978D01*
X206114034Y-90546416D01*
X206054236Y-90679283D01*
X206049688Y-90688373D01*
X205980264Y-90813987D01*
X205977852Y-90818157D01*
X205902967Y-90942030D01*
X205897981Y-90949634D01*
X205814646Y-91067085D01*
X205811127Y-91071803D01*
X205722129Y-91185400D01*
X205716978Y-91191554D01*
X205620863Y-91299107D01*
X205616084Y-91304161D01*
X205514161Y-91406084D01*
X205509107Y-91410863D01*
X205401554Y-91506978D01*
X205395400Y-91512129D01*
X205281803Y-91601127D01*
X205277085Y-91604646D01*
X205159634Y-91687981D01*
X205152030Y-91692967D01*
X205028157Y-91767852D01*
X205023987Y-91770264D01*
X204898373Y-91839688D01*
X204889283Y-91844236D01*
X204756416Y-91904034D01*
X204752978Y-91905519D01*
X204621263Y-91960078D01*
X204610701Y-91963902D01*
X204469842Y-92007796D01*
X204467278Y-92008565D01*
X204332039Y-92047526D01*
X204320063Y-92050341D01*
X204170382Y-92077770D01*
X204168803Y-92078049D01*
X204034603Y-92100852D01*
X204021318Y-92102378D01*
X203845838Y-92112992D01*
X203845304Y-92113023D01*
X203733485Y-92119303D01*
X203726505Y-92119498D01*
X129079712Y-92103250D01*
X129072788Y-92103055D01*
X128961038Y-92096781D01*
X128960504Y-92096750D01*
X128784931Y-92086133D01*
X128771647Y-92084607D01*
X128637453Y-92061809D01*
X128635872Y-92061530D01*
X128486175Y-92034099D01*
X128474199Y-92031284D01*
X128339007Y-91992338D01*
X128336444Y-91991570D01*
X128195544Y-91947665D01*
X128184982Y-91943841D01*
X128053245Y-91889276D01*
X128049805Y-91887790D01*
X127916947Y-91827996D01*
X127907858Y-91823448D01*
X127782267Y-91754038D01*
X127778098Y-91751627D01*
X127654193Y-91676725D01*
X127646607Y-91671750D01*
X127529161Y-91588418D01*
X127524448Y-91584903D01*
X127410836Y-91495895D01*
X127404681Y-91490744D01*
X127297131Y-91394632D01*
X127292077Y-91389853D01*
X127190145Y-91287921D01*
X127185366Y-91282867D01*
X127160968Y-91255565D01*
X127089251Y-91175313D01*
X127084103Y-91169162D01*
X126995095Y-91055550D01*
X126991591Y-91050852D01*
X126908239Y-90933379D01*
X126903286Y-90925825D01*
X126828356Y-90801874D01*
X126825976Y-90797759D01*
X126756548Y-90672136D01*
X126752002Y-90663051D01*
X126743571Y-90644317D01*
X126692183Y-90530137D01*
X126690737Y-90526789D01*
X126636157Y-90395016D01*
X126632333Y-90384454D01*
X126588393Y-90243440D01*
X126587697Y-90241115D01*
X126548708Y-90105775D01*
X126545905Y-90093848D01*
X126518436Y-89943950D01*
X126518225Y-89942750D01*
X126495389Y-89808338D01*
X126493866Y-89795082D01*
X126483233Y-89619227D01*
X126477311Y-89513751D01*
X127770782Y-89513751D01*
X127790614Y-89740436D01*
X127790616Y-89740447D01*
X127849508Y-89960238D01*
X127849511Y-89960247D01*
X127945681Y-90166482D01*
X127945682Y-90166484D01*
X128076204Y-90352891D01*
X128237108Y-90513795D01*
X128237111Y-90513797D01*
X128423516Y-90644318D01*
X128629754Y-90740489D01*
X128849558Y-90799385D01*
X129019464Y-90814249D01*
X129019465Y-90814250D01*
X129019466Y-90814250D01*
X129133035Y-90814250D01*
X129133035Y-90814249D01*
X129302942Y-90799385D01*
X129522746Y-90740489D01*
X129728984Y-90644318D01*
X129915389Y-90513797D01*
X130076297Y-90352889D01*
X130206818Y-90166484D01*
X130302989Y-89960246D01*
X130361885Y-89740442D01*
X130381718Y-89513750D01*
X130380799Y-89503250D01*
X130361885Y-89287063D01*
X130361885Y-89287058D01*
X130302989Y-89067254D01*
X130206818Y-88861016D01*
X130076297Y-88674611D01*
X130076295Y-88674608D01*
X129921687Y-88520000D01*
X166564836Y-88520000D01*
X166583411Y-88661097D01*
X166583413Y-88661102D01*
X166637871Y-88792577D01*
X166637871Y-88792578D01*
X166637873Y-88792581D01*
X166637874Y-88792582D01*
X166724511Y-88905489D01*
X166837418Y-88992126D01*
X166837421Y-88992127D01*
X166837422Y-88992128D01*
X166903159Y-89019357D01*
X166968901Y-89046588D01*
X167039450Y-89055876D01*
X167109999Y-89065164D01*
X167110000Y-89065164D01*
X167110001Y-89065164D01*
X167157033Y-89058972D01*
X167251099Y-89046588D01*
X167382577Y-88992128D01*
X167382578Y-88992128D01*
X167382578Y-88992127D01*
X167382582Y-88992126D01*
X167495489Y-88905489D01*
X167582126Y-88792582D01*
X167636588Y-88661099D01*
X167655164Y-88520000D01*
X167636588Y-88378901D01*
X167593619Y-88275164D01*
X167582128Y-88247422D01*
X167582128Y-88247421D01*
X167567313Y-88228114D01*
X167495489Y-88134511D01*
X167382582Y-88047874D01*
X167382579Y-88047873D01*
X167382577Y-88047871D01*
X167251102Y-87993413D01*
X167251097Y-87993411D01*
X167110001Y-87974836D01*
X167109999Y-87974836D01*
X166968902Y-87993411D01*
X166968897Y-87993413D01*
X166837422Y-88047871D01*
X166837421Y-88047871D01*
X166724511Y-88134511D01*
X166637871Y-88247421D01*
X166637871Y-88247422D01*
X166583413Y-88378897D01*
X166583411Y-88378902D01*
X166564836Y-88519999D01*
X166564836Y-88520000D01*
X129921687Y-88520000D01*
X129915391Y-88513704D01*
X129728984Y-88383182D01*
X129728982Y-88383181D01*
X129522747Y-88287011D01*
X129522738Y-88287008D01*
X129302947Y-88228116D01*
X129302937Y-88228114D01*
X129133035Y-88213250D01*
X129133034Y-88213250D01*
X129019466Y-88213250D01*
X129019465Y-88213250D01*
X128849562Y-88228114D01*
X128849552Y-88228116D01*
X128629761Y-88287008D01*
X128629752Y-88287011D01*
X128423517Y-88383181D01*
X128423515Y-88383182D01*
X128237108Y-88513704D01*
X128076204Y-88674608D01*
X127945682Y-88861015D01*
X127945681Y-88861017D01*
X127849511Y-89067252D01*
X127849508Y-89067261D01*
X127790616Y-89287052D01*
X127790614Y-89287063D01*
X127770782Y-89513748D01*
X127770782Y-89513751D01*
X126477311Y-89513751D01*
X126476945Y-89507237D01*
X126476751Y-89500243D01*
X126477510Y-87730000D01*
X165434836Y-87730000D01*
X165453411Y-87871097D01*
X165453413Y-87871102D01*
X165507871Y-88002577D01*
X165507871Y-88002578D01*
X165507873Y-88002581D01*
X165507874Y-88002582D01*
X165594511Y-88115489D01*
X165707418Y-88202126D01*
X165707421Y-88202127D01*
X165707422Y-88202128D01*
X165770159Y-88228114D01*
X165838901Y-88256588D01*
X165909450Y-88265876D01*
X165979999Y-88275164D01*
X165980000Y-88275164D01*
X165980001Y-88275164D01*
X166027033Y-88268972D01*
X166121099Y-88256588D01*
X166252577Y-88202128D01*
X166252578Y-88202128D01*
X166252578Y-88202127D01*
X166252582Y-88202126D01*
X166365489Y-88115489D01*
X166452126Y-88002582D01*
X166506588Y-87871099D01*
X166525164Y-87730000D01*
X166506588Y-87588901D01*
X166452128Y-87457422D01*
X166452128Y-87457421D01*
X166452126Y-87457418D01*
X166365489Y-87344511D01*
X166252582Y-87257874D01*
X166252579Y-87257873D01*
X166252577Y-87257871D01*
X166121102Y-87203413D01*
X166121097Y-87203411D01*
X165980001Y-87184836D01*
X165979999Y-87184836D01*
X165838902Y-87203411D01*
X165838897Y-87203413D01*
X165707422Y-87257871D01*
X165707421Y-87257871D01*
X165594511Y-87344511D01*
X165507871Y-87457421D01*
X165507871Y-87457422D01*
X165453413Y-87588897D01*
X165453411Y-87588902D01*
X165434836Y-87729999D01*
X165434836Y-87730000D01*
X126477510Y-87730000D01*
X126478679Y-85005945D01*
X166188891Y-85005945D01*
X166207466Y-85147042D01*
X166207468Y-85147047D01*
X166261926Y-85278522D01*
X166261926Y-85278523D01*
X166261928Y-85278526D01*
X166261929Y-85278527D01*
X166348566Y-85391434D01*
X166461473Y-85478071D01*
X166461476Y-85478072D01*
X166461477Y-85478073D01*
X166527214Y-85505302D01*
X166592956Y-85532533D01*
X166663505Y-85541821D01*
X166734054Y-85551109D01*
X166734055Y-85551109D01*
X166734056Y-85551109D01*
X166781088Y-85544917D01*
X166875154Y-85532533D01*
X167006632Y-85478073D01*
X167006633Y-85478073D01*
X167006633Y-85478072D01*
X167006637Y-85478071D01*
X167119544Y-85391434D01*
X167206181Y-85278527D01*
X167260643Y-85147044D01*
X167279219Y-85005945D01*
X167260643Y-84864846D01*
X167206183Y-84733367D01*
X167206183Y-84733366D01*
X167206181Y-84733363D01*
X167119544Y-84620456D01*
X167006637Y-84533819D01*
X167006634Y-84533818D01*
X167006632Y-84533816D01*
X166875157Y-84479358D01*
X166875152Y-84479356D01*
X166734056Y-84460781D01*
X166734054Y-84460781D01*
X166592957Y-84479356D01*
X166592952Y-84479358D01*
X166461477Y-84533816D01*
X166461476Y-84533816D01*
X166348566Y-84620456D01*
X166261926Y-84733366D01*
X166261926Y-84733367D01*
X166207468Y-84864842D01*
X166207466Y-84864847D01*
X166188891Y-85005944D01*
X166188891Y-85005945D01*
X126478679Y-85005945D01*
X126479036Y-84173750D01*
X160701086Y-84173750D01*
X160719661Y-84314847D01*
X160719663Y-84314852D01*
X160774121Y-84446327D01*
X160774121Y-84446328D01*
X160774123Y-84446331D01*
X160774124Y-84446332D01*
X160860761Y-84559239D01*
X160973668Y-84645876D01*
X160973671Y-84645877D01*
X160973672Y-84645878D01*
X161039409Y-84673107D01*
X161105151Y-84700338D01*
X161170292Y-84708914D01*
X161246249Y-84718914D01*
X161246250Y-84718914D01*
X161246251Y-84718914D01*
X161293283Y-84712722D01*
X161387349Y-84700338D01*
X161518827Y-84645878D01*
X161518828Y-84645878D01*
X161518828Y-84645877D01*
X161518832Y-84645876D01*
X161631739Y-84559239D01*
X161671713Y-84507144D01*
X161728137Y-84465943D01*
X161797883Y-84461788D01*
X161858803Y-84495999D01*
X161868453Y-84507134D01*
X161900761Y-84549239D01*
X162013668Y-84635876D01*
X162013671Y-84635877D01*
X162013672Y-84635878D01*
X162079409Y-84663107D01*
X162145151Y-84690338D01*
X162215700Y-84699626D01*
X162286249Y-84708914D01*
X162286250Y-84708914D01*
X162286251Y-84708914D01*
X162351391Y-84700338D01*
X162427349Y-84690338D01*
X162558827Y-84635878D01*
X162558828Y-84635878D01*
X162558828Y-84635877D01*
X162558832Y-84635876D01*
X162671739Y-84549239D01*
X162758376Y-84436332D01*
X162812838Y-84304849D01*
X162831414Y-84163750D01*
X162812838Y-84022651D01*
X162762520Y-83901172D01*
X162758378Y-83891172D01*
X162758378Y-83891171D01*
X162746515Y-83875711D01*
X162671739Y-83778261D01*
X162558832Y-83691624D01*
X162558829Y-83691623D01*
X162558827Y-83691621D01*
X162427352Y-83637163D01*
X162427347Y-83637161D01*
X162286251Y-83618586D01*
X162286249Y-83618586D01*
X162145152Y-83637161D01*
X162145147Y-83637163D01*
X162013672Y-83691621D01*
X162013671Y-83691621D01*
X161945923Y-83743606D01*
X161900761Y-83778261D01*
X161900760Y-83778262D01*
X161900759Y-83778263D01*
X161860788Y-83830354D01*
X161804360Y-83871557D01*
X161734614Y-83875711D01*
X161673694Y-83841498D01*
X161664037Y-83830353D01*
X161631740Y-83788262D01*
X161618709Y-83778263D01*
X161518832Y-83701624D01*
X161518829Y-83701623D01*
X161518827Y-83701621D01*
X161387352Y-83647163D01*
X161387347Y-83647161D01*
X161246251Y-83628586D01*
X161246249Y-83628586D01*
X161105152Y-83647161D01*
X161105147Y-83647163D01*
X160973672Y-83701621D01*
X160973671Y-83701621D01*
X160860761Y-83788261D01*
X160774121Y-83901171D01*
X160774121Y-83901172D01*
X160719663Y-84032647D01*
X160719661Y-84032652D01*
X160701086Y-84173749D01*
X160701086Y-84173750D01*
X126479036Y-84173750D01*
X126480192Y-81478750D01*
X163125959Y-81478750D01*
X163146764Y-81556395D01*
X163203605Y-81613236D01*
X163261504Y-81628750D01*
X163300996Y-81628750D01*
X163358895Y-81613236D01*
X163415736Y-81556396D01*
X163436541Y-81478750D01*
X164475959Y-81478750D01*
X164496764Y-81556395D01*
X164553605Y-81613236D01*
X164611504Y-81628750D01*
X164650996Y-81628750D01*
X164708895Y-81613236D01*
X164765736Y-81556396D01*
X164786541Y-81478750D01*
X164769124Y-81413750D01*
X170631086Y-81413750D01*
X170649661Y-81554847D01*
X170649663Y-81554852D01*
X170704121Y-81686327D01*
X170704121Y-81686328D01*
X170704123Y-81686331D01*
X170704124Y-81686332D01*
X170790761Y-81799239D01*
X170903668Y-81885876D01*
X170903671Y-81885877D01*
X170903672Y-81885878D01*
X170951018Y-81905489D01*
X171035151Y-81940338D01*
X171105700Y-81949626D01*
X171176249Y-81958914D01*
X171176250Y-81958914D01*
X171176251Y-81958914D01*
X171223283Y-81952722D01*
X171317349Y-81940338D01*
X171448827Y-81885878D01*
X171448828Y-81885878D01*
X171448828Y-81885877D01*
X171448832Y-81885876D01*
X171561739Y-81799239D01*
X171648376Y-81686332D01*
X171702838Y-81554849D01*
X171707426Y-81520000D01*
X209524836Y-81520000D01*
X209543411Y-81661097D01*
X209543413Y-81661102D01*
X209597871Y-81792577D01*
X209597871Y-81792578D01*
X209597873Y-81792581D01*
X209597874Y-81792582D01*
X209684511Y-81905489D01*
X209797418Y-81992126D01*
X209797421Y-81992127D01*
X209797422Y-81992128D01*
X209863159Y-82019357D01*
X209928901Y-82046588D01*
X209999450Y-82055876D01*
X210069999Y-82065164D01*
X210070000Y-82065164D01*
X210070001Y-82065164D01*
X210117033Y-82058972D01*
X210211099Y-82046588D01*
X210342577Y-81992128D01*
X210342578Y-81992128D01*
X210342578Y-81992127D01*
X210342582Y-81992126D01*
X210455489Y-81905489D01*
X210542126Y-81792582D01*
X210596588Y-81661099D01*
X210615164Y-81520000D01*
X210596588Y-81378901D01*
X210542128Y-81247422D01*
X210542128Y-81247421D01*
X210542126Y-81247418D01*
X210455489Y-81134511D01*
X210342582Y-81047874D01*
X210342579Y-81047873D01*
X210342577Y-81047871D01*
X210211102Y-80993413D01*
X210211097Y-80993411D01*
X210070001Y-80974836D01*
X210069999Y-80974836D01*
X209928902Y-80993411D01*
X209928897Y-80993413D01*
X209797422Y-81047871D01*
X209797421Y-81047871D01*
X209684511Y-81134511D01*
X209597871Y-81247421D01*
X209597871Y-81247422D01*
X209543413Y-81378897D01*
X209543411Y-81378902D01*
X209524836Y-81519999D01*
X209524836Y-81520000D01*
X171707426Y-81520000D01*
X171721414Y-81413750D01*
X171702838Y-81272651D01*
X171648378Y-81141172D01*
X171648378Y-81141171D01*
X171643268Y-81134511D01*
X171561739Y-81028261D01*
X171448832Y-80941624D01*
X171448829Y-80941623D01*
X171448827Y-80941621D01*
X171317352Y-80887163D01*
X171317347Y-80887161D01*
X171176251Y-80868586D01*
X171176249Y-80868586D01*
X171035152Y-80887161D01*
X171035147Y-80887163D01*
X170903672Y-80941621D01*
X170903671Y-80941621D01*
X170790761Y-81028261D01*
X170704121Y-81141171D01*
X170704121Y-81141172D01*
X170649663Y-81272647D01*
X170649661Y-81272652D01*
X170631086Y-81413749D01*
X170631086Y-81413750D01*
X164769124Y-81413750D01*
X164765736Y-81401105D01*
X164708895Y-81344264D01*
X164650996Y-81328750D01*
X164611504Y-81328750D01*
X164553605Y-81344264D01*
X164496764Y-81401104D01*
X164475959Y-81478750D01*
X163436541Y-81478750D01*
X163415736Y-81401105D01*
X163358895Y-81344264D01*
X163300996Y-81328750D01*
X163261504Y-81328750D01*
X163203605Y-81344264D01*
X163146764Y-81401104D01*
X163125959Y-81478750D01*
X126480192Y-81478750D01*
X126480771Y-80128750D01*
X163125959Y-80128750D01*
X163146764Y-80206395D01*
X163203605Y-80263236D01*
X163261504Y-80278750D01*
X163300996Y-80278750D01*
X163358895Y-80263236D01*
X163415736Y-80206396D01*
X163436541Y-80128750D01*
X164475959Y-80128750D01*
X164496764Y-80206395D01*
X164553605Y-80263236D01*
X164611504Y-80278750D01*
X164650996Y-80278750D01*
X164708895Y-80263236D01*
X164765736Y-80206396D01*
X164786541Y-80128750D01*
X164765736Y-80051105D01*
X164708895Y-79994264D01*
X164650996Y-79978750D01*
X164611504Y-79978750D01*
X164553605Y-79994264D01*
X164496764Y-80051104D01*
X164475959Y-80128750D01*
X163436541Y-80128750D01*
X163415736Y-80051105D01*
X163358895Y-79994264D01*
X163300996Y-79978750D01*
X163261504Y-79978750D01*
X163203605Y-79994264D01*
X163146764Y-80051104D01*
X163125959Y-80128750D01*
X126480771Y-80128750D01*
X126481713Y-77933750D01*
X160750706Y-77933750D01*
X160770778Y-78073356D01*
X160770780Y-78073364D01*
X160829369Y-78201657D01*
X160829371Y-78201659D01*
X160829372Y-78201661D01*
X160921738Y-78308257D01*
X160921740Y-78308258D01*
X160921739Y-78308258D01*
X161040395Y-78384514D01*
X161175724Y-78424249D01*
X161175726Y-78424250D01*
X161175727Y-78424250D01*
X161316774Y-78424250D01*
X161316774Y-78424249D01*
X161452103Y-78384514D01*
X161452104Y-78384514D01*
X161570760Y-78308258D01*
X161570759Y-78308258D01*
X161570762Y-78308257D01*
X161663128Y-78201661D01*
X161721721Y-78073361D01*
X161741794Y-77933750D01*
X161721721Y-77794139D01*
X161709081Y-77766461D01*
X161663130Y-77665842D01*
X161663128Y-77665840D01*
X161663128Y-77665839D01*
X161570762Y-77559243D01*
X161570759Y-77559241D01*
X161570760Y-77559241D01*
X161452104Y-77482985D01*
X161316775Y-77443250D01*
X161316773Y-77443250D01*
X161175727Y-77443250D01*
X161175724Y-77443250D01*
X161040396Y-77482985D01*
X161040395Y-77482985D01*
X160921739Y-77559241D01*
X160829372Y-77665839D01*
X160829369Y-77665842D01*
X160770780Y-77794135D01*
X160770778Y-77794143D01*
X160750706Y-77933750D01*
X126481713Y-77933750D01*
X126482332Y-76490739D01*
X214104500Y-76490739D01*
X214118981Y-76582170D01*
X214118981Y-76582171D01*
X214175142Y-76692392D01*
X214175145Y-76692396D01*
X214262603Y-76779854D01*
X214262605Y-76779855D01*
X214262609Y-76779859D01*
X214372825Y-76836017D01*
X214372826Y-76836017D01*
X214372828Y-76836018D01*
X214407947Y-76841579D01*
X214464265Y-76850500D01*
X215975734Y-76850499D01*
X215975739Y-76850499D01*
X215975739Y-76850498D01*
X216021454Y-76843258D01*
X216067170Y-76836018D01*
X216067171Y-76836018D01*
X216067172Y-76836017D01*
X216067175Y-76836017D01*
X216177391Y-76779859D01*
X216264859Y-76692391D01*
X216321017Y-76582175D01*
X216321017Y-76582173D01*
X216321018Y-76582172D01*
X216321018Y-76582171D01*
X216324901Y-76557650D01*
X216335500Y-76490735D01*
X216335499Y-75229266D01*
X216335499Y-75229264D01*
X216335499Y-75229260D01*
X216321018Y-75137829D01*
X216321018Y-75137828D01*
X216321017Y-75137826D01*
X216321017Y-75137825D01*
X216264859Y-75027609D01*
X216264857Y-75027607D01*
X216264854Y-75027603D01*
X216177396Y-74940145D01*
X216177393Y-74940143D01*
X216177391Y-74940141D01*
X216067175Y-74883983D01*
X216067174Y-74883982D01*
X216067171Y-74883981D01*
X215975735Y-74869500D01*
X214464260Y-74869500D01*
X214464260Y-74869501D01*
X214372829Y-74883981D01*
X214372828Y-74883981D01*
X214262607Y-74940142D01*
X214262603Y-74940145D01*
X214175145Y-75027603D01*
X214175142Y-75027608D01*
X214118981Y-75137827D01*
X214118981Y-75137828D01*
X214104500Y-75229264D01*
X214104500Y-76490739D01*
X126482332Y-76490739D01*
X126482809Y-75380000D01*
X173504456Y-75380000D01*
X173524528Y-75519606D01*
X173524530Y-75519614D01*
X173583119Y-75647907D01*
X173583121Y-75647909D01*
X173583122Y-75647911D01*
X173675488Y-75754507D01*
X173675490Y-75754508D01*
X173675489Y-75754508D01*
X173794145Y-75830764D01*
X173929474Y-75870499D01*
X173929476Y-75870500D01*
X173929477Y-75870500D01*
X174070524Y-75870500D01*
X174070524Y-75870499D01*
X174205853Y-75830764D01*
X174205854Y-75830764D01*
X174324510Y-75754508D01*
X174324509Y-75754508D01*
X174324512Y-75754507D01*
X174416878Y-75647911D01*
X174475471Y-75519611D01*
X174495544Y-75380000D01*
X174475471Y-75240389D01*
X174462831Y-75212711D01*
X174416880Y-75112092D01*
X174416878Y-75112090D01*
X174416878Y-75112089D01*
X174324512Y-75005493D01*
X174324509Y-75005491D01*
X174324510Y-75005491D01*
X174205854Y-74929235D01*
X174070525Y-74889500D01*
X174070523Y-74889500D01*
X173929477Y-74889500D01*
X173929474Y-74889500D01*
X173794146Y-74929235D01*
X173794145Y-74929235D01*
X173675489Y-75005491D01*
X173583122Y-75112089D01*
X173583119Y-75112092D01*
X173524530Y-75240385D01*
X173524528Y-75240393D01*
X173504456Y-75380000D01*
X126482809Y-75380000D01*
X126483641Y-73440000D01*
X164094836Y-73440000D01*
X164113411Y-73581097D01*
X164113413Y-73581102D01*
X164167871Y-73712577D01*
X164167871Y-73712578D01*
X164167873Y-73712581D01*
X164167874Y-73712582D01*
X164254511Y-73825489D01*
X164367418Y-73912126D01*
X164367421Y-73912127D01*
X164367422Y-73912128D01*
X164433159Y-73939357D01*
X164498901Y-73966588D01*
X164569450Y-73975876D01*
X164639999Y-73985164D01*
X164640000Y-73985164D01*
X164640001Y-73985164D01*
X164687033Y-73978972D01*
X164781099Y-73966588D01*
X164912577Y-73912128D01*
X164912578Y-73912128D01*
X164912578Y-73912127D01*
X164912582Y-73912126D01*
X165025489Y-73825489D01*
X165112126Y-73712582D01*
X165166588Y-73581099D01*
X165185164Y-73440000D01*
X165183840Y-73429947D01*
X165174632Y-73360000D01*
X212794836Y-73360000D01*
X212813411Y-73501097D01*
X212813413Y-73501102D01*
X212867871Y-73632577D01*
X212867871Y-73632578D01*
X212867873Y-73632581D01*
X212867874Y-73632582D01*
X212954511Y-73745489D01*
X213067418Y-73832126D01*
X213067421Y-73832127D01*
X213067422Y-73832128D01*
X213133159Y-73859357D01*
X213198901Y-73886588D01*
X213269450Y-73895876D01*
X213339999Y-73905164D01*
X213340000Y-73905164D01*
X213340001Y-73905164D01*
X213387033Y-73898972D01*
X213481099Y-73886588D01*
X213612577Y-73832128D01*
X213612578Y-73832128D01*
X213612578Y-73832127D01*
X213612582Y-73832126D01*
X213725489Y-73745489D01*
X213812126Y-73632582D01*
X213866588Y-73501099D01*
X213867543Y-73493843D01*
X213895809Y-73429947D01*
X213954133Y-73391475D01*
X214023998Y-73390643D01*
X214083221Y-73427715D01*
X214113001Y-73490921D01*
X214113052Y-73491251D01*
X214131173Y-73609544D01*
X214131176Y-73609556D01*
X214201136Y-73798454D01*
X214201140Y-73798461D01*
X214307694Y-73969414D01*
X214307698Y-73969420D01*
X214446483Y-74115422D01*
X214446486Y-74115424D01*
X214446488Y-74115426D01*
X214611829Y-74230506D01*
X214796952Y-74309949D01*
X214994276Y-74350500D01*
X215395232Y-74350500D01*
X215545415Y-74335228D01*
X215737615Y-74274925D01*
X215737615Y-74274924D01*
X215737624Y-74274922D01*
X215913759Y-74177159D01*
X216066609Y-74045941D01*
X216189917Y-73886641D01*
X216278634Y-73705780D01*
X216329127Y-73510763D01*
X216339330Y-73309573D01*
X216308825Y-73110448D01*
X216238861Y-72921540D01*
X216132303Y-72750582D01*
X216132301Y-72750579D01*
X215993516Y-72604577D01*
X215828170Y-72489493D01*
X215643048Y-72410051D01*
X215445724Y-72369500D01*
X215044769Y-72369500D01*
X215044768Y-72369500D01*
X214894584Y-72384771D01*
X214702384Y-72445074D01*
X214702374Y-72445079D01*
X214526239Y-72542842D01*
X214526238Y-72542842D01*
X214373392Y-72674057D01*
X214373390Y-72674059D01*
X214250085Y-72833354D01*
X214250084Y-72833357D01*
X214250083Y-72833358D01*
X214250083Y-72833359D01*
X214250057Y-72833412D01*
X214161366Y-73014219D01*
X214110871Y-73209244D01*
X214110523Y-73211519D01*
X214109984Y-73212670D01*
X214109297Y-73215325D01*
X214108802Y-73215196D01*
X214080915Y-73274805D01*
X214021792Y-73312037D01*
X213951926Y-73311395D01*
X213893497Y-73273082D01*
X213868178Y-73224836D01*
X213866587Y-73218898D01*
X213812128Y-73087422D01*
X213812128Y-73087421D01*
X213786875Y-73054511D01*
X213725489Y-72974511D01*
X213612582Y-72887874D01*
X213612579Y-72887873D01*
X213612577Y-72887871D01*
X213481102Y-72833413D01*
X213481097Y-72833411D01*
X213340001Y-72814836D01*
X213339999Y-72814836D01*
X213198902Y-72833411D01*
X213198897Y-72833413D01*
X213067422Y-72887871D01*
X213067421Y-72887871D01*
X212954511Y-72974511D01*
X212867871Y-73087421D01*
X212867871Y-73087422D01*
X212813413Y-73218897D01*
X212813411Y-73218902D01*
X212794836Y-73359999D01*
X212794836Y-73360000D01*
X165174632Y-73360000D01*
X165167993Y-73309572D01*
X165166588Y-73298901D01*
X165112128Y-73167422D01*
X165112128Y-73167421D01*
X165112126Y-73167418D01*
X165025489Y-73054511D01*
X164912582Y-72967874D01*
X164912579Y-72967873D01*
X164912577Y-72967871D01*
X164781102Y-72913413D01*
X164781097Y-72913411D01*
X164640001Y-72894836D01*
X164639999Y-72894836D01*
X164498902Y-72913411D01*
X164498897Y-72913413D01*
X164367422Y-72967871D01*
X164367421Y-72967871D01*
X164254511Y-73054511D01*
X164167871Y-73167421D01*
X164167871Y-73167422D01*
X164113413Y-73298897D01*
X164113411Y-73298902D01*
X164094836Y-73439999D01*
X164094836Y-73440000D01*
X126483641Y-73440000D01*
X126484725Y-70913750D01*
X157071086Y-70913750D01*
X157089661Y-71054847D01*
X157089663Y-71054852D01*
X157144121Y-71186327D01*
X157144121Y-71186328D01*
X157144123Y-71186331D01*
X157144124Y-71186332D01*
X157230761Y-71299239D01*
X157343668Y-71385876D01*
X157343671Y-71385877D01*
X157343672Y-71385878D01*
X157409409Y-71413107D01*
X157475151Y-71440338D01*
X157545700Y-71449626D01*
X157616249Y-71458914D01*
X157616250Y-71458914D01*
X157616251Y-71458914D01*
X157663283Y-71452722D01*
X157757349Y-71440338D01*
X157888827Y-71385878D01*
X157888828Y-71385878D01*
X157888828Y-71385877D01*
X157888832Y-71385876D01*
X158001739Y-71299239D01*
X158070215Y-71210000D01*
X214265659Y-71210000D01*
X214311286Y-71312481D01*
X214422487Y-71465535D01*
X214563081Y-71592127D01*
X214726917Y-71686717D01*
X214726919Y-71686718D01*
X214869999Y-71733207D01*
X214870000Y-71733207D01*
X214870000Y-71210000D01*
X214265659Y-71210000D01*
X158070215Y-71210000D01*
X158088376Y-71186332D01*
X158142838Y-71054849D01*
X158159499Y-70928295D01*
X214745000Y-70928295D01*
X214783481Y-71059351D01*
X214857327Y-71174258D01*
X214960555Y-71263705D01*
X215084801Y-71320446D01*
X215186025Y-71335000D01*
X215253975Y-71335000D01*
X215355199Y-71320446D01*
X215479445Y-71263705D01*
X215541424Y-71210000D01*
X215570000Y-71210000D01*
X215570000Y-71733207D01*
X215713080Y-71686718D01*
X215713082Y-71686717D01*
X215876918Y-71592126D01*
X216017509Y-71465539D01*
X216017511Y-71465536D01*
X216128717Y-71312477D01*
X216174342Y-71210000D01*
X215570000Y-71210000D01*
X215541424Y-71210000D01*
X215582673Y-71174258D01*
X215656519Y-71059351D01*
X215695000Y-70928295D01*
X215695000Y-70791705D01*
X215656519Y-70660649D01*
X215582673Y-70545742D01*
X215479445Y-70456295D01*
X215355199Y-70399554D01*
X215253975Y-70385000D01*
X215186025Y-70385000D01*
X215084801Y-70399554D01*
X214960555Y-70456295D01*
X214857327Y-70545742D01*
X214783481Y-70660649D01*
X214745000Y-70791705D01*
X214745000Y-70928295D01*
X158159499Y-70928295D01*
X158161414Y-70913750D01*
X158142838Y-70772651D01*
X158115607Y-70706909D01*
X158088378Y-70641172D01*
X158088378Y-70641171D01*
X158088376Y-70641168D01*
X158001739Y-70528261D01*
X157977941Y-70510000D01*
X214265658Y-70510000D01*
X214870000Y-70510000D01*
X214870000Y-69986791D01*
X214869999Y-69986790D01*
X215570000Y-69986790D01*
X215570000Y-70510000D01*
X216174341Y-70510000D01*
X216128713Y-70407518D01*
X216017512Y-70254464D01*
X215876918Y-70127872D01*
X215876915Y-70127870D01*
X215713084Y-70033283D01*
X215713072Y-70033278D01*
X215570000Y-69986790D01*
X214869999Y-69986790D01*
X214726927Y-70033278D01*
X214726915Y-70033283D01*
X214563084Y-70127870D01*
X214563081Y-70127872D01*
X214422490Y-70254460D01*
X214422488Y-70254463D01*
X214311282Y-70407522D01*
X214265658Y-70509999D01*
X214265658Y-70510000D01*
X157977941Y-70510000D01*
X157888832Y-70441624D01*
X157888829Y-70441623D01*
X157888827Y-70441621D01*
X157757352Y-70387163D01*
X157757347Y-70387161D01*
X157616251Y-70368586D01*
X157616249Y-70368586D01*
X157475152Y-70387161D01*
X157475147Y-70387163D01*
X157343672Y-70441621D01*
X157343671Y-70441621D01*
X157230761Y-70528261D01*
X157144121Y-70641171D01*
X157144121Y-70641172D01*
X157089663Y-70772647D01*
X157089661Y-70772652D01*
X157071086Y-70913749D01*
X157071086Y-70913750D01*
X126484725Y-70913750D01*
X126485338Y-69483750D01*
X160010959Y-69483750D01*
X160031764Y-69561395D01*
X160088605Y-69618236D01*
X160146504Y-69633750D01*
X160185996Y-69633750D01*
X160243895Y-69618236D01*
X160300736Y-69561396D01*
X160321541Y-69483750D01*
X160300736Y-69406105D01*
X160243895Y-69349264D01*
X160185996Y-69333750D01*
X160146504Y-69333750D01*
X160088605Y-69349264D01*
X160031764Y-69406104D01*
X160010959Y-69483750D01*
X126485338Y-69483750D01*
X126486767Y-66153750D01*
X142251086Y-66153750D01*
X142269661Y-66294847D01*
X142269663Y-66294852D01*
X142324121Y-66426327D01*
X142324121Y-66426328D01*
X142324123Y-66426331D01*
X142324124Y-66426332D01*
X142410761Y-66539239D01*
X142523668Y-66625876D01*
X142523671Y-66625877D01*
X142523672Y-66625878D01*
X142589409Y-66653107D01*
X142655151Y-66680338D01*
X142725700Y-66689626D01*
X142796249Y-66698914D01*
X142796250Y-66698914D01*
X142796251Y-66698914D01*
X142843283Y-66692722D01*
X142937349Y-66680338D01*
X143068827Y-66625878D01*
X143068828Y-66625878D01*
X143068828Y-66625877D01*
X143068832Y-66625876D01*
X143181739Y-66539239D01*
X143268376Y-66426332D01*
X143322838Y-66294849D01*
X143341414Y-66153750D01*
X143322838Y-66012651D01*
X143268378Y-65881172D01*
X143268378Y-65881171D01*
X143268376Y-65881168D01*
X143181739Y-65768261D01*
X143068832Y-65681624D01*
X143068829Y-65681623D01*
X143068827Y-65681621D01*
X142937352Y-65627163D01*
X142937347Y-65627161D01*
X142796251Y-65608586D01*
X142796249Y-65608586D01*
X142655152Y-65627161D01*
X142655147Y-65627163D01*
X142523672Y-65681621D01*
X142523671Y-65681621D01*
X142410761Y-65768261D01*
X142324121Y-65881171D01*
X142324121Y-65881172D01*
X142269663Y-66012647D01*
X142269661Y-66012652D01*
X142251086Y-66153749D01*
X142251086Y-66153750D01*
X126486767Y-66153750D01*
X126487210Y-65120739D01*
X214179500Y-65120739D01*
X214193981Y-65212170D01*
X214193981Y-65212171D01*
X214250142Y-65322392D01*
X214250145Y-65322396D01*
X214337603Y-65409854D01*
X214337605Y-65409855D01*
X214337609Y-65409859D01*
X214447825Y-65466017D01*
X214447826Y-65466017D01*
X214447828Y-65466018D01*
X214482947Y-65471579D01*
X214539265Y-65480500D01*
X216050734Y-65480499D01*
X216050739Y-65480499D01*
X216050739Y-65480498D01*
X216096454Y-65473258D01*
X216142170Y-65466018D01*
X216142171Y-65466018D01*
X216142172Y-65466017D01*
X216142175Y-65466017D01*
X216252391Y-65409859D01*
X216339859Y-65322391D01*
X216396017Y-65212175D01*
X216396017Y-65212173D01*
X216396018Y-65212172D01*
X216396018Y-65212171D01*
X216399901Y-65187650D01*
X216410500Y-65120735D01*
X216410499Y-63859266D01*
X216410499Y-63859264D01*
X216410499Y-63859260D01*
X216396018Y-63767829D01*
X216396018Y-63767828D01*
X216396017Y-63767826D01*
X216396017Y-63767825D01*
X216339859Y-63657609D01*
X216339857Y-63657607D01*
X216339854Y-63657603D01*
X216252396Y-63570145D01*
X216252393Y-63570143D01*
X216252391Y-63570141D01*
X216142175Y-63513983D01*
X216142174Y-63513982D01*
X216142171Y-63513981D01*
X216050735Y-63499500D01*
X214539260Y-63499500D01*
X214539260Y-63499501D01*
X214447829Y-63513981D01*
X214447828Y-63513981D01*
X214337607Y-63570142D01*
X214337603Y-63570145D01*
X214250145Y-63657603D01*
X214250143Y-63657607D01*
X214250141Y-63657609D01*
X214231899Y-63693411D01*
X214193981Y-63767827D01*
X214193981Y-63767828D01*
X214179500Y-63859264D01*
X214179500Y-65120739D01*
X126487210Y-65120739D01*
X126487621Y-64163750D01*
X145150959Y-64163750D01*
X145171764Y-64241395D01*
X145228605Y-64298236D01*
X145286504Y-64313750D01*
X145325996Y-64313750D01*
X145383895Y-64298236D01*
X145440736Y-64241396D01*
X145446469Y-64220000D01*
X192334836Y-64220000D01*
X192353411Y-64361097D01*
X192353413Y-64361102D01*
X192407871Y-64492577D01*
X192407871Y-64492578D01*
X192407873Y-64492581D01*
X192407874Y-64492582D01*
X192494511Y-64605489D01*
X192607418Y-64692126D01*
X192607421Y-64692127D01*
X192607422Y-64692128D01*
X192673159Y-64719357D01*
X192738901Y-64746588D01*
X192809450Y-64755876D01*
X192879999Y-64765164D01*
X192880000Y-64765164D01*
X192880001Y-64765164D01*
X192927033Y-64758972D01*
X193021099Y-64746588D01*
X193152577Y-64692128D01*
X193152578Y-64692128D01*
X193152578Y-64692127D01*
X193152582Y-64692126D01*
X193265489Y-64605489D01*
X193352126Y-64492582D01*
X193406588Y-64361099D01*
X193425164Y-64220000D01*
X193406588Y-64078901D01*
X193352128Y-63947422D01*
X193352128Y-63947421D01*
X193352126Y-63947418D01*
X193265489Y-63834511D01*
X193152582Y-63747874D01*
X193152579Y-63747873D01*
X193152577Y-63747871D01*
X193021102Y-63693413D01*
X193021097Y-63693411D01*
X192880001Y-63674836D01*
X192879999Y-63674836D01*
X192738902Y-63693411D01*
X192738897Y-63693413D01*
X192607422Y-63747871D01*
X192607421Y-63747871D01*
X192494511Y-63834511D01*
X192407871Y-63947421D01*
X192407871Y-63947422D01*
X192353413Y-64078897D01*
X192353411Y-64078902D01*
X192334836Y-64219999D01*
X192334836Y-64220000D01*
X145446469Y-64220000D01*
X145461541Y-64163750D01*
X145440736Y-64086105D01*
X145383895Y-64029264D01*
X145325996Y-64013750D01*
X145286504Y-64013750D01*
X145228605Y-64029264D01*
X145171764Y-64086104D01*
X145150959Y-64163750D01*
X126487621Y-64163750D01*
X126488176Y-62870000D01*
X193514836Y-62870000D01*
X193533411Y-63011097D01*
X193533413Y-63011102D01*
X193587871Y-63142577D01*
X193587871Y-63142578D01*
X193587873Y-63142581D01*
X193587874Y-63142582D01*
X193674511Y-63255489D01*
X193787418Y-63342126D01*
X193787421Y-63342127D01*
X193787422Y-63342128D01*
X193853159Y-63369357D01*
X193918901Y-63396588D01*
X193989450Y-63405876D01*
X194059999Y-63415164D01*
X194060000Y-63415164D01*
X194060001Y-63415164D01*
X194107033Y-63408972D01*
X194201099Y-63396588D01*
X194332577Y-63342128D01*
X194332578Y-63342128D01*
X194332578Y-63342127D01*
X194332582Y-63342126D01*
X194445489Y-63255489D01*
X194532126Y-63142582D01*
X194586588Y-63011099D01*
X194605164Y-62870000D01*
X194586588Y-62728901D01*
X194559357Y-62663159D01*
X194532128Y-62597422D01*
X194532128Y-62597421D01*
X194485449Y-62536588D01*
X194445489Y-62484511D01*
X194332582Y-62397874D01*
X194332579Y-62397873D01*
X194332577Y-62397871D01*
X194201102Y-62343413D01*
X194201097Y-62343411D01*
X194060001Y-62324836D01*
X194059999Y-62324836D01*
X193918902Y-62343411D01*
X193918897Y-62343413D01*
X193787422Y-62397871D01*
X193787421Y-62397871D01*
X193674511Y-62484511D01*
X193587871Y-62597421D01*
X193587871Y-62597422D01*
X193533413Y-62728897D01*
X193533411Y-62728902D01*
X193514836Y-62869999D01*
X193514836Y-62870000D01*
X126488176Y-62870000D01*
X126488545Y-62010000D01*
X212894836Y-62010000D01*
X212913411Y-62151097D01*
X212913413Y-62151102D01*
X212967871Y-62282577D01*
X212967871Y-62282578D01*
X212967873Y-62282580D01*
X212967874Y-62282582D01*
X213054511Y-62395489D01*
X213167418Y-62482126D01*
X213167421Y-62482127D01*
X213167422Y-62482128D01*
X213233159Y-62509357D01*
X213298901Y-62536588D01*
X213369450Y-62545876D01*
X213439999Y-62555164D01*
X213440000Y-62555164D01*
X213440001Y-62555164D01*
X213487033Y-62548972D01*
X213581099Y-62536588D01*
X213712577Y-62482128D01*
X213712578Y-62482128D01*
X213712578Y-62482127D01*
X213712582Y-62482126D01*
X213825489Y-62395489D01*
X213912126Y-62282582D01*
X213961697Y-62162905D01*
X214005535Y-62108507D01*
X214071829Y-62086441D01*
X214139528Y-62103720D01*
X214187139Y-62154856D01*
X214198826Y-62191584D01*
X214206173Y-62239545D01*
X214206176Y-62239556D01*
X214276136Y-62428454D01*
X214276140Y-62428461D01*
X214382694Y-62599414D01*
X214382698Y-62599420D01*
X214521483Y-62745422D01*
X214521486Y-62745424D01*
X214521488Y-62745426D01*
X214686829Y-62860506D01*
X214871952Y-62939949D01*
X215069276Y-62980500D01*
X215470232Y-62980500D01*
X215620415Y-62965228D01*
X215812615Y-62904925D01*
X215812615Y-62904924D01*
X215812624Y-62904922D01*
X215988759Y-62807159D01*
X216141609Y-62675941D01*
X216264917Y-62516641D01*
X216353634Y-62335780D01*
X216404127Y-62140763D01*
X216414330Y-61939573D01*
X216383825Y-61740448D01*
X216313861Y-61551540D01*
X216207303Y-61380582D01*
X216207301Y-61380579D01*
X216068516Y-61234577D01*
X215903170Y-61119493D01*
X215718048Y-61040051D01*
X215520724Y-60999500D01*
X215119769Y-60999500D01*
X215119768Y-60999500D01*
X214969584Y-61014771D01*
X214777384Y-61075074D01*
X214777374Y-61075079D01*
X214601239Y-61172842D01*
X214601238Y-61172842D01*
X214448392Y-61304057D01*
X214448390Y-61304059D01*
X214325085Y-61463354D01*
X214325084Y-61463357D01*
X214325083Y-61463358D01*
X214325083Y-61463359D01*
X214322012Y-61469618D01*
X214236364Y-61644223D01*
X214189646Y-61824660D01*
X214153787Y-61884626D01*
X214091200Y-61915684D01*
X214021756Y-61907975D01*
X213967505Y-61863946D01*
X213955044Y-61841031D01*
X213912128Y-61737422D01*
X213912128Y-61737421D01*
X213912126Y-61737418D01*
X213825489Y-61624511D01*
X213712582Y-61537874D01*
X213712579Y-61537873D01*
X213712577Y-61537871D01*
X213581102Y-61483413D01*
X213581097Y-61483411D01*
X213440001Y-61464836D01*
X213439999Y-61464836D01*
X213298902Y-61483411D01*
X213298897Y-61483413D01*
X213167422Y-61537871D01*
X213167421Y-61537871D01*
X213054511Y-61624511D01*
X212967871Y-61737421D01*
X212967871Y-61737422D01*
X212913413Y-61868897D01*
X212913411Y-61868902D01*
X212894836Y-62009999D01*
X212894836Y-62010000D01*
X126488545Y-62010000D01*
X126489784Y-59120427D01*
X129765670Y-59120427D01*
X129796173Y-59319544D01*
X129796176Y-59319556D01*
X129866136Y-59508454D01*
X129866138Y-59508457D01*
X129866139Y-59508460D01*
X129897201Y-59558295D01*
X129972694Y-59679414D01*
X129972698Y-59679420D01*
X130111483Y-59825422D01*
X130111486Y-59825424D01*
X130111488Y-59825426D01*
X130276829Y-59940506D01*
X130461952Y-60019949D01*
X130659276Y-60060500D01*
X131110232Y-60060500D01*
X131260415Y-60045228D01*
X131452615Y-59984925D01*
X131452615Y-59984924D01*
X131452624Y-59984922D01*
X131628759Y-59887159D01*
X131781609Y-59755941D01*
X131904917Y-59596641D01*
X131993634Y-59415780D01*
X132004453Y-59373995D01*
X191418401Y-59373995D01*
X191438473Y-59513601D01*
X191438475Y-59513609D01*
X191497064Y-59641902D01*
X191497066Y-59641904D01*
X191497067Y-59641906D01*
X191589433Y-59748502D01*
X191589435Y-59748503D01*
X191589434Y-59748503D01*
X191708090Y-59824759D01*
X191843419Y-59864494D01*
X191843421Y-59864495D01*
X191843422Y-59864495D01*
X191984469Y-59864495D01*
X191984469Y-59864494D01*
X192119798Y-59824759D01*
X192119799Y-59824759D01*
X192120190Y-59824508D01*
X192225899Y-59756572D01*
X192292936Y-59736888D01*
X192359976Y-59756572D01*
X192386647Y-59779683D01*
X192425488Y-59824507D01*
X192425490Y-59824508D01*
X192425489Y-59824508D01*
X192544145Y-59900764D01*
X192679474Y-59940499D01*
X192679476Y-59940500D01*
X192679477Y-59940500D01*
X192820524Y-59940500D01*
X192820524Y-59940499D01*
X192955853Y-59900764D01*
X192955854Y-59900764D01*
X193012290Y-59864495D01*
X193050405Y-59840000D01*
X214340659Y-59840000D01*
X214386286Y-59942481D01*
X214497487Y-60095535D01*
X214638081Y-60222127D01*
X214801917Y-60316717D01*
X214801919Y-60316718D01*
X214944999Y-60363207D01*
X214945000Y-60363207D01*
X214945000Y-59840000D01*
X214340659Y-59840000D01*
X193050405Y-59840000D01*
X193074512Y-59824507D01*
X193166878Y-59717911D01*
X193225471Y-59589611D01*
X193229974Y-59558295D01*
X214820000Y-59558295D01*
X214858481Y-59689351D01*
X214932327Y-59804258D01*
X215035555Y-59893705D01*
X215159801Y-59950446D01*
X215261025Y-59965000D01*
X215328975Y-59965000D01*
X215430199Y-59950446D01*
X215554445Y-59893705D01*
X215616424Y-59840000D01*
X215645000Y-59840000D01*
X215645000Y-60363207D01*
X215788080Y-60316718D01*
X215788082Y-60316717D01*
X215951918Y-60222126D01*
X216092509Y-60095539D01*
X216092511Y-60095536D01*
X216203717Y-59942477D01*
X216249342Y-59840000D01*
X215645000Y-59840000D01*
X215616424Y-59840000D01*
X215657673Y-59804258D01*
X215731519Y-59689351D01*
X215770000Y-59558295D01*
X215770000Y-59421705D01*
X215731519Y-59290649D01*
X215657673Y-59175742D01*
X215554445Y-59086295D01*
X215430199Y-59029554D01*
X215328975Y-59015000D01*
X215261025Y-59015000D01*
X215159801Y-59029554D01*
X215035555Y-59086295D01*
X214932327Y-59175742D01*
X214858481Y-59290649D01*
X214820000Y-59421705D01*
X214820000Y-59558295D01*
X193229974Y-59558295D01*
X193245544Y-59450000D01*
X193225471Y-59310389D01*
X193212831Y-59282711D01*
X193166880Y-59182092D01*
X193166878Y-59182090D01*
X193166878Y-59182089D01*
X193130408Y-59140000D01*
X214340658Y-59140000D01*
X214945000Y-59140000D01*
X214945000Y-58616791D01*
X214944999Y-58616790D01*
X215645000Y-58616790D01*
X215645000Y-59140000D01*
X216249341Y-59140000D01*
X216203713Y-59037518D01*
X216092512Y-58884464D01*
X215951918Y-58757872D01*
X215951915Y-58757870D01*
X215788084Y-58663283D01*
X215788072Y-58663278D01*
X215645000Y-58616790D01*
X214944999Y-58616790D01*
X214801927Y-58663278D01*
X214801915Y-58663283D01*
X214638084Y-58757870D01*
X214638081Y-58757872D01*
X214497490Y-58884460D01*
X214497488Y-58884463D01*
X214386282Y-59037522D01*
X214340658Y-59139999D01*
X214340658Y-59140000D01*
X193130408Y-59140000D01*
X193074512Y-59075493D01*
X193074509Y-59075491D01*
X193074510Y-59075491D01*
X192955854Y-58999235D01*
X192820525Y-58959500D01*
X192820523Y-58959500D01*
X192679477Y-58959500D01*
X192679474Y-58959500D01*
X192544146Y-58999235D01*
X192438046Y-59067422D01*
X192371007Y-59087106D01*
X192303967Y-59067421D01*
X192277296Y-59044311D01*
X192238457Y-58999488D01*
X192238454Y-58999486D01*
X192238455Y-58999486D01*
X192119799Y-58923230D01*
X191984470Y-58883495D01*
X191984468Y-58883495D01*
X191843422Y-58883495D01*
X191843419Y-58883495D01*
X191708091Y-58923230D01*
X191708090Y-58923230D01*
X191589434Y-58999486D01*
X191497067Y-59106084D01*
X191497064Y-59106087D01*
X191438475Y-59234380D01*
X191438473Y-59234388D01*
X191418401Y-59373995D01*
X132004453Y-59373995D01*
X132044127Y-59220763D01*
X132054330Y-59019573D01*
X132023825Y-58820448D01*
X131965617Y-58663283D01*
X131953863Y-58631545D01*
X131953862Y-58631544D01*
X131953861Y-58631540D01*
X131853173Y-58470000D01*
X189914456Y-58470000D01*
X189934528Y-58609606D01*
X189934530Y-58609614D01*
X189993119Y-58737907D01*
X189993121Y-58737909D01*
X189993122Y-58737911D01*
X190085488Y-58844507D01*
X190085490Y-58844508D01*
X190085489Y-58844508D01*
X190204145Y-58920764D01*
X190319944Y-58954764D01*
X190336071Y-58959500D01*
X190339474Y-58960499D01*
X190339476Y-58960500D01*
X190339477Y-58960500D01*
X190480524Y-58960500D01*
X190480524Y-58960499D01*
X190585542Y-58929663D01*
X190615853Y-58920764D01*
X190615854Y-58920764D01*
X190672340Y-58884463D01*
X190734512Y-58844507D01*
X190826878Y-58737911D01*
X190885471Y-58609611D01*
X190905544Y-58470000D01*
X190885471Y-58330389D01*
X190872831Y-58302711D01*
X190826880Y-58202092D01*
X190826878Y-58202090D01*
X190826878Y-58202089D01*
X190734512Y-58095493D01*
X190734509Y-58095491D01*
X190734510Y-58095491D01*
X190615854Y-58019235D01*
X190480525Y-57979500D01*
X190480523Y-57979500D01*
X190339477Y-57979500D01*
X190339474Y-57979500D01*
X190204146Y-58019235D01*
X190204145Y-58019235D01*
X190085489Y-58095491D01*
X189993122Y-58202089D01*
X189993119Y-58202092D01*
X189934530Y-58330385D01*
X189934528Y-58330393D01*
X189914456Y-58470000D01*
X131853173Y-58470000D01*
X131847303Y-58460582D01*
X131847301Y-58460579D01*
X131708516Y-58314577D01*
X131543170Y-58199493D01*
X131358048Y-58120051D01*
X131160724Y-58079500D01*
X130709769Y-58079500D01*
X130709768Y-58079500D01*
X130559584Y-58094771D01*
X130367384Y-58155074D01*
X130367374Y-58155079D01*
X130191239Y-58252842D01*
X130191238Y-58252842D01*
X130038392Y-58384057D01*
X130038390Y-58384059D01*
X129915085Y-58543354D01*
X129915084Y-58543357D01*
X129826366Y-58724219D01*
X129775873Y-58919236D01*
X129765670Y-59120427D01*
X126489784Y-59120427D01*
X126491028Y-56220000D01*
X129860000Y-56220000D01*
X130550400Y-56220000D01*
X130528239Y-56239202D01*
X130450507Y-56360156D01*
X130410000Y-56498111D01*
X130410000Y-56641889D01*
X130450507Y-56779844D01*
X130528239Y-56900798D01*
X130550400Y-56920000D01*
X129860001Y-56920000D01*
X129860001Y-57214785D01*
X129860002Y-57214808D01*
X129862908Y-57239869D01*
X129862909Y-57239873D01*
X129908211Y-57342474D01*
X129908214Y-57342479D01*
X129987520Y-57421785D01*
X129987525Y-57421788D01*
X130090123Y-57467089D01*
X130115206Y-57469999D01*
X130559999Y-57469999D01*
X130560000Y-57469998D01*
X130560000Y-56928318D01*
X130636900Y-56994952D01*
X130767685Y-57054680D01*
X130874237Y-57070000D01*
X130945763Y-57070000D01*
X131052315Y-57054680D01*
X131183100Y-56994952D01*
X131260000Y-56928318D01*
X131260000Y-57469999D01*
X131704786Y-57469999D01*
X131704808Y-57469997D01*
X131729869Y-57467091D01*
X131729873Y-57467090D01*
X131832474Y-57421788D01*
X131832479Y-57421785D01*
X131911785Y-57342479D01*
X131911788Y-57342474D01*
X131957089Y-57239877D01*
X131957089Y-57239875D01*
X131959999Y-57214794D01*
X131960000Y-57214791D01*
X131960000Y-56920000D01*
X131269600Y-56920000D01*
X131291761Y-56900798D01*
X131369493Y-56779844D01*
X131410000Y-56641889D01*
X131410000Y-56498111D01*
X131369493Y-56360156D01*
X131291761Y-56239202D01*
X131269600Y-56220000D01*
X131959999Y-56220000D01*
X131959999Y-56201151D01*
X138541996Y-56201151D01*
X138551995Y-56411077D01*
X138601546Y-56615328D01*
X138601548Y-56615332D01*
X138688848Y-56806493D01*
X138688851Y-56806498D01*
X138688852Y-56806500D01*
X138688854Y-56806503D01*
X138751877Y-56895006D01*
X138810765Y-56977703D01*
X138810770Y-56977709D01*
X138962870Y-57122735D01*
X139057828Y-57183761D01*
X139139678Y-57236363D01*
X139334793Y-57314475D01*
X139437979Y-57334362D01*
X139541164Y-57354250D01*
X139541165Y-57354250D01*
X139698669Y-57354250D01*
X139698675Y-57354250D01*
X139855468Y-57339278D01*
X140057125Y-57280066D01*
X140243932Y-57183761D01*
X140409136Y-57053842D01*
X140546769Y-56895006D01*
X140567657Y-56858828D01*
X140620634Y-56767067D01*
X140651854Y-56712994D01*
X140695721Y-56586250D01*
X185341086Y-56586250D01*
X185359661Y-56727347D01*
X185359663Y-56727352D01*
X185414121Y-56858827D01*
X185414121Y-56858828D01*
X185414123Y-56858831D01*
X185414124Y-56858832D01*
X185500761Y-56971739D01*
X185613668Y-57058376D01*
X185613671Y-57058377D01*
X185613672Y-57058378D01*
X185679409Y-57085607D01*
X185745151Y-57112838D01*
X185815700Y-57122126D01*
X185886249Y-57131414D01*
X185886250Y-57131414D01*
X185886251Y-57131414D01*
X185952166Y-57122736D01*
X186027349Y-57112838D01*
X186158827Y-57058378D01*
X186158828Y-57058378D01*
X186158828Y-57058377D01*
X186158832Y-57058376D01*
X186271739Y-56971739D01*
X186358376Y-56858832D01*
X186412838Y-56727349D01*
X186431414Y-56586250D01*
X186412838Y-56445151D01*
X186371872Y-56346250D01*
X186358378Y-56313672D01*
X186358378Y-56313671D01*
X186352759Y-56306348D01*
X186271739Y-56200761D01*
X186158832Y-56114124D01*
X186158829Y-56114123D01*
X186158827Y-56114121D01*
X186027352Y-56059663D01*
X186027347Y-56059661D01*
X185886251Y-56041086D01*
X185886249Y-56041086D01*
X185745152Y-56059661D01*
X185745147Y-56059663D01*
X185613672Y-56114121D01*
X185613671Y-56114121D01*
X185500761Y-56200761D01*
X185414121Y-56313671D01*
X185414121Y-56313672D01*
X185359663Y-56445147D01*
X185359661Y-56445152D01*
X185341086Y-56586249D01*
X185341086Y-56586250D01*
X140695721Y-56586250D01*
X140720594Y-56514383D01*
X140750504Y-56306352D01*
X140740504Y-56096420D01*
X140695279Y-55910000D01*
X195164456Y-55910000D01*
X195184528Y-56049606D01*
X195184530Y-56049614D01*
X195243119Y-56177907D01*
X195243121Y-56177909D01*
X195243122Y-56177911D01*
X195335488Y-56284507D01*
X195335490Y-56284508D01*
X195335489Y-56284508D01*
X195454145Y-56360764D01*
X195589474Y-56400499D01*
X195589476Y-56400500D01*
X195589477Y-56400500D01*
X195730524Y-56400500D01*
X195730524Y-56400499D01*
X195865853Y-56360764D01*
X195865854Y-56360764D01*
X195866801Y-56360156D01*
X195888439Y-56346250D01*
X199721086Y-56346250D01*
X199739661Y-56487347D01*
X199739663Y-56487352D01*
X199794121Y-56618827D01*
X199794121Y-56618828D01*
X199794123Y-56618831D01*
X199794124Y-56618832D01*
X199880761Y-56731739D01*
X199993668Y-56818376D01*
X199993671Y-56818377D01*
X199993672Y-56818378D01*
X200059409Y-56845607D01*
X200125151Y-56872838D01*
X200195700Y-56882126D01*
X200266249Y-56891414D01*
X200266250Y-56891414D01*
X200266251Y-56891414D01*
X200313283Y-56885222D01*
X200407349Y-56872838D01*
X200538827Y-56818378D01*
X200538828Y-56818378D01*
X200538828Y-56818377D01*
X200538832Y-56818376D01*
X200651739Y-56731739D01*
X200738376Y-56618832D01*
X200792838Y-56487349D01*
X200811414Y-56346250D01*
X200792838Y-56205151D01*
X200765607Y-56139409D01*
X200738378Y-56073672D01*
X200738378Y-56073671D01*
X200735561Y-56070000D01*
X200651739Y-55960761D01*
X200538832Y-55874124D01*
X200538829Y-55874123D01*
X200538827Y-55874121D01*
X200407352Y-55819663D01*
X200407347Y-55819661D01*
X200266251Y-55801086D01*
X200266249Y-55801086D01*
X200125152Y-55819661D01*
X200125147Y-55819663D01*
X199993672Y-55874121D01*
X199993671Y-55874121D01*
X199880761Y-55960761D01*
X199794121Y-56073671D01*
X199794121Y-56073672D01*
X199739663Y-56205147D01*
X199739661Y-56205152D01*
X199721086Y-56346249D01*
X199721086Y-56346250D01*
X195888439Y-56346250D01*
X195984512Y-56284507D01*
X196076878Y-56177911D01*
X196135471Y-56049611D01*
X196151683Y-55936852D01*
X196180708Y-55873297D01*
X196239486Y-55835523D01*
X196274421Y-55830500D01*
X196380524Y-55830500D01*
X196380524Y-55830499D01*
X196492844Y-55797520D01*
X196515853Y-55790764D01*
X196515854Y-55790764D01*
X196547565Y-55770385D01*
X196634512Y-55714507D01*
X196726878Y-55607911D01*
X196785471Y-55479611D01*
X196805544Y-55340000D01*
X196805543Y-55339999D01*
X196806806Y-55331222D01*
X196809336Y-55331585D01*
X196825229Y-55277461D01*
X196878033Y-55231706D01*
X196929544Y-55220500D01*
X197070524Y-55220500D01*
X197070524Y-55220499D01*
X197205853Y-55180764D01*
X197205854Y-55180764D01*
X197225369Y-55168223D01*
X197238164Y-55160000D01*
X216579774Y-55160000D01*
X216622686Y-55227619D01*
X216742399Y-55340037D01*
X216742407Y-55340043D01*
X216886313Y-55419156D01*
X216886323Y-55419159D01*
X217045382Y-55459999D01*
X217045390Y-55460000D01*
X217127500Y-55460000D01*
X217127500Y-55160000D01*
X217827500Y-55160000D01*
X217827500Y-55460000D01*
X217868392Y-55460000D01*
X217868403Y-55459999D01*
X217990432Y-55444582D01*
X217990434Y-55444582D01*
X218143127Y-55384126D01*
X218143132Y-55384123D01*
X218275994Y-55287592D01*
X218275995Y-55287591D01*
X218380675Y-55161054D01*
X218381171Y-55160000D01*
X217827500Y-55160000D01*
X217127500Y-55160000D01*
X216579774Y-55160000D01*
X197238164Y-55160000D01*
X197324512Y-55104507D01*
X197416878Y-54997911D01*
X197475471Y-54869611D01*
X197488091Y-54781840D01*
X216823605Y-54781840D01*
X216833954Y-54893521D01*
X216883948Y-54993922D01*
X216966834Y-55069484D01*
X217071420Y-55110000D01*
X217855302Y-55110000D01*
X217937750Y-55094588D01*
X218033110Y-55035543D01*
X218100701Y-54946038D01*
X218131395Y-54838160D01*
X218121046Y-54726479D01*
X218071052Y-54626078D01*
X217988166Y-54550516D01*
X217883580Y-54510000D01*
X217099698Y-54510000D01*
X217017250Y-54525412D01*
X216921890Y-54584457D01*
X216854299Y-54673962D01*
X216823605Y-54781840D01*
X197488091Y-54781840D01*
X197495544Y-54730000D01*
X197495543Y-54729998D01*
X197495996Y-54726853D01*
X197525021Y-54663298D01*
X197583799Y-54625523D01*
X197618734Y-54620500D01*
X197760524Y-54620500D01*
X197760524Y-54620499D01*
X197865542Y-54589663D01*
X197895853Y-54580764D01*
X197895854Y-54580764D01*
X197914356Y-54568874D01*
X197949099Y-54546546D01*
X214535928Y-54546546D01*
X214603958Y-54570351D01*
X214777496Y-54589904D01*
X214777504Y-54589904D01*
X214951037Y-54570351D01*
X214951047Y-54570349D01*
X215019071Y-54546546D01*
X215019071Y-54546545D01*
X214932526Y-54460000D01*
X216573829Y-54460000D01*
X217127500Y-54460000D01*
X217127500Y-54160000D01*
X217827500Y-54160000D01*
X217827500Y-54460000D01*
X218375226Y-54460000D01*
X218375226Y-54459999D01*
X218332313Y-54392380D01*
X218212600Y-54279962D01*
X218212592Y-54279956D01*
X218068686Y-54200843D01*
X218068676Y-54200840D01*
X217909617Y-54160000D01*
X217827500Y-54160000D01*
X217127500Y-54160000D01*
X217086596Y-54160000D01*
X216964567Y-54175417D01*
X216964565Y-54175417D01*
X216811872Y-54235873D01*
X216811867Y-54235876D01*
X216679005Y-54332407D01*
X216679004Y-54332408D01*
X216574324Y-54458945D01*
X216573829Y-54460000D01*
X214932526Y-54460000D01*
X214777501Y-54304975D01*
X214535928Y-54546546D01*
X197949099Y-54546546D01*
X198014512Y-54504507D01*
X198106878Y-54397911D01*
X198165471Y-54269611D01*
X198185544Y-54130000D01*
X198165471Y-53990389D01*
X198139451Y-53933413D01*
X198106880Y-53862092D01*
X198106878Y-53862090D01*
X198106878Y-53862089D01*
X198061744Y-53810002D01*
X213997596Y-53810002D01*
X214017149Y-53983542D01*
X214040952Y-54051570D01*
X214282523Y-53810000D01*
X214347202Y-53810000D01*
X214368262Y-53942969D01*
X214429382Y-54062923D01*
X214524577Y-54158118D01*
X214644531Y-54219238D01*
X214744049Y-54235000D01*
X214810951Y-54235000D01*
X214910469Y-54219238D01*
X215030423Y-54158118D01*
X215125618Y-54062923D01*
X215186738Y-53942969D01*
X215207798Y-53810001D01*
X215272475Y-53810001D01*
X215514045Y-54051571D01*
X215514046Y-54051571D01*
X215537849Y-53983547D01*
X215537851Y-53983537D01*
X215557404Y-53810003D01*
X215557404Y-53809996D01*
X215537851Y-53636458D01*
X215514046Y-53568428D01*
X215272475Y-53810000D01*
X215272475Y-53810001D01*
X215207798Y-53810001D01*
X215207798Y-53810000D01*
X215186738Y-53677031D01*
X215125618Y-53557077D01*
X215030423Y-53461882D01*
X214910469Y-53400762D01*
X214810951Y-53385000D01*
X214744049Y-53385000D01*
X214644531Y-53400762D01*
X214524577Y-53461882D01*
X214429382Y-53557077D01*
X214368262Y-53677031D01*
X214347202Y-53810000D01*
X214282523Y-53810000D01*
X214282524Y-53809999D01*
X214040952Y-53568427D01*
X214040952Y-53568428D01*
X214017149Y-53636455D01*
X213997596Y-53809997D01*
X213997596Y-53810002D01*
X198061744Y-53810002D01*
X198014512Y-53755493D01*
X198014509Y-53755491D01*
X198014510Y-53755491D01*
X197895854Y-53679235D01*
X197760525Y-53639500D01*
X197760523Y-53639500D01*
X197619477Y-53639500D01*
X197619474Y-53639500D01*
X197484146Y-53679235D01*
X197484145Y-53679235D01*
X197365489Y-53755491D01*
X197273122Y-53862089D01*
X197273119Y-53862092D01*
X197214530Y-53990385D01*
X197214528Y-53990393D01*
X197205732Y-54051571D01*
X197202294Y-54075489D01*
X197194004Y-54133147D01*
X197164979Y-54196702D01*
X197106201Y-54234477D01*
X197071266Y-54239500D01*
X196929474Y-54239500D01*
X196794146Y-54279235D01*
X196794145Y-54279235D01*
X196675489Y-54355491D01*
X196583122Y-54462089D01*
X196583119Y-54462092D01*
X196524530Y-54590385D01*
X196524528Y-54590393D01*
X196516905Y-54643412D01*
X196504909Y-54726853D01*
X196503194Y-54738778D01*
X196500663Y-54738414D01*
X196484771Y-54792539D01*
X196431967Y-54838294D01*
X196380456Y-54849500D01*
X196239474Y-54849500D01*
X196104146Y-54889235D01*
X196104145Y-54889235D01*
X195985489Y-54965491D01*
X195893122Y-55072089D01*
X195893119Y-55072092D01*
X195834530Y-55200385D01*
X195834528Y-55200393D01*
X195818317Y-55313147D01*
X195789292Y-55376703D01*
X195730514Y-55414477D01*
X195695579Y-55419500D01*
X195589474Y-55419500D01*
X195454146Y-55459235D01*
X195454145Y-55459235D01*
X195335489Y-55535491D01*
X195243122Y-55642089D01*
X195243119Y-55642092D01*
X195184530Y-55770385D01*
X195184528Y-55770393D01*
X195164456Y-55910000D01*
X140695279Y-55910000D01*
X140690954Y-55892174D01*
X140682711Y-55874124D01*
X140603651Y-55701006D01*
X140603648Y-55701001D01*
X140603647Y-55701000D01*
X140603646Y-55700997D01*
X140481736Y-55529798D01*
X140481734Y-55529796D01*
X140481729Y-55529790D01*
X140329629Y-55384764D01*
X140152824Y-55271138D01*
X139957705Y-55193024D01*
X139751336Y-55153250D01*
X139751335Y-55153250D01*
X139593825Y-55153250D01*
X139437032Y-55168222D01*
X139437028Y-55168223D01*
X139235377Y-55227433D01*
X139048563Y-55323741D01*
X138883366Y-55453655D01*
X138883362Y-55453659D01*
X138745728Y-55612496D01*
X138640648Y-55794500D01*
X138571906Y-55993115D01*
X138571906Y-55993117D01*
X138554509Y-56114121D01*
X138541996Y-56201151D01*
X131959999Y-56201151D01*
X131959999Y-55925214D01*
X131959997Y-55925191D01*
X131957091Y-55900130D01*
X131957090Y-55900126D01*
X131911788Y-55797525D01*
X131911785Y-55797520D01*
X131832479Y-55718214D01*
X131832474Y-55718211D01*
X131729876Y-55672910D01*
X131704794Y-55670000D01*
X131260000Y-55670000D01*
X131260000Y-56211681D01*
X131183100Y-56145048D01*
X131052315Y-56085320D01*
X130945763Y-56070000D01*
X130874237Y-56070000D01*
X130767685Y-56085320D01*
X130636900Y-56145048D01*
X130560000Y-56211681D01*
X130560000Y-55670000D01*
X130115214Y-55670000D01*
X130115191Y-55670002D01*
X130090130Y-55672908D01*
X130090126Y-55672909D01*
X129987525Y-55718211D01*
X129987520Y-55718214D01*
X129908214Y-55797520D01*
X129908211Y-55797525D01*
X129862910Y-55900122D01*
X129862910Y-55900124D01*
X129860000Y-55925205D01*
X129860000Y-56220000D01*
X126491028Y-56220000D01*
X126491783Y-54460000D01*
X143154836Y-54460000D01*
X143173411Y-54601097D01*
X143173413Y-54601102D01*
X143227871Y-54732577D01*
X143227871Y-54732578D01*
X143227873Y-54732581D01*
X143227874Y-54732582D01*
X143314511Y-54845489D01*
X143427418Y-54932126D01*
X143427421Y-54932127D01*
X143427422Y-54932128D01*
X143493159Y-54959357D01*
X143558901Y-54986588D01*
X143629450Y-54995876D01*
X143699999Y-55005164D01*
X143700000Y-55005164D01*
X143700001Y-55005164D01*
X143755122Y-54997907D01*
X143841099Y-54986588D01*
X143972577Y-54932128D01*
X143972578Y-54932128D01*
X143972578Y-54932127D01*
X143972582Y-54932126D01*
X144085489Y-54845489D01*
X144172126Y-54732582D01*
X144189764Y-54690000D01*
X169374836Y-54690000D01*
X169393411Y-54831097D01*
X169393413Y-54831102D01*
X169447871Y-54962577D01*
X169447871Y-54962578D01*
X169447873Y-54962581D01*
X169447874Y-54962582D01*
X169534511Y-55075489D01*
X169647418Y-55162126D01*
X169647421Y-55162127D01*
X169647422Y-55162128D01*
X169692414Y-55180764D01*
X169778901Y-55216588D01*
X169808616Y-55220500D01*
X169919999Y-55235164D01*
X169920000Y-55235164D01*
X169920001Y-55235164D01*
X169978723Y-55227433D01*
X170061099Y-55216588D01*
X170173572Y-55170000D01*
X189864836Y-55170000D01*
X189883411Y-55311097D01*
X189883413Y-55311102D01*
X189937871Y-55442577D01*
X189937871Y-55442578D01*
X189937873Y-55442581D01*
X189937874Y-55442582D01*
X190024511Y-55555489D01*
X190137418Y-55642126D01*
X190137421Y-55642127D01*
X190137422Y-55642128D01*
X190203159Y-55669357D01*
X190268901Y-55696588D01*
X190339450Y-55705876D01*
X190409999Y-55715164D01*
X190410000Y-55715164D01*
X190410001Y-55715164D01*
X190457033Y-55708972D01*
X190551099Y-55696588D01*
X190682577Y-55642128D01*
X190682578Y-55642128D01*
X190682578Y-55642127D01*
X190682582Y-55642126D01*
X190795489Y-55555489D01*
X190882126Y-55442582D01*
X190936588Y-55311099D01*
X190955164Y-55170000D01*
X190953847Y-55160000D01*
X190936588Y-55028902D01*
X190936586Y-55028897D01*
X190923751Y-54997911D01*
X190902265Y-54946038D01*
X190882128Y-54897422D01*
X190882128Y-54897421D01*
X190882126Y-54897418D01*
X190795489Y-54784511D01*
X190682582Y-54697874D01*
X190682579Y-54697873D01*
X190682577Y-54697871D01*
X190551102Y-54643413D01*
X190551097Y-54643411D01*
X190410001Y-54624836D01*
X190409999Y-54624836D01*
X190268902Y-54643411D01*
X190268897Y-54643413D01*
X190137422Y-54697871D01*
X190137421Y-54697871D01*
X190024511Y-54784511D01*
X189937871Y-54897421D01*
X189937871Y-54897422D01*
X189883413Y-55028897D01*
X189883411Y-55028902D01*
X189864836Y-55169999D01*
X189864836Y-55170000D01*
X170173572Y-55170000D01*
X170192577Y-55162128D01*
X170192578Y-55162128D01*
X170192578Y-55162127D01*
X170192582Y-55162126D01*
X170305489Y-55075489D01*
X170392126Y-54962582D01*
X170446588Y-54831099D01*
X170465164Y-54690000D01*
X170446588Y-54548901D01*
X170410631Y-54462092D01*
X170389016Y-54409908D01*
X170390885Y-54409133D01*
X170376977Y-54351820D01*
X170399824Y-54285791D01*
X170454742Y-54242597D01*
X170511873Y-54235419D01*
X170511873Y-54235164D01*
X170513903Y-54235164D01*
X170517022Y-54234772D01*
X170520000Y-54235164D01*
X170520001Y-54235164D01*
X170567033Y-54228972D01*
X170661099Y-54216588D01*
X170792577Y-54162128D01*
X170792578Y-54162128D01*
X170792578Y-54162127D01*
X170792582Y-54162126D01*
X170905489Y-54075489D01*
X170992126Y-53962582D01*
X171046588Y-53831099D01*
X171065164Y-53690000D01*
X171046588Y-53548901D01*
X171001687Y-53440500D01*
X170992128Y-53417422D01*
X170992128Y-53417421D01*
X170989694Y-53414249D01*
X170905489Y-53304511D01*
X170792582Y-53217874D01*
X170792579Y-53217873D01*
X170792577Y-53217871D01*
X170661102Y-53163413D01*
X170661097Y-53163411D01*
X170520001Y-53144836D01*
X170519999Y-53144836D01*
X170378902Y-53163411D01*
X170378897Y-53163413D01*
X170247422Y-53217871D01*
X170247421Y-53217871D01*
X170134511Y-53304511D01*
X170047871Y-53417421D01*
X170047871Y-53417422D01*
X169993413Y-53548897D01*
X169993411Y-53548902D01*
X169974836Y-53689999D01*
X169974836Y-53690000D01*
X169993411Y-53831097D01*
X169993413Y-53831102D01*
X170050984Y-53970092D01*
X170049115Y-53970865D01*
X170063022Y-54028187D01*
X170040170Y-54094214D01*
X169985249Y-54137405D01*
X169928127Y-54144581D01*
X169928127Y-54144836D01*
X169926105Y-54144836D01*
X169922985Y-54145228D01*
X169920006Y-54144836D01*
X169919999Y-54144836D01*
X169778902Y-54163411D01*
X169778897Y-54163413D01*
X169647422Y-54217871D01*
X169647421Y-54217871D01*
X169534511Y-54304511D01*
X169447871Y-54417421D01*
X169447871Y-54417422D01*
X169393413Y-54548897D01*
X169393411Y-54548902D01*
X169374836Y-54689999D01*
X169374836Y-54690000D01*
X144189764Y-54690000D01*
X144226588Y-54601099D01*
X144245164Y-54460000D01*
X144226588Y-54318901D01*
X144191741Y-54234772D01*
X144172128Y-54187422D01*
X144172128Y-54187421D01*
X144153705Y-54163412D01*
X144085489Y-54074511D01*
X143972582Y-53987874D01*
X143972579Y-53987873D01*
X143972577Y-53987871D01*
X143841102Y-53933413D01*
X143841097Y-53933411D01*
X143700001Y-53914836D01*
X143699999Y-53914836D01*
X143558902Y-53933411D01*
X143558897Y-53933413D01*
X143427422Y-53987871D01*
X143427421Y-53987871D01*
X143314511Y-54074511D01*
X143227871Y-54187421D01*
X143227871Y-54187422D01*
X143173413Y-54318897D01*
X143173411Y-54318902D01*
X143154836Y-54459999D01*
X143154836Y-54460000D01*
X126491783Y-54460000D01*
X126492442Y-52923750D01*
X162450706Y-52923750D01*
X162470778Y-53063356D01*
X162470780Y-53063364D01*
X162529369Y-53191657D01*
X162529371Y-53191659D01*
X162529372Y-53191661D01*
X162621738Y-53298257D01*
X162621740Y-53298258D01*
X162621739Y-53298258D01*
X162740395Y-53374514D01*
X162875724Y-53414249D01*
X162875726Y-53414250D01*
X162875727Y-53414250D01*
X163016774Y-53414250D01*
X163016774Y-53414249D01*
X163152103Y-53374514D01*
X163152104Y-53374514D01*
X163229915Y-53324508D01*
X163270762Y-53298257D01*
X163363128Y-53191661D01*
X163421721Y-53063361D01*
X163438020Y-52950000D01*
X203724456Y-52950000D01*
X203744528Y-53089606D01*
X203744530Y-53089614D01*
X203803119Y-53217907D01*
X203803121Y-53217909D01*
X203803122Y-53217911D01*
X203895488Y-53324507D01*
X203895490Y-53324508D01*
X203895489Y-53324508D01*
X204014145Y-53400764D01*
X204149474Y-53440499D01*
X204149476Y-53440500D01*
X204149477Y-53440500D01*
X204290524Y-53440500D01*
X204290524Y-53440499D01*
X204425853Y-53400764D01*
X204425854Y-53400764D01*
X204425858Y-53400762D01*
X204544512Y-53324507D01*
X204636878Y-53217911D01*
X204695471Y-53089611D01*
X204697794Y-53073452D01*
X214535927Y-53073452D01*
X214777499Y-53315024D01*
X215019070Y-53073452D01*
X214951042Y-53049649D01*
X214777503Y-53030096D01*
X214777497Y-53030096D01*
X214603955Y-53049649D01*
X214535928Y-53073452D01*
X214535927Y-53073452D01*
X204697794Y-53073452D01*
X204715544Y-52950000D01*
X204695471Y-52810389D01*
X204682831Y-52782711D01*
X204636880Y-52682092D01*
X204636878Y-52682090D01*
X204636878Y-52682089D01*
X204544512Y-52575493D01*
X204544509Y-52575491D01*
X204544510Y-52575491D01*
X204425854Y-52499235D01*
X204290525Y-52459500D01*
X204290523Y-52459500D01*
X204149477Y-52459500D01*
X204149474Y-52459500D01*
X204014146Y-52499235D01*
X204014145Y-52499235D01*
X203895489Y-52575491D01*
X203803122Y-52682089D01*
X203803119Y-52682092D01*
X203744530Y-52810385D01*
X203744528Y-52810393D01*
X203724456Y-52950000D01*
X163438020Y-52950000D01*
X163441794Y-52923750D01*
X163421721Y-52784139D01*
X163409081Y-52756461D01*
X163363130Y-52655842D01*
X163363128Y-52655840D01*
X163363128Y-52655839D01*
X163270762Y-52549243D01*
X163270759Y-52549241D01*
X163270760Y-52549241D01*
X163152104Y-52472985D01*
X163016775Y-52433250D01*
X163016773Y-52433250D01*
X162875727Y-52433250D01*
X162875724Y-52433250D01*
X162740396Y-52472985D01*
X162740395Y-52472985D01*
X162621739Y-52549241D01*
X162529372Y-52655839D01*
X162529369Y-52655842D01*
X162470780Y-52784135D01*
X162470778Y-52784143D01*
X162450706Y-52923750D01*
X126492442Y-52923750D01*
X126492787Y-52120000D01*
X174314456Y-52120000D01*
X174334528Y-52259606D01*
X174334530Y-52259614D01*
X174393119Y-52387907D01*
X174393121Y-52387909D01*
X174393122Y-52387911D01*
X174485488Y-52494507D01*
X174485490Y-52494508D01*
X174485489Y-52494508D01*
X174604145Y-52570764D01*
X174739474Y-52610499D01*
X174739476Y-52610500D01*
X174739477Y-52610500D01*
X174880524Y-52610500D01*
X174880524Y-52610499D01*
X175015853Y-52570764D01*
X175015854Y-52570764D01*
X175049342Y-52549243D01*
X175134512Y-52494507D01*
X175226878Y-52387911D01*
X175285471Y-52259611D01*
X175305544Y-52120000D01*
X175285471Y-51980389D01*
X175272831Y-51952711D01*
X175226880Y-51852092D01*
X175226878Y-51852090D01*
X175226878Y-51852089D01*
X175134512Y-51745493D01*
X175134509Y-51745491D01*
X175134510Y-51745491D01*
X175015854Y-51669235D01*
X174880525Y-51629500D01*
X174880523Y-51629500D01*
X174739477Y-51629500D01*
X174739474Y-51629500D01*
X174604146Y-51669235D01*
X174604145Y-51669235D01*
X174485489Y-51745491D01*
X174393122Y-51852089D01*
X174393119Y-51852092D01*
X174334530Y-51980385D01*
X174334528Y-51980393D01*
X174314456Y-52120000D01*
X126492787Y-52120000D01*
X126493735Y-49910427D01*
X129755670Y-49910427D01*
X129786173Y-50109544D01*
X129786176Y-50109556D01*
X129856136Y-50298454D01*
X129856140Y-50298461D01*
X129962694Y-50469414D01*
X129962698Y-50469420D01*
X130101483Y-50615422D01*
X130101486Y-50615424D01*
X130101488Y-50615426D01*
X130266829Y-50730506D01*
X130451952Y-50809949D01*
X130649276Y-50850500D01*
X131100232Y-50850500D01*
X131250415Y-50835228D01*
X131442615Y-50774925D01*
X131442615Y-50774924D01*
X131442624Y-50774922D01*
X131618759Y-50677159D01*
X131771609Y-50545941D01*
X131894917Y-50386641D01*
X131983634Y-50205780D01*
X132034127Y-50010763D01*
X132039744Y-49900000D01*
X184167336Y-49900000D01*
X184185911Y-50041097D01*
X184185913Y-50041102D01*
X184240371Y-50172577D01*
X184240371Y-50172578D01*
X184240373Y-50172581D01*
X184240374Y-50172582D01*
X184327011Y-50285489D01*
X184439918Y-50372126D01*
X184439921Y-50372127D01*
X184439922Y-50372128D01*
X184474970Y-50386645D01*
X184571401Y-50426588D01*
X184641950Y-50435876D01*
X184712499Y-50445164D01*
X184712500Y-50445164D01*
X184712501Y-50445164D01*
X184759533Y-50438972D01*
X184853599Y-50426588D01*
X184985077Y-50372128D01*
X184985078Y-50372128D01*
X184985078Y-50372127D01*
X184985082Y-50372126D01*
X185097989Y-50285489D01*
X185184626Y-50172582D01*
X185239088Y-50041099D01*
X185257664Y-49900000D01*
X185239088Y-49758901D01*
X185184628Y-49627422D01*
X185184628Y-49627421D01*
X185184626Y-49627418D01*
X185097989Y-49514511D01*
X184985082Y-49427874D01*
X184985079Y-49427873D01*
X184985077Y-49427871D01*
X184853602Y-49373413D01*
X184853597Y-49373411D01*
X184712501Y-49354836D01*
X184712499Y-49354836D01*
X184571402Y-49373411D01*
X184571397Y-49373413D01*
X184439922Y-49427871D01*
X184439921Y-49427871D01*
X184327011Y-49514511D01*
X184240371Y-49627421D01*
X184240371Y-49627422D01*
X184185913Y-49758897D01*
X184185911Y-49758902D01*
X184167336Y-49899999D01*
X184167336Y-49900000D01*
X132039744Y-49900000D01*
X132044330Y-49809573D01*
X132013825Y-49610448D01*
X131943861Y-49421540D01*
X131880571Y-49320000D01*
X195267336Y-49320000D01*
X195285911Y-49461097D01*
X195285913Y-49461102D01*
X195340371Y-49592577D01*
X195340371Y-49592578D01*
X195340373Y-49592581D01*
X195340374Y-49592582D01*
X195427011Y-49705489D01*
X195539918Y-49792126D01*
X195539921Y-49792127D01*
X195539922Y-49792128D01*
X195582036Y-49809572D01*
X195671401Y-49846588D01*
X195741950Y-49855876D01*
X195812499Y-49865164D01*
X195812500Y-49865164D01*
X195812501Y-49865164D01*
X195859533Y-49858972D01*
X195953599Y-49846588D01*
X196085077Y-49792128D01*
X196085078Y-49792128D01*
X196085078Y-49792127D01*
X196085082Y-49792126D01*
X196197989Y-49705489D01*
X196284626Y-49592582D01*
X196303695Y-49546546D01*
X214535928Y-49546546D01*
X214603958Y-49570351D01*
X214777496Y-49589904D01*
X214777504Y-49589904D01*
X214951037Y-49570351D01*
X214951047Y-49570349D01*
X215019071Y-49546546D01*
X215019071Y-49546545D01*
X214777501Y-49304975D01*
X214535928Y-49546546D01*
X196303695Y-49546546D01*
X196339088Y-49461099D01*
X196357664Y-49320000D01*
X196351948Y-49276586D01*
X196339088Y-49178902D01*
X196339086Y-49178897D01*
X196337081Y-49174057D01*
X196308301Y-49104574D01*
X196284628Y-49047422D01*
X196284628Y-49047421D01*
X196284626Y-49047418D01*
X196197989Y-48934511D01*
X196085082Y-48847874D01*
X196085079Y-48847873D01*
X196085077Y-48847871D01*
X195993652Y-48810002D01*
X213997596Y-48810002D01*
X214017149Y-48983542D01*
X214040952Y-49051570D01*
X214282523Y-48810000D01*
X214347202Y-48810000D01*
X214368262Y-48942969D01*
X214429382Y-49062923D01*
X214524577Y-49158118D01*
X214644531Y-49219238D01*
X214744049Y-49235000D01*
X214810951Y-49235000D01*
X214910469Y-49219238D01*
X215030423Y-49158118D01*
X215125618Y-49062923D01*
X215186738Y-48942969D01*
X215207798Y-48810001D01*
X215272475Y-48810001D01*
X215514045Y-49051571D01*
X215514046Y-49051571D01*
X215537849Y-48983547D01*
X215537851Y-48983537D01*
X215557404Y-48810003D01*
X215557404Y-48809996D01*
X215537851Y-48636458D01*
X215514046Y-48568428D01*
X215272475Y-48810000D01*
X215272475Y-48810001D01*
X215207798Y-48810001D01*
X215207798Y-48810000D01*
X215186738Y-48677031D01*
X215125618Y-48557077D01*
X215030423Y-48461882D01*
X214910469Y-48400762D01*
X214810951Y-48385000D01*
X214744049Y-48385000D01*
X214644531Y-48400762D01*
X214524577Y-48461882D01*
X214429382Y-48557077D01*
X214368262Y-48677031D01*
X214347202Y-48810000D01*
X214282523Y-48810000D01*
X214282524Y-48809999D01*
X214040952Y-48568427D01*
X214040952Y-48568428D01*
X214017149Y-48636455D01*
X213997596Y-48809997D01*
X213997596Y-48810002D01*
X195993652Y-48810002D01*
X195953602Y-48793413D01*
X195953597Y-48793411D01*
X195812501Y-48774836D01*
X195812499Y-48774836D01*
X195671402Y-48793411D01*
X195671397Y-48793413D01*
X195539922Y-48847871D01*
X195539921Y-48847871D01*
X195427011Y-48934511D01*
X195340371Y-49047421D01*
X195340371Y-49047422D01*
X195285913Y-49178897D01*
X195285911Y-49178902D01*
X195267336Y-49319999D01*
X195267336Y-49320000D01*
X131880571Y-49320000D01*
X131837303Y-49250582D01*
X131837301Y-49250579D01*
X131698516Y-49104577D01*
X131533170Y-48989493D01*
X131348048Y-48910051D01*
X131150724Y-48869500D01*
X130699769Y-48869500D01*
X130699768Y-48869500D01*
X130549584Y-48884771D01*
X130357384Y-48945074D01*
X130357374Y-48945079D01*
X130181239Y-49042842D01*
X130181238Y-49042842D01*
X130028392Y-49174057D01*
X130028390Y-49174059D01*
X129905085Y-49333354D01*
X129905084Y-49333357D01*
X129816366Y-49514219D01*
X129765873Y-49709236D01*
X129755670Y-49910427D01*
X126493735Y-49910427D01*
X126494233Y-48750000D01*
X161429836Y-48750000D01*
X161448411Y-48891097D01*
X161448413Y-48891102D01*
X161502871Y-49022577D01*
X161502871Y-49022578D01*
X161502873Y-49022581D01*
X161502874Y-49022582D01*
X161589511Y-49135489D01*
X161702418Y-49222126D01*
X161702421Y-49222127D01*
X161702422Y-49222128D01*
X161768159Y-49249357D01*
X161833901Y-49276588D01*
X161904450Y-49285876D01*
X161974999Y-49295164D01*
X161975000Y-49295164D01*
X161975001Y-49295164D01*
X162022033Y-49288972D01*
X162116099Y-49276588D01*
X162247577Y-49222128D01*
X162247578Y-49222128D01*
X162247578Y-49222127D01*
X162247582Y-49222126D01*
X162360489Y-49135489D01*
X162447126Y-49022582D01*
X162501588Y-48891099D01*
X162520164Y-48750000D01*
X162501588Y-48608901D01*
X162447128Y-48477422D01*
X162447128Y-48477421D01*
X162447126Y-48477418D01*
X162360489Y-48364511D01*
X162247582Y-48277874D01*
X162247579Y-48277873D01*
X162247577Y-48277871D01*
X162116102Y-48223413D01*
X162116097Y-48223411D01*
X161975001Y-48204836D01*
X161974999Y-48204836D01*
X161833902Y-48223411D01*
X161833897Y-48223413D01*
X161702422Y-48277871D01*
X161702421Y-48277871D01*
X161589511Y-48364511D01*
X161502871Y-48477421D01*
X161502871Y-48477422D01*
X161448413Y-48608897D01*
X161448411Y-48608902D01*
X161429836Y-48749999D01*
X161429836Y-48750000D01*
X126494233Y-48750000D01*
X126494559Y-47990739D01*
X129759500Y-47990739D01*
X129773981Y-48082170D01*
X129773981Y-48082171D01*
X129773982Y-48082174D01*
X129773983Y-48082175D01*
X129823709Y-48179768D01*
X129830142Y-48192392D01*
X129830145Y-48192396D01*
X129917603Y-48279854D01*
X129917605Y-48279855D01*
X129917609Y-48279859D01*
X130027825Y-48336017D01*
X130027826Y-48336017D01*
X130027828Y-48336018D01*
X130062947Y-48341579D01*
X130119265Y-48350500D01*
X131680734Y-48350499D01*
X131680739Y-48350499D01*
X131680739Y-48350498D01*
X131726454Y-48343258D01*
X131772170Y-48336018D01*
X131772171Y-48336018D01*
X131772172Y-48336017D01*
X131772175Y-48336017D01*
X131882391Y-48279859D01*
X131969859Y-48192391D01*
X132026017Y-48082175D01*
X132026017Y-48082173D01*
X132026018Y-48082172D01*
X132026018Y-48082171D01*
X132033893Y-48032446D01*
X132040500Y-47990735D01*
X132040499Y-46729266D01*
X132040499Y-46729264D01*
X132040499Y-46729260D01*
X132026018Y-46637829D01*
X132026018Y-46637828D01*
X132026017Y-46637826D01*
X132026017Y-46637825D01*
X131983179Y-46553750D01*
X136550677Y-46553750D01*
X136570937Y-46811177D01*
X136631214Y-47062250D01*
X136631218Y-47062262D01*
X136730031Y-47300820D01*
X136730033Y-47300824D01*
X136730034Y-47300825D01*
X136864953Y-47520994D01*
X137032654Y-47717346D01*
X137229006Y-47885047D01*
X137449175Y-48019966D01*
X137449177Y-48019966D01*
X137449179Y-48019968D01*
X137479304Y-48032446D01*
X137687740Y-48118783D01*
X137938826Y-48179063D01*
X138196250Y-48199323D01*
X138453674Y-48179063D01*
X138704760Y-48118783D01*
X138943325Y-48019966D01*
X139163494Y-47885047D01*
X139359846Y-47717346D01*
X139527547Y-47520994D01*
X139662466Y-47300825D01*
X139761283Y-47062260D01*
X139821563Y-46811174D01*
X139841823Y-46553750D01*
X139836682Y-46488425D01*
X145341998Y-46488425D01*
X145351998Y-46749343D01*
X145401712Y-47005678D01*
X145401712Y-47005680D01*
X145489968Y-47251413D01*
X145489971Y-47251418D01*
X145603394Y-47460000D01*
X145614711Y-47480810D01*
X145696160Y-47587661D01*
X145773000Y-47688466D01*
X145961136Y-47869528D01*
X145961141Y-47869531D01*
X145961145Y-47869535D01*
X146174691Y-48019739D01*
X146174695Y-48019741D01*
X146174706Y-48019749D01*
X146406405Y-48134471D01*
X146408705Y-48135610D01*
X146485776Y-48160000D01*
X146657645Y-48214391D01*
X146915695Y-48254250D01*
X146915699Y-48254250D01*
X147111427Y-48254250D01*
X147306594Y-48239266D01*
X147560836Y-48179771D01*
X147609891Y-48160000D01*
X147803008Y-48082168D01*
X147803013Y-48082165D01*
X147803016Y-48082164D01*
X148027458Y-47948732D01*
X148228902Y-47782602D01*
X148402625Y-47587670D01*
X148471829Y-47480807D01*
X148544554Y-47368507D01*
X148544554Y-47368505D01*
X148544556Y-47368503D01*
X148651368Y-47130239D01*
X148720557Y-46878463D01*
X148750502Y-46619075D01*
X148744405Y-46460000D01*
X195074456Y-46460000D01*
X195094528Y-46599606D01*
X195094530Y-46599614D01*
X195153119Y-46727907D01*
X195153121Y-46727909D01*
X195153122Y-46727911D01*
X195245488Y-46834507D01*
X195245490Y-46834508D01*
X195245489Y-46834508D01*
X195364145Y-46910764D01*
X195499474Y-46950499D01*
X195499476Y-46950500D01*
X195499477Y-46950500D01*
X195640524Y-46950500D01*
X195640524Y-46950499D01*
X195775853Y-46910764D01*
X195775854Y-46910764D01*
X195826116Y-46878463D01*
X195894512Y-46834507D01*
X195986878Y-46727911D01*
X196045471Y-46599611D01*
X196061457Y-46488425D01*
X199041998Y-46488425D01*
X199051998Y-46749343D01*
X199101712Y-47005678D01*
X199101712Y-47005680D01*
X199189968Y-47251413D01*
X199189971Y-47251418D01*
X199303394Y-47460000D01*
X199314711Y-47480810D01*
X199396160Y-47587661D01*
X199473000Y-47688466D01*
X199661136Y-47869528D01*
X199661141Y-47869531D01*
X199661145Y-47869535D01*
X199874691Y-48019739D01*
X199874695Y-48019741D01*
X199874706Y-48019749D01*
X200106405Y-48134471D01*
X200108705Y-48135610D01*
X200185776Y-48160000D01*
X200357645Y-48214391D01*
X200615695Y-48254250D01*
X200615699Y-48254250D01*
X200811427Y-48254250D01*
X201006594Y-48239266D01*
X201260836Y-48179771D01*
X201309891Y-48160000D01*
X201503008Y-48082168D01*
X201503013Y-48082165D01*
X201503016Y-48082164D01*
X201727458Y-47948732D01*
X201928902Y-47782602D01*
X202102625Y-47587670D01*
X202171829Y-47480807D01*
X202244554Y-47368507D01*
X202244554Y-47368505D01*
X202244556Y-47368503D01*
X202351368Y-47130239D01*
X202420557Y-46878463D01*
X202450502Y-46619075D01*
X202447998Y-46553750D01*
X208041457Y-46553750D01*
X208060598Y-46796969D01*
X208117553Y-47034207D01*
X208210918Y-47259611D01*
X208281020Y-47374005D01*
X208762092Y-46892933D01*
X208812534Y-47006228D01*
X208923736Y-47159284D01*
X209064330Y-47285876D01*
X209228171Y-47380469D01*
X209255593Y-47389379D01*
X208775993Y-47868978D01*
X208775993Y-47868979D01*
X208890388Y-47939081D01*
X209115792Y-48032446D01*
X209353030Y-48089401D01*
X209353029Y-48089401D01*
X209596250Y-48108542D01*
X209839469Y-48089401D01*
X209905902Y-48073452D01*
X214535927Y-48073452D01*
X214777499Y-48315024D01*
X214932522Y-48160000D01*
X216579774Y-48160000D01*
X216622686Y-48227619D01*
X216742399Y-48340037D01*
X216742407Y-48340043D01*
X216886313Y-48419156D01*
X216886323Y-48419159D01*
X217045382Y-48459999D01*
X217045390Y-48460000D01*
X217127500Y-48460000D01*
X217127500Y-48160000D01*
X217827500Y-48160000D01*
X217827500Y-48460000D01*
X217868392Y-48460000D01*
X217868403Y-48459999D01*
X217990432Y-48444582D01*
X217990434Y-48444582D01*
X218143127Y-48384126D01*
X218143132Y-48384123D01*
X218275994Y-48287592D01*
X218275995Y-48287591D01*
X218380675Y-48161054D01*
X218381171Y-48160000D01*
X217827500Y-48160000D01*
X217127500Y-48160000D01*
X216579774Y-48160000D01*
X214932522Y-48160000D01*
X215019070Y-48073452D01*
X214951042Y-48049649D01*
X214777503Y-48030096D01*
X214777497Y-48030096D01*
X214603955Y-48049649D01*
X214535928Y-48073452D01*
X214535927Y-48073452D01*
X209905902Y-48073452D01*
X210076707Y-48032446D01*
X210302107Y-47939082D01*
X210416504Y-47868978D01*
X210329366Y-47781840D01*
X216823605Y-47781840D01*
X216833954Y-47893521D01*
X216883948Y-47993922D01*
X216966834Y-48069484D01*
X217071420Y-48110000D01*
X217855302Y-48110000D01*
X217937750Y-48094588D01*
X218033110Y-48035543D01*
X218100701Y-47946038D01*
X218131395Y-47838160D01*
X218121046Y-47726479D01*
X218071052Y-47626078D01*
X217988166Y-47550516D01*
X217883580Y-47510000D01*
X217099698Y-47510000D01*
X217017250Y-47525412D01*
X216921890Y-47584457D01*
X216854299Y-47673962D01*
X216823605Y-47781840D01*
X210329366Y-47781840D01*
X210007526Y-47460000D01*
X216573829Y-47460000D01*
X217127500Y-47460000D01*
X217127500Y-47160000D01*
X217827500Y-47160000D01*
X217827500Y-47460000D01*
X218375226Y-47460000D01*
X218375226Y-47459999D01*
X218332313Y-47392380D01*
X218212600Y-47279962D01*
X218212592Y-47279956D01*
X218068686Y-47200843D01*
X218068676Y-47200840D01*
X217909617Y-47160000D01*
X217827500Y-47160000D01*
X217127500Y-47160000D01*
X217086596Y-47160000D01*
X216964567Y-47175417D01*
X216964565Y-47175417D01*
X216811872Y-47235873D01*
X216811867Y-47235876D01*
X216679005Y-47332407D01*
X216679004Y-47332408D01*
X216574324Y-47458945D01*
X216573829Y-47460000D01*
X210007526Y-47460000D01*
X209936905Y-47389379D01*
X209964329Y-47380469D01*
X210128170Y-47285876D01*
X210268764Y-47159284D01*
X210379966Y-47006229D01*
X210430407Y-46892933D01*
X210911478Y-47374004D01*
X210981582Y-47259607D01*
X211074946Y-47034207D01*
X211131901Y-46796969D01*
X211151042Y-46553750D01*
X211131901Y-46310530D01*
X211074946Y-46073292D01*
X210981581Y-45847888D01*
X210911478Y-45733493D01*
X210430407Y-46214565D01*
X210379966Y-46101272D01*
X210268764Y-45948216D01*
X210128170Y-45821624D01*
X209964329Y-45727031D01*
X209936904Y-45718120D01*
X210416505Y-45238520D01*
X210302111Y-45168418D01*
X210076707Y-45075053D01*
X209839469Y-45018098D01*
X209839470Y-45018098D01*
X209596250Y-44998957D01*
X209353030Y-45018098D01*
X209115792Y-45075053D01*
X208890388Y-45168418D01*
X208775993Y-45238520D01*
X209255594Y-45718120D01*
X209228171Y-45727031D01*
X209064330Y-45821624D01*
X208923736Y-45948216D01*
X208812534Y-46101271D01*
X208762092Y-46214565D01*
X208281020Y-45733493D01*
X208210918Y-45847888D01*
X208117553Y-46073292D01*
X208060598Y-46310530D01*
X208041457Y-46553750D01*
X202447998Y-46553750D01*
X202440501Y-46358157D01*
X202390788Y-46101823D01*
X202390787Y-46101819D01*
X202302531Y-45856086D01*
X202255718Y-45769999D01*
X202177791Y-45626693D01*
X202019500Y-45419034D01*
X201831364Y-45237972D01*
X201831358Y-45237968D01*
X201831354Y-45237964D01*
X201617808Y-45087760D01*
X201617801Y-45087756D01*
X201617794Y-45087751D01*
X201477119Y-45018098D01*
X201383794Y-44971889D01*
X201134858Y-44893110D01*
X201134855Y-44893109D01*
X200876805Y-44853250D01*
X200681073Y-44853250D01*
X200681068Y-44853250D01*
X200521634Y-44865491D01*
X200485906Y-44868234D01*
X200485902Y-44868234D01*
X200231666Y-44927728D01*
X200231656Y-44927731D01*
X199989491Y-45025331D01*
X199989482Y-45025336D01*
X199765043Y-45158767D01*
X199563595Y-45324900D01*
X199389881Y-45519821D01*
X199389868Y-45519838D01*
X199247945Y-45738992D01*
X199247944Y-45738996D01*
X199141131Y-45977261D01*
X199071943Y-46229035D01*
X199041998Y-46488425D01*
X196061457Y-46488425D01*
X196065544Y-46460000D01*
X196053625Y-46377103D01*
X196063568Y-46307947D01*
X196109323Y-46255143D01*
X196176362Y-46235458D01*
X196211298Y-46240481D01*
X196279476Y-46260500D01*
X196279477Y-46260500D01*
X196420524Y-46260500D01*
X196420524Y-46260499D01*
X196555853Y-46220764D01*
X196555854Y-46220764D01*
X196600469Y-46192092D01*
X196674512Y-46144507D01*
X196766878Y-46037911D01*
X196825471Y-45909611D01*
X196845544Y-45770000D01*
X196845544Y-45769999D01*
X196845544Y-45767456D01*
X196846260Y-45765015D01*
X196846806Y-45761222D01*
X196847351Y-45761300D01*
X196865229Y-45700417D01*
X196918033Y-45654662D01*
X196987191Y-45644718D01*
X197004479Y-45648479D01*
X197079476Y-45670500D01*
X197079477Y-45670500D01*
X197220524Y-45670500D01*
X197220524Y-45670499D01*
X197355853Y-45630764D01*
X197355854Y-45630764D01*
X197356432Y-45630393D01*
X197474512Y-45554507D01*
X197566878Y-45447911D01*
X197625471Y-45319611D01*
X197645544Y-45180000D01*
X197625471Y-45040389D01*
X197594281Y-44972092D01*
X197566880Y-44912092D01*
X197566878Y-44912090D01*
X197566878Y-44912089D01*
X197474512Y-44805493D01*
X197474509Y-44805491D01*
X197474510Y-44805491D01*
X197355854Y-44729235D01*
X197220525Y-44689500D01*
X197220523Y-44689500D01*
X197079477Y-44689500D01*
X197079474Y-44689500D01*
X196944146Y-44729235D01*
X196944145Y-44729235D01*
X196825489Y-44805491D01*
X196733122Y-44912089D01*
X196733119Y-44912092D01*
X196674530Y-45040385D01*
X196674528Y-45040393D01*
X196654456Y-45180000D01*
X196654456Y-45182543D01*
X196653739Y-45184982D01*
X196653194Y-45188778D01*
X196652648Y-45188699D01*
X196634771Y-45249582D01*
X196581967Y-45295337D01*
X196512809Y-45305281D01*
X196495523Y-45301521D01*
X196420523Y-45279500D01*
X196279477Y-45279500D01*
X196279474Y-45279500D01*
X196144146Y-45319235D01*
X196144145Y-45319235D01*
X196025489Y-45395491D01*
X195933122Y-45502089D01*
X195933119Y-45502092D01*
X195874530Y-45630385D01*
X195874528Y-45630393D01*
X195854456Y-45770000D01*
X195866374Y-45852895D01*
X195856430Y-45922053D01*
X195810675Y-45974857D01*
X195743635Y-45994541D01*
X195708702Y-45989518D01*
X195640526Y-45969500D01*
X195640523Y-45969500D01*
X195499477Y-45969500D01*
X195499474Y-45969500D01*
X195364146Y-46009235D01*
X195364145Y-46009235D01*
X195245489Y-46085491D01*
X195153122Y-46192089D01*
X195153119Y-46192092D01*
X195094530Y-46320385D01*
X195094528Y-46320393D01*
X195074456Y-46460000D01*
X148744405Y-46460000D01*
X148740501Y-46358157D01*
X148690788Y-46101823D01*
X148690787Y-46101819D01*
X148607528Y-45870000D01*
X188244456Y-45870000D01*
X188264528Y-46009606D01*
X188264530Y-46009614D01*
X188323119Y-46137907D01*
X188323121Y-46137909D01*
X188323122Y-46137911D01*
X188415488Y-46244507D01*
X188415490Y-46244508D01*
X188415489Y-46244508D01*
X188534145Y-46320764D01*
X188649944Y-46354764D01*
X188661497Y-46358157D01*
X188669474Y-46360499D01*
X188669476Y-46360500D01*
X188669477Y-46360500D01*
X188810524Y-46360500D01*
X188810524Y-46360499D01*
X188945853Y-46320764D01*
X188945854Y-46320764D01*
X188946432Y-46320393D01*
X189064512Y-46244507D01*
X189156878Y-46137911D01*
X189215471Y-46009611D01*
X189235544Y-45870000D01*
X189215471Y-45730389D01*
X189197374Y-45690763D01*
X189156880Y-45602092D01*
X189156878Y-45602090D01*
X189156878Y-45602089D01*
X189064512Y-45495493D01*
X189064509Y-45495491D01*
X189064510Y-45495491D01*
X188945854Y-45419235D01*
X188810525Y-45379500D01*
X188810523Y-45379500D01*
X188669477Y-45379500D01*
X188669474Y-45379500D01*
X188534146Y-45419235D01*
X188534145Y-45419235D01*
X188415489Y-45495491D01*
X188323122Y-45602089D01*
X188323119Y-45602092D01*
X188264530Y-45730385D01*
X188264528Y-45730393D01*
X188244456Y-45870000D01*
X148607528Y-45870000D01*
X148602531Y-45856086D01*
X148555718Y-45769999D01*
X148477791Y-45626693D01*
X148319500Y-45419034D01*
X148133471Y-45240000D01*
X187174456Y-45240000D01*
X187194528Y-45379606D01*
X187194530Y-45379614D01*
X187253119Y-45507907D01*
X187253121Y-45507909D01*
X187253122Y-45507911D01*
X187345488Y-45614507D01*
X187345490Y-45614508D01*
X187345489Y-45614508D01*
X187464145Y-45690764D01*
X187579944Y-45724764D01*
X187599085Y-45730385D01*
X187599474Y-45730499D01*
X187599476Y-45730500D01*
X187599477Y-45730500D01*
X187740524Y-45730500D01*
X187740524Y-45730499D01*
X187875853Y-45690764D01*
X187875854Y-45690764D01*
X187907386Y-45670500D01*
X187994512Y-45614507D01*
X188086878Y-45507911D01*
X188089536Y-45502092D01*
X188127467Y-45419034D01*
X188145471Y-45379611D01*
X188165544Y-45240000D01*
X188145471Y-45100389D01*
X188118068Y-45040385D01*
X188086880Y-44972092D01*
X188086878Y-44972090D01*
X188086878Y-44972089D01*
X187994512Y-44865493D01*
X187994509Y-44865491D01*
X187994510Y-44865491D01*
X187875854Y-44789235D01*
X187740525Y-44749500D01*
X187740523Y-44749500D01*
X187599477Y-44749500D01*
X187599474Y-44749500D01*
X187464146Y-44789235D01*
X187464145Y-44789235D01*
X187345489Y-44865491D01*
X187253122Y-44972089D01*
X187253119Y-44972092D01*
X187194530Y-45100385D01*
X187194528Y-45100393D01*
X187174456Y-45240000D01*
X148133471Y-45240000D01*
X148131364Y-45237972D01*
X148131358Y-45237968D01*
X148131354Y-45237964D01*
X147917808Y-45087760D01*
X147917801Y-45087756D01*
X147917794Y-45087751D01*
X147777119Y-45018098D01*
X147683794Y-44971889D01*
X147434858Y-44893110D01*
X147434855Y-44893109D01*
X147176805Y-44853250D01*
X146981073Y-44853250D01*
X146981068Y-44853250D01*
X146821634Y-44865491D01*
X146785906Y-44868234D01*
X146785902Y-44868234D01*
X146531666Y-44927728D01*
X146531656Y-44927731D01*
X146289491Y-45025331D01*
X146289482Y-45025336D01*
X146065043Y-45158767D01*
X145863595Y-45324900D01*
X145689881Y-45519821D01*
X145689868Y-45519838D01*
X145547945Y-45738992D01*
X145547944Y-45738996D01*
X145441131Y-45977261D01*
X145371943Y-46229035D01*
X145341998Y-46488425D01*
X139836682Y-46488425D01*
X139821563Y-46296326D01*
X139761283Y-46045240D01*
X139662466Y-45806675D01*
X139527547Y-45586506D01*
X139359846Y-45390154D01*
X139163494Y-45222453D01*
X138943325Y-45087534D01*
X138943324Y-45087533D01*
X138943320Y-45087531D01*
X138741953Y-45004123D01*
X138704760Y-44988717D01*
X138704756Y-44988716D01*
X138704750Y-44988714D01*
X138453677Y-44928437D01*
X138196250Y-44908177D01*
X137938822Y-44928437D01*
X137687749Y-44988714D01*
X137687737Y-44988718D01*
X137449179Y-45087531D01*
X137229005Y-45222453D01*
X137032654Y-45390154D01*
X136864953Y-45586505D01*
X136730031Y-45806679D01*
X136631218Y-46045237D01*
X136631214Y-46045249D01*
X136570937Y-46296322D01*
X136550677Y-46553750D01*
X131983179Y-46553750D01*
X131969859Y-46527609D01*
X131969857Y-46527607D01*
X131969854Y-46527603D01*
X131882396Y-46440145D01*
X131882393Y-46440143D01*
X131882391Y-46440141D01*
X131772175Y-46383983D01*
X131772174Y-46383982D01*
X131772171Y-46383981D01*
X131680735Y-46369500D01*
X130119260Y-46369500D01*
X130119260Y-46369501D01*
X130027829Y-46383981D01*
X130027828Y-46383981D01*
X129917607Y-46440142D01*
X129917603Y-46440145D01*
X129830145Y-46527603D01*
X129830143Y-46527607D01*
X129830141Y-46527609D01*
X129816821Y-46553751D01*
X129773981Y-46637827D01*
X129773981Y-46637828D01*
X129759500Y-46729264D01*
X129759500Y-47990739D01*
X126494559Y-47990739D01*
X126496176Y-44220000D01*
X197524456Y-44220000D01*
X197544528Y-44359606D01*
X197544530Y-44359614D01*
X197603119Y-44487907D01*
X197603121Y-44487909D01*
X197603122Y-44487911D01*
X197695488Y-44594507D01*
X197695490Y-44594508D01*
X197695489Y-44594508D01*
X197814145Y-44670764D01*
X197949474Y-44710499D01*
X197949476Y-44710500D01*
X197949477Y-44710500D01*
X198090524Y-44710500D01*
X198090524Y-44710499D01*
X198225853Y-44670764D01*
X198225854Y-44670764D01*
X198344510Y-44594508D01*
X198344509Y-44594508D01*
X198344512Y-44594507D01*
X198436878Y-44487911D01*
X198495471Y-44359611D01*
X198515544Y-44220000D01*
X198495471Y-44080389D01*
X198482831Y-44052711D01*
X198436880Y-43952092D01*
X198436878Y-43952090D01*
X198436878Y-43952089D01*
X198344512Y-43845493D01*
X198344509Y-43845491D01*
X198344510Y-43845491D01*
X198225854Y-43769235D01*
X198090525Y-43729500D01*
X198090523Y-43729500D01*
X197949477Y-43729500D01*
X197949474Y-43729500D01*
X197814146Y-43769235D01*
X197814145Y-43769235D01*
X197695489Y-43845491D01*
X197603122Y-43952089D01*
X197603119Y-43952092D01*
X197544530Y-44080385D01*
X197544528Y-44080393D01*
X197524456Y-44220000D01*
X126496176Y-44220000D01*
X126497047Y-42190000D01*
X192826956Y-42190000D01*
X192847028Y-42329606D01*
X192847030Y-42329614D01*
X192905619Y-42457907D01*
X192905621Y-42457909D01*
X192905622Y-42457911D01*
X192997988Y-42564507D01*
X192997990Y-42564508D01*
X192997989Y-42564508D01*
X193116645Y-42640764D01*
X193251974Y-42680499D01*
X193251976Y-42680500D01*
X193251977Y-42680500D01*
X193393024Y-42680500D01*
X193393024Y-42680499D01*
X193528353Y-42640764D01*
X193528354Y-42640764D01*
X193647010Y-42564508D01*
X193647009Y-42564508D01*
X193647012Y-42564507D01*
X193739378Y-42457911D01*
X193797971Y-42329611D01*
X193818044Y-42190000D01*
X193797971Y-42050389D01*
X193785331Y-42022711D01*
X193739380Y-41922092D01*
X193739378Y-41922090D01*
X193739378Y-41922089D01*
X193647012Y-41815493D01*
X193647009Y-41815491D01*
X193647010Y-41815491D01*
X193528354Y-41739235D01*
X193393025Y-41699500D01*
X193393023Y-41699500D01*
X193251977Y-41699500D01*
X193251974Y-41699500D01*
X193116646Y-41739235D01*
X193116645Y-41739235D01*
X192997989Y-41815491D01*
X192905622Y-41922089D01*
X192905619Y-41922092D01*
X192847030Y-42050385D01*
X192847028Y-42050393D01*
X192826956Y-42190000D01*
X126497047Y-42190000D01*
X126497751Y-40550000D01*
X185794456Y-40550000D01*
X185814528Y-40689606D01*
X185814530Y-40689614D01*
X185873119Y-40817907D01*
X185873121Y-40817909D01*
X185873122Y-40817911D01*
X185965488Y-40924507D01*
X185965490Y-40924508D01*
X185965489Y-40924508D01*
X186084145Y-41000764D01*
X186219474Y-41040499D01*
X186219476Y-41040500D01*
X186219477Y-41040500D01*
X186360524Y-41040500D01*
X186360524Y-41040499D01*
X186495853Y-41000764D01*
X186495854Y-41000764D01*
X186614510Y-40924508D01*
X186614509Y-40924508D01*
X186614512Y-40924507D01*
X186706878Y-40817911D01*
X186765471Y-40689611D01*
X186785544Y-40550000D01*
X186765471Y-40410389D01*
X186726940Y-40326018D01*
X186706880Y-40282092D01*
X186706878Y-40282090D01*
X186706878Y-40282089D01*
X186614512Y-40175493D01*
X186614511Y-40175492D01*
X186614510Y-40175491D01*
X186495854Y-40099235D01*
X186360525Y-40059500D01*
X186360523Y-40059500D01*
X186219477Y-40059500D01*
X186219474Y-40059500D01*
X186084146Y-40099235D01*
X186084145Y-40099235D01*
X185965489Y-40175491D01*
X185873122Y-40282089D01*
X185873119Y-40282092D01*
X185814530Y-40410385D01*
X185814528Y-40410393D01*
X185794456Y-40550000D01*
X126497751Y-40550000D01*
X126498976Y-37693433D01*
X126499073Y-37690001D01*
X127834532Y-37690001D01*
X127854364Y-37916686D01*
X127854366Y-37916697D01*
X127913258Y-38136488D01*
X127913261Y-38136497D01*
X128009431Y-38342732D01*
X128009432Y-38342734D01*
X128139954Y-38529141D01*
X128300858Y-38690045D01*
X128300861Y-38690047D01*
X128487266Y-38820568D01*
X128693504Y-38916739D01*
X128913308Y-38975635D01*
X129083214Y-38990499D01*
X129083215Y-38990500D01*
X129083216Y-38990500D01*
X129196785Y-38990500D01*
X129196785Y-38990499D01*
X129366692Y-38975635D01*
X129586496Y-38916739D01*
X129729619Y-38849999D01*
X151918667Y-38849999D01*
X151918668Y-38850000D01*
X152440400Y-38850000D01*
X152418239Y-38869202D01*
X152340507Y-38990156D01*
X152300000Y-39128111D01*
X152300000Y-39271889D01*
X152340507Y-39409844D01*
X152418239Y-39530798D01*
X152440400Y-39550000D01*
X151918668Y-39550000D01*
X151973278Y-39718072D01*
X151973283Y-39718084D01*
X152067870Y-39881915D01*
X152067872Y-39881918D01*
X152194460Y-40022509D01*
X152194463Y-40022511D01*
X152347522Y-40133717D01*
X152449999Y-40179341D01*
X152450000Y-40179341D01*
X152450000Y-39558318D01*
X152526900Y-39624952D01*
X152657685Y-39684680D01*
X152764237Y-39700000D01*
X152835763Y-39700000D01*
X152942315Y-39684680D01*
X153073100Y-39624952D01*
X153150000Y-39558318D01*
X153150000Y-40179340D01*
X153252477Y-40133715D01*
X153405535Y-40022512D01*
X153443148Y-39980739D01*
X154309500Y-39980739D01*
X154323981Y-40072170D01*
X154323981Y-40072171D01*
X154323982Y-40072174D01*
X154323983Y-40072175D01*
X154378586Y-40179340D01*
X154380142Y-40182392D01*
X154380145Y-40182396D01*
X154467603Y-40269854D01*
X154467605Y-40269855D01*
X154467609Y-40269859D01*
X154577825Y-40326017D01*
X154577826Y-40326017D01*
X154577828Y-40326018D01*
X154612947Y-40331579D01*
X154669265Y-40340500D01*
X155930734Y-40340499D01*
X155930739Y-40340499D01*
X155930739Y-40340498D01*
X155976454Y-40333258D01*
X156022170Y-40326018D01*
X156022171Y-40326018D01*
X156022172Y-40326017D01*
X156022175Y-40326017D01*
X156132391Y-40269859D01*
X156219859Y-40182391D01*
X156276017Y-40072175D01*
X156276017Y-40072173D01*
X156276018Y-40072172D01*
X156276018Y-40072171D01*
X156282697Y-40030000D01*
X194806956Y-40030000D01*
X194827028Y-40169606D01*
X194827030Y-40169614D01*
X194885619Y-40297907D01*
X194885621Y-40297909D01*
X194885622Y-40297911D01*
X194977988Y-40404507D01*
X194977990Y-40404508D01*
X194977989Y-40404508D01*
X195096645Y-40480764D01*
X195231974Y-40520499D01*
X195231976Y-40520500D01*
X195231977Y-40520500D01*
X195373024Y-40520500D01*
X195373024Y-40520499D01*
X195487966Y-40486750D01*
X195508353Y-40480764D01*
X195508354Y-40480764D01*
X195560872Y-40447013D01*
X195627012Y-40404507D01*
X195719378Y-40297911D01*
X195764289Y-40199568D01*
X195810041Y-40146769D01*
X195877080Y-40127084D01*
X195944120Y-40146768D01*
X195989875Y-40199572D01*
X196019372Y-40264161D01*
X196111738Y-40370757D01*
X196111740Y-40370758D01*
X196111739Y-40370758D01*
X196230395Y-40447014D01*
X196365724Y-40486749D01*
X196365726Y-40486750D01*
X196365727Y-40486750D01*
X196506774Y-40486750D01*
X196506774Y-40486749D01*
X196642103Y-40447014D01*
X196642104Y-40447014D01*
X196699088Y-40410393D01*
X196760762Y-40370757D01*
X196853128Y-40264161D01*
X196911721Y-40135861D01*
X196931794Y-39996250D01*
X196911721Y-39856639D01*
X196868543Y-39762092D01*
X196853130Y-39728342D01*
X196853128Y-39728340D01*
X196853128Y-39728339D01*
X196760762Y-39621743D01*
X196760759Y-39621741D01*
X196760760Y-39621741D01*
X196642104Y-39545485D01*
X196506775Y-39505750D01*
X196506773Y-39505750D01*
X196365727Y-39505750D01*
X196365724Y-39505750D01*
X196230396Y-39545485D01*
X196230395Y-39545485D01*
X196111739Y-39621741D01*
X196019372Y-39728339D01*
X196019371Y-39728340D01*
X195974462Y-39826677D01*
X195928707Y-39879481D01*
X195861668Y-39899165D01*
X195794628Y-39879480D01*
X195748875Y-39826678D01*
X195719378Y-39762089D01*
X195627012Y-39655493D01*
X195627009Y-39655491D01*
X195627010Y-39655491D01*
X195508354Y-39579235D01*
X195373025Y-39539500D01*
X195373023Y-39539500D01*
X195231977Y-39539500D01*
X195231974Y-39539500D01*
X195096646Y-39579235D01*
X195096645Y-39579235D01*
X194977989Y-39655491D01*
X194885622Y-39762089D01*
X194885619Y-39762092D01*
X194827030Y-39890385D01*
X194827028Y-39890393D01*
X194806956Y-40030000D01*
X156282697Y-40030000D01*
X156283883Y-40022509D01*
X156290500Y-39980735D01*
X156290500Y-39210000D01*
X178734836Y-39210000D01*
X178753411Y-39351097D01*
X178753413Y-39351102D01*
X178807871Y-39482577D01*
X178807871Y-39482578D01*
X178807873Y-39482581D01*
X178807874Y-39482582D01*
X178894511Y-39595489D01*
X179007418Y-39682126D01*
X179007421Y-39682127D01*
X179007422Y-39682128D01*
X179073159Y-39709357D01*
X179138901Y-39736588D01*
X179209450Y-39745876D01*
X179279999Y-39755164D01*
X179280000Y-39755164D01*
X179280001Y-39755164D01*
X179327033Y-39748972D01*
X179421099Y-39736588D01*
X179552577Y-39682128D01*
X179552578Y-39682128D01*
X179552578Y-39682127D01*
X179552582Y-39682126D01*
X179665489Y-39595489D01*
X179752126Y-39482582D01*
X179806588Y-39351099D01*
X179825164Y-39210000D01*
X179806588Y-39068901D01*
X179752128Y-38937422D01*
X179752128Y-38937421D01*
X179752126Y-38937418D01*
X179665489Y-38824511D01*
X179552582Y-38737874D01*
X179552579Y-38737873D01*
X179552577Y-38737871D01*
X179421102Y-38683413D01*
X179421097Y-38683411D01*
X179280001Y-38664836D01*
X179279999Y-38664836D01*
X179138902Y-38683411D01*
X179138897Y-38683413D01*
X179007422Y-38737871D01*
X179007421Y-38737871D01*
X178894511Y-38824511D01*
X178807871Y-38937421D01*
X178807871Y-38937422D01*
X178753413Y-39068897D01*
X178753411Y-39068902D01*
X178734836Y-39209999D01*
X178734836Y-39210000D01*
X156290500Y-39210000D01*
X156290499Y-38419266D01*
X156290499Y-38419264D01*
X156290499Y-38419260D01*
X156276018Y-38327829D01*
X156276018Y-38327828D01*
X156276017Y-38327826D01*
X156276017Y-38327825D01*
X156219859Y-38217609D01*
X156219857Y-38217607D01*
X156219854Y-38217603D01*
X156132396Y-38130145D01*
X156132393Y-38130143D01*
X156132391Y-38130141D01*
X156022175Y-38073983D01*
X156022174Y-38073982D01*
X156022171Y-38073981D01*
X155930735Y-38059500D01*
X154669260Y-38059500D01*
X154669260Y-38059501D01*
X154577829Y-38073981D01*
X154577828Y-38073981D01*
X154467607Y-38130142D01*
X154467603Y-38130145D01*
X154380145Y-38217603D01*
X154380143Y-38217607D01*
X154380141Y-38217609D01*
X154361421Y-38254347D01*
X154323981Y-38327827D01*
X154323981Y-38327828D01*
X154309500Y-38419264D01*
X154309500Y-39980739D01*
X153443148Y-39980739D01*
X153532127Y-39881918D01*
X153532129Y-39881915D01*
X153626716Y-39718084D01*
X153626721Y-39718072D01*
X153681332Y-39550000D01*
X153159600Y-39550000D01*
X153181761Y-39530798D01*
X153259493Y-39409844D01*
X153300000Y-39271889D01*
X153300000Y-39128111D01*
X153259493Y-38990156D01*
X153181761Y-38869202D01*
X153159600Y-38850000D01*
X153681332Y-38850000D01*
X153681332Y-38849999D01*
X153626721Y-38681927D01*
X153626716Y-38681915D01*
X153532129Y-38518084D01*
X153532127Y-38518081D01*
X153405539Y-38377490D01*
X153405536Y-38377488D01*
X153252478Y-38266283D01*
X153150000Y-38220656D01*
X153150000Y-38841681D01*
X153073100Y-38775048D01*
X152942315Y-38715320D01*
X152835763Y-38700000D01*
X152764237Y-38700000D01*
X152657685Y-38715320D01*
X152526900Y-38775048D01*
X152450000Y-38841681D01*
X152450000Y-38220658D01*
X152347518Y-38266286D01*
X152194464Y-38377487D01*
X152067872Y-38518081D01*
X152067870Y-38518084D01*
X151973283Y-38681915D01*
X151973278Y-38681927D01*
X151918667Y-38849999D01*
X129729619Y-38849999D01*
X129792734Y-38820568D01*
X129979139Y-38690047D01*
X130140047Y-38529139D01*
X130270568Y-38342734D01*
X130366739Y-38136496D01*
X130425635Y-37916692D01*
X130428072Y-37888833D01*
X187625624Y-37888833D01*
X187635944Y-38052860D01*
X187686732Y-38209171D01*
X187686734Y-38209175D01*
X187774798Y-38347940D01*
X187894603Y-38460445D01*
X187894611Y-38460451D01*
X188019558Y-38529141D01*
X188038632Y-38539627D01*
X188197823Y-38580500D01*
X188197827Y-38580500D01*
X188320923Y-38580500D01*
X188320925Y-38580500D01*
X188320930Y-38580499D01*
X188320934Y-38580499D01*
X188334174Y-38578826D01*
X188443058Y-38565071D01*
X188595871Y-38504568D01*
X188595878Y-38504563D01*
X188728835Y-38407965D01*
X188728835Y-38407963D01*
X188728837Y-38407963D01*
X188833600Y-38281326D01*
X188903579Y-38132613D01*
X188934376Y-37971170D01*
X188929196Y-37888833D01*
X190625624Y-37888833D01*
X190635944Y-38052860D01*
X190686732Y-38209171D01*
X190686734Y-38209175D01*
X190774798Y-38347940D01*
X190894603Y-38460445D01*
X190894611Y-38460451D01*
X191019558Y-38529141D01*
X191038632Y-38539627D01*
X191197823Y-38580500D01*
X191197827Y-38580500D01*
X191320923Y-38580500D01*
X191320925Y-38580500D01*
X191320930Y-38580499D01*
X191320934Y-38580499D01*
X191334174Y-38578826D01*
X191443058Y-38565071D01*
X191595871Y-38504568D01*
X191595878Y-38504563D01*
X191728835Y-38407965D01*
X191728835Y-38407963D01*
X191728837Y-38407963D01*
X191833600Y-38281326D01*
X191903579Y-38132613D01*
X191934376Y-37971170D01*
X191924056Y-37807140D01*
X191885996Y-37690001D01*
X215734532Y-37690001D01*
X215754364Y-37916686D01*
X215754366Y-37916697D01*
X215813258Y-38136488D01*
X215813261Y-38136497D01*
X215909431Y-38342732D01*
X215909432Y-38342734D01*
X216039954Y-38529141D01*
X216200858Y-38690045D01*
X216200861Y-38690047D01*
X216387266Y-38820568D01*
X216593504Y-38916739D01*
X216813308Y-38975635D01*
X216983214Y-38990499D01*
X216983215Y-38990500D01*
X216983216Y-38990500D01*
X217096785Y-38990500D01*
X217096785Y-38990499D01*
X217266692Y-38975635D01*
X217486496Y-38916739D01*
X217692734Y-38820568D01*
X217879139Y-38690047D01*
X218040047Y-38529139D01*
X218170568Y-38342734D01*
X218266739Y-38136496D01*
X218325635Y-37916692D01*
X218345468Y-37690000D01*
X218345459Y-37689901D01*
X218325635Y-37463313D01*
X218325635Y-37463308D01*
X218266739Y-37243504D01*
X218170568Y-37037266D01*
X218040047Y-36850861D01*
X218040045Y-36850858D01*
X217879141Y-36689954D01*
X217692734Y-36559432D01*
X217692732Y-36559431D01*
X217486497Y-36463261D01*
X217486488Y-36463258D01*
X217266697Y-36404366D01*
X217266687Y-36404364D01*
X217096785Y-36389500D01*
X217096784Y-36389500D01*
X216983216Y-36389500D01*
X216983215Y-36389500D01*
X216813312Y-36404364D01*
X216813302Y-36404366D01*
X216593511Y-36463258D01*
X216593502Y-36463261D01*
X216387267Y-36559431D01*
X216387265Y-36559432D01*
X216200858Y-36689954D01*
X216039954Y-36850858D01*
X215909432Y-37037265D01*
X215909431Y-37037267D01*
X215813261Y-37243502D01*
X215813258Y-37243511D01*
X215754366Y-37463302D01*
X215754364Y-37463313D01*
X215734532Y-37689998D01*
X215734532Y-37690001D01*
X191885996Y-37690001D01*
X191873268Y-37650829D01*
X191785202Y-37512060D01*
X191733292Y-37463313D01*
X191665396Y-37399554D01*
X191665388Y-37399548D01*
X191521371Y-37320374D01*
X191521361Y-37320371D01*
X191362180Y-37279500D01*
X191362177Y-37279500D01*
X191239075Y-37279500D01*
X191239065Y-37279500D01*
X191116942Y-37294929D01*
X191116939Y-37294929D01*
X190964130Y-37355431D01*
X190964121Y-37355436D01*
X190831164Y-37452034D01*
X190831162Y-37452037D01*
X190726400Y-37578673D01*
X190656420Y-37727387D01*
X190641207Y-37807139D01*
X190625624Y-37888830D01*
X190625624Y-37888832D01*
X190625624Y-37888833D01*
X188929196Y-37888833D01*
X188924056Y-37807140D01*
X188873268Y-37650829D01*
X188785202Y-37512060D01*
X188733292Y-37463313D01*
X188665396Y-37399554D01*
X188665388Y-37399548D01*
X188521371Y-37320374D01*
X188521361Y-37320371D01*
X188362180Y-37279500D01*
X188362177Y-37279500D01*
X188239075Y-37279500D01*
X188239065Y-37279500D01*
X188116942Y-37294929D01*
X188116939Y-37294929D01*
X187964130Y-37355431D01*
X187964121Y-37355436D01*
X187831164Y-37452034D01*
X187831162Y-37452037D01*
X187726400Y-37578673D01*
X187656420Y-37727387D01*
X187641207Y-37807139D01*
X187625624Y-37888830D01*
X187625624Y-37888832D01*
X187625624Y-37888833D01*
X130428072Y-37888833D01*
X130445468Y-37690000D01*
X130445459Y-37689901D01*
X130425635Y-37463313D01*
X130425635Y-37463308D01*
X130366739Y-37243504D01*
X130270568Y-37037266D01*
X130140047Y-36850861D01*
X130140045Y-36850858D01*
X129979141Y-36689954D01*
X129792734Y-36559432D01*
X129792732Y-36559431D01*
X129586497Y-36463261D01*
X129586488Y-36463258D01*
X129366697Y-36404366D01*
X129366687Y-36404364D01*
X129196785Y-36389500D01*
X129196784Y-36389500D01*
X129083216Y-36389500D01*
X129083215Y-36389500D01*
X128913312Y-36404364D01*
X128913302Y-36404366D01*
X128693511Y-36463258D01*
X128693502Y-36463261D01*
X128487267Y-36559431D01*
X128487265Y-36559432D01*
X128300858Y-36689954D01*
X128139954Y-36850858D01*
X128009432Y-37037265D01*
X128009431Y-37037267D01*
X127913261Y-37243502D01*
X127913258Y-37243511D01*
X127854366Y-37463302D01*
X127854364Y-37463313D01*
X127834532Y-37689998D01*
X127834532Y-37690001D01*
X126499073Y-37690001D01*
X126499170Y-37686573D01*
X126505855Y-37567544D01*
X126515987Y-37399343D01*
X126517509Y-37386083D01*
X126541447Y-37245194D01*
X126541681Y-37243870D01*
X126567923Y-37100675D01*
X126570731Y-37088729D01*
X126610943Y-36949154D01*
X126611644Y-36946818D01*
X126654253Y-36810083D01*
X126658058Y-36799573D01*
X126713993Y-36664535D01*
X126715397Y-36661285D01*
X126773805Y-36531512D01*
X126778300Y-36522527D01*
X126849218Y-36394215D01*
X126851571Y-36390146D01*
X126924918Y-36268819D01*
X126929863Y-36261278D01*
X127014813Y-36141555D01*
X127018276Y-36136912D01*
X127105570Y-36025492D01*
X127110665Y-36019405D01*
X127208587Y-35909834D01*
X127213283Y-35904868D01*
X127313310Y-35804844D01*
X127318325Y-35800103D01*
X127427835Y-35702241D01*
X127433953Y-35697119D01*
X127545411Y-35609801D01*
X127549994Y-35606384D01*
X127669759Y-35521409D01*
X127677283Y-35516476D01*
X127798602Y-35443139D01*
X127802674Y-35440784D01*
X127930967Y-35369882D01*
X127940037Y-35365346D01*
X127942059Y-35364435D01*
X128069684Y-35306999D01*
X128073024Y-35305556D01*
X128208057Y-35249627D01*
X128218556Y-35245826D01*
X128355225Y-35203242D01*
X128357607Y-35202527D01*
X128497211Y-35162312D01*
X128509169Y-35159501D01*
X128652270Y-35133281D01*
X128653503Y-35133063D01*
X128794620Y-35109090D01*
X128807866Y-35107570D01*
X128964793Y-35098081D01*
X129096397Y-35090694D01*
X129103338Y-35090500D01*
X217094999Y-35090500D01*
X217101950Y-35090695D01*
G37*
G04 #@! TD.AperFunction*
M02*
