M48
; DRILL file {KiCad 7.0.11-2.fc39} date Thu 02 May 2024 20:43:35 EEST
; FORMAT={-:-/ absolute / metric / decimal}
; #@! TF.CreationDate,2024-05-02T20:43:35+03:00
; #@! TF.GenerationSoftware,Kicad,Pcbnew,7.0.11-2.fc39
; #@! TF.FileFunction,Plated,1,4,PTH
FMAT,2
METRIC
; #@! TA.AperFunction,Plated,PTH,ViaDrill
T1C0.300
; #@! TA.AperFunction,Plated,PTH,ComponentDrill
T2C0.300
; #@! TA.AperFunction,Plated,PTH,ViaDrill
T3C0.400
; #@! TA.AperFunction,Plated,PTH,ComponentDrill
T4C0.600
; #@! TA.AperFunction,Plated,PTH,ComponentDrill
T5C0.850
; #@! TA.AperFunction,Plated,PTH,ComponentDrill
T6C0.950
; #@! TA.AperFunction,Plated,PTH,ComponentDrill
T7C1.000
; #@! TA.AperFunction,Plated,PTH,ComponentDrill
T8C1.800
%
G90
G05
T1
X127.58Y-69.42
X128.89Y-56.53
X130.87Y-54.74
X132.87Y-56.52
X136.376Y-64.234
X139.42Y-61.35
X143.946Y-66.124
X148.094Y-63.094
X153.24Y-44.77
X154.25Y-65.32
X155.506Y-48.134
X159.04Y-71.49
X161.246Y-77.934
X161.41Y-57.64
X162.27Y-53.65
X162.946Y-52.924
X163.36Y-45.19
X163.696Y-77.104
X164.44Y-69.39
X164.54Y-42.79
X164.74Y-66.19
X166.237Y-52.982
X167.14Y-62.59
X167.23Y-42.799
X174.0Y-75.38
X174.81Y-52.12
X177.28Y-48.26
X180.14Y-47.49
X181.17Y-52.62
X181.22Y-49.88
X182.44Y-47.49
X184.19Y-61.61
X184.41Y-55.35
X184.44Y-47.49
X186.29Y-40.55
X187.67Y-45.24
X188.74Y-45.87
X190.41Y-58.47
X190.522Y-39.17
X191.914Y-59.374
X192.75Y-59.45
X193.322Y-42.19
X193.43Y-40.27
X195.19Y-61.01
X195.302Y-40.03
X195.57Y-46.46
X195.66Y-55.91
X196.31Y-55.34
X196.35Y-45.77
X196.436Y-39.996
X197.0Y-54.73
X197.15Y-45.18
X197.69Y-54.13
X198.02Y-44.22
X198.34Y-61.01
X202.91Y-49.51
X204.22Y-52.95
X205.98Y-55.475
X213.48Y-59.37
X216.164Y-88.206
X216.204Y-86.326
T2
X145.306Y-64.164
X160.166Y-69.484
X163.281Y-80.129
X163.281Y-81.479
X164.631Y-80.129
X164.631Y-81.479
T3
X127.45Y-86.93
X127.86Y-73.04
X128.56Y-77.51
X128.56Y-83.24
X128.58Y-80.53
X128.6Y-74.87
X131.35Y-81.79
X131.41Y-76.21
X131.53Y-86.89
X131.75Y-73.08
X135.49Y-86.85
X135.66Y-73.05
X139.7Y-86.89
X139.83Y-73.05
X141.53Y-82.75
X142.796Y-66.154
X143.66Y-86.89
X143.7Y-54.46
X144.0Y-73.05
X145.13Y-82.05
X147.85Y-73.05
X148.02Y-86.93
X150.93Y-39.14
X151.81Y-73.03
X151.87Y-86.87
X152.03Y-82.7
X152.7Y-41.41
X152.76Y-37.34
X153.12Y-84.45
X155.89Y-73.05
X155.89Y-86.89
X157.616Y-70.914
X157.72Y-77.35
X159.48Y-73.01
X159.55Y-74.79
X159.55Y-85.54
X159.59Y-76.27
X159.59Y-86.8
X160.216Y-84.214
X161.246Y-84.174
X161.975Y-48.75
X162.219Y-77.531
X162.286Y-84.164
X164.64Y-73.44
X165.327Y-77.524
X165.98Y-87.73
X166.734Y-85.006
X167.11Y-88.52
X167.82Y-55.81
X168.98Y-84.93
X169.51Y-51.48
X169.92Y-54.69
X170.52Y-53.69
X170.97Y-57.01
X171.15Y-80.17
X171.176Y-81.414
X179.28Y-39.21
X182.67Y-54.01
X182.84Y-36.97
X184.713Y-49.9
X185.886Y-56.586
X187.482Y-46.64
X190.41Y-55.17
X192.88Y-64.22
X193.086Y-58.356
X194.06Y-62.87
X195.812Y-49.32
X196.716Y-49.816
X200.266Y-56.346
X210.07Y-81.52
X211.17Y-81.52
X213.34Y-73.36
X213.38Y-70.95
X213.44Y-62.01
X214.05Y-81.49
X214.08Y-49.74
T5
X214.778Y-48.81
X214.778Y-53.81
T6
X215.22Y-70.86
X215.22Y-73.36
X215.22Y-75.86
X215.295Y-59.49
X215.295Y-61.99
X215.295Y-64.49
T7
X130.9Y-47.36
X130.9Y-49.86
X130.91Y-56.57
X130.91Y-59.07
X152.8Y-39.2
X155.3Y-39.2
T8
X138.196Y-46.554
X209.596Y-46.554
T4
X217.127Y-47.81G85X217.827Y-47.81
G05
X217.827Y-54.81G85X217.127Y-54.81
G05
M30
