%TF.GenerationSoftware,KiCad,Pcbnew,7.0.11-2.fc39*%
%TF.CreationDate,2024-05-02T20:43:35+03:00*%
%TF.ProjectId,mainboard_v1.1,6d61696e-626f-4617-9264-5f76312e312e,rev?*%
%TF.SameCoordinates,Original*%
%TF.FileFunction,Drillmap*%
%TF.FilePolarity,Positive*%
%FSLAX45Y45*%
G04 Gerber Fmt 4.5, Leading zero omitted, Abs format (unit mm)*
G04 Created by KiCad (PCBNEW 7.0.11-2.fc39) date 2024-05-02 20:43:35*
%MOMM*%
%LPD*%
G01*
G04 APERTURE LIST*
%ADD10C,0.100000*%
%ADD11C,0.200000*%
%ADD12C,0.180000*%
%ADD13C,0.220000*%
%ADD14C,0.300000*%
G04 APERTURE END LIST*
D10*
X20873000Y-8952000D02*
G75*
G03*
X21133000Y-9212000I260000J0D01*
G01*
X21969848Y-3769000D02*
X21967625Y-8950375D01*
X20633000Y-8239000D02*
X20873000Y-8239000D01*
X20633000Y-8952000D02*
X20633000Y-8239000D01*
X20873000Y-8239000D02*
X20873000Y-8952000D01*
X20373000Y-9212000D02*
X12907625Y-9210375D01*
X12909848Y-3509008D02*
G75*
G03*
X12649848Y-3769000I-8J-259992D01*
G01*
X12647625Y-8950375D02*
G75*
G03*
X12907625Y-9210375I259995J-5D01*
G01*
X12909848Y-3509000D02*
X21709848Y-3509000D01*
X21969850Y-3769000D02*
G75*
G03*
X21709848Y-3509000I-260000J0D01*
G01*
X21707625Y-9210375D02*
G75*
G03*
X21967625Y-8950375I5J259995D01*
G01*
X21133000Y-9212000D02*
X21707625Y-9210375D01*
X20373000Y-9212000D02*
G75*
G03*
X20633000Y-8952000I0J260000D01*
G01*
X12647625Y-8950375D02*
X12649848Y-3769000D01*
D11*
D10*
X18783000Y-3748000D02*
X18873000Y-3838000D01*
X18873000Y-3748000D02*
X18783000Y-3838000D01*
X19083000Y-3748000D02*
X19173000Y-3838000D01*
X19173000Y-3748000D02*
X19083000Y-3838000D01*
D12*
X14054625Y-5625375D02*
G75*
G03*
X13874625Y-5625375I-90000J0D01*
G01*
X13874625Y-5625375D02*
G75*
G03*
X14054625Y-5625375I90000J0D01*
G01*
D13*
X12907625Y-8841375D02*
X12907625Y-9061375D01*
X12797625Y-8951375D02*
X13017625Y-8951375D01*
X12914000Y-3659000D02*
X12914000Y-3879000D01*
X12804000Y-3769000D02*
X13024000Y-3769000D01*
X21704000Y-3659000D02*
X21704000Y-3879000D01*
X21594000Y-3769000D02*
X21814000Y-3769000D01*
D14*
X14810692Y-4761442D02*
X14810692Y-4549308D01*
X14598558Y-4549308D01*
X14598558Y-4761442D01*
X14810692Y-4761442D01*
X20180692Y-4761442D02*
X20180692Y-4549308D01*
X19968558Y-4549308D01*
X19968558Y-4761442D01*
X20180692Y-4761442D01*
D11*
X12903402Y-9528484D02*
X12903402Y-9328484D01*
X12903402Y-9328484D02*
X12951021Y-9328484D01*
X12951021Y-9328484D02*
X12979592Y-9338008D01*
X12979592Y-9338008D02*
X12998640Y-9357055D01*
X12998640Y-9357055D02*
X13008164Y-9376103D01*
X13008164Y-9376103D02*
X13017687Y-9414198D01*
X13017687Y-9414198D02*
X13017687Y-9442770D01*
X13017687Y-9442770D02*
X13008164Y-9480865D01*
X13008164Y-9480865D02*
X12998640Y-9499912D01*
X12998640Y-9499912D02*
X12979592Y-9518960D01*
X12979592Y-9518960D02*
X12951021Y-9528484D01*
X12951021Y-9528484D02*
X12903402Y-9528484D01*
X13103402Y-9528484D02*
X13103402Y-9395150D01*
X13103402Y-9433246D02*
X13112926Y-9414198D01*
X13112926Y-9414198D02*
X13122449Y-9404674D01*
X13122449Y-9404674D02*
X13141497Y-9395150D01*
X13141497Y-9395150D02*
X13160545Y-9395150D01*
X13227211Y-9528484D02*
X13227211Y-9395150D01*
X13227211Y-9328484D02*
X13217687Y-9338008D01*
X13217687Y-9338008D02*
X13227211Y-9347531D01*
X13227211Y-9347531D02*
X13236735Y-9338008D01*
X13236735Y-9338008D02*
X13227211Y-9328484D01*
X13227211Y-9328484D02*
X13227211Y-9347531D01*
X13351021Y-9528484D02*
X13331973Y-9518960D01*
X13331973Y-9518960D02*
X13322449Y-9499912D01*
X13322449Y-9499912D02*
X13322449Y-9328484D01*
X13455783Y-9528484D02*
X13436735Y-9518960D01*
X13436735Y-9518960D02*
X13427211Y-9499912D01*
X13427211Y-9499912D02*
X13427211Y-9328484D01*
X13684354Y-9528484D02*
X13684354Y-9328484D01*
X13684354Y-9328484D02*
X13751021Y-9471341D01*
X13751021Y-9471341D02*
X13817687Y-9328484D01*
X13817687Y-9328484D02*
X13817687Y-9528484D01*
X13998640Y-9528484D02*
X13998640Y-9423722D01*
X13998640Y-9423722D02*
X13989116Y-9404674D01*
X13989116Y-9404674D02*
X13970068Y-9395150D01*
X13970068Y-9395150D02*
X13931973Y-9395150D01*
X13931973Y-9395150D02*
X13912926Y-9404674D01*
X13998640Y-9518960D02*
X13979592Y-9528484D01*
X13979592Y-9528484D02*
X13931973Y-9528484D01*
X13931973Y-9528484D02*
X13912926Y-9518960D01*
X13912926Y-9518960D02*
X13903402Y-9499912D01*
X13903402Y-9499912D02*
X13903402Y-9480865D01*
X13903402Y-9480865D02*
X13912926Y-9461817D01*
X13912926Y-9461817D02*
X13931973Y-9452293D01*
X13931973Y-9452293D02*
X13979592Y-9452293D01*
X13979592Y-9452293D02*
X13998640Y-9442770D01*
X14093878Y-9395150D02*
X14093878Y-9595150D01*
X14093878Y-9404674D02*
X14112926Y-9395150D01*
X14112926Y-9395150D02*
X14151021Y-9395150D01*
X14151021Y-9395150D02*
X14170068Y-9404674D01*
X14170068Y-9404674D02*
X14179592Y-9414198D01*
X14179592Y-9414198D02*
X14189116Y-9433246D01*
X14189116Y-9433246D02*
X14189116Y-9490389D01*
X14189116Y-9490389D02*
X14179592Y-9509436D01*
X14179592Y-9509436D02*
X14170068Y-9518960D01*
X14170068Y-9518960D02*
X14151021Y-9528484D01*
X14151021Y-9528484D02*
X14112926Y-9528484D01*
X14112926Y-9528484D02*
X14093878Y-9518960D01*
X14274830Y-9509436D02*
X14284354Y-9518960D01*
X14284354Y-9518960D02*
X14274830Y-9528484D01*
X14274830Y-9528484D02*
X14265307Y-9518960D01*
X14265307Y-9518960D02*
X14274830Y-9509436D01*
X14274830Y-9509436D02*
X14274830Y-9528484D01*
X14274830Y-9404674D02*
X14284354Y-9414198D01*
X14284354Y-9414198D02*
X14274830Y-9423722D01*
X14274830Y-9423722D02*
X14265307Y-9414198D01*
X14265307Y-9414198D02*
X14274830Y-9404674D01*
X14274830Y-9404674D02*
X14274830Y-9423722D01*
D10*
X12552625Y-9812000D02*
X12642625Y-9902000D01*
X12642625Y-9812000D02*
X12552625Y-9902000D01*
D11*
X12941497Y-9748484D02*
X12960545Y-9748484D01*
X12960545Y-9748484D02*
X12979592Y-9758008D01*
X12979592Y-9758008D02*
X12989116Y-9767531D01*
X12989116Y-9767531D02*
X12998640Y-9786579D01*
X12998640Y-9786579D02*
X13008164Y-9824674D01*
X13008164Y-9824674D02*
X13008164Y-9872293D01*
X13008164Y-9872293D02*
X12998640Y-9910389D01*
X12998640Y-9910389D02*
X12989116Y-9929436D01*
X12989116Y-9929436D02*
X12979592Y-9938960D01*
X12979592Y-9938960D02*
X12960545Y-9948484D01*
X12960545Y-9948484D02*
X12941497Y-9948484D01*
X12941497Y-9948484D02*
X12922449Y-9938960D01*
X12922449Y-9938960D02*
X12912926Y-9929436D01*
X12912926Y-9929436D02*
X12903402Y-9910389D01*
X12903402Y-9910389D02*
X12893878Y-9872293D01*
X12893878Y-9872293D02*
X12893878Y-9824674D01*
X12893878Y-9824674D02*
X12903402Y-9786579D01*
X12903402Y-9786579D02*
X12912926Y-9767531D01*
X12912926Y-9767531D02*
X12922449Y-9758008D01*
X12922449Y-9758008D02*
X12941497Y-9748484D01*
X13093878Y-9929436D02*
X13103402Y-9938960D01*
X13103402Y-9938960D02*
X13093878Y-9948484D01*
X13093878Y-9948484D02*
X13084354Y-9938960D01*
X13084354Y-9938960D02*
X13093878Y-9929436D01*
X13093878Y-9929436D02*
X13093878Y-9948484D01*
X13198640Y-9948484D02*
X13236735Y-9948484D01*
X13236735Y-9948484D02*
X13255783Y-9938960D01*
X13255783Y-9938960D02*
X13265307Y-9929436D01*
X13265307Y-9929436D02*
X13284354Y-9900865D01*
X13284354Y-9900865D02*
X13293878Y-9862770D01*
X13293878Y-9862770D02*
X13293878Y-9786579D01*
X13293878Y-9786579D02*
X13284354Y-9767531D01*
X13284354Y-9767531D02*
X13274830Y-9758008D01*
X13274830Y-9758008D02*
X13255783Y-9748484D01*
X13255783Y-9748484D02*
X13217687Y-9748484D01*
X13217687Y-9748484D02*
X13198640Y-9758008D01*
X13198640Y-9758008D02*
X13189116Y-9767531D01*
X13189116Y-9767531D02*
X13179592Y-9786579D01*
X13179592Y-9786579D02*
X13179592Y-9834198D01*
X13179592Y-9834198D02*
X13189116Y-9853246D01*
X13189116Y-9853246D02*
X13198640Y-9862770D01*
X13198640Y-9862770D02*
X13217687Y-9872293D01*
X13217687Y-9872293D02*
X13255783Y-9872293D01*
X13255783Y-9872293D02*
X13274830Y-9862770D01*
X13274830Y-9862770D02*
X13284354Y-9853246D01*
X13284354Y-9853246D02*
X13293878Y-9834198D01*
X13417687Y-9748484D02*
X13436735Y-9748484D01*
X13436735Y-9748484D02*
X13455783Y-9758008D01*
X13455783Y-9758008D02*
X13465307Y-9767531D01*
X13465307Y-9767531D02*
X13474830Y-9786579D01*
X13474830Y-9786579D02*
X13484354Y-9824674D01*
X13484354Y-9824674D02*
X13484354Y-9872293D01*
X13484354Y-9872293D02*
X13474830Y-9910389D01*
X13474830Y-9910389D02*
X13465307Y-9929436D01*
X13465307Y-9929436D02*
X13455783Y-9938960D01*
X13455783Y-9938960D02*
X13436735Y-9948484D01*
X13436735Y-9948484D02*
X13417687Y-9948484D01*
X13417687Y-9948484D02*
X13398640Y-9938960D01*
X13398640Y-9938960D02*
X13389116Y-9929436D01*
X13389116Y-9929436D02*
X13379592Y-9910389D01*
X13379592Y-9910389D02*
X13370068Y-9872293D01*
X13370068Y-9872293D02*
X13370068Y-9824674D01*
X13370068Y-9824674D02*
X13379592Y-9786579D01*
X13379592Y-9786579D02*
X13389116Y-9767531D01*
X13389116Y-9767531D02*
X13398640Y-9758008D01*
X13398640Y-9758008D02*
X13417687Y-9748484D01*
X13608164Y-9748484D02*
X13627211Y-9748484D01*
X13627211Y-9748484D02*
X13646259Y-9758008D01*
X13646259Y-9758008D02*
X13655783Y-9767531D01*
X13655783Y-9767531D02*
X13665307Y-9786579D01*
X13665307Y-9786579D02*
X13674830Y-9824674D01*
X13674830Y-9824674D02*
X13674830Y-9872293D01*
X13674830Y-9872293D02*
X13665307Y-9910389D01*
X13665307Y-9910389D02*
X13655783Y-9929436D01*
X13655783Y-9929436D02*
X13646259Y-9938960D01*
X13646259Y-9938960D02*
X13627211Y-9948484D01*
X13627211Y-9948484D02*
X13608164Y-9948484D01*
X13608164Y-9948484D02*
X13589116Y-9938960D01*
X13589116Y-9938960D02*
X13579592Y-9929436D01*
X13579592Y-9929436D02*
X13570068Y-9910389D01*
X13570068Y-9910389D02*
X13560545Y-9872293D01*
X13560545Y-9872293D02*
X13560545Y-9824674D01*
X13560545Y-9824674D02*
X13570068Y-9786579D01*
X13570068Y-9786579D02*
X13579592Y-9767531D01*
X13579592Y-9767531D02*
X13589116Y-9758008D01*
X13589116Y-9758008D02*
X13608164Y-9748484D01*
X13760545Y-9948484D02*
X13760545Y-9815150D01*
X13760545Y-9834198D02*
X13770068Y-9824674D01*
X13770068Y-9824674D02*
X13789116Y-9815150D01*
X13789116Y-9815150D02*
X13817688Y-9815150D01*
X13817688Y-9815150D02*
X13836735Y-9824674D01*
X13836735Y-9824674D02*
X13846259Y-9843722D01*
X13846259Y-9843722D02*
X13846259Y-9948484D01*
X13846259Y-9843722D02*
X13855783Y-9824674D01*
X13855783Y-9824674D02*
X13874830Y-9815150D01*
X13874830Y-9815150D02*
X13903402Y-9815150D01*
X13903402Y-9815150D02*
X13922449Y-9824674D01*
X13922449Y-9824674D02*
X13931973Y-9843722D01*
X13931973Y-9843722D02*
X13931973Y-9948484D01*
X14027211Y-9948484D02*
X14027211Y-9815150D01*
X14027211Y-9834198D02*
X14036735Y-9824674D01*
X14036735Y-9824674D02*
X14055783Y-9815150D01*
X14055783Y-9815150D02*
X14084354Y-9815150D01*
X14084354Y-9815150D02*
X14103402Y-9824674D01*
X14103402Y-9824674D02*
X14112926Y-9843722D01*
X14112926Y-9843722D02*
X14112926Y-9948484D01*
X14112926Y-9843722D02*
X14122449Y-9824674D01*
X14122449Y-9824674D02*
X14141497Y-9815150D01*
X14141497Y-9815150D02*
X14170068Y-9815150D01*
X14170068Y-9815150D02*
X14189116Y-9824674D01*
X14189116Y-9824674D02*
X14198640Y-9843722D01*
X14198640Y-9843722D02*
X14198640Y-9948484D01*
X14589116Y-9738960D02*
X14417688Y-9996103D01*
X14846259Y-9748484D02*
X14865307Y-9748484D01*
X14865307Y-9748484D02*
X14884354Y-9758008D01*
X14884354Y-9758008D02*
X14893878Y-9767531D01*
X14893878Y-9767531D02*
X14903402Y-9786579D01*
X14903402Y-9786579D02*
X14912926Y-9824674D01*
X14912926Y-9824674D02*
X14912926Y-9872293D01*
X14912926Y-9872293D02*
X14903402Y-9910389D01*
X14903402Y-9910389D02*
X14893878Y-9929436D01*
X14893878Y-9929436D02*
X14884354Y-9938960D01*
X14884354Y-9938960D02*
X14865307Y-9948484D01*
X14865307Y-9948484D02*
X14846259Y-9948484D01*
X14846259Y-9948484D02*
X14827211Y-9938960D01*
X14827211Y-9938960D02*
X14817688Y-9929436D01*
X14817688Y-9929436D02*
X14808164Y-9910389D01*
X14808164Y-9910389D02*
X14798640Y-9872293D01*
X14798640Y-9872293D02*
X14798640Y-9824674D01*
X14798640Y-9824674D02*
X14808164Y-9786579D01*
X14808164Y-9786579D02*
X14817688Y-9767531D01*
X14817688Y-9767531D02*
X14827211Y-9758008D01*
X14827211Y-9758008D02*
X14846259Y-9748484D01*
X14998640Y-9929436D02*
X15008164Y-9938960D01*
X15008164Y-9938960D02*
X14998640Y-9948484D01*
X14998640Y-9948484D02*
X14989116Y-9938960D01*
X14989116Y-9938960D02*
X14998640Y-9929436D01*
X14998640Y-9929436D02*
X14998640Y-9948484D01*
X15131973Y-9748484D02*
X15151021Y-9748484D01*
X15151021Y-9748484D02*
X15170069Y-9758008D01*
X15170069Y-9758008D02*
X15179592Y-9767531D01*
X15179592Y-9767531D02*
X15189116Y-9786579D01*
X15189116Y-9786579D02*
X15198640Y-9824674D01*
X15198640Y-9824674D02*
X15198640Y-9872293D01*
X15198640Y-9872293D02*
X15189116Y-9910389D01*
X15189116Y-9910389D02*
X15179592Y-9929436D01*
X15179592Y-9929436D02*
X15170069Y-9938960D01*
X15170069Y-9938960D02*
X15151021Y-9948484D01*
X15151021Y-9948484D02*
X15131973Y-9948484D01*
X15131973Y-9948484D02*
X15112926Y-9938960D01*
X15112926Y-9938960D02*
X15103402Y-9929436D01*
X15103402Y-9929436D02*
X15093878Y-9910389D01*
X15093878Y-9910389D02*
X15084354Y-9872293D01*
X15084354Y-9872293D02*
X15084354Y-9824674D01*
X15084354Y-9824674D02*
X15093878Y-9786579D01*
X15093878Y-9786579D02*
X15103402Y-9767531D01*
X15103402Y-9767531D02*
X15112926Y-9758008D01*
X15112926Y-9758008D02*
X15131973Y-9748484D01*
X15265307Y-9748484D02*
X15389116Y-9748484D01*
X15389116Y-9748484D02*
X15322450Y-9824674D01*
X15322450Y-9824674D02*
X15351021Y-9824674D01*
X15351021Y-9824674D02*
X15370069Y-9834198D01*
X15370069Y-9834198D02*
X15379592Y-9843722D01*
X15379592Y-9843722D02*
X15389116Y-9862770D01*
X15389116Y-9862770D02*
X15389116Y-9910389D01*
X15389116Y-9910389D02*
X15379592Y-9929436D01*
X15379592Y-9929436D02*
X15370069Y-9938960D01*
X15370069Y-9938960D02*
X15351021Y-9948484D01*
X15351021Y-9948484D02*
X15293878Y-9948484D01*
X15293878Y-9948484D02*
X15274831Y-9938960D01*
X15274831Y-9938960D02*
X15265307Y-9929436D01*
X15570069Y-9748484D02*
X15474831Y-9748484D01*
X15474831Y-9748484D02*
X15465307Y-9843722D01*
X15465307Y-9843722D02*
X15474831Y-9834198D01*
X15474831Y-9834198D02*
X15493878Y-9824674D01*
X15493878Y-9824674D02*
X15541497Y-9824674D01*
X15541497Y-9824674D02*
X15560545Y-9834198D01*
X15560545Y-9834198D02*
X15570069Y-9843722D01*
X15570069Y-9843722D02*
X15579592Y-9862770D01*
X15579592Y-9862770D02*
X15579592Y-9910389D01*
X15579592Y-9910389D02*
X15570069Y-9929436D01*
X15570069Y-9929436D02*
X15560545Y-9938960D01*
X15560545Y-9938960D02*
X15541497Y-9948484D01*
X15541497Y-9948484D02*
X15493878Y-9948484D01*
X15493878Y-9948484D02*
X15474831Y-9938960D01*
X15474831Y-9938960D02*
X15465307Y-9929436D01*
X15751021Y-9815150D02*
X15751021Y-9948484D01*
X15703402Y-9738960D02*
X15655783Y-9881817D01*
X15655783Y-9881817D02*
X15779592Y-9881817D01*
X15846259Y-9748484D02*
X15846259Y-9786579D01*
X15922450Y-9748484D02*
X15922450Y-9786579D01*
X16217688Y-10024674D02*
X16208164Y-10015150D01*
X16208164Y-10015150D02*
X16189116Y-9986579D01*
X16189116Y-9986579D02*
X16179593Y-9967531D01*
X16179593Y-9967531D02*
X16170069Y-9938960D01*
X16170069Y-9938960D02*
X16160545Y-9891341D01*
X16160545Y-9891341D02*
X16160545Y-9853246D01*
X16160545Y-9853246D02*
X16170069Y-9805627D01*
X16170069Y-9805627D02*
X16179593Y-9777055D01*
X16179593Y-9777055D02*
X16189116Y-9758008D01*
X16189116Y-9758008D02*
X16208164Y-9729436D01*
X16208164Y-9729436D02*
X16217688Y-9719912D01*
X16284354Y-9767531D02*
X16293878Y-9758008D01*
X16293878Y-9758008D02*
X16312926Y-9748484D01*
X16312926Y-9748484D02*
X16360545Y-9748484D01*
X16360545Y-9748484D02*
X16379593Y-9758008D01*
X16379593Y-9758008D02*
X16389116Y-9767531D01*
X16389116Y-9767531D02*
X16398640Y-9786579D01*
X16398640Y-9786579D02*
X16398640Y-9805627D01*
X16398640Y-9805627D02*
X16389116Y-9834198D01*
X16389116Y-9834198D02*
X16274831Y-9948484D01*
X16274831Y-9948484D02*
X16398640Y-9948484D01*
X16636735Y-9948484D02*
X16636735Y-9748484D01*
X16722450Y-9948484D02*
X16722450Y-9843722D01*
X16722450Y-9843722D02*
X16712926Y-9824674D01*
X16712926Y-9824674D02*
X16693878Y-9815150D01*
X16693878Y-9815150D02*
X16665307Y-9815150D01*
X16665307Y-9815150D02*
X16646259Y-9824674D01*
X16646259Y-9824674D02*
X16636735Y-9834198D01*
X16846259Y-9948484D02*
X16827212Y-9938960D01*
X16827212Y-9938960D02*
X16817688Y-9929436D01*
X16817688Y-9929436D02*
X16808164Y-9910389D01*
X16808164Y-9910389D02*
X16808164Y-9853246D01*
X16808164Y-9853246D02*
X16817688Y-9834198D01*
X16817688Y-9834198D02*
X16827212Y-9824674D01*
X16827212Y-9824674D02*
X16846259Y-9815150D01*
X16846259Y-9815150D02*
X16874831Y-9815150D01*
X16874831Y-9815150D02*
X16893878Y-9824674D01*
X16893878Y-9824674D02*
X16903402Y-9834198D01*
X16903402Y-9834198D02*
X16912926Y-9853246D01*
X16912926Y-9853246D02*
X16912926Y-9910389D01*
X16912926Y-9910389D02*
X16903402Y-9929436D01*
X16903402Y-9929436D02*
X16893878Y-9938960D01*
X16893878Y-9938960D02*
X16874831Y-9948484D01*
X16874831Y-9948484D02*
X16846259Y-9948484D01*
X17027212Y-9948484D02*
X17008164Y-9938960D01*
X17008164Y-9938960D02*
X16998640Y-9919912D01*
X16998640Y-9919912D02*
X16998640Y-9748484D01*
X17179593Y-9938960D02*
X17160545Y-9948484D01*
X17160545Y-9948484D02*
X17122450Y-9948484D01*
X17122450Y-9948484D02*
X17103402Y-9938960D01*
X17103402Y-9938960D02*
X17093878Y-9919912D01*
X17093878Y-9919912D02*
X17093878Y-9843722D01*
X17093878Y-9843722D02*
X17103402Y-9824674D01*
X17103402Y-9824674D02*
X17122450Y-9815150D01*
X17122450Y-9815150D02*
X17160545Y-9815150D01*
X17160545Y-9815150D02*
X17179593Y-9824674D01*
X17179593Y-9824674D02*
X17189117Y-9843722D01*
X17189117Y-9843722D02*
X17189117Y-9862770D01*
X17189117Y-9862770D02*
X17093878Y-9881817D01*
X17265307Y-9938960D02*
X17284355Y-9948484D01*
X17284355Y-9948484D02*
X17322450Y-9948484D01*
X17322450Y-9948484D02*
X17341498Y-9938960D01*
X17341498Y-9938960D02*
X17351021Y-9919912D01*
X17351021Y-9919912D02*
X17351021Y-9910389D01*
X17351021Y-9910389D02*
X17341498Y-9891341D01*
X17341498Y-9891341D02*
X17322450Y-9881817D01*
X17322450Y-9881817D02*
X17293878Y-9881817D01*
X17293878Y-9881817D02*
X17274831Y-9872293D01*
X17274831Y-9872293D02*
X17265307Y-9853246D01*
X17265307Y-9853246D02*
X17265307Y-9843722D01*
X17265307Y-9843722D02*
X17274831Y-9824674D01*
X17274831Y-9824674D02*
X17293878Y-9815150D01*
X17293878Y-9815150D02*
X17322450Y-9815150D01*
X17322450Y-9815150D02*
X17341498Y-9824674D01*
X17417688Y-10024674D02*
X17427212Y-10015150D01*
X17427212Y-10015150D02*
X17446259Y-9986579D01*
X17446259Y-9986579D02*
X17455783Y-9967531D01*
X17455783Y-9967531D02*
X17465307Y-9938960D01*
X17465307Y-9938960D02*
X17474831Y-9891341D01*
X17474831Y-9891341D02*
X17474831Y-9853246D01*
X17474831Y-9853246D02*
X17465307Y-9805627D01*
X17465307Y-9805627D02*
X17455783Y-9777055D01*
X17455783Y-9777055D02*
X17446259Y-9758008D01*
X17446259Y-9758008D02*
X17427212Y-9729436D01*
X17427212Y-9729436D02*
X17417688Y-9719912D01*
X17779593Y-10024674D02*
X17770069Y-10015150D01*
X17770069Y-10015150D02*
X17751021Y-9986579D01*
X17751021Y-9986579D02*
X17741498Y-9967531D01*
X17741498Y-9967531D02*
X17731974Y-9938960D01*
X17731974Y-9938960D02*
X17722450Y-9891341D01*
X17722450Y-9891341D02*
X17722450Y-9853246D01*
X17722450Y-9853246D02*
X17731974Y-9805627D01*
X17731974Y-9805627D02*
X17741498Y-9777055D01*
X17741498Y-9777055D02*
X17751021Y-9758008D01*
X17751021Y-9758008D02*
X17770069Y-9729436D01*
X17770069Y-9729436D02*
X17779593Y-9719912D01*
X17855783Y-9815150D02*
X17855783Y-9948484D01*
X17855783Y-9834198D02*
X17865307Y-9824674D01*
X17865307Y-9824674D02*
X17884355Y-9815150D01*
X17884355Y-9815150D02*
X17912926Y-9815150D01*
X17912926Y-9815150D02*
X17931974Y-9824674D01*
X17931974Y-9824674D02*
X17941498Y-9843722D01*
X17941498Y-9843722D02*
X17941498Y-9948484D01*
X18065307Y-9948484D02*
X18046259Y-9938960D01*
X18046259Y-9938960D02*
X18036736Y-9929436D01*
X18036736Y-9929436D02*
X18027212Y-9910389D01*
X18027212Y-9910389D02*
X18027212Y-9853246D01*
X18027212Y-9853246D02*
X18036736Y-9834198D01*
X18036736Y-9834198D02*
X18046259Y-9824674D01*
X18046259Y-9824674D02*
X18065307Y-9815150D01*
X18065307Y-9815150D02*
X18093879Y-9815150D01*
X18093879Y-9815150D02*
X18112926Y-9824674D01*
X18112926Y-9824674D02*
X18122450Y-9834198D01*
X18122450Y-9834198D02*
X18131974Y-9853246D01*
X18131974Y-9853246D02*
X18131974Y-9910389D01*
X18131974Y-9910389D02*
X18122450Y-9929436D01*
X18122450Y-9929436D02*
X18112926Y-9938960D01*
X18112926Y-9938960D02*
X18093879Y-9948484D01*
X18093879Y-9948484D02*
X18065307Y-9948484D01*
X18189117Y-9815150D02*
X18265307Y-9815150D01*
X18217688Y-9748484D02*
X18217688Y-9919912D01*
X18217688Y-9919912D02*
X18227212Y-9938960D01*
X18227212Y-9938960D02*
X18246259Y-9948484D01*
X18246259Y-9948484D02*
X18265307Y-9948484D01*
X18484355Y-9815150D02*
X18484355Y-10015150D01*
X18484355Y-9824674D02*
X18503402Y-9815150D01*
X18503402Y-9815150D02*
X18541498Y-9815150D01*
X18541498Y-9815150D02*
X18560545Y-9824674D01*
X18560545Y-9824674D02*
X18570069Y-9834198D01*
X18570069Y-9834198D02*
X18579593Y-9853246D01*
X18579593Y-9853246D02*
X18579593Y-9910389D01*
X18579593Y-9910389D02*
X18570069Y-9929436D01*
X18570069Y-9929436D02*
X18560545Y-9938960D01*
X18560545Y-9938960D02*
X18541498Y-9948484D01*
X18541498Y-9948484D02*
X18503402Y-9948484D01*
X18503402Y-9948484D02*
X18484355Y-9938960D01*
X18693879Y-9948484D02*
X18674831Y-9938960D01*
X18674831Y-9938960D02*
X18665307Y-9919912D01*
X18665307Y-9919912D02*
X18665307Y-9748484D01*
X18855783Y-9948484D02*
X18855783Y-9843722D01*
X18855783Y-9843722D02*
X18846260Y-9824674D01*
X18846260Y-9824674D02*
X18827212Y-9815150D01*
X18827212Y-9815150D02*
X18789117Y-9815150D01*
X18789117Y-9815150D02*
X18770069Y-9824674D01*
X18855783Y-9938960D02*
X18836736Y-9948484D01*
X18836736Y-9948484D02*
X18789117Y-9948484D01*
X18789117Y-9948484D02*
X18770069Y-9938960D01*
X18770069Y-9938960D02*
X18760545Y-9919912D01*
X18760545Y-9919912D02*
X18760545Y-9900865D01*
X18760545Y-9900865D02*
X18770069Y-9881817D01*
X18770069Y-9881817D02*
X18789117Y-9872293D01*
X18789117Y-9872293D02*
X18836736Y-9872293D01*
X18836736Y-9872293D02*
X18855783Y-9862770D01*
X18922450Y-9815150D02*
X18998640Y-9815150D01*
X18951021Y-9748484D02*
X18951021Y-9919912D01*
X18951021Y-9919912D02*
X18960545Y-9938960D01*
X18960545Y-9938960D02*
X18979593Y-9948484D01*
X18979593Y-9948484D02*
X18998640Y-9948484D01*
X19141498Y-9938960D02*
X19122450Y-9948484D01*
X19122450Y-9948484D02*
X19084355Y-9948484D01*
X19084355Y-9948484D02*
X19065307Y-9938960D01*
X19065307Y-9938960D02*
X19055783Y-9919912D01*
X19055783Y-9919912D02*
X19055783Y-9843722D01*
X19055783Y-9843722D02*
X19065307Y-9824674D01*
X19065307Y-9824674D02*
X19084355Y-9815150D01*
X19084355Y-9815150D02*
X19122450Y-9815150D01*
X19122450Y-9815150D02*
X19141498Y-9824674D01*
X19141498Y-9824674D02*
X19151021Y-9843722D01*
X19151021Y-9843722D02*
X19151021Y-9862770D01*
X19151021Y-9862770D02*
X19055783Y-9881817D01*
X19322450Y-9948484D02*
X19322450Y-9748484D01*
X19322450Y-9938960D02*
X19303402Y-9948484D01*
X19303402Y-9948484D02*
X19265307Y-9948484D01*
X19265307Y-9948484D02*
X19246260Y-9938960D01*
X19246260Y-9938960D02*
X19236736Y-9929436D01*
X19236736Y-9929436D02*
X19227212Y-9910389D01*
X19227212Y-9910389D02*
X19227212Y-9853246D01*
X19227212Y-9853246D02*
X19236736Y-9834198D01*
X19236736Y-9834198D02*
X19246260Y-9824674D01*
X19246260Y-9824674D02*
X19265307Y-9815150D01*
X19265307Y-9815150D02*
X19303402Y-9815150D01*
X19303402Y-9815150D02*
X19322450Y-9824674D01*
X19398641Y-10024674D02*
X19408164Y-10015150D01*
X19408164Y-10015150D02*
X19427212Y-9986579D01*
X19427212Y-9986579D02*
X19436736Y-9967531D01*
X19436736Y-9967531D02*
X19446260Y-9938960D01*
X19446260Y-9938960D02*
X19455783Y-9891341D01*
X19455783Y-9891341D02*
X19455783Y-9853246D01*
X19455783Y-9853246D02*
X19446260Y-9805627D01*
X19446260Y-9805627D02*
X19436736Y-9777055D01*
X19436736Y-9777055D02*
X19427212Y-9758008D01*
X19427212Y-9758008D02*
X19408164Y-9729436D01*
X19408164Y-9729436D02*
X19398641Y-9719912D01*
D12*
X12642625Y-10121000D02*
G75*
G03*
X12462625Y-10121000I-90000J0D01*
G01*
X12462625Y-10121000D02*
G75*
G03*
X12642625Y-10121000I90000J0D01*
G01*
D11*
X13008164Y-10212484D02*
X12893878Y-10212484D01*
X12951021Y-10212484D02*
X12951021Y-10012484D01*
X12951021Y-10012484D02*
X12931973Y-10041055D01*
X12931973Y-10041055D02*
X12912926Y-10060103D01*
X12912926Y-10060103D02*
X12893878Y-10069627D01*
X13093878Y-10193436D02*
X13103402Y-10202960D01*
X13103402Y-10202960D02*
X13093878Y-10212484D01*
X13093878Y-10212484D02*
X13084354Y-10202960D01*
X13084354Y-10202960D02*
X13093878Y-10193436D01*
X13093878Y-10193436D02*
X13093878Y-10212484D01*
X13217687Y-10098198D02*
X13198640Y-10088674D01*
X13198640Y-10088674D02*
X13189116Y-10079150D01*
X13189116Y-10079150D02*
X13179592Y-10060103D01*
X13179592Y-10060103D02*
X13179592Y-10050579D01*
X13179592Y-10050579D02*
X13189116Y-10031531D01*
X13189116Y-10031531D02*
X13198640Y-10022008D01*
X13198640Y-10022008D02*
X13217687Y-10012484D01*
X13217687Y-10012484D02*
X13255783Y-10012484D01*
X13255783Y-10012484D02*
X13274830Y-10022008D01*
X13274830Y-10022008D02*
X13284354Y-10031531D01*
X13284354Y-10031531D02*
X13293878Y-10050579D01*
X13293878Y-10050579D02*
X13293878Y-10060103D01*
X13293878Y-10060103D02*
X13284354Y-10079150D01*
X13284354Y-10079150D02*
X13274830Y-10088674D01*
X13274830Y-10088674D02*
X13255783Y-10098198D01*
X13255783Y-10098198D02*
X13217687Y-10098198D01*
X13217687Y-10098198D02*
X13198640Y-10107722D01*
X13198640Y-10107722D02*
X13189116Y-10117246D01*
X13189116Y-10117246D02*
X13179592Y-10136293D01*
X13179592Y-10136293D02*
X13179592Y-10174389D01*
X13179592Y-10174389D02*
X13189116Y-10193436D01*
X13189116Y-10193436D02*
X13198640Y-10202960D01*
X13198640Y-10202960D02*
X13217687Y-10212484D01*
X13217687Y-10212484D02*
X13255783Y-10212484D01*
X13255783Y-10212484D02*
X13274830Y-10202960D01*
X13274830Y-10202960D02*
X13284354Y-10193436D01*
X13284354Y-10193436D02*
X13293878Y-10174389D01*
X13293878Y-10174389D02*
X13293878Y-10136293D01*
X13293878Y-10136293D02*
X13284354Y-10117246D01*
X13284354Y-10117246D02*
X13274830Y-10107722D01*
X13274830Y-10107722D02*
X13255783Y-10098198D01*
X13417687Y-10012484D02*
X13436735Y-10012484D01*
X13436735Y-10012484D02*
X13455783Y-10022008D01*
X13455783Y-10022008D02*
X13465307Y-10031531D01*
X13465307Y-10031531D02*
X13474830Y-10050579D01*
X13474830Y-10050579D02*
X13484354Y-10088674D01*
X13484354Y-10088674D02*
X13484354Y-10136293D01*
X13484354Y-10136293D02*
X13474830Y-10174389D01*
X13474830Y-10174389D02*
X13465307Y-10193436D01*
X13465307Y-10193436D02*
X13455783Y-10202960D01*
X13455783Y-10202960D02*
X13436735Y-10212484D01*
X13436735Y-10212484D02*
X13417687Y-10212484D01*
X13417687Y-10212484D02*
X13398640Y-10202960D01*
X13398640Y-10202960D02*
X13389116Y-10193436D01*
X13389116Y-10193436D02*
X13379592Y-10174389D01*
X13379592Y-10174389D02*
X13370068Y-10136293D01*
X13370068Y-10136293D02*
X13370068Y-10088674D01*
X13370068Y-10088674D02*
X13379592Y-10050579D01*
X13379592Y-10050579D02*
X13389116Y-10031531D01*
X13389116Y-10031531D02*
X13398640Y-10022008D01*
X13398640Y-10022008D02*
X13417687Y-10012484D01*
X13608164Y-10012484D02*
X13627211Y-10012484D01*
X13627211Y-10012484D02*
X13646259Y-10022008D01*
X13646259Y-10022008D02*
X13655783Y-10031531D01*
X13655783Y-10031531D02*
X13665307Y-10050579D01*
X13665307Y-10050579D02*
X13674830Y-10088674D01*
X13674830Y-10088674D02*
X13674830Y-10136293D01*
X13674830Y-10136293D02*
X13665307Y-10174389D01*
X13665307Y-10174389D02*
X13655783Y-10193436D01*
X13655783Y-10193436D02*
X13646259Y-10202960D01*
X13646259Y-10202960D02*
X13627211Y-10212484D01*
X13627211Y-10212484D02*
X13608164Y-10212484D01*
X13608164Y-10212484D02*
X13589116Y-10202960D01*
X13589116Y-10202960D02*
X13579592Y-10193436D01*
X13579592Y-10193436D02*
X13570068Y-10174389D01*
X13570068Y-10174389D02*
X13560545Y-10136293D01*
X13560545Y-10136293D02*
X13560545Y-10088674D01*
X13560545Y-10088674D02*
X13570068Y-10050579D01*
X13570068Y-10050579D02*
X13579592Y-10031531D01*
X13579592Y-10031531D02*
X13589116Y-10022008D01*
X13589116Y-10022008D02*
X13608164Y-10012484D01*
X13760545Y-10212484D02*
X13760545Y-10079150D01*
X13760545Y-10098198D02*
X13770068Y-10088674D01*
X13770068Y-10088674D02*
X13789116Y-10079150D01*
X13789116Y-10079150D02*
X13817688Y-10079150D01*
X13817688Y-10079150D02*
X13836735Y-10088674D01*
X13836735Y-10088674D02*
X13846259Y-10107722D01*
X13846259Y-10107722D02*
X13846259Y-10212484D01*
X13846259Y-10107722D02*
X13855783Y-10088674D01*
X13855783Y-10088674D02*
X13874830Y-10079150D01*
X13874830Y-10079150D02*
X13903402Y-10079150D01*
X13903402Y-10079150D02*
X13922449Y-10088674D01*
X13922449Y-10088674D02*
X13931973Y-10107722D01*
X13931973Y-10107722D02*
X13931973Y-10212484D01*
X14027211Y-10212484D02*
X14027211Y-10079150D01*
X14027211Y-10098198D02*
X14036735Y-10088674D01*
X14036735Y-10088674D02*
X14055783Y-10079150D01*
X14055783Y-10079150D02*
X14084354Y-10079150D01*
X14084354Y-10079150D02*
X14103402Y-10088674D01*
X14103402Y-10088674D02*
X14112926Y-10107722D01*
X14112926Y-10107722D02*
X14112926Y-10212484D01*
X14112926Y-10107722D02*
X14122449Y-10088674D01*
X14122449Y-10088674D02*
X14141497Y-10079150D01*
X14141497Y-10079150D02*
X14170068Y-10079150D01*
X14170068Y-10079150D02*
X14189116Y-10088674D01*
X14189116Y-10088674D02*
X14198640Y-10107722D01*
X14198640Y-10107722D02*
X14198640Y-10212484D01*
X14589116Y-10002960D02*
X14417688Y-10260103D01*
X14846259Y-10012484D02*
X14865307Y-10012484D01*
X14865307Y-10012484D02*
X14884354Y-10022008D01*
X14884354Y-10022008D02*
X14893878Y-10031531D01*
X14893878Y-10031531D02*
X14903402Y-10050579D01*
X14903402Y-10050579D02*
X14912926Y-10088674D01*
X14912926Y-10088674D02*
X14912926Y-10136293D01*
X14912926Y-10136293D02*
X14903402Y-10174389D01*
X14903402Y-10174389D02*
X14893878Y-10193436D01*
X14893878Y-10193436D02*
X14884354Y-10202960D01*
X14884354Y-10202960D02*
X14865307Y-10212484D01*
X14865307Y-10212484D02*
X14846259Y-10212484D01*
X14846259Y-10212484D02*
X14827211Y-10202960D01*
X14827211Y-10202960D02*
X14817688Y-10193436D01*
X14817688Y-10193436D02*
X14808164Y-10174389D01*
X14808164Y-10174389D02*
X14798640Y-10136293D01*
X14798640Y-10136293D02*
X14798640Y-10088674D01*
X14798640Y-10088674D02*
X14808164Y-10050579D01*
X14808164Y-10050579D02*
X14817688Y-10031531D01*
X14817688Y-10031531D02*
X14827211Y-10022008D01*
X14827211Y-10022008D02*
X14846259Y-10012484D01*
X14998640Y-10193436D02*
X15008164Y-10202960D01*
X15008164Y-10202960D02*
X14998640Y-10212484D01*
X14998640Y-10212484D02*
X14989116Y-10202960D01*
X14989116Y-10202960D02*
X14998640Y-10193436D01*
X14998640Y-10193436D02*
X14998640Y-10212484D01*
X15131973Y-10012484D02*
X15151021Y-10012484D01*
X15151021Y-10012484D02*
X15170069Y-10022008D01*
X15170069Y-10022008D02*
X15179592Y-10031531D01*
X15179592Y-10031531D02*
X15189116Y-10050579D01*
X15189116Y-10050579D02*
X15198640Y-10088674D01*
X15198640Y-10088674D02*
X15198640Y-10136293D01*
X15198640Y-10136293D02*
X15189116Y-10174389D01*
X15189116Y-10174389D02*
X15179592Y-10193436D01*
X15179592Y-10193436D02*
X15170069Y-10202960D01*
X15170069Y-10202960D02*
X15151021Y-10212484D01*
X15151021Y-10212484D02*
X15131973Y-10212484D01*
X15131973Y-10212484D02*
X15112926Y-10202960D01*
X15112926Y-10202960D02*
X15103402Y-10193436D01*
X15103402Y-10193436D02*
X15093878Y-10174389D01*
X15093878Y-10174389D02*
X15084354Y-10136293D01*
X15084354Y-10136293D02*
X15084354Y-10088674D01*
X15084354Y-10088674D02*
X15093878Y-10050579D01*
X15093878Y-10050579D02*
X15103402Y-10031531D01*
X15103402Y-10031531D02*
X15112926Y-10022008D01*
X15112926Y-10022008D02*
X15131973Y-10012484D01*
X15265307Y-10012484D02*
X15398640Y-10012484D01*
X15398640Y-10012484D02*
X15312926Y-10212484D01*
X15512926Y-10012484D02*
X15531973Y-10012484D01*
X15531973Y-10012484D02*
X15551021Y-10022008D01*
X15551021Y-10022008D02*
X15560545Y-10031531D01*
X15560545Y-10031531D02*
X15570069Y-10050579D01*
X15570069Y-10050579D02*
X15579592Y-10088674D01*
X15579592Y-10088674D02*
X15579592Y-10136293D01*
X15579592Y-10136293D02*
X15570069Y-10174389D01*
X15570069Y-10174389D02*
X15560545Y-10193436D01*
X15560545Y-10193436D02*
X15551021Y-10202960D01*
X15551021Y-10202960D02*
X15531973Y-10212484D01*
X15531973Y-10212484D02*
X15512926Y-10212484D01*
X15512926Y-10212484D02*
X15493878Y-10202960D01*
X15493878Y-10202960D02*
X15484354Y-10193436D01*
X15484354Y-10193436D02*
X15474831Y-10174389D01*
X15474831Y-10174389D02*
X15465307Y-10136293D01*
X15465307Y-10136293D02*
X15465307Y-10088674D01*
X15465307Y-10088674D02*
X15474831Y-10050579D01*
X15474831Y-10050579D02*
X15484354Y-10031531D01*
X15484354Y-10031531D02*
X15493878Y-10022008D01*
X15493878Y-10022008D02*
X15512926Y-10012484D01*
X15674831Y-10212484D02*
X15712926Y-10212484D01*
X15712926Y-10212484D02*
X15731973Y-10202960D01*
X15731973Y-10202960D02*
X15741497Y-10193436D01*
X15741497Y-10193436D02*
X15760545Y-10164865D01*
X15760545Y-10164865D02*
X15770069Y-10126770D01*
X15770069Y-10126770D02*
X15770069Y-10050579D01*
X15770069Y-10050579D02*
X15760545Y-10031531D01*
X15760545Y-10031531D02*
X15751021Y-10022008D01*
X15751021Y-10022008D02*
X15731973Y-10012484D01*
X15731973Y-10012484D02*
X15693878Y-10012484D01*
X15693878Y-10012484D02*
X15674831Y-10022008D01*
X15674831Y-10022008D02*
X15665307Y-10031531D01*
X15665307Y-10031531D02*
X15655783Y-10050579D01*
X15655783Y-10050579D02*
X15655783Y-10098198D01*
X15655783Y-10098198D02*
X15665307Y-10117246D01*
X15665307Y-10117246D02*
X15674831Y-10126770D01*
X15674831Y-10126770D02*
X15693878Y-10136293D01*
X15693878Y-10136293D02*
X15731973Y-10136293D01*
X15731973Y-10136293D02*
X15751021Y-10126770D01*
X15751021Y-10126770D02*
X15760545Y-10117246D01*
X15760545Y-10117246D02*
X15770069Y-10098198D01*
X15846259Y-10012484D02*
X15846259Y-10050579D01*
X15922450Y-10012484D02*
X15922450Y-10050579D01*
X16217688Y-10288674D02*
X16208164Y-10279150D01*
X16208164Y-10279150D02*
X16189116Y-10250579D01*
X16189116Y-10250579D02*
X16179593Y-10231531D01*
X16179593Y-10231531D02*
X16170069Y-10202960D01*
X16170069Y-10202960D02*
X16160545Y-10155341D01*
X16160545Y-10155341D02*
X16160545Y-10117246D01*
X16160545Y-10117246D02*
X16170069Y-10069627D01*
X16170069Y-10069627D02*
X16179593Y-10041055D01*
X16179593Y-10041055D02*
X16189116Y-10022008D01*
X16189116Y-10022008D02*
X16208164Y-9993436D01*
X16208164Y-9993436D02*
X16217688Y-9983912D01*
X16398640Y-10212484D02*
X16284354Y-10212484D01*
X16341497Y-10212484D02*
X16341497Y-10012484D01*
X16341497Y-10012484D02*
X16322450Y-10041055D01*
X16322450Y-10041055D02*
X16303402Y-10060103D01*
X16303402Y-10060103D02*
X16284354Y-10069627D01*
X16636735Y-10212484D02*
X16636735Y-10012484D01*
X16722450Y-10212484D02*
X16722450Y-10107722D01*
X16722450Y-10107722D02*
X16712926Y-10088674D01*
X16712926Y-10088674D02*
X16693878Y-10079150D01*
X16693878Y-10079150D02*
X16665307Y-10079150D01*
X16665307Y-10079150D02*
X16646259Y-10088674D01*
X16646259Y-10088674D02*
X16636735Y-10098198D01*
X16846259Y-10212484D02*
X16827212Y-10202960D01*
X16827212Y-10202960D02*
X16817688Y-10193436D01*
X16817688Y-10193436D02*
X16808164Y-10174389D01*
X16808164Y-10174389D02*
X16808164Y-10117246D01*
X16808164Y-10117246D02*
X16817688Y-10098198D01*
X16817688Y-10098198D02*
X16827212Y-10088674D01*
X16827212Y-10088674D02*
X16846259Y-10079150D01*
X16846259Y-10079150D02*
X16874831Y-10079150D01*
X16874831Y-10079150D02*
X16893878Y-10088674D01*
X16893878Y-10088674D02*
X16903402Y-10098198D01*
X16903402Y-10098198D02*
X16912926Y-10117246D01*
X16912926Y-10117246D02*
X16912926Y-10174389D01*
X16912926Y-10174389D02*
X16903402Y-10193436D01*
X16903402Y-10193436D02*
X16893878Y-10202960D01*
X16893878Y-10202960D02*
X16874831Y-10212484D01*
X16874831Y-10212484D02*
X16846259Y-10212484D01*
X17027212Y-10212484D02*
X17008164Y-10202960D01*
X17008164Y-10202960D02*
X16998640Y-10183912D01*
X16998640Y-10183912D02*
X16998640Y-10012484D01*
X17179593Y-10202960D02*
X17160545Y-10212484D01*
X17160545Y-10212484D02*
X17122450Y-10212484D01*
X17122450Y-10212484D02*
X17103402Y-10202960D01*
X17103402Y-10202960D02*
X17093878Y-10183912D01*
X17093878Y-10183912D02*
X17093878Y-10107722D01*
X17093878Y-10107722D02*
X17103402Y-10088674D01*
X17103402Y-10088674D02*
X17122450Y-10079150D01*
X17122450Y-10079150D02*
X17160545Y-10079150D01*
X17160545Y-10079150D02*
X17179593Y-10088674D01*
X17179593Y-10088674D02*
X17189117Y-10107722D01*
X17189117Y-10107722D02*
X17189117Y-10126770D01*
X17189117Y-10126770D02*
X17093878Y-10145817D01*
X17255783Y-10288674D02*
X17265307Y-10279150D01*
X17265307Y-10279150D02*
X17284355Y-10250579D01*
X17284355Y-10250579D02*
X17293878Y-10231531D01*
X17293878Y-10231531D02*
X17303402Y-10202960D01*
X17303402Y-10202960D02*
X17312926Y-10155341D01*
X17312926Y-10155341D02*
X17312926Y-10117246D01*
X17312926Y-10117246D02*
X17303402Y-10069627D01*
X17303402Y-10069627D02*
X17293878Y-10041055D01*
X17293878Y-10041055D02*
X17284355Y-10022008D01*
X17284355Y-10022008D02*
X17265307Y-9993436D01*
X17265307Y-9993436D02*
X17255783Y-9983912D01*
X17617688Y-10288674D02*
X17608164Y-10279150D01*
X17608164Y-10279150D02*
X17589117Y-10250579D01*
X17589117Y-10250579D02*
X17579593Y-10231531D01*
X17579593Y-10231531D02*
X17570069Y-10202960D01*
X17570069Y-10202960D02*
X17560545Y-10155341D01*
X17560545Y-10155341D02*
X17560545Y-10117246D01*
X17560545Y-10117246D02*
X17570069Y-10069627D01*
X17570069Y-10069627D02*
X17579593Y-10041055D01*
X17579593Y-10041055D02*
X17589117Y-10022008D01*
X17589117Y-10022008D02*
X17608164Y-9993436D01*
X17608164Y-9993436D02*
X17617688Y-9983912D01*
X17693878Y-10079150D02*
X17693878Y-10212484D01*
X17693878Y-10098198D02*
X17703402Y-10088674D01*
X17703402Y-10088674D02*
X17722450Y-10079150D01*
X17722450Y-10079150D02*
X17751021Y-10079150D01*
X17751021Y-10079150D02*
X17770069Y-10088674D01*
X17770069Y-10088674D02*
X17779593Y-10107722D01*
X17779593Y-10107722D02*
X17779593Y-10212484D01*
X17903402Y-10212484D02*
X17884355Y-10202960D01*
X17884355Y-10202960D02*
X17874831Y-10193436D01*
X17874831Y-10193436D02*
X17865307Y-10174389D01*
X17865307Y-10174389D02*
X17865307Y-10117246D01*
X17865307Y-10117246D02*
X17874831Y-10098198D01*
X17874831Y-10098198D02*
X17884355Y-10088674D01*
X17884355Y-10088674D02*
X17903402Y-10079150D01*
X17903402Y-10079150D02*
X17931974Y-10079150D01*
X17931974Y-10079150D02*
X17951021Y-10088674D01*
X17951021Y-10088674D02*
X17960545Y-10098198D01*
X17960545Y-10098198D02*
X17970069Y-10117246D01*
X17970069Y-10117246D02*
X17970069Y-10174389D01*
X17970069Y-10174389D02*
X17960545Y-10193436D01*
X17960545Y-10193436D02*
X17951021Y-10202960D01*
X17951021Y-10202960D02*
X17931974Y-10212484D01*
X17931974Y-10212484D02*
X17903402Y-10212484D01*
X18027212Y-10079150D02*
X18103402Y-10079150D01*
X18055783Y-10012484D02*
X18055783Y-10183912D01*
X18055783Y-10183912D02*
X18065307Y-10202960D01*
X18065307Y-10202960D02*
X18084355Y-10212484D01*
X18084355Y-10212484D02*
X18103402Y-10212484D01*
X18322450Y-10079150D02*
X18322450Y-10279150D01*
X18322450Y-10088674D02*
X18341498Y-10079150D01*
X18341498Y-10079150D02*
X18379593Y-10079150D01*
X18379593Y-10079150D02*
X18398640Y-10088674D01*
X18398640Y-10088674D02*
X18408164Y-10098198D01*
X18408164Y-10098198D02*
X18417688Y-10117246D01*
X18417688Y-10117246D02*
X18417688Y-10174389D01*
X18417688Y-10174389D02*
X18408164Y-10193436D01*
X18408164Y-10193436D02*
X18398640Y-10202960D01*
X18398640Y-10202960D02*
X18379593Y-10212484D01*
X18379593Y-10212484D02*
X18341498Y-10212484D01*
X18341498Y-10212484D02*
X18322450Y-10202960D01*
X18531974Y-10212484D02*
X18512926Y-10202960D01*
X18512926Y-10202960D02*
X18503402Y-10183912D01*
X18503402Y-10183912D02*
X18503402Y-10012484D01*
X18693879Y-10212484D02*
X18693879Y-10107722D01*
X18693879Y-10107722D02*
X18684355Y-10088674D01*
X18684355Y-10088674D02*
X18665307Y-10079150D01*
X18665307Y-10079150D02*
X18627212Y-10079150D01*
X18627212Y-10079150D02*
X18608164Y-10088674D01*
X18693879Y-10202960D02*
X18674831Y-10212484D01*
X18674831Y-10212484D02*
X18627212Y-10212484D01*
X18627212Y-10212484D02*
X18608164Y-10202960D01*
X18608164Y-10202960D02*
X18598640Y-10183912D01*
X18598640Y-10183912D02*
X18598640Y-10164865D01*
X18598640Y-10164865D02*
X18608164Y-10145817D01*
X18608164Y-10145817D02*
X18627212Y-10136293D01*
X18627212Y-10136293D02*
X18674831Y-10136293D01*
X18674831Y-10136293D02*
X18693879Y-10126770D01*
X18760545Y-10079150D02*
X18836736Y-10079150D01*
X18789117Y-10012484D02*
X18789117Y-10183912D01*
X18789117Y-10183912D02*
X18798640Y-10202960D01*
X18798640Y-10202960D02*
X18817688Y-10212484D01*
X18817688Y-10212484D02*
X18836736Y-10212484D01*
X18979593Y-10202960D02*
X18960545Y-10212484D01*
X18960545Y-10212484D02*
X18922450Y-10212484D01*
X18922450Y-10212484D02*
X18903402Y-10202960D01*
X18903402Y-10202960D02*
X18893879Y-10183912D01*
X18893879Y-10183912D02*
X18893879Y-10107722D01*
X18893879Y-10107722D02*
X18903402Y-10088674D01*
X18903402Y-10088674D02*
X18922450Y-10079150D01*
X18922450Y-10079150D02*
X18960545Y-10079150D01*
X18960545Y-10079150D02*
X18979593Y-10088674D01*
X18979593Y-10088674D02*
X18989117Y-10107722D01*
X18989117Y-10107722D02*
X18989117Y-10126770D01*
X18989117Y-10126770D02*
X18893879Y-10145817D01*
X19160545Y-10212484D02*
X19160545Y-10012484D01*
X19160545Y-10202960D02*
X19141498Y-10212484D01*
X19141498Y-10212484D02*
X19103402Y-10212484D01*
X19103402Y-10212484D02*
X19084355Y-10202960D01*
X19084355Y-10202960D02*
X19074831Y-10193436D01*
X19074831Y-10193436D02*
X19065307Y-10174389D01*
X19065307Y-10174389D02*
X19065307Y-10117246D01*
X19065307Y-10117246D02*
X19074831Y-10098198D01*
X19074831Y-10098198D02*
X19084355Y-10088674D01*
X19084355Y-10088674D02*
X19103402Y-10079150D01*
X19103402Y-10079150D02*
X19141498Y-10079150D01*
X19141498Y-10079150D02*
X19160545Y-10088674D01*
X19236736Y-10288674D02*
X19246260Y-10279150D01*
X19246260Y-10279150D02*
X19265307Y-10250579D01*
X19265307Y-10250579D02*
X19274831Y-10231531D01*
X19274831Y-10231531D02*
X19284355Y-10202960D01*
X19284355Y-10202960D02*
X19293879Y-10155341D01*
X19293879Y-10155341D02*
X19293879Y-10117246D01*
X19293879Y-10117246D02*
X19284355Y-10069627D01*
X19284355Y-10069627D02*
X19274831Y-10041055D01*
X19274831Y-10041055D02*
X19265307Y-10022008D01*
X19265307Y-10022008D02*
X19246260Y-9993436D01*
X19246260Y-9993436D02*
X19236736Y-9983912D01*
X12542625Y-10321000D02*
X12542625Y-10521000D01*
X12442625Y-10421000D02*
X12642625Y-10421000D01*
X12893878Y-10331531D02*
X12903402Y-10322008D01*
X12903402Y-10322008D02*
X12922449Y-10312484D01*
X12922449Y-10312484D02*
X12970068Y-10312484D01*
X12970068Y-10312484D02*
X12989116Y-10322008D01*
X12989116Y-10322008D02*
X12998640Y-10331531D01*
X12998640Y-10331531D02*
X13008164Y-10350579D01*
X13008164Y-10350579D02*
X13008164Y-10369627D01*
X13008164Y-10369627D02*
X12998640Y-10398198D01*
X12998640Y-10398198D02*
X12884354Y-10512484D01*
X12884354Y-10512484D02*
X13008164Y-10512484D01*
X13093878Y-10493436D02*
X13103402Y-10502960D01*
X13103402Y-10502960D02*
X13093878Y-10512484D01*
X13093878Y-10512484D02*
X13084354Y-10502960D01*
X13084354Y-10502960D02*
X13093878Y-10493436D01*
X13093878Y-10493436D02*
X13093878Y-10512484D01*
X13179592Y-10331531D02*
X13189116Y-10322008D01*
X13189116Y-10322008D02*
X13208164Y-10312484D01*
X13208164Y-10312484D02*
X13255783Y-10312484D01*
X13255783Y-10312484D02*
X13274830Y-10322008D01*
X13274830Y-10322008D02*
X13284354Y-10331531D01*
X13284354Y-10331531D02*
X13293878Y-10350579D01*
X13293878Y-10350579D02*
X13293878Y-10369627D01*
X13293878Y-10369627D02*
X13284354Y-10398198D01*
X13284354Y-10398198D02*
X13170068Y-10512484D01*
X13170068Y-10512484D02*
X13293878Y-10512484D01*
X13417687Y-10312484D02*
X13436735Y-10312484D01*
X13436735Y-10312484D02*
X13455783Y-10322008D01*
X13455783Y-10322008D02*
X13465307Y-10331531D01*
X13465307Y-10331531D02*
X13474830Y-10350579D01*
X13474830Y-10350579D02*
X13484354Y-10388674D01*
X13484354Y-10388674D02*
X13484354Y-10436293D01*
X13484354Y-10436293D02*
X13474830Y-10474389D01*
X13474830Y-10474389D02*
X13465307Y-10493436D01*
X13465307Y-10493436D02*
X13455783Y-10502960D01*
X13455783Y-10502960D02*
X13436735Y-10512484D01*
X13436735Y-10512484D02*
X13417687Y-10512484D01*
X13417687Y-10512484D02*
X13398640Y-10502960D01*
X13398640Y-10502960D02*
X13389116Y-10493436D01*
X13389116Y-10493436D02*
X13379592Y-10474389D01*
X13379592Y-10474389D02*
X13370068Y-10436293D01*
X13370068Y-10436293D02*
X13370068Y-10388674D01*
X13370068Y-10388674D02*
X13379592Y-10350579D01*
X13379592Y-10350579D02*
X13389116Y-10331531D01*
X13389116Y-10331531D02*
X13398640Y-10322008D01*
X13398640Y-10322008D02*
X13417687Y-10312484D01*
X13608164Y-10312484D02*
X13627211Y-10312484D01*
X13627211Y-10312484D02*
X13646259Y-10322008D01*
X13646259Y-10322008D02*
X13655783Y-10331531D01*
X13655783Y-10331531D02*
X13665307Y-10350579D01*
X13665307Y-10350579D02*
X13674830Y-10388674D01*
X13674830Y-10388674D02*
X13674830Y-10436293D01*
X13674830Y-10436293D02*
X13665307Y-10474389D01*
X13665307Y-10474389D02*
X13655783Y-10493436D01*
X13655783Y-10493436D02*
X13646259Y-10502960D01*
X13646259Y-10502960D02*
X13627211Y-10512484D01*
X13627211Y-10512484D02*
X13608164Y-10512484D01*
X13608164Y-10512484D02*
X13589116Y-10502960D01*
X13589116Y-10502960D02*
X13579592Y-10493436D01*
X13579592Y-10493436D02*
X13570068Y-10474389D01*
X13570068Y-10474389D02*
X13560545Y-10436293D01*
X13560545Y-10436293D02*
X13560545Y-10388674D01*
X13560545Y-10388674D02*
X13570068Y-10350579D01*
X13570068Y-10350579D02*
X13579592Y-10331531D01*
X13579592Y-10331531D02*
X13589116Y-10322008D01*
X13589116Y-10322008D02*
X13608164Y-10312484D01*
X13760545Y-10512484D02*
X13760545Y-10379150D01*
X13760545Y-10398198D02*
X13770068Y-10388674D01*
X13770068Y-10388674D02*
X13789116Y-10379150D01*
X13789116Y-10379150D02*
X13817688Y-10379150D01*
X13817688Y-10379150D02*
X13836735Y-10388674D01*
X13836735Y-10388674D02*
X13846259Y-10407722D01*
X13846259Y-10407722D02*
X13846259Y-10512484D01*
X13846259Y-10407722D02*
X13855783Y-10388674D01*
X13855783Y-10388674D02*
X13874830Y-10379150D01*
X13874830Y-10379150D02*
X13903402Y-10379150D01*
X13903402Y-10379150D02*
X13922449Y-10388674D01*
X13922449Y-10388674D02*
X13931973Y-10407722D01*
X13931973Y-10407722D02*
X13931973Y-10512484D01*
X14027211Y-10512484D02*
X14027211Y-10379150D01*
X14027211Y-10398198D02*
X14036735Y-10388674D01*
X14036735Y-10388674D02*
X14055783Y-10379150D01*
X14055783Y-10379150D02*
X14084354Y-10379150D01*
X14084354Y-10379150D02*
X14103402Y-10388674D01*
X14103402Y-10388674D02*
X14112926Y-10407722D01*
X14112926Y-10407722D02*
X14112926Y-10512484D01*
X14112926Y-10407722D02*
X14122449Y-10388674D01*
X14122449Y-10388674D02*
X14141497Y-10379150D01*
X14141497Y-10379150D02*
X14170068Y-10379150D01*
X14170068Y-10379150D02*
X14189116Y-10388674D01*
X14189116Y-10388674D02*
X14198640Y-10407722D01*
X14198640Y-10407722D02*
X14198640Y-10512484D01*
X14589116Y-10302960D02*
X14417688Y-10560103D01*
X14846259Y-10312484D02*
X14865307Y-10312484D01*
X14865307Y-10312484D02*
X14884354Y-10322008D01*
X14884354Y-10322008D02*
X14893878Y-10331531D01*
X14893878Y-10331531D02*
X14903402Y-10350579D01*
X14903402Y-10350579D02*
X14912926Y-10388674D01*
X14912926Y-10388674D02*
X14912926Y-10436293D01*
X14912926Y-10436293D02*
X14903402Y-10474389D01*
X14903402Y-10474389D02*
X14893878Y-10493436D01*
X14893878Y-10493436D02*
X14884354Y-10502960D01*
X14884354Y-10502960D02*
X14865307Y-10512484D01*
X14865307Y-10512484D02*
X14846259Y-10512484D01*
X14846259Y-10512484D02*
X14827211Y-10502960D01*
X14827211Y-10502960D02*
X14817688Y-10493436D01*
X14817688Y-10493436D02*
X14808164Y-10474389D01*
X14808164Y-10474389D02*
X14798640Y-10436293D01*
X14798640Y-10436293D02*
X14798640Y-10388674D01*
X14798640Y-10388674D02*
X14808164Y-10350579D01*
X14808164Y-10350579D02*
X14817688Y-10331531D01*
X14817688Y-10331531D02*
X14827211Y-10322008D01*
X14827211Y-10322008D02*
X14846259Y-10312484D01*
X14998640Y-10493436D02*
X15008164Y-10502960D01*
X15008164Y-10502960D02*
X14998640Y-10512484D01*
X14998640Y-10512484D02*
X14989116Y-10502960D01*
X14989116Y-10502960D02*
X14998640Y-10493436D01*
X14998640Y-10493436D02*
X14998640Y-10512484D01*
X15131973Y-10312484D02*
X15151021Y-10312484D01*
X15151021Y-10312484D02*
X15170069Y-10322008D01*
X15170069Y-10322008D02*
X15179592Y-10331531D01*
X15179592Y-10331531D02*
X15189116Y-10350579D01*
X15189116Y-10350579D02*
X15198640Y-10388674D01*
X15198640Y-10388674D02*
X15198640Y-10436293D01*
X15198640Y-10436293D02*
X15189116Y-10474389D01*
X15189116Y-10474389D02*
X15179592Y-10493436D01*
X15179592Y-10493436D02*
X15170069Y-10502960D01*
X15170069Y-10502960D02*
X15151021Y-10512484D01*
X15151021Y-10512484D02*
X15131973Y-10512484D01*
X15131973Y-10512484D02*
X15112926Y-10502960D01*
X15112926Y-10502960D02*
X15103402Y-10493436D01*
X15103402Y-10493436D02*
X15093878Y-10474389D01*
X15093878Y-10474389D02*
X15084354Y-10436293D01*
X15084354Y-10436293D02*
X15084354Y-10388674D01*
X15084354Y-10388674D02*
X15093878Y-10350579D01*
X15093878Y-10350579D02*
X15103402Y-10331531D01*
X15103402Y-10331531D02*
X15112926Y-10322008D01*
X15112926Y-10322008D02*
X15131973Y-10312484D01*
X15312926Y-10398198D02*
X15293878Y-10388674D01*
X15293878Y-10388674D02*
X15284354Y-10379150D01*
X15284354Y-10379150D02*
X15274831Y-10360103D01*
X15274831Y-10360103D02*
X15274831Y-10350579D01*
X15274831Y-10350579D02*
X15284354Y-10331531D01*
X15284354Y-10331531D02*
X15293878Y-10322008D01*
X15293878Y-10322008D02*
X15312926Y-10312484D01*
X15312926Y-10312484D02*
X15351021Y-10312484D01*
X15351021Y-10312484D02*
X15370069Y-10322008D01*
X15370069Y-10322008D02*
X15379592Y-10331531D01*
X15379592Y-10331531D02*
X15389116Y-10350579D01*
X15389116Y-10350579D02*
X15389116Y-10360103D01*
X15389116Y-10360103D02*
X15379592Y-10379150D01*
X15379592Y-10379150D02*
X15370069Y-10388674D01*
X15370069Y-10388674D02*
X15351021Y-10398198D01*
X15351021Y-10398198D02*
X15312926Y-10398198D01*
X15312926Y-10398198D02*
X15293878Y-10407722D01*
X15293878Y-10407722D02*
X15284354Y-10417246D01*
X15284354Y-10417246D02*
X15274831Y-10436293D01*
X15274831Y-10436293D02*
X15274831Y-10474389D01*
X15274831Y-10474389D02*
X15284354Y-10493436D01*
X15284354Y-10493436D02*
X15293878Y-10502960D01*
X15293878Y-10502960D02*
X15312926Y-10512484D01*
X15312926Y-10512484D02*
X15351021Y-10512484D01*
X15351021Y-10512484D02*
X15370069Y-10502960D01*
X15370069Y-10502960D02*
X15379592Y-10493436D01*
X15379592Y-10493436D02*
X15389116Y-10474389D01*
X15389116Y-10474389D02*
X15389116Y-10436293D01*
X15389116Y-10436293D02*
X15379592Y-10417246D01*
X15379592Y-10417246D02*
X15370069Y-10407722D01*
X15370069Y-10407722D02*
X15351021Y-10398198D01*
X15560545Y-10312484D02*
X15522450Y-10312484D01*
X15522450Y-10312484D02*
X15503402Y-10322008D01*
X15503402Y-10322008D02*
X15493878Y-10331531D01*
X15493878Y-10331531D02*
X15474831Y-10360103D01*
X15474831Y-10360103D02*
X15465307Y-10398198D01*
X15465307Y-10398198D02*
X15465307Y-10474389D01*
X15465307Y-10474389D02*
X15474831Y-10493436D01*
X15474831Y-10493436D02*
X15484354Y-10502960D01*
X15484354Y-10502960D02*
X15503402Y-10512484D01*
X15503402Y-10512484D02*
X15541497Y-10512484D01*
X15541497Y-10512484D02*
X15560545Y-10502960D01*
X15560545Y-10502960D02*
X15570069Y-10493436D01*
X15570069Y-10493436D02*
X15579592Y-10474389D01*
X15579592Y-10474389D02*
X15579592Y-10426770D01*
X15579592Y-10426770D02*
X15570069Y-10407722D01*
X15570069Y-10407722D02*
X15560545Y-10398198D01*
X15560545Y-10398198D02*
X15541497Y-10388674D01*
X15541497Y-10388674D02*
X15503402Y-10388674D01*
X15503402Y-10388674D02*
X15484354Y-10398198D01*
X15484354Y-10398198D02*
X15474831Y-10407722D01*
X15474831Y-10407722D02*
X15465307Y-10426770D01*
X15751021Y-10312484D02*
X15712926Y-10312484D01*
X15712926Y-10312484D02*
X15693878Y-10322008D01*
X15693878Y-10322008D02*
X15684354Y-10331531D01*
X15684354Y-10331531D02*
X15665307Y-10360103D01*
X15665307Y-10360103D02*
X15655783Y-10398198D01*
X15655783Y-10398198D02*
X15655783Y-10474389D01*
X15655783Y-10474389D02*
X15665307Y-10493436D01*
X15665307Y-10493436D02*
X15674831Y-10502960D01*
X15674831Y-10502960D02*
X15693878Y-10512484D01*
X15693878Y-10512484D02*
X15731973Y-10512484D01*
X15731973Y-10512484D02*
X15751021Y-10502960D01*
X15751021Y-10502960D02*
X15760545Y-10493436D01*
X15760545Y-10493436D02*
X15770069Y-10474389D01*
X15770069Y-10474389D02*
X15770069Y-10426770D01*
X15770069Y-10426770D02*
X15760545Y-10407722D01*
X15760545Y-10407722D02*
X15751021Y-10398198D01*
X15751021Y-10398198D02*
X15731973Y-10388674D01*
X15731973Y-10388674D02*
X15693878Y-10388674D01*
X15693878Y-10388674D02*
X15674831Y-10398198D01*
X15674831Y-10398198D02*
X15665307Y-10407722D01*
X15665307Y-10407722D02*
X15655783Y-10426770D01*
X15846259Y-10312484D02*
X15846259Y-10350579D01*
X15922450Y-10312484D02*
X15922450Y-10350579D01*
X16217688Y-10588674D02*
X16208164Y-10579150D01*
X16208164Y-10579150D02*
X16189116Y-10550579D01*
X16189116Y-10550579D02*
X16179593Y-10531531D01*
X16179593Y-10531531D02*
X16170069Y-10502960D01*
X16170069Y-10502960D02*
X16160545Y-10455341D01*
X16160545Y-10455341D02*
X16160545Y-10417246D01*
X16160545Y-10417246D02*
X16170069Y-10369627D01*
X16170069Y-10369627D02*
X16179593Y-10341055D01*
X16179593Y-10341055D02*
X16189116Y-10322008D01*
X16189116Y-10322008D02*
X16208164Y-10293436D01*
X16208164Y-10293436D02*
X16217688Y-10283912D01*
X16274831Y-10312484D02*
X16398640Y-10312484D01*
X16398640Y-10312484D02*
X16331973Y-10388674D01*
X16331973Y-10388674D02*
X16360545Y-10388674D01*
X16360545Y-10388674D02*
X16379593Y-10398198D01*
X16379593Y-10398198D02*
X16389116Y-10407722D01*
X16389116Y-10407722D02*
X16398640Y-10426770D01*
X16398640Y-10426770D02*
X16398640Y-10474389D01*
X16398640Y-10474389D02*
X16389116Y-10493436D01*
X16389116Y-10493436D02*
X16379593Y-10502960D01*
X16379593Y-10502960D02*
X16360545Y-10512484D01*
X16360545Y-10512484D02*
X16303402Y-10512484D01*
X16303402Y-10512484D02*
X16284354Y-10502960D01*
X16284354Y-10502960D02*
X16274831Y-10493436D01*
X16636735Y-10512484D02*
X16636735Y-10312484D01*
X16722450Y-10512484D02*
X16722450Y-10407722D01*
X16722450Y-10407722D02*
X16712926Y-10388674D01*
X16712926Y-10388674D02*
X16693878Y-10379150D01*
X16693878Y-10379150D02*
X16665307Y-10379150D01*
X16665307Y-10379150D02*
X16646259Y-10388674D01*
X16646259Y-10388674D02*
X16636735Y-10398198D01*
X16846259Y-10512484D02*
X16827212Y-10502960D01*
X16827212Y-10502960D02*
X16817688Y-10493436D01*
X16817688Y-10493436D02*
X16808164Y-10474389D01*
X16808164Y-10474389D02*
X16808164Y-10417246D01*
X16808164Y-10417246D02*
X16817688Y-10398198D01*
X16817688Y-10398198D02*
X16827212Y-10388674D01*
X16827212Y-10388674D02*
X16846259Y-10379150D01*
X16846259Y-10379150D02*
X16874831Y-10379150D01*
X16874831Y-10379150D02*
X16893878Y-10388674D01*
X16893878Y-10388674D02*
X16903402Y-10398198D01*
X16903402Y-10398198D02*
X16912926Y-10417246D01*
X16912926Y-10417246D02*
X16912926Y-10474389D01*
X16912926Y-10474389D02*
X16903402Y-10493436D01*
X16903402Y-10493436D02*
X16893878Y-10502960D01*
X16893878Y-10502960D02*
X16874831Y-10512484D01*
X16874831Y-10512484D02*
X16846259Y-10512484D01*
X17027212Y-10512484D02*
X17008164Y-10502960D01*
X17008164Y-10502960D02*
X16998640Y-10483912D01*
X16998640Y-10483912D02*
X16998640Y-10312484D01*
X17179593Y-10502960D02*
X17160545Y-10512484D01*
X17160545Y-10512484D02*
X17122450Y-10512484D01*
X17122450Y-10512484D02*
X17103402Y-10502960D01*
X17103402Y-10502960D02*
X17093878Y-10483912D01*
X17093878Y-10483912D02*
X17093878Y-10407722D01*
X17093878Y-10407722D02*
X17103402Y-10388674D01*
X17103402Y-10388674D02*
X17122450Y-10379150D01*
X17122450Y-10379150D02*
X17160545Y-10379150D01*
X17160545Y-10379150D02*
X17179593Y-10388674D01*
X17179593Y-10388674D02*
X17189117Y-10407722D01*
X17189117Y-10407722D02*
X17189117Y-10426770D01*
X17189117Y-10426770D02*
X17093878Y-10445817D01*
X17265307Y-10502960D02*
X17284355Y-10512484D01*
X17284355Y-10512484D02*
X17322450Y-10512484D01*
X17322450Y-10512484D02*
X17341498Y-10502960D01*
X17341498Y-10502960D02*
X17351021Y-10483912D01*
X17351021Y-10483912D02*
X17351021Y-10474389D01*
X17351021Y-10474389D02*
X17341498Y-10455341D01*
X17341498Y-10455341D02*
X17322450Y-10445817D01*
X17322450Y-10445817D02*
X17293878Y-10445817D01*
X17293878Y-10445817D02*
X17274831Y-10436293D01*
X17274831Y-10436293D02*
X17265307Y-10417246D01*
X17265307Y-10417246D02*
X17265307Y-10407722D01*
X17265307Y-10407722D02*
X17274831Y-10388674D01*
X17274831Y-10388674D02*
X17293878Y-10379150D01*
X17293878Y-10379150D02*
X17322450Y-10379150D01*
X17322450Y-10379150D02*
X17341498Y-10388674D01*
X17417688Y-10588674D02*
X17427212Y-10579150D01*
X17427212Y-10579150D02*
X17446259Y-10550579D01*
X17446259Y-10550579D02*
X17455783Y-10531531D01*
X17455783Y-10531531D02*
X17465307Y-10502960D01*
X17465307Y-10502960D02*
X17474831Y-10455341D01*
X17474831Y-10455341D02*
X17474831Y-10417246D01*
X17474831Y-10417246D02*
X17465307Y-10369627D01*
X17465307Y-10369627D02*
X17455783Y-10341055D01*
X17455783Y-10341055D02*
X17446259Y-10322008D01*
X17446259Y-10322008D02*
X17427212Y-10293436D01*
X17427212Y-10293436D02*
X17417688Y-10283912D01*
X17779593Y-10588674D02*
X17770069Y-10579150D01*
X17770069Y-10579150D02*
X17751021Y-10550579D01*
X17751021Y-10550579D02*
X17741498Y-10531531D01*
X17741498Y-10531531D02*
X17731974Y-10502960D01*
X17731974Y-10502960D02*
X17722450Y-10455341D01*
X17722450Y-10455341D02*
X17722450Y-10417246D01*
X17722450Y-10417246D02*
X17731974Y-10369627D01*
X17731974Y-10369627D02*
X17741498Y-10341055D01*
X17741498Y-10341055D02*
X17751021Y-10322008D01*
X17751021Y-10322008D02*
X17770069Y-10293436D01*
X17770069Y-10293436D02*
X17779593Y-10283912D01*
X17855783Y-10379150D02*
X17855783Y-10512484D01*
X17855783Y-10398198D02*
X17865307Y-10388674D01*
X17865307Y-10388674D02*
X17884355Y-10379150D01*
X17884355Y-10379150D02*
X17912926Y-10379150D01*
X17912926Y-10379150D02*
X17931974Y-10388674D01*
X17931974Y-10388674D02*
X17941498Y-10407722D01*
X17941498Y-10407722D02*
X17941498Y-10512484D01*
X18065307Y-10512484D02*
X18046259Y-10502960D01*
X18046259Y-10502960D02*
X18036736Y-10493436D01*
X18036736Y-10493436D02*
X18027212Y-10474389D01*
X18027212Y-10474389D02*
X18027212Y-10417246D01*
X18027212Y-10417246D02*
X18036736Y-10398198D01*
X18036736Y-10398198D02*
X18046259Y-10388674D01*
X18046259Y-10388674D02*
X18065307Y-10379150D01*
X18065307Y-10379150D02*
X18093879Y-10379150D01*
X18093879Y-10379150D02*
X18112926Y-10388674D01*
X18112926Y-10388674D02*
X18122450Y-10398198D01*
X18122450Y-10398198D02*
X18131974Y-10417246D01*
X18131974Y-10417246D02*
X18131974Y-10474389D01*
X18131974Y-10474389D02*
X18122450Y-10493436D01*
X18122450Y-10493436D02*
X18112926Y-10502960D01*
X18112926Y-10502960D02*
X18093879Y-10512484D01*
X18093879Y-10512484D02*
X18065307Y-10512484D01*
X18189117Y-10379150D02*
X18265307Y-10379150D01*
X18217688Y-10312484D02*
X18217688Y-10483912D01*
X18217688Y-10483912D02*
X18227212Y-10502960D01*
X18227212Y-10502960D02*
X18246259Y-10512484D01*
X18246259Y-10512484D02*
X18265307Y-10512484D01*
X18484355Y-10379150D02*
X18484355Y-10579150D01*
X18484355Y-10388674D02*
X18503402Y-10379150D01*
X18503402Y-10379150D02*
X18541498Y-10379150D01*
X18541498Y-10379150D02*
X18560545Y-10388674D01*
X18560545Y-10388674D02*
X18570069Y-10398198D01*
X18570069Y-10398198D02*
X18579593Y-10417246D01*
X18579593Y-10417246D02*
X18579593Y-10474389D01*
X18579593Y-10474389D02*
X18570069Y-10493436D01*
X18570069Y-10493436D02*
X18560545Y-10502960D01*
X18560545Y-10502960D02*
X18541498Y-10512484D01*
X18541498Y-10512484D02*
X18503402Y-10512484D01*
X18503402Y-10512484D02*
X18484355Y-10502960D01*
X18693879Y-10512484D02*
X18674831Y-10502960D01*
X18674831Y-10502960D02*
X18665307Y-10483912D01*
X18665307Y-10483912D02*
X18665307Y-10312484D01*
X18855783Y-10512484D02*
X18855783Y-10407722D01*
X18855783Y-10407722D02*
X18846260Y-10388674D01*
X18846260Y-10388674D02*
X18827212Y-10379150D01*
X18827212Y-10379150D02*
X18789117Y-10379150D01*
X18789117Y-10379150D02*
X18770069Y-10388674D01*
X18855783Y-10502960D02*
X18836736Y-10512484D01*
X18836736Y-10512484D02*
X18789117Y-10512484D01*
X18789117Y-10512484D02*
X18770069Y-10502960D01*
X18770069Y-10502960D02*
X18760545Y-10483912D01*
X18760545Y-10483912D02*
X18760545Y-10464865D01*
X18760545Y-10464865D02*
X18770069Y-10445817D01*
X18770069Y-10445817D02*
X18789117Y-10436293D01*
X18789117Y-10436293D02*
X18836736Y-10436293D01*
X18836736Y-10436293D02*
X18855783Y-10426770D01*
X18922450Y-10379150D02*
X18998640Y-10379150D01*
X18951021Y-10312484D02*
X18951021Y-10483912D01*
X18951021Y-10483912D02*
X18960545Y-10502960D01*
X18960545Y-10502960D02*
X18979593Y-10512484D01*
X18979593Y-10512484D02*
X18998640Y-10512484D01*
X19141498Y-10502960D02*
X19122450Y-10512484D01*
X19122450Y-10512484D02*
X19084355Y-10512484D01*
X19084355Y-10512484D02*
X19065307Y-10502960D01*
X19065307Y-10502960D02*
X19055783Y-10483912D01*
X19055783Y-10483912D02*
X19055783Y-10407722D01*
X19055783Y-10407722D02*
X19065307Y-10388674D01*
X19065307Y-10388674D02*
X19084355Y-10379150D01*
X19084355Y-10379150D02*
X19122450Y-10379150D01*
X19122450Y-10379150D02*
X19141498Y-10388674D01*
X19141498Y-10388674D02*
X19151021Y-10407722D01*
X19151021Y-10407722D02*
X19151021Y-10426770D01*
X19151021Y-10426770D02*
X19055783Y-10445817D01*
X19322450Y-10512484D02*
X19322450Y-10312484D01*
X19322450Y-10502960D02*
X19303402Y-10512484D01*
X19303402Y-10512484D02*
X19265307Y-10512484D01*
X19265307Y-10512484D02*
X19246260Y-10502960D01*
X19246260Y-10502960D02*
X19236736Y-10493436D01*
X19236736Y-10493436D02*
X19227212Y-10474389D01*
X19227212Y-10474389D02*
X19227212Y-10417246D01*
X19227212Y-10417246D02*
X19236736Y-10398198D01*
X19236736Y-10398198D02*
X19246260Y-10388674D01*
X19246260Y-10388674D02*
X19265307Y-10379150D01*
X19265307Y-10379150D02*
X19303402Y-10379150D01*
X19303402Y-10379150D02*
X19322450Y-10388674D01*
X19398641Y-10588674D02*
X19408164Y-10579150D01*
X19408164Y-10579150D02*
X19427212Y-10550579D01*
X19427212Y-10550579D02*
X19436736Y-10531531D01*
X19436736Y-10531531D02*
X19446260Y-10502960D01*
X19446260Y-10502960D02*
X19455783Y-10455341D01*
X19455783Y-10455341D02*
X19455783Y-10417246D01*
X19455783Y-10417246D02*
X19446260Y-10369627D01*
X19446260Y-10369627D02*
X19436736Y-10341055D01*
X19436736Y-10341055D02*
X19427212Y-10322008D01*
X19427212Y-10322008D02*
X19408164Y-10293436D01*
X19408164Y-10293436D02*
X19398641Y-10283912D01*
X12613336Y-10811711D02*
X12613336Y-10670289D01*
X12471914Y-10670289D01*
X12471914Y-10811711D01*
X12613336Y-10811711D01*
X12884354Y-10632484D02*
X13008164Y-10632484D01*
X13008164Y-10632484D02*
X12941497Y-10708674D01*
X12941497Y-10708674D02*
X12970068Y-10708674D01*
X12970068Y-10708674D02*
X12989116Y-10718198D01*
X12989116Y-10718198D02*
X12998640Y-10727722D01*
X12998640Y-10727722D02*
X13008164Y-10746770D01*
X13008164Y-10746770D02*
X13008164Y-10794389D01*
X13008164Y-10794389D02*
X12998640Y-10813436D01*
X12998640Y-10813436D02*
X12989116Y-10822960D01*
X12989116Y-10822960D02*
X12970068Y-10832484D01*
X12970068Y-10832484D02*
X12912926Y-10832484D01*
X12912926Y-10832484D02*
X12893878Y-10822960D01*
X12893878Y-10822960D02*
X12884354Y-10813436D01*
X13093878Y-10813436D02*
X13103402Y-10822960D01*
X13103402Y-10822960D02*
X13093878Y-10832484D01*
X13093878Y-10832484D02*
X13084354Y-10822960D01*
X13084354Y-10822960D02*
X13093878Y-10813436D01*
X13093878Y-10813436D02*
X13093878Y-10832484D01*
X13227211Y-10632484D02*
X13246259Y-10632484D01*
X13246259Y-10632484D02*
X13265307Y-10642008D01*
X13265307Y-10642008D02*
X13274830Y-10651531D01*
X13274830Y-10651531D02*
X13284354Y-10670579D01*
X13284354Y-10670579D02*
X13293878Y-10708674D01*
X13293878Y-10708674D02*
X13293878Y-10756293D01*
X13293878Y-10756293D02*
X13284354Y-10794389D01*
X13284354Y-10794389D02*
X13274830Y-10813436D01*
X13274830Y-10813436D02*
X13265307Y-10822960D01*
X13265307Y-10822960D02*
X13246259Y-10832484D01*
X13246259Y-10832484D02*
X13227211Y-10832484D01*
X13227211Y-10832484D02*
X13208164Y-10822960D01*
X13208164Y-10822960D02*
X13198640Y-10813436D01*
X13198640Y-10813436D02*
X13189116Y-10794389D01*
X13189116Y-10794389D02*
X13179592Y-10756293D01*
X13179592Y-10756293D02*
X13179592Y-10708674D01*
X13179592Y-10708674D02*
X13189116Y-10670579D01*
X13189116Y-10670579D02*
X13198640Y-10651531D01*
X13198640Y-10651531D02*
X13208164Y-10642008D01*
X13208164Y-10642008D02*
X13227211Y-10632484D01*
X13417687Y-10632484D02*
X13436735Y-10632484D01*
X13436735Y-10632484D02*
X13455783Y-10642008D01*
X13455783Y-10642008D02*
X13465307Y-10651531D01*
X13465307Y-10651531D02*
X13474830Y-10670579D01*
X13474830Y-10670579D02*
X13484354Y-10708674D01*
X13484354Y-10708674D02*
X13484354Y-10756293D01*
X13484354Y-10756293D02*
X13474830Y-10794389D01*
X13474830Y-10794389D02*
X13465307Y-10813436D01*
X13465307Y-10813436D02*
X13455783Y-10822960D01*
X13455783Y-10822960D02*
X13436735Y-10832484D01*
X13436735Y-10832484D02*
X13417687Y-10832484D01*
X13417687Y-10832484D02*
X13398640Y-10822960D01*
X13398640Y-10822960D02*
X13389116Y-10813436D01*
X13389116Y-10813436D02*
X13379592Y-10794389D01*
X13379592Y-10794389D02*
X13370068Y-10756293D01*
X13370068Y-10756293D02*
X13370068Y-10708674D01*
X13370068Y-10708674D02*
X13379592Y-10670579D01*
X13379592Y-10670579D02*
X13389116Y-10651531D01*
X13389116Y-10651531D02*
X13398640Y-10642008D01*
X13398640Y-10642008D02*
X13417687Y-10632484D01*
X13608164Y-10632484D02*
X13627211Y-10632484D01*
X13627211Y-10632484D02*
X13646259Y-10642008D01*
X13646259Y-10642008D02*
X13655783Y-10651531D01*
X13655783Y-10651531D02*
X13665307Y-10670579D01*
X13665307Y-10670579D02*
X13674830Y-10708674D01*
X13674830Y-10708674D02*
X13674830Y-10756293D01*
X13674830Y-10756293D02*
X13665307Y-10794389D01*
X13665307Y-10794389D02*
X13655783Y-10813436D01*
X13655783Y-10813436D02*
X13646259Y-10822960D01*
X13646259Y-10822960D02*
X13627211Y-10832484D01*
X13627211Y-10832484D02*
X13608164Y-10832484D01*
X13608164Y-10832484D02*
X13589116Y-10822960D01*
X13589116Y-10822960D02*
X13579592Y-10813436D01*
X13579592Y-10813436D02*
X13570068Y-10794389D01*
X13570068Y-10794389D02*
X13560545Y-10756293D01*
X13560545Y-10756293D02*
X13560545Y-10708674D01*
X13560545Y-10708674D02*
X13570068Y-10670579D01*
X13570068Y-10670579D02*
X13579592Y-10651531D01*
X13579592Y-10651531D02*
X13589116Y-10642008D01*
X13589116Y-10642008D02*
X13608164Y-10632484D01*
X13760545Y-10832484D02*
X13760545Y-10699150D01*
X13760545Y-10718198D02*
X13770068Y-10708674D01*
X13770068Y-10708674D02*
X13789116Y-10699150D01*
X13789116Y-10699150D02*
X13817688Y-10699150D01*
X13817688Y-10699150D02*
X13836735Y-10708674D01*
X13836735Y-10708674D02*
X13846259Y-10727722D01*
X13846259Y-10727722D02*
X13846259Y-10832484D01*
X13846259Y-10727722D02*
X13855783Y-10708674D01*
X13855783Y-10708674D02*
X13874830Y-10699150D01*
X13874830Y-10699150D02*
X13903402Y-10699150D01*
X13903402Y-10699150D02*
X13922449Y-10708674D01*
X13922449Y-10708674D02*
X13931973Y-10727722D01*
X13931973Y-10727722D02*
X13931973Y-10832484D01*
X14027211Y-10832484D02*
X14027211Y-10699150D01*
X14027211Y-10718198D02*
X14036735Y-10708674D01*
X14036735Y-10708674D02*
X14055783Y-10699150D01*
X14055783Y-10699150D02*
X14084354Y-10699150D01*
X14084354Y-10699150D02*
X14103402Y-10708674D01*
X14103402Y-10708674D02*
X14112926Y-10727722D01*
X14112926Y-10727722D02*
X14112926Y-10832484D01*
X14112926Y-10727722D02*
X14122449Y-10708674D01*
X14122449Y-10708674D02*
X14141497Y-10699150D01*
X14141497Y-10699150D02*
X14170068Y-10699150D01*
X14170068Y-10699150D02*
X14189116Y-10708674D01*
X14189116Y-10708674D02*
X14198640Y-10727722D01*
X14198640Y-10727722D02*
X14198640Y-10832484D01*
X14589116Y-10622960D02*
X14417688Y-10880103D01*
X14846259Y-10632484D02*
X14865307Y-10632484D01*
X14865307Y-10632484D02*
X14884354Y-10642008D01*
X14884354Y-10642008D02*
X14893878Y-10651531D01*
X14893878Y-10651531D02*
X14903402Y-10670579D01*
X14903402Y-10670579D02*
X14912926Y-10708674D01*
X14912926Y-10708674D02*
X14912926Y-10756293D01*
X14912926Y-10756293D02*
X14903402Y-10794389D01*
X14903402Y-10794389D02*
X14893878Y-10813436D01*
X14893878Y-10813436D02*
X14884354Y-10822960D01*
X14884354Y-10822960D02*
X14865307Y-10832484D01*
X14865307Y-10832484D02*
X14846259Y-10832484D01*
X14846259Y-10832484D02*
X14827211Y-10822960D01*
X14827211Y-10822960D02*
X14817688Y-10813436D01*
X14817688Y-10813436D02*
X14808164Y-10794389D01*
X14808164Y-10794389D02*
X14798640Y-10756293D01*
X14798640Y-10756293D02*
X14798640Y-10708674D01*
X14798640Y-10708674D02*
X14808164Y-10670579D01*
X14808164Y-10670579D02*
X14817688Y-10651531D01*
X14817688Y-10651531D02*
X14827211Y-10642008D01*
X14827211Y-10642008D02*
X14846259Y-10632484D01*
X14998640Y-10813436D02*
X15008164Y-10822960D01*
X15008164Y-10822960D02*
X14998640Y-10832484D01*
X14998640Y-10832484D02*
X14989116Y-10822960D01*
X14989116Y-10822960D02*
X14998640Y-10813436D01*
X14998640Y-10813436D02*
X14998640Y-10832484D01*
X15198640Y-10832484D02*
X15084354Y-10832484D01*
X15141497Y-10832484D02*
X15141497Y-10632484D01*
X15141497Y-10632484D02*
X15122450Y-10661055D01*
X15122450Y-10661055D02*
X15103402Y-10680103D01*
X15103402Y-10680103D02*
X15084354Y-10689627D01*
X15389116Y-10832484D02*
X15274831Y-10832484D01*
X15331973Y-10832484D02*
X15331973Y-10632484D01*
X15331973Y-10632484D02*
X15312926Y-10661055D01*
X15312926Y-10661055D02*
X15293878Y-10680103D01*
X15293878Y-10680103D02*
X15274831Y-10689627D01*
X15503402Y-10718198D02*
X15484354Y-10708674D01*
X15484354Y-10708674D02*
X15474831Y-10699150D01*
X15474831Y-10699150D02*
X15465307Y-10680103D01*
X15465307Y-10680103D02*
X15465307Y-10670579D01*
X15465307Y-10670579D02*
X15474831Y-10651531D01*
X15474831Y-10651531D02*
X15484354Y-10642008D01*
X15484354Y-10642008D02*
X15503402Y-10632484D01*
X15503402Y-10632484D02*
X15541497Y-10632484D01*
X15541497Y-10632484D02*
X15560545Y-10642008D01*
X15560545Y-10642008D02*
X15570069Y-10651531D01*
X15570069Y-10651531D02*
X15579592Y-10670579D01*
X15579592Y-10670579D02*
X15579592Y-10680103D01*
X15579592Y-10680103D02*
X15570069Y-10699150D01*
X15570069Y-10699150D02*
X15560545Y-10708674D01*
X15560545Y-10708674D02*
X15541497Y-10718198D01*
X15541497Y-10718198D02*
X15503402Y-10718198D01*
X15503402Y-10718198D02*
X15484354Y-10727722D01*
X15484354Y-10727722D02*
X15474831Y-10737246D01*
X15474831Y-10737246D02*
X15465307Y-10756293D01*
X15465307Y-10756293D02*
X15465307Y-10794389D01*
X15465307Y-10794389D02*
X15474831Y-10813436D01*
X15474831Y-10813436D02*
X15484354Y-10822960D01*
X15484354Y-10822960D02*
X15503402Y-10832484D01*
X15503402Y-10832484D02*
X15541497Y-10832484D01*
X15541497Y-10832484D02*
X15560545Y-10822960D01*
X15560545Y-10822960D02*
X15570069Y-10813436D01*
X15570069Y-10813436D02*
X15579592Y-10794389D01*
X15579592Y-10794389D02*
X15579592Y-10756293D01*
X15579592Y-10756293D02*
X15570069Y-10737246D01*
X15570069Y-10737246D02*
X15560545Y-10727722D01*
X15560545Y-10727722D02*
X15541497Y-10718198D01*
X15770069Y-10832484D02*
X15655783Y-10832484D01*
X15712926Y-10832484D02*
X15712926Y-10632484D01*
X15712926Y-10632484D02*
X15693878Y-10661055D01*
X15693878Y-10661055D02*
X15674831Y-10680103D01*
X15674831Y-10680103D02*
X15655783Y-10689627D01*
X15846259Y-10632484D02*
X15846259Y-10670579D01*
X15922450Y-10632484D02*
X15922450Y-10670579D01*
X16217688Y-10908674D02*
X16208164Y-10899150D01*
X16208164Y-10899150D02*
X16189116Y-10870579D01*
X16189116Y-10870579D02*
X16179593Y-10851531D01*
X16179593Y-10851531D02*
X16170069Y-10822960D01*
X16170069Y-10822960D02*
X16160545Y-10775341D01*
X16160545Y-10775341D02*
X16160545Y-10737246D01*
X16160545Y-10737246D02*
X16170069Y-10689627D01*
X16170069Y-10689627D02*
X16179593Y-10661055D01*
X16179593Y-10661055D02*
X16189116Y-10642008D01*
X16189116Y-10642008D02*
X16208164Y-10613436D01*
X16208164Y-10613436D02*
X16217688Y-10603912D01*
X16284354Y-10651531D02*
X16293878Y-10642008D01*
X16293878Y-10642008D02*
X16312926Y-10632484D01*
X16312926Y-10632484D02*
X16360545Y-10632484D01*
X16360545Y-10632484D02*
X16379593Y-10642008D01*
X16379593Y-10642008D02*
X16389116Y-10651531D01*
X16389116Y-10651531D02*
X16398640Y-10670579D01*
X16398640Y-10670579D02*
X16398640Y-10689627D01*
X16398640Y-10689627D02*
X16389116Y-10718198D01*
X16389116Y-10718198D02*
X16274831Y-10832484D01*
X16274831Y-10832484D02*
X16398640Y-10832484D01*
X16636735Y-10832484D02*
X16636735Y-10632484D01*
X16722450Y-10832484D02*
X16722450Y-10727722D01*
X16722450Y-10727722D02*
X16712926Y-10708674D01*
X16712926Y-10708674D02*
X16693878Y-10699150D01*
X16693878Y-10699150D02*
X16665307Y-10699150D01*
X16665307Y-10699150D02*
X16646259Y-10708674D01*
X16646259Y-10708674D02*
X16636735Y-10718198D01*
X16846259Y-10832484D02*
X16827212Y-10822960D01*
X16827212Y-10822960D02*
X16817688Y-10813436D01*
X16817688Y-10813436D02*
X16808164Y-10794389D01*
X16808164Y-10794389D02*
X16808164Y-10737246D01*
X16808164Y-10737246D02*
X16817688Y-10718198D01*
X16817688Y-10718198D02*
X16827212Y-10708674D01*
X16827212Y-10708674D02*
X16846259Y-10699150D01*
X16846259Y-10699150D02*
X16874831Y-10699150D01*
X16874831Y-10699150D02*
X16893878Y-10708674D01*
X16893878Y-10708674D02*
X16903402Y-10718198D01*
X16903402Y-10718198D02*
X16912926Y-10737246D01*
X16912926Y-10737246D02*
X16912926Y-10794389D01*
X16912926Y-10794389D02*
X16903402Y-10813436D01*
X16903402Y-10813436D02*
X16893878Y-10822960D01*
X16893878Y-10822960D02*
X16874831Y-10832484D01*
X16874831Y-10832484D02*
X16846259Y-10832484D01*
X17027212Y-10832484D02*
X17008164Y-10822960D01*
X17008164Y-10822960D02*
X16998640Y-10803912D01*
X16998640Y-10803912D02*
X16998640Y-10632484D01*
X17179593Y-10822960D02*
X17160545Y-10832484D01*
X17160545Y-10832484D02*
X17122450Y-10832484D01*
X17122450Y-10832484D02*
X17103402Y-10822960D01*
X17103402Y-10822960D02*
X17093878Y-10803912D01*
X17093878Y-10803912D02*
X17093878Y-10727722D01*
X17093878Y-10727722D02*
X17103402Y-10708674D01*
X17103402Y-10708674D02*
X17122450Y-10699150D01*
X17122450Y-10699150D02*
X17160545Y-10699150D01*
X17160545Y-10699150D02*
X17179593Y-10708674D01*
X17179593Y-10708674D02*
X17189117Y-10727722D01*
X17189117Y-10727722D02*
X17189117Y-10746770D01*
X17189117Y-10746770D02*
X17093878Y-10765817D01*
X17265307Y-10822960D02*
X17284355Y-10832484D01*
X17284355Y-10832484D02*
X17322450Y-10832484D01*
X17322450Y-10832484D02*
X17341498Y-10822960D01*
X17341498Y-10822960D02*
X17351021Y-10803912D01*
X17351021Y-10803912D02*
X17351021Y-10794389D01*
X17351021Y-10794389D02*
X17341498Y-10775341D01*
X17341498Y-10775341D02*
X17322450Y-10765817D01*
X17322450Y-10765817D02*
X17293878Y-10765817D01*
X17293878Y-10765817D02*
X17274831Y-10756293D01*
X17274831Y-10756293D02*
X17265307Y-10737246D01*
X17265307Y-10737246D02*
X17265307Y-10727722D01*
X17265307Y-10727722D02*
X17274831Y-10708674D01*
X17274831Y-10708674D02*
X17293878Y-10699150D01*
X17293878Y-10699150D02*
X17322450Y-10699150D01*
X17322450Y-10699150D02*
X17341498Y-10708674D01*
X17417688Y-10908674D02*
X17427212Y-10899150D01*
X17427212Y-10899150D02*
X17446259Y-10870579D01*
X17446259Y-10870579D02*
X17455783Y-10851531D01*
X17455783Y-10851531D02*
X17465307Y-10822960D01*
X17465307Y-10822960D02*
X17474831Y-10775341D01*
X17474831Y-10775341D02*
X17474831Y-10737246D01*
X17474831Y-10737246D02*
X17465307Y-10689627D01*
X17465307Y-10689627D02*
X17455783Y-10661055D01*
X17455783Y-10661055D02*
X17446259Y-10642008D01*
X17446259Y-10642008D02*
X17427212Y-10613436D01*
X17427212Y-10613436D02*
X17417688Y-10603912D01*
X17779593Y-10908674D02*
X17770069Y-10899150D01*
X17770069Y-10899150D02*
X17751021Y-10870579D01*
X17751021Y-10870579D02*
X17741498Y-10851531D01*
X17741498Y-10851531D02*
X17731974Y-10822960D01*
X17731974Y-10822960D02*
X17722450Y-10775341D01*
X17722450Y-10775341D02*
X17722450Y-10737246D01*
X17722450Y-10737246D02*
X17731974Y-10689627D01*
X17731974Y-10689627D02*
X17741498Y-10661055D01*
X17741498Y-10661055D02*
X17751021Y-10642008D01*
X17751021Y-10642008D02*
X17770069Y-10613436D01*
X17770069Y-10613436D02*
X17779593Y-10603912D01*
X17855783Y-10699150D02*
X17855783Y-10832484D01*
X17855783Y-10718198D02*
X17865307Y-10708674D01*
X17865307Y-10708674D02*
X17884355Y-10699150D01*
X17884355Y-10699150D02*
X17912926Y-10699150D01*
X17912926Y-10699150D02*
X17931974Y-10708674D01*
X17931974Y-10708674D02*
X17941498Y-10727722D01*
X17941498Y-10727722D02*
X17941498Y-10832484D01*
X18065307Y-10832484D02*
X18046259Y-10822960D01*
X18046259Y-10822960D02*
X18036736Y-10813436D01*
X18036736Y-10813436D02*
X18027212Y-10794389D01*
X18027212Y-10794389D02*
X18027212Y-10737246D01*
X18027212Y-10737246D02*
X18036736Y-10718198D01*
X18036736Y-10718198D02*
X18046259Y-10708674D01*
X18046259Y-10708674D02*
X18065307Y-10699150D01*
X18065307Y-10699150D02*
X18093879Y-10699150D01*
X18093879Y-10699150D02*
X18112926Y-10708674D01*
X18112926Y-10708674D02*
X18122450Y-10718198D01*
X18122450Y-10718198D02*
X18131974Y-10737246D01*
X18131974Y-10737246D02*
X18131974Y-10794389D01*
X18131974Y-10794389D02*
X18122450Y-10813436D01*
X18122450Y-10813436D02*
X18112926Y-10822960D01*
X18112926Y-10822960D02*
X18093879Y-10832484D01*
X18093879Y-10832484D02*
X18065307Y-10832484D01*
X18189117Y-10699150D02*
X18265307Y-10699150D01*
X18217688Y-10632484D02*
X18217688Y-10803912D01*
X18217688Y-10803912D02*
X18227212Y-10822960D01*
X18227212Y-10822960D02*
X18246259Y-10832484D01*
X18246259Y-10832484D02*
X18265307Y-10832484D01*
X18484355Y-10699150D02*
X18484355Y-10899150D01*
X18484355Y-10708674D02*
X18503402Y-10699150D01*
X18503402Y-10699150D02*
X18541498Y-10699150D01*
X18541498Y-10699150D02*
X18560545Y-10708674D01*
X18560545Y-10708674D02*
X18570069Y-10718198D01*
X18570069Y-10718198D02*
X18579593Y-10737246D01*
X18579593Y-10737246D02*
X18579593Y-10794389D01*
X18579593Y-10794389D02*
X18570069Y-10813436D01*
X18570069Y-10813436D02*
X18560545Y-10822960D01*
X18560545Y-10822960D02*
X18541498Y-10832484D01*
X18541498Y-10832484D02*
X18503402Y-10832484D01*
X18503402Y-10832484D02*
X18484355Y-10822960D01*
X18693879Y-10832484D02*
X18674831Y-10822960D01*
X18674831Y-10822960D02*
X18665307Y-10803912D01*
X18665307Y-10803912D02*
X18665307Y-10632484D01*
X18855783Y-10832484D02*
X18855783Y-10727722D01*
X18855783Y-10727722D02*
X18846260Y-10708674D01*
X18846260Y-10708674D02*
X18827212Y-10699150D01*
X18827212Y-10699150D02*
X18789117Y-10699150D01*
X18789117Y-10699150D02*
X18770069Y-10708674D01*
X18855783Y-10822960D02*
X18836736Y-10832484D01*
X18836736Y-10832484D02*
X18789117Y-10832484D01*
X18789117Y-10832484D02*
X18770069Y-10822960D01*
X18770069Y-10822960D02*
X18760545Y-10803912D01*
X18760545Y-10803912D02*
X18760545Y-10784865D01*
X18760545Y-10784865D02*
X18770069Y-10765817D01*
X18770069Y-10765817D02*
X18789117Y-10756293D01*
X18789117Y-10756293D02*
X18836736Y-10756293D01*
X18836736Y-10756293D02*
X18855783Y-10746770D01*
X18922450Y-10699150D02*
X18998640Y-10699150D01*
X18951021Y-10632484D02*
X18951021Y-10803912D01*
X18951021Y-10803912D02*
X18960545Y-10822960D01*
X18960545Y-10822960D02*
X18979593Y-10832484D01*
X18979593Y-10832484D02*
X18998640Y-10832484D01*
X19141498Y-10822960D02*
X19122450Y-10832484D01*
X19122450Y-10832484D02*
X19084355Y-10832484D01*
X19084355Y-10832484D02*
X19065307Y-10822960D01*
X19065307Y-10822960D02*
X19055783Y-10803912D01*
X19055783Y-10803912D02*
X19055783Y-10727722D01*
X19055783Y-10727722D02*
X19065307Y-10708674D01*
X19065307Y-10708674D02*
X19084355Y-10699150D01*
X19084355Y-10699150D02*
X19122450Y-10699150D01*
X19122450Y-10699150D02*
X19141498Y-10708674D01*
X19141498Y-10708674D02*
X19151021Y-10727722D01*
X19151021Y-10727722D02*
X19151021Y-10746770D01*
X19151021Y-10746770D02*
X19055783Y-10765817D01*
X19322450Y-10832484D02*
X19322450Y-10632484D01*
X19322450Y-10822960D02*
X19303402Y-10832484D01*
X19303402Y-10832484D02*
X19265307Y-10832484D01*
X19265307Y-10832484D02*
X19246260Y-10822960D01*
X19246260Y-10822960D02*
X19236736Y-10813436D01*
X19236736Y-10813436D02*
X19227212Y-10794389D01*
X19227212Y-10794389D02*
X19227212Y-10737246D01*
X19227212Y-10737246D02*
X19236736Y-10718198D01*
X19236736Y-10718198D02*
X19246260Y-10708674D01*
X19246260Y-10708674D02*
X19265307Y-10699150D01*
X19265307Y-10699150D02*
X19303402Y-10699150D01*
X19303402Y-10699150D02*
X19322450Y-10708674D01*
X19398641Y-10908674D02*
X19408164Y-10899150D01*
X19408164Y-10899150D02*
X19427212Y-10870579D01*
X19427212Y-10870579D02*
X19436736Y-10851531D01*
X19436736Y-10851531D02*
X19446260Y-10822960D01*
X19446260Y-10822960D02*
X19455783Y-10775341D01*
X19455783Y-10775341D02*
X19455783Y-10737246D01*
X19455783Y-10737246D02*
X19446260Y-10689627D01*
X19446260Y-10689627D02*
X19436736Y-10661055D01*
X19436736Y-10661055D02*
X19427212Y-10642008D01*
X19427212Y-10642008D02*
X19408164Y-10613436D01*
X19408164Y-10613436D02*
X19398641Y-10603912D01*
M02*
