G04 #@! TF.GenerationSoftware,KiCad,Pcbnew,7.0.9-1.fc38*
G04 #@! TF.CreationDate,2023-11-15T09:02:08+02:00*
G04 #@! TF.ProjectId,transceiver_board,7472616e-7363-4656-9976-65725f626f61,rev?*
G04 #@! TF.SameCoordinates,Original*
G04 #@! TF.FileFunction,Copper,L1,Top*
G04 #@! TF.FilePolarity,Positive*
%FSLAX46Y46*%
G04 Gerber Fmt 4.6, Leading zero omitted, Abs format (unit mm)*
G04 Created by KiCad (PCBNEW 7.0.9-1.fc38) date 2023-11-15 09:02:08*
%MOMM*%
%LPD*%
G01*
G04 APERTURE LIST*
G04 Aperture macros list*
%AMRoundRect*
0 Rectangle with rounded corners*
0 $1 Rounding radius*
0 $2 $3 $4 $5 $6 $7 $8 $9 X,Y pos of 4 corners*
0 Add a 4 corners polygon primitive as box body*
4,1,4,$2,$3,$4,$5,$6,$7,$8,$9,$2,$3,0*
0 Add four circle primitives for the rounded corners*
1,1,$1+$1,$2,$3*
1,1,$1+$1,$4,$5*
1,1,$1+$1,$6,$7*
1,1,$1+$1,$8,$9*
0 Add four rect primitives between the rounded corners*
20,1,$1+$1,$2,$3,$4,$5,0*
20,1,$1+$1,$4,$5,$6,$7,0*
20,1,$1+$1,$6,$7,$8,$9,0*
20,1,$1+$1,$8,$9,$2,$3,0*%
%AMFreePoly0*
4,1,21,-0.125000,1.200000,0.125000,1.200000,0.125000,1.700000,0.375000,1.700000,0.375000,1.200000,0.825000,1.200000,0.825000,-1.200000,0.375000,-1.200000,0.375000,-1.700000,0.125000,-1.700000,0.125000,-1.200000,-0.125000,-1.200000,-0.125000,-1.700000,-0.375000,-1.700000,-0.375000,-1.200000,-0.825000,-1.200000,-0.825000,1.200000,-0.375000,1.200000,-0.375000,1.700000,-0.125000,1.700000,
-0.125000,1.200000,-0.125000,1.200000,$1*%
G04 Aperture macros list end*
G04 #@! TA.AperFunction,SMDPad,CuDef*
%ADD10RoundRect,0.237500X-0.300000X-0.237500X0.300000X-0.237500X0.300000X0.237500X-0.300000X0.237500X0*%
G04 #@! TD*
G04 #@! TA.AperFunction,SMDPad,CuDef*
%ADD11RoundRect,0.237500X-0.237500X0.300000X-0.237500X-0.300000X0.237500X-0.300000X0.237500X0.300000X0*%
G04 #@! TD*
G04 #@! TA.AperFunction,ComponentPad*
%ADD12RoundRect,0.200100X0.949900X-0.949900X0.949900X0.949900X-0.949900X0.949900X-0.949900X-0.949900X0*%
G04 #@! TD*
G04 #@! TA.AperFunction,ComponentPad*
%ADD13C,2.500000*%
G04 #@! TD*
G04 #@! TA.AperFunction,SMDPad,CuDef*
%ADD14R,1.000000X3.200000*%
G04 #@! TD*
G04 #@! TA.AperFunction,SMDPad,CuDef*
%ADD15RoundRect,0.237500X0.287500X0.237500X-0.287500X0.237500X-0.287500X-0.237500X0.287500X-0.237500X0*%
G04 #@! TD*
G04 #@! TA.AperFunction,SMDPad,CuDef*
%ADD16RoundRect,0.075000X-0.662500X-0.075000X0.662500X-0.075000X0.662500X0.075000X-0.662500X0.075000X0*%
G04 #@! TD*
G04 #@! TA.AperFunction,SMDPad,CuDef*
%ADD17RoundRect,0.075000X-0.075000X-0.662500X0.075000X-0.662500X0.075000X0.662500X-0.075000X0.662500X0*%
G04 #@! TD*
G04 #@! TA.AperFunction,SMDPad,CuDef*
%ADD18RoundRect,0.237500X-0.237500X0.287500X-0.237500X-0.287500X0.237500X-0.287500X0.237500X0.287500X0*%
G04 #@! TD*
G04 #@! TA.AperFunction,SMDPad,CuDef*
%ADD19RoundRect,0.250000X0.337500X0.475000X-0.337500X0.475000X-0.337500X-0.475000X0.337500X-0.475000X0*%
G04 #@! TD*
G04 #@! TA.AperFunction,SMDPad,CuDef*
%ADD20RoundRect,0.155000X0.212500X0.155000X-0.212500X0.155000X-0.212500X-0.155000X0.212500X-0.155000X0*%
G04 #@! TD*
G04 #@! TA.AperFunction,SMDPad,CuDef*
%ADD21R,1.000000X0.800000*%
G04 #@! TD*
G04 #@! TA.AperFunction,SMDPad,CuDef*
%ADD22R,0.700000X1.500000*%
G04 #@! TD*
G04 #@! TA.AperFunction,SMDPad,CuDef*
%ADD23RoundRect,0.155000X0.155000X-0.212500X0.155000X0.212500X-0.155000X0.212500X-0.155000X-0.212500X0*%
G04 #@! TD*
G04 #@! TA.AperFunction,SMDPad,CuDef*
%ADD24R,0.850000X0.750000*%
G04 #@! TD*
G04 #@! TA.AperFunction,SMDPad,CuDef*
%ADD25R,0.600000X0.240000*%
G04 #@! TD*
G04 #@! TA.AperFunction,ComponentPad*
%ADD26C,0.500000*%
G04 #@! TD*
G04 #@! TA.AperFunction,SMDPad,CuDef*
%ADD27FreePoly0,180.000000*%
G04 #@! TD*
G04 #@! TA.AperFunction,SMDPad,CuDef*
%ADD28RoundRect,0.237500X0.237500X-0.300000X0.237500X0.300000X-0.237500X0.300000X-0.237500X-0.300000X0*%
G04 #@! TD*
G04 #@! TA.AperFunction,SMDPad,CuDef*
%ADD29RoundRect,0.250000X-0.475000X0.337500X-0.475000X-0.337500X0.475000X-0.337500X0.475000X0.337500X0*%
G04 #@! TD*
G04 #@! TA.AperFunction,SMDPad,CuDef*
%ADD30RoundRect,0.237500X-0.237500X0.250000X-0.237500X-0.250000X0.237500X-0.250000X0.237500X0.250000X0*%
G04 #@! TD*
G04 #@! TA.AperFunction,SMDPad,CuDef*
%ADD31RoundRect,0.155000X-0.155000X0.212500X-0.155000X-0.212500X0.155000X-0.212500X0.155000X0.212500X0*%
G04 #@! TD*
G04 #@! TA.AperFunction,SMDPad,CuDef*
%ADD32RoundRect,0.200000X0.200000X0.275000X-0.200000X0.275000X-0.200000X-0.275000X0.200000X-0.275000X0*%
G04 #@! TD*
G04 #@! TA.AperFunction,SMDPad,CuDef*
%ADD33R,1.200000X1.500000*%
G04 #@! TD*
G04 #@! TA.AperFunction,SMDPad,CuDef*
%ADD34R,1.900000X1.100000*%
G04 #@! TD*
G04 #@! TA.AperFunction,SMDPad,CuDef*
%ADD35RoundRect,0.237500X0.237500X-0.250000X0.237500X0.250000X-0.237500X0.250000X-0.237500X-0.250000X0*%
G04 #@! TD*
G04 #@! TA.AperFunction,SMDPad,CuDef*
%ADD36R,1.350000X0.400000*%
G04 #@! TD*
G04 #@! TA.AperFunction,ComponentPad*
%ADD37O,1.900000X1.200000*%
G04 #@! TD*
G04 #@! TA.AperFunction,SMDPad,CuDef*
%ADD38R,1.900000X1.200000*%
G04 #@! TD*
G04 #@! TA.AperFunction,ComponentPad*
%ADD39C,1.450000*%
G04 #@! TD*
G04 #@! TA.AperFunction,SMDPad,CuDef*
%ADD40R,1.900000X1.500000*%
G04 #@! TD*
G04 #@! TA.AperFunction,SMDPad,CuDef*
%ADD41RoundRect,0.237500X0.300000X0.237500X-0.300000X0.237500X-0.300000X-0.237500X0.300000X-0.237500X0*%
G04 #@! TD*
G04 #@! TA.AperFunction,SMDPad,CuDef*
%ADD42RoundRect,0.237500X0.237500X-0.287500X0.237500X0.287500X-0.237500X0.287500X-0.237500X-0.287500X0*%
G04 #@! TD*
G04 #@! TA.AperFunction,SMDPad,CuDef*
%ADD43R,1.000000X0.700000*%
G04 #@! TD*
G04 #@! TA.AperFunction,SMDPad,CuDef*
%ADD44R,0.600000X0.700000*%
G04 #@! TD*
G04 #@! TA.AperFunction,SMDPad,CuDef*
%ADD45R,0.300000X0.800000*%
G04 #@! TD*
G04 #@! TA.AperFunction,SMDPad,CuDef*
%ADD46R,0.800000X0.300000*%
G04 #@! TD*
G04 #@! TA.AperFunction,SMDPad,CuDef*
%ADD47R,0.675000X0.675000*%
G04 #@! TD*
G04 #@! TA.AperFunction,ComponentPad*
%ADD48C,0.700000*%
G04 #@! TD*
G04 #@! TA.AperFunction,ViaPad*
%ADD49C,0.800000*%
G04 #@! TD*
G04 #@! TA.AperFunction,ViaPad*
%ADD50C,0.700000*%
G04 #@! TD*
G04 #@! TA.AperFunction,Conductor*
%ADD51C,0.200000*%
G04 #@! TD*
G04 #@! TA.AperFunction,Conductor*
%ADD52C,0.300000*%
G04 #@! TD*
G04 #@! TA.AperFunction,Conductor*
%ADD53C,0.250000*%
G04 #@! TD*
G04 #@! TA.AperFunction,Conductor*
%ADD54C,0.381242*%
G04 #@! TD*
G04 #@! TA.AperFunction,Conductor*
%ADD55C,0.400000*%
G04 #@! TD*
G04 #@! TA.AperFunction,Conductor*
%ADD56C,0.500000*%
G04 #@! TD*
G04 APERTURE END LIST*
D10*
X156417500Y-101830000D03*
X158142500Y-101830000D03*
D11*
X137617500Y-89741250D03*
X137617500Y-91466250D03*
D12*
X99540000Y-93046250D03*
D13*
X97000000Y-95586250D03*
X102080000Y-95586250D03*
X97000000Y-90506250D03*
X102080000Y-90506250D03*
D14*
X144000000Y-90000000D03*
X144000000Y-83200000D03*
X148000000Y-90000000D03*
X148000000Y-83200000D03*
D15*
X124242500Y-90166250D03*
X122492500Y-90166250D03*
D16*
X158187500Y-92700000D03*
X158187500Y-93200000D03*
X158187500Y-93700000D03*
X158187500Y-94200000D03*
X158187500Y-94700000D03*
X158187500Y-95200000D03*
X158187500Y-95700000D03*
X158187500Y-96200000D03*
X158187500Y-96700000D03*
X158187500Y-97200000D03*
X158187500Y-97700000D03*
X158187500Y-98200000D03*
D17*
X159600000Y-99612500D03*
X160100000Y-99612500D03*
X160600000Y-99612500D03*
X161100000Y-99612500D03*
X161600000Y-99612500D03*
X162100000Y-99612500D03*
X162600000Y-99612500D03*
X163100000Y-99612500D03*
X163600000Y-99612500D03*
X164100000Y-99612500D03*
X164600000Y-99612500D03*
X165100000Y-99612500D03*
D16*
X166512500Y-98200000D03*
X166512500Y-97700000D03*
X166512500Y-97200000D03*
X166512500Y-96700000D03*
X166512500Y-96200000D03*
X166512500Y-95700000D03*
X166512500Y-95200000D03*
X166512500Y-94700000D03*
X166512500Y-94200000D03*
X166512500Y-93700000D03*
X166512500Y-93200000D03*
X166512500Y-92700000D03*
D17*
X165100000Y-91287500D03*
X164600000Y-91287500D03*
X164100000Y-91287500D03*
X163600000Y-91287500D03*
X163100000Y-91287500D03*
X162600000Y-91287500D03*
X162100000Y-91287500D03*
X161600000Y-91287500D03*
X161100000Y-91287500D03*
X160600000Y-91287500D03*
X160100000Y-91287500D03*
X159600000Y-91287500D03*
D18*
X152350000Y-81800000D03*
X152350000Y-83550000D03*
D11*
X172080000Y-98957500D03*
X172080000Y-100682500D03*
D19*
X175227500Y-96360000D03*
X173152500Y-96360000D03*
D11*
X140027500Y-84493750D03*
X140027500Y-86218750D03*
D18*
X126817500Y-89791250D03*
X126817500Y-91541250D03*
D20*
X123485000Y-93066250D03*
X122350000Y-93066250D03*
D15*
X116342500Y-93066250D03*
X114592500Y-93066250D03*
D21*
X167900000Y-82000000D03*
X167900000Y-79790000D03*
X160600000Y-82000000D03*
X160600000Y-79790000D03*
D22*
X166500000Y-82650000D03*
X163500000Y-82650000D03*
X162000000Y-82650000D03*
D23*
X153300000Y-91480000D03*
X153300000Y-90345000D03*
D24*
X133145000Y-98245000D03*
X131795000Y-98245000D03*
X131795000Y-99295000D03*
X133145000Y-99295000D03*
D25*
X176580000Y-104170000D03*
X176580000Y-103670000D03*
X176580000Y-103170000D03*
X176580000Y-102670000D03*
X176580000Y-102170000D03*
X173780000Y-102170000D03*
X173780000Y-102670000D03*
X173780000Y-103170000D03*
X173780000Y-103670000D03*
X173780000Y-104170000D03*
D26*
X175755000Y-103170000D03*
X175180000Y-104120000D03*
D27*
X175180000Y-103170000D03*
D26*
X175180000Y-102220000D03*
X174605000Y-103170000D03*
D28*
X139467500Y-95116250D03*
X139467500Y-93391250D03*
D23*
X119067500Y-93033750D03*
X119067500Y-91898750D03*
D29*
X160400000Y-103572500D03*
X160400000Y-105647500D03*
D30*
X137327500Y-84443750D03*
X137327500Y-86268750D03*
D15*
X120792500Y-94766250D03*
X119042500Y-94766250D03*
D18*
X156450000Y-81775000D03*
X156450000Y-83525000D03*
D11*
X139467500Y-89741250D03*
X139467500Y-91466250D03*
D29*
X165030000Y-103562500D03*
X165030000Y-105637500D03*
X171830000Y-103582500D03*
X171830000Y-105657500D03*
D31*
X128567500Y-94648750D03*
X128567500Y-95783750D03*
D29*
X169540000Y-103572500D03*
X169540000Y-105647500D03*
D19*
X147070000Y-92900000D03*
X144995000Y-92900000D03*
D32*
X176605000Y-98970000D03*
X174955000Y-98970000D03*
D31*
X153300000Y-98845000D03*
X153300000Y-99980000D03*
D15*
X125192500Y-94666250D03*
X123442500Y-94666250D03*
D10*
X156410000Y-100070000D03*
X158135000Y-100070000D03*
D33*
X181080000Y-104470000D03*
X181080000Y-101770000D03*
D31*
X127067500Y-94648750D03*
X127067500Y-95783750D03*
D34*
X153300000Y-93412500D03*
X153300000Y-97012500D03*
D15*
X109142500Y-93066250D03*
X107392500Y-93066250D03*
D35*
X152350000Y-87187500D03*
X152350000Y-85362500D03*
D20*
X112335000Y-93066250D03*
X111200000Y-93066250D03*
D36*
X181900000Y-94350000D03*
X181900000Y-93700000D03*
X181900000Y-93050000D03*
X181900000Y-92400000D03*
X181900000Y-91750000D03*
D37*
X184600000Y-96550000D03*
D38*
X184600000Y-95950000D03*
D39*
X181900000Y-95550000D03*
D40*
X184600000Y-94050000D03*
X184600000Y-92050000D03*
D39*
X181900000Y-90550000D03*
D38*
X184600000Y-90150000D03*
D37*
X184600000Y-89550000D03*
D14*
X143930000Y-102660000D03*
X143930000Y-95860000D03*
X147930000Y-102660000D03*
X147930000Y-95860000D03*
D41*
X124230000Y-88416250D03*
X122505000Y-88416250D03*
D29*
X167270000Y-103572500D03*
X167270000Y-105647500D03*
D32*
X163325000Y-87812500D03*
X161675000Y-87812500D03*
D29*
X162690000Y-103572500D03*
X162690000Y-105647500D03*
D23*
X120767500Y-93033750D03*
X120767500Y-91898750D03*
D20*
X120485000Y-96666250D03*
X119350000Y-96666250D03*
D29*
X158080000Y-103572500D03*
X158080000Y-105647500D03*
D20*
X123502500Y-91816250D03*
X122367500Y-91816250D03*
D42*
X137567500Y-95128750D03*
X137567500Y-93378750D03*
D43*
X175000000Y-92300000D03*
D44*
X173300000Y-92300000D03*
X173300000Y-94300000D03*
X175200000Y-94300000D03*
D28*
X107417500Y-90628750D03*
X107417500Y-88903750D03*
D35*
X156450000Y-87262500D03*
X156450000Y-85437500D03*
D23*
X111217500Y-91333750D03*
X111217500Y-90198750D03*
D45*
X131467500Y-94466250D03*
X131967500Y-94466250D03*
X132467500Y-94466250D03*
X132967500Y-94466250D03*
X133467500Y-94466250D03*
X133967500Y-94466250D03*
D46*
X134717500Y-93716250D03*
X134717500Y-93216250D03*
X134717500Y-92716250D03*
X134717500Y-92216250D03*
X134717500Y-91716250D03*
X134717500Y-91216250D03*
D45*
X133967500Y-90466250D03*
X133467500Y-90466250D03*
X132967500Y-90466250D03*
X132467500Y-90466250D03*
X131967500Y-90466250D03*
X131467500Y-90466250D03*
D46*
X130717500Y-91216250D03*
X130717500Y-91716250D03*
X130717500Y-92216250D03*
X130717500Y-92716250D03*
X130717500Y-93216250D03*
X130717500Y-93716250D03*
D47*
X131705000Y-93478750D03*
X132380000Y-93478750D03*
X133055000Y-93478750D03*
X133730000Y-93478750D03*
D48*
X132042500Y-93141250D03*
X133392500Y-93141250D03*
D47*
X131705000Y-92803750D03*
X132380000Y-92803750D03*
X133055000Y-92803750D03*
X133730000Y-92803750D03*
X131705000Y-92128750D03*
X132380000Y-92128750D03*
X133055000Y-92128750D03*
X133730000Y-92128750D03*
D48*
X132042500Y-91791250D03*
X133392500Y-91791250D03*
D47*
X131705000Y-91453750D03*
X132380000Y-91453750D03*
X133055000Y-91453750D03*
X133730000Y-91453750D03*
D49*
X125530000Y-106220000D03*
X106380000Y-106220000D03*
D50*
X174990000Y-91210000D03*
D49*
X129440000Y-100600000D03*
D50*
X127830000Y-96770000D03*
D49*
X110210000Y-106220000D03*
X117870000Y-106220000D03*
X129520000Y-90000000D03*
D50*
X166480000Y-84010000D03*
X160190000Y-89820000D03*
D49*
X147940000Y-86580000D03*
D50*
X122530000Y-87230000D03*
D49*
X129480000Y-97760000D03*
X98720000Y-106220000D03*
X121752500Y-79840000D03*
X129480000Y-103300000D03*
D50*
X130793933Y-94650000D03*
X161520000Y-104580000D03*
D49*
X95800000Y-82750000D03*
X96510000Y-105620000D03*
X121700000Y-106220000D03*
D50*
X119880000Y-90890000D03*
D49*
X154440000Y-81770000D03*
D50*
X171660000Y-96630000D03*
D49*
X129510000Y-83060000D03*
X102550000Y-106220000D03*
X106417500Y-79840000D03*
X125586250Y-79840000D03*
D50*
X164730000Y-101600000D03*
D49*
X143980000Y-98880000D03*
X95820000Y-87740000D03*
D50*
X159120000Y-100810000D03*
D49*
X117918750Y-79840000D03*
X110251250Y-79840000D03*
D50*
X132090000Y-97110000D03*
X152320000Y-90310000D03*
D49*
X129510000Y-86530000D03*
D50*
X168420000Y-104610000D03*
X140693160Y-93456840D03*
X138590000Y-88620000D03*
X159240000Y-104580000D03*
D49*
X129360000Y-106220000D03*
X129420000Y-79840000D03*
D50*
X108730000Y-88910000D03*
X142830000Y-92950000D03*
D49*
X95760000Y-103190000D03*
D50*
X159810000Y-96020000D03*
X167840000Y-93180000D03*
D49*
X95760000Y-100640000D03*
D50*
X152210000Y-99990000D03*
D49*
X114085000Y-79840000D03*
X102583750Y-79840000D03*
D50*
X111220000Y-88970000D03*
X170720000Y-104580000D03*
D49*
X98750000Y-79840000D03*
X114040000Y-106220000D03*
X95760000Y-98240000D03*
D50*
X168930000Y-100740000D03*
X163880000Y-104610000D03*
D49*
X96510000Y-80440000D03*
D50*
X166190000Y-104630000D03*
X139360000Y-83320000D03*
D49*
X95780000Y-85240000D03*
D50*
X167100000Y-91590000D03*
X161610000Y-84010000D03*
X131410000Y-95650000D03*
X177620000Y-104550000D03*
X138410000Y-83330000D03*
X140670000Y-90810000D03*
D49*
X157090000Y-98940000D03*
D50*
X159180000Y-90040000D03*
X163890000Y-102410000D03*
X134170000Y-95470000D03*
X161040000Y-100960000D03*
X136395051Y-90598569D03*
X136260000Y-89770000D03*
X161750000Y-101620000D03*
X162610000Y-102060000D03*
X135220000Y-89450000D03*
X132930000Y-87930000D03*
X169410000Y-97340000D03*
X131860000Y-87630000D03*
X169940000Y-96440000D03*
X131330000Y-89070000D03*
X168960000Y-98230000D03*
X168490000Y-99010000D03*
X130770000Y-89810000D03*
D51*
X132930000Y-87930000D02*
X132500000Y-88360000D01*
X132500000Y-88360000D02*
X132500000Y-90433750D01*
X132500000Y-90433750D02*
X132467500Y-90466250D01*
D52*
X137327500Y-84412500D02*
X137327500Y-84443750D01*
X138410000Y-83330000D02*
X137327500Y-84412500D01*
D51*
X169680000Y-96700000D02*
X166512500Y-96700000D01*
X169940000Y-96440000D02*
X169680000Y-96700000D01*
X168490000Y-99010000D02*
X167680000Y-98200000D01*
X167680000Y-98200000D02*
X166512500Y-98200000D01*
X168430000Y-97700000D02*
X166512500Y-97700000D01*
X168960000Y-98230000D02*
X168430000Y-97700000D01*
X169410000Y-97340000D02*
X169270000Y-97200000D01*
X169270000Y-97200000D02*
X166512500Y-97200000D01*
X136395051Y-90598569D02*
X135777370Y-91216250D01*
X135777370Y-91216250D02*
X134717500Y-91216250D01*
X135220000Y-89450000D02*
X134094338Y-89450000D01*
X134094338Y-89450000D02*
X133467500Y-90076838D01*
X133467500Y-90076838D02*
X133467500Y-90466250D01*
X136260000Y-89770000D02*
X135563750Y-90466250D01*
X135563750Y-90466250D02*
X133967500Y-90466250D01*
X131330000Y-89070000D02*
X131467500Y-89207500D01*
X131467500Y-89207500D02*
X131467500Y-90466250D01*
X131860000Y-87630000D02*
X131967500Y-87737500D01*
X131967500Y-87737500D02*
X131967500Y-90466250D01*
X130770000Y-89810000D02*
X130717500Y-89862500D01*
X130717500Y-89862500D02*
X130717500Y-91216250D01*
X161750000Y-101620000D02*
X162100000Y-101620000D01*
X162100000Y-101620000D02*
X163100000Y-100620000D01*
X163100000Y-100620000D02*
X163100000Y-99612500D01*
X162610000Y-102060000D02*
X163600000Y-101070000D01*
X163600000Y-101070000D02*
X163600000Y-99612500D01*
X161040000Y-100960000D02*
X161937556Y-100960000D01*
X161937556Y-100960000D02*
X162600000Y-100297556D01*
X162600000Y-100297556D02*
X162600000Y-99612500D01*
D53*
X165100000Y-99612500D02*
X165480000Y-99992500D01*
X165480000Y-99992500D02*
X165480000Y-103112500D01*
X165480000Y-103112500D02*
X165030000Y-103562500D01*
X133145000Y-98245000D02*
X133145000Y-95855000D01*
X133145000Y-95855000D02*
X132967500Y-95677500D01*
X132967500Y-95677500D02*
X132967500Y-94466250D01*
X132467500Y-94466250D02*
X132467500Y-95632500D01*
X132467500Y-95632500D02*
X130890000Y-97210000D01*
X130890000Y-97210000D02*
X130890000Y-99065000D01*
X130890000Y-99065000D02*
X131120000Y-99295000D01*
X131120000Y-99295000D02*
X131795000Y-99295000D01*
D51*
X131410000Y-95650000D02*
X131467500Y-95592500D01*
X131467500Y-95592500D02*
X131467500Y-94466250D01*
X130717500Y-91716250D02*
X131967500Y-91716250D01*
D52*
X122505000Y-87255000D02*
X122530000Y-87230000D01*
X119880000Y-91011250D02*
X120767500Y-91898750D01*
D51*
X174105000Y-103670000D02*
X174605000Y-103170000D01*
D52*
X119880000Y-90890000D02*
X119880000Y-91086250D01*
D51*
X173780000Y-103670000D02*
X174105000Y-103670000D01*
D52*
X111217500Y-90198750D02*
X111217500Y-88972500D01*
D51*
X131967500Y-91716250D02*
X132042500Y-91791250D01*
D52*
X127830000Y-96521250D02*
X128567500Y-95783750D01*
X127830000Y-96770000D02*
X127830000Y-96546250D01*
X111217500Y-88972500D02*
X111220000Y-88970000D01*
X107417500Y-88903750D02*
X108723750Y-88903750D01*
D51*
X176580000Y-103170000D02*
X175755000Y-103170000D01*
D52*
X127830000Y-96546250D02*
X127067500Y-95783750D01*
X108723750Y-88903750D02*
X108730000Y-88910000D01*
X127830000Y-96770000D02*
X127830000Y-96521250D01*
X122505000Y-88416250D02*
X122505000Y-87255000D01*
X119880000Y-91086250D02*
X119067500Y-91898750D01*
X119880000Y-90890000D02*
X119880000Y-91011250D01*
X136160000Y-88740000D02*
X133520000Y-88740000D01*
D54*
X144000000Y-90000000D02*
X144000000Y-83200000D01*
D52*
X137327500Y-86268750D02*
X139977500Y-86268750D01*
X143668750Y-82868750D02*
X144000000Y-83200000D01*
X132967500Y-89292500D02*
X132967500Y-90466250D01*
X137327500Y-86268750D02*
X137327500Y-87572500D01*
X137327500Y-87572500D02*
X136160000Y-88740000D01*
X133520000Y-88740000D02*
X132967500Y-89292500D01*
X140981250Y-86218750D02*
X144000000Y-83200000D01*
X139977500Y-86268750D02*
X140027500Y-86218750D01*
X140027500Y-86218750D02*
X140981250Y-86218750D01*
X135537500Y-93716250D02*
X136950000Y-95128750D01*
X136950000Y-95128750D02*
X137567500Y-95128750D01*
X134717500Y-93716250D02*
X135537500Y-93716250D01*
X137567500Y-95128750D02*
X139455000Y-95128750D01*
X176580000Y-104170000D02*
X177240000Y-104170000D01*
X139467500Y-91466250D02*
X137617500Y-91466250D01*
X156417500Y-100077500D02*
X156417500Y-101830000D01*
X134717500Y-92216250D02*
X134717500Y-91716250D01*
X140013750Y-91466250D02*
X140670000Y-90810000D01*
X139467500Y-91466250D02*
X140013750Y-91466250D01*
D53*
X158090000Y-103562500D02*
X158080000Y-103572500D01*
X165030000Y-103562500D02*
X171810000Y-103562500D01*
D52*
X159600000Y-90460000D02*
X159180000Y-90040000D01*
D53*
X173780000Y-104170000D02*
X172417500Y-104170000D01*
D52*
X166512500Y-92177500D02*
X167100000Y-91590000D01*
X157433810Y-96700000D02*
X156410000Y-97723810D01*
D53*
X172417500Y-104170000D02*
X171830000Y-103582500D01*
D52*
X158187500Y-92700000D02*
X159600000Y-91287500D01*
X156410000Y-100070000D02*
X156410000Y-99620000D01*
X159600000Y-91287500D02*
X159600000Y-90460000D01*
D53*
X171810000Y-103562500D02*
X171830000Y-103582500D01*
X158080000Y-103492500D02*
X156417500Y-101830000D01*
D52*
X166512500Y-92700000D02*
X166512500Y-92177500D01*
X137617500Y-91466250D02*
X136317500Y-91466250D01*
X177240000Y-104170000D02*
X177620000Y-104550000D01*
X156410000Y-100070000D02*
X156417500Y-100077500D01*
D53*
X165030000Y-103562500D02*
X158090000Y-103562500D01*
D52*
X158187500Y-96700000D02*
X157433810Y-96700000D01*
X162000000Y-83620000D02*
X161610000Y-84010000D01*
X162000000Y-82650000D02*
X162000000Y-83620000D01*
X136317500Y-91466250D02*
X136067500Y-91716250D01*
X136067500Y-91716250D02*
X134717500Y-91716250D01*
X156410000Y-99620000D02*
X157090000Y-98940000D01*
D53*
X158080000Y-103572500D02*
X158080000Y-103492500D01*
D52*
X156410000Y-97723810D02*
X156410000Y-100070000D01*
D54*
X128567500Y-94648750D02*
X127067500Y-94648750D01*
X125210000Y-94648750D02*
X125192500Y-94666250D01*
X127067500Y-94648750D02*
X125210000Y-94648750D01*
D52*
X129785000Y-94648750D02*
X128567500Y-94648750D01*
X130717500Y-93716250D02*
X129785000Y-94648750D01*
D54*
X123442500Y-93108750D02*
X123485000Y-93066250D01*
X130717500Y-93216250D02*
X123635000Y-93216250D01*
X123635000Y-93216250D02*
X123485000Y-93066250D01*
X123442500Y-94666250D02*
X123442500Y-93108750D01*
X122492500Y-90166250D02*
X122492500Y-91691250D01*
X122350000Y-91833750D02*
X122367500Y-91816250D01*
X120792500Y-93058750D02*
X120767500Y-93033750D01*
X122492500Y-91691250D02*
X122367500Y-91816250D01*
X120792500Y-94766250D02*
X120792500Y-93058750D01*
X120485000Y-95073750D02*
X120792500Y-94766250D01*
X120485000Y-96666250D02*
X120485000Y-95073750D01*
X122350000Y-93066250D02*
X120800000Y-93066250D01*
X122350000Y-93066250D02*
X122350000Y-91833750D01*
X120800000Y-93066250D02*
X120767500Y-93033750D01*
D52*
X129176814Y-92716250D02*
X128001814Y-91541250D01*
D54*
X123502500Y-91816250D02*
X126542500Y-91816250D01*
X126542500Y-91816250D02*
X126817500Y-91541250D01*
D52*
X128001814Y-91541250D02*
X126817500Y-91541250D01*
X130717500Y-92716250D02*
X129176814Y-92716250D01*
D54*
X124242500Y-90166250D02*
X124242500Y-88428750D01*
X124242500Y-90166250D02*
X126442500Y-90166250D01*
D52*
X130717500Y-92216250D02*
X130117499Y-92216250D01*
D54*
X124242500Y-88428750D02*
X124230000Y-88416250D01*
D52*
X128981249Y-91080000D02*
X128106250Y-91080000D01*
D54*
X126442500Y-90166250D02*
X126817500Y-89791250D01*
D52*
X128106250Y-91080000D02*
X126817500Y-89791250D01*
X130117499Y-92216250D02*
X128981249Y-91080000D01*
D54*
X119042500Y-94766250D02*
X119042500Y-93058750D01*
X119042500Y-93058750D02*
X119067500Y-93033750D01*
X116375000Y-93033750D02*
X116342500Y-93066250D01*
X119350000Y-95073750D02*
X119042500Y-94766250D01*
X119350000Y-96666250D02*
X119350000Y-95073750D01*
X119067500Y-93033750D02*
X116375000Y-93033750D01*
X114592500Y-93066250D02*
X112335000Y-93066250D01*
X111200000Y-91351250D02*
X111217500Y-91333750D01*
X111200000Y-93066250D02*
X111200000Y-91351250D01*
X111200000Y-93066250D02*
X109142500Y-93066250D01*
X99560000Y-93066250D02*
X99540000Y-93046250D01*
X107392500Y-93066250D02*
X99560000Y-93066250D01*
X107392500Y-93066250D02*
X107392500Y-90653750D01*
X107392500Y-90653750D02*
X107417500Y-90628750D01*
X100357500Y-93066250D02*
X100337500Y-93046250D01*
D52*
X153300000Y-97012500D02*
X155112500Y-95200000D01*
X153300000Y-98845000D02*
X153300000Y-97012500D01*
X155112500Y-95200000D02*
X158187500Y-95200000D01*
X154587500Y-94700000D02*
X153300000Y-93412500D01*
X158187500Y-94700000D02*
X154587500Y-94700000D01*
X153300000Y-93412500D02*
X153300000Y-91480000D01*
D53*
X175227500Y-96360000D02*
X175227500Y-95940000D01*
X175227500Y-95940000D02*
X175200000Y-95912500D01*
D55*
X175265000Y-94365000D02*
X182250000Y-94365000D01*
D56*
X176642500Y-98932500D02*
X176605000Y-98970000D01*
X175200000Y-94300000D02*
X175265000Y-94365000D01*
D55*
X176605000Y-97737500D02*
X175227500Y-96360000D01*
X175200000Y-94300000D02*
X175200000Y-95912500D01*
X176605000Y-98970000D02*
X176605000Y-97737500D01*
X176605000Y-98970000D02*
X176605000Y-102135000D01*
D52*
X174955000Y-99545000D02*
X174192500Y-100307500D01*
X173780000Y-103170000D02*
X173780000Y-102170000D01*
X173780000Y-100720000D02*
X174192500Y-100307500D01*
X172092500Y-98970000D02*
X172080000Y-98957500D01*
X173780000Y-102170000D02*
X173780000Y-100720000D01*
X174955000Y-98970000D02*
X172092500Y-98970000D01*
X174955000Y-98970000D02*
X174955000Y-99545000D01*
X147070000Y-94770000D02*
X147950000Y-95650000D01*
X155350000Y-97783810D02*
X155350000Y-100500000D01*
D54*
X147950000Y-95650000D02*
X147950000Y-102450000D01*
D52*
X153400000Y-102450000D02*
X153700000Y-102150000D01*
X158187500Y-95700000D02*
X157433810Y-95700000D01*
X157433810Y-95700000D02*
X155350000Y-97783810D01*
X147950000Y-102450000D02*
X153400000Y-102450000D01*
X155350000Y-100500000D02*
X153700000Y-102150000D01*
X147070000Y-92900000D02*
X147070000Y-94770000D01*
D53*
X173300000Y-92300000D02*
X171400000Y-94200000D01*
X174050000Y-93050000D02*
X182250000Y-93050000D01*
X171400000Y-94200000D02*
X166512500Y-94200000D01*
X173300000Y-92300000D02*
X174050000Y-93050000D01*
X166512500Y-94700000D02*
X172900000Y-94700000D01*
X182250000Y-93700000D02*
X182235000Y-93685000D01*
X173915000Y-93685000D02*
X173300000Y-94300000D01*
X182235000Y-93685000D02*
X173915000Y-93685000D01*
X172900000Y-94700000D02*
X173300000Y-94300000D01*
D52*
X152350000Y-85362500D02*
X152350000Y-83550000D01*
X156450000Y-85437500D02*
X156450000Y-83525000D01*
X137567500Y-93378750D02*
X136850000Y-93378750D01*
X136850000Y-93378750D02*
X136177500Y-92706250D01*
X136177500Y-92706250D02*
X136167500Y-92716250D01*
X136167500Y-92716250D02*
X134717500Y-92716250D01*
X176580000Y-103670000D02*
X180280000Y-103670000D01*
X180280000Y-103670000D02*
X181080000Y-104470000D01*
X176580000Y-102670000D02*
X180180000Y-102670000D01*
X180180000Y-102670000D02*
X181080000Y-101770000D01*
X163325000Y-87812500D02*
X163325000Y-82825000D01*
X163325000Y-82825000D02*
X163500000Y-82650000D01*
X161600000Y-87887500D02*
X161675000Y-87812500D01*
X161600000Y-91287500D02*
X161600000Y-87887500D01*
X156450000Y-92216190D02*
X157433810Y-93200000D01*
X157433810Y-93200000D02*
X158187500Y-93200000D01*
X156450000Y-87262500D02*
X156450000Y-92216190D01*
X157311556Y-93700000D02*
X154600000Y-90988444D01*
X158187500Y-93700000D02*
X157311556Y-93700000D01*
X154600000Y-89437500D02*
X152350000Y-87187500D01*
X154600000Y-90988444D02*
X154600000Y-89437500D01*
D51*
X164070500Y-99642000D02*
X164100000Y-99612500D01*
X133967500Y-94466250D02*
X133967500Y-95267500D01*
X164070500Y-102229500D02*
X164070500Y-99642000D01*
X163890000Y-102410000D02*
X164070500Y-102229500D01*
X133967500Y-95267500D02*
X134170000Y-95470000D01*
G04 #@! TA.AperFunction,Conductor*
G36*
X129927033Y-96908975D02*
G01*
X129993906Y-96929218D01*
X130039220Y-96982401D01*
X130050000Y-97032971D01*
X130050000Y-106726000D01*
X130030315Y-106793039D01*
X129977511Y-106838794D01*
X129926000Y-106850000D01*
X98055198Y-106850000D01*
X98042134Y-106846164D01*
X98003562Y-106846164D01*
X98003562Y-105586164D01*
X98000000Y-105585890D01*
X98000000Y-105585888D01*
X98021880Y-105587572D01*
X98033266Y-105581912D01*
X98054956Y-105580000D01*
X128850000Y-105580000D01*
X128850000Y-97025037D01*
X128869685Y-96957998D01*
X128922489Y-96912243D01*
X128975028Y-96901041D01*
X129927033Y-96908975D01*
G37*
G04 #@! TD.AperFunction*
G04 #@! TA.AperFunction,Conductor*
G36*
X96353039Y-97479685D02*
G01*
X96398794Y-97532489D01*
X96410000Y-97584000D01*
X96410000Y-103956164D01*
X95150000Y-103956164D01*
X95150000Y-97584000D01*
X95169685Y-97516961D01*
X95222489Y-97471206D01*
X95274000Y-97460000D01*
X96286000Y-97460000D01*
X96353039Y-97479685D01*
G37*
G04 #@! TD.AperFunction*
G04 #@! TA.AperFunction,Conductor*
G36*
X183001619Y-79000584D02*
G01*
X183133628Y-79007503D01*
X183317027Y-79017803D01*
X183323212Y-79018465D01*
X183475647Y-79042608D01*
X183638194Y-79070226D01*
X183643811Y-79071453D01*
X183796693Y-79112418D01*
X183889122Y-79139046D01*
X183951724Y-79157082D01*
X183956759Y-79158769D01*
X184106183Y-79216127D01*
X184254007Y-79277358D01*
X184258412Y-79279388D01*
X184276695Y-79288704D01*
X184401921Y-79352511D01*
X184444717Y-79376163D01*
X184541480Y-79429641D01*
X184545215Y-79431882D01*
X184619487Y-79480115D01*
X184680872Y-79519980D01*
X184768357Y-79582053D01*
X184810764Y-79612142D01*
X184813886Y-79614510D01*
X184938748Y-79715621D01*
X184941034Y-79717567D01*
X185058721Y-79822738D01*
X185061248Y-79825128D01*
X185174870Y-79938750D01*
X185177260Y-79941277D01*
X185282431Y-80058964D01*
X185284385Y-80061260D01*
X185385480Y-80186102D01*
X185387862Y-80189243D01*
X185480019Y-80319127D01*
X185533758Y-80401875D01*
X185568106Y-80454767D01*
X185570364Y-80458531D01*
X185647488Y-80598078D01*
X185720604Y-80741575D01*
X185722643Y-80745997D01*
X185783877Y-80893829D01*
X185841221Y-81043217D01*
X185842916Y-81048273D01*
X185887579Y-81203297D01*
X185928541Y-81356171D01*
X185929778Y-81361835D01*
X185957394Y-81524369D01*
X185981530Y-81676758D01*
X185982196Y-81682985D01*
X185992509Y-81866617D01*
X185999415Y-81998377D01*
X185999500Y-82001623D01*
X185999500Y-103998376D01*
X185999415Y-104001622D01*
X185992509Y-104133382D01*
X185982196Y-104317013D01*
X185981530Y-104323240D01*
X185957394Y-104475630D01*
X185929778Y-104638163D01*
X185928541Y-104643827D01*
X185887579Y-104796702D01*
X185842916Y-104951725D01*
X185841221Y-104956781D01*
X185783877Y-105106170D01*
X185722643Y-105254001D01*
X185720604Y-105258423D01*
X185647488Y-105401921D01*
X185570364Y-105541467D01*
X185568097Y-105545246D01*
X185480019Y-105680872D01*
X185387862Y-105810755D01*
X185385480Y-105813896D01*
X185284385Y-105938738D01*
X185282431Y-105941034D01*
X185177260Y-106058721D01*
X185174870Y-106061248D01*
X185061248Y-106174870D01*
X185058721Y-106177260D01*
X184941034Y-106282431D01*
X184938738Y-106284385D01*
X184813896Y-106385480D01*
X184810755Y-106387862D01*
X184680872Y-106480019D01*
X184545246Y-106568097D01*
X184541467Y-106570364D01*
X184401921Y-106647488D01*
X184258423Y-106720604D01*
X184254001Y-106722643D01*
X184106170Y-106783877D01*
X183956781Y-106841221D01*
X183951725Y-106842916D01*
X183796702Y-106887579D01*
X183643827Y-106928541D01*
X183638163Y-106929778D01*
X183475630Y-106957394D01*
X183323238Y-106981530D01*
X183317012Y-106982196D01*
X183133209Y-106992518D01*
X183092005Y-106994677D01*
X183088649Y-106994762D01*
X130523777Y-106900222D01*
X130456773Y-106880417D01*
X130411113Y-106827531D01*
X130400000Y-106776222D01*
X130400000Y-99212800D01*
X130419685Y-99145761D01*
X130472489Y-99100006D01*
X130541647Y-99090062D01*
X130605203Y-99119087D01*
X130638561Y-99165348D01*
X130639904Y-99168590D01*
X130639905Y-99168593D01*
X130698585Y-99256415D01*
X130704699Y-99260500D01*
X130710600Y-99264443D01*
X130729390Y-99279864D01*
X130905133Y-99455606D01*
X130920553Y-99474395D01*
X130924423Y-99480186D01*
X130928585Y-99486415D01*
X130949665Y-99500500D01*
X131011765Y-99541994D01*
X131016404Y-99545093D01*
X131016405Y-99545094D01*
X131016407Y-99545095D01*
X131120000Y-99565702D01*
X131120000Y-99565701D01*
X131129694Y-99567630D01*
X131191604Y-99600016D01*
X131226178Y-99660732D01*
X131228172Y-99677848D01*
X131228904Y-99677776D01*
X131229500Y-99683836D01*
X131232830Y-99700578D01*
X131237651Y-99724821D01*
X131268705Y-99771295D01*
X131315179Y-99802349D01*
X131356159Y-99810500D01*
X132233840Y-99810499D01*
X132274821Y-99802349D01*
X132321295Y-99771295D01*
X132352349Y-99724821D01*
X132360500Y-99683841D01*
X132360499Y-98906160D01*
X132352349Y-98865179D01*
X132321295Y-98818705D01*
X132274821Y-98787651D01*
X132233841Y-98779500D01*
X132233839Y-98779500D01*
X131356163Y-98779500D01*
X131356160Y-98779501D01*
X131303684Y-98789936D01*
X131234092Y-98783704D01*
X131178918Y-98740837D01*
X131155677Y-98674946D01*
X131155500Y-98668317D01*
X131155500Y-97371335D01*
X131175185Y-97304296D01*
X131191814Y-97283659D01*
X132603642Y-95871830D01*
X132664963Y-95838347D01*
X132734655Y-95843331D01*
X132765320Y-95863039D01*
X132765929Y-95862129D01*
X132776084Y-95868914D01*
X132776085Y-95868915D01*
X132788098Y-95876941D01*
X132806888Y-95892362D01*
X132843181Y-95928655D01*
X132876666Y-95989978D01*
X132879500Y-96016336D01*
X132879500Y-97605500D01*
X132859815Y-97672539D01*
X132807011Y-97718294D01*
X132755502Y-97729500D01*
X132706163Y-97729500D01*
X132665179Y-97737651D01*
X132649268Y-97748283D01*
X132618705Y-97768705D01*
X132617734Y-97770158D01*
X132587651Y-97815178D01*
X132587651Y-97815179D01*
X132579633Y-97855493D01*
X132579500Y-97856160D01*
X132579500Y-98633836D01*
X132579501Y-98633839D01*
X132579501Y-98633840D01*
X132587651Y-98674821D01*
X132618705Y-98721295D01*
X132665179Y-98752349D01*
X132706159Y-98760500D01*
X133583840Y-98760499D01*
X133624821Y-98752349D01*
X133671295Y-98721295D01*
X133702349Y-98674821D01*
X133710500Y-98633841D01*
X133710499Y-97856160D01*
X133702349Y-97815179D01*
X133671295Y-97768705D01*
X133624821Y-97737651D01*
X133583841Y-97729500D01*
X133583840Y-97729500D01*
X133534500Y-97729500D01*
X133467461Y-97709815D01*
X133421706Y-97657011D01*
X133410500Y-97605500D01*
X133410500Y-95893363D01*
X133412883Y-95869169D01*
X133412934Y-95868915D01*
X133415702Y-95855000D01*
X133397478Y-95763387D01*
X133396876Y-95757279D01*
X133395095Y-95751409D01*
X133395095Y-95751408D01*
X133395095Y-95751407D01*
X133336415Y-95663585D01*
X133336413Y-95663584D01*
X133336413Y-95663583D01*
X133324398Y-95655555D01*
X133305609Y-95640135D01*
X133269319Y-95603845D01*
X133235834Y-95542522D01*
X133233000Y-95516164D01*
X133233000Y-95470000D01*
X133674456Y-95470000D01*
X133694528Y-95609606D01*
X133694530Y-95609614D01*
X133753119Y-95737907D01*
X133753121Y-95737909D01*
X133753122Y-95737911D01*
X133845488Y-95844507D01*
X133845490Y-95844508D01*
X133845489Y-95844508D01*
X133964145Y-95920764D01*
X134099474Y-95960499D01*
X134099476Y-95960500D01*
X134099477Y-95960500D01*
X134240524Y-95960500D01*
X134240524Y-95960499D01*
X134375853Y-95920764D01*
X134375854Y-95920764D01*
X134380294Y-95917911D01*
X134494512Y-95844507D01*
X134586878Y-95737911D01*
X134645471Y-95609611D01*
X134665544Y-95470000D01*
X134645471Y-95330389D01*
X134593365Y-95216293D01*
X134586880Y-95202092D01*
X134586878Y-95202090D01*
X134586878Y-95202089D01*
X134494512Y-95095493D01*
X134494509Y-95095491D01*
X134494510Y-95095491D01*
X134375855Y-95019236D01*
X134346525Y-95010624D01*
X134287747Y-94972849D01*
X134258723Y-94909293D01*
X134258209Y-94886182D01*
X134258000Y-94886182D01*
X134258000Y-94515167D01*
X134257999Y-94130748D01*
X134277683Y-94063710D01*
X134330487Y-94017955D01*
X134381995Y-94006749D01*
X134648753Y-94006749D01*
X134648763Y-94006750D01*
X134663196Y-94006750D01*
X135365809Y-94006750D01*
X135432848Y-94026435D01*
X135453490Y-94043069D01*
X136701520Y-95291099D01*
X136707163Y-95297583D01*
X136714160Y-95306849D01*
X136736708Y-95327403D01*
X136748288Y-95337960D01*
X136750350Y-95339929D01*
X136763620Y-95353199D01*
X136765641Y-95354583D01*
X136772363Y-95359907D01*
X136794422Y-95380016D01*
X136799781Y-95382092D01*
X136800220Y-95382262D01*
X136825501Y-95395587D01*
X136830629Y-95399100D01*
X136859668Y-95405929D01*
X136867864Y-95408467D01*
X136882816Y-95414260D01*
X136938216Y-95456832D01*
X136960724Y-95512007D01*
X136962705Y-95525599D01*
X137003776Y-95609611D01*
X137018112Y-95638936D01*
X137107313Y-95728137D01*
X137107314Y-95728137D01*
X137107316Y-95728139D01*
X137220651Y-95783545D01*
X137294125Y-95794250D01*
X137840874Y-95794249D01*
X137914349Y-95783545D01*
X138027684Y-95728139D01*
X138116889Y-95638934D01*
X138172295Y-95525599D01*
X138172327Y-95525375D01*
X138172439Y-95525130D01*
X138175138Y-95516399D01*
X138176284Y-95516753D01*
X138201468Y-95461875D01*
X138260316Y-95424209D01*
X138295032Y-95419250D01*
X138739968Y-95419250D01*
X138807007Y-95438935D01*
X138852762Y-95491739D01*
X138862672Y-95525372D01*
X138862705Y-95525599D01*
X138903776Y-95609611D01*
X138918112Y-95638936D01*
X139007313Y-95728137D01*
X139007314Y-95728137D01*
X139007316Y-95728139D01*
X139120651Y-95783545D01*
X139194125Y-95794250D01*
X139740874Y-95794249D01*
X139814349Y-95783545D01*
X139927684Y-95728139D01*
X140016889Y-95638934D01*
X140072295Y-95525599D01*
X140083000Y-95452125D01*
X140082999Y-94780376D01*
X140072295Y-94706901D01*
X140016889Y-94593566D01*
X140016887Y-94593564D01*
X140016887Y-94593563D01*
X139927686Y-94504362D01*
X139910458Y-94495940D01*
X139814349Y-94448955D01*
X139740875Y-94438250D01*
X139740869Y-94438250D01*
X139194126Y-94438250D01*
X139120650Y-94448955D01*
X139007313Y-94504362D01*
X138918112Y-94593563D01*
X138862704Y-94706902D01*
X138859029Y-94732128D01*
X138829885Y-94795629D01*
X138771036Y-94833293D01*
X138736325Y-94838250D01*
X138295032Y-94838250D01*
X138227993Y-94818565D01*
X138182238Y-94765761D01*
X138172327Y-94732124D01*
X138172295Y-94731901D01*
X138116889Y-94618566D01*
X138116887Y-94618564D01*
X138116887Y-94618563D01*
X138027686Y-94529362D01*
X137914349Y-94473955D01*
X137840875Y-94463250D01*
X137840869Y-94463250D01*
X137294126Y-94463250D01*
X137220650Y-94473955D01*
X137107315Y-94529361D01*
X137022058Y-94614618D01*
X136960734Y-94648102D01*
X136891043Y-94643118D01*
X136846696Y-94614617D01*
X135785976Y-93553897D01*
X135780332Y-93547411D01*
X135773338Y-93538150D01*
X135758244Y-93524390D01*
X135739211Y-93507039D01*
X135737148Y-93505069D01*
X135723880Y-93491801D01*
X135721860Y-93490417D01*
X135715124Y-93485081D01*
X135693078Y-93464984D01*
X135693076Y-93464983D01*
X135687274Y-93462735D01*
X135662001Y-93449413D01*
X135656873Y-93445901D01*
X135656872Y-93445900D01*
X135656871Y-93445899D01*
X135656870Y-93445899D01*
X135627830Y-93439068D01*
X135619624Y-93436527D01*
X135603722Y-93430367D01*
X135591805Y-93425750D01*
X135591804Y-93425750D01*
X135585590Y-93425750D01*
X135557199Y-93422456D01*
X135551149Y-93421033D01*
X135521598Y-93425155D01*
X135513025Y-93425750D01*
X134303663Y-93425750D01*
X134262679Y-93433901D01*
X134247214Y-93444235D01*
X134216205Y-93464955D01*
X134216186Y-93464984D01*
X134185151Y-93511428D01*
X134177000Y-93552411D01*
X134177000Y-93801750D01*
X134157315Y-93868789D01*
X134104511Y-93914544D01*
X134053000Y-93925750D01*
X133803663Y-93925750D01*
X133762679Y-93933901D01*
X133729450Y-93956105D01*
X133716205Y-93964955D01*
X133712600Y-93970350D01*
X133685151Y-94011428D01*
X133677000Y-94052410D01*
X133677000Y-94880086D01*
X133685150Y-94921069D01*
X133685150Y-94921070D01*
X133685151Y-94921071D01*
X133706102Y-94952425D01*
X133726980Y-95019099D01*
X133727000Y-95021315D01*
X133727000Y-95232313D01*
X133715794Y-95283825D01*
X133694529Y-95330386D01*
X133694528Y-95330389D01*
X133674456Y-95470000D01*
X133233000Y-95470000D01*
X133233000Y-94983903D01*
X133247814Y-94933451D01*
X133245174Y-94932358D01*
X133249848Y-94921072D01*
X133249847Y-94921072D01*
X133249849Y-94921071D01*
X133258000Y-94880091D01*
X133257999Y-94052410D01*
X133249849Y-94011429D01*
X133218795Y-93964955D01*
X133172321Y-93933901D01*
X133131341Y-93925750D01*
X133131338Y-93925750D01*
X132803663Y-93925750D01*
X132803655Y-93925751D01*
X132750699Y-93936283D01*
X132750350Y-93934529D01*
X132695474Y-93940426D01*
X132675222Y-93934478D01*
X132672321Y-93933901D01*
X132631341Y-93925750D01*
X132631338Y-93925750D01*
X132303663Y-93925750D01*
X132262679Y-93933901D01*
X132229450Y-93956105D01*
X132216205Y-93964955D01*
X132212600Y-93970350D01*
X132185151Y-94011428D01*
X132177000Y-94052410D01*
X132177000Y-94880086D01*
X132185151Y-94921070D01*
X132189825Y-94932354D01*
X132186909Y-94933561D01*
X132201980Y-94981679D01*
X132202000Y-94983902D01*
X132202000Y-95471163D01*
X132182315Y-95538202D01*
X132165681Y-95558844D01*
X132101950Y-95622575D01*
X132040627Y-95656060D01*
X131970935Y-95651076D01*
X131915002Y-95609204D01*
X131891531Y-95552540D01*
X131889860Y-95540916D01*
X131885471Y-95510389D01*
X131858860Y-95452119D01*
X131826880Y-95382092D01*
X131826875Y-95382084D01*
X131738287Y-95279848D01*
X131709262Y-95216293D01*
X131708000Y-95198646D01*
X131708000Y-95021315D01*
X131727685Y-94954276D01*
X131728856Y-94952487D01*
X131749849Y-94921071D01*
X131758000Y-94880091D01*
X131757999Y-94052410D01*
X131749849Y-94011429D01*
X131718795Y-93964955D01*
X131672321Y-93933901D01*
X131631341Y-93925750D01*
X131631339Y-93925750D01*
X131381999Y-93925750D01*
X131314960Y-93906065D01*
X131269205Y-93853261D01*
X131257999Y-93801753D01*
X131257999Y-93552410D01*
X131249849Y-93511429D01*
X131249848Y-93511428D01*
X131247466Y-93499447D01*
X131249220Y-93499098D01*
X131243322Y-93444235D01*
X131249271Y-93423973D01*
X131249847Y-93421072D01*
X131249849Y-93421071D01*
X131258000Y-93380091D01*
X131257999Y-93052410D01*
X131249849Y-93011429D01*
X131249848Y-93011428D01*
X131247466Y-92999447D01*
X131249220Y-92999098D01*
X131243322Y-92944235D01*
X131249271Y-92923973D01*
X131249847Y-92921072D01*
X131249849Y-92921071D01*
X131258000Y-92880091D01*
X131257999Y-92552410D01*
X131249849Y-92511429D01*
X131249848Y-92511428D01*
X131247466Y-92499447D01*
X131249220Y-92499098D01*
X131243322Y-92444235D01*
X131249271Y-92423973D01*
X131249847Y-92421072D01*
X131249849Y-92421071D01*
X131258000Y-92380091D01*
X131257999Y-92052410D01*
X131249849Y-92011429D01*
X131218795Y-91964955D01*
X131172321Y-91933901D01*
X131131341Y-91925750D01*
X131131340Y-91925750D01*
X130524000Y-91925750D01*
X130456961Y-91906065D01*
X130411206Y-91853261D01*
X130400000Y-91801750D01*
X130400000Y-91630749D01*
X130419685Y-91563710D01*
X130472489Y-91517955D01*
X130523996Y-91506749D01*
X131131340Y-91506749D01*
X131172321Y-91498599D01*
X131218795Y-91467545D01*
X131249849Y-91421071D01*
X131258000Y-91380091D01*
X131257999Y-91130748D01*
X131277683Y-91063710D01*
X131330487Y-91017955D01*
X131381995Y-91006749D01*
X131631340Y-91006749D01*
X131672321Y-90998599D01*
X131672321Y-90998598D01*
X131684303Y-90996216D01*
X131684652Y-90997971D01*
X131739510Y-90992071D01*
X131759779Y-90998021D01*
X131762676Y-90998597D01*
X131762679Y-90998599D01*
X131803659Y-91006750D01*
X132131340Y-91006749D01*
X132172321Y-90998599D01*
X132172321Y-90998598D01*
X132184303Y-90996216D01*
X132184652Y-90997971D01*
X132239510Y-90992071D01*
X132259779Y-90998021D01*
X132262676Y-90998597D01*
X132262679Y-90998599D01*
X132303659Y-91006750D01*
X132631340Y-91006749D01*
X132672321Y-90998599D01*
X132672321Y-90998598D01*
X132684303Y-90996216D01*
X132684652Y-90997971D01*
X132739510Y-90992071D01*
X132759779Y-90998021D01*
X132762676Y-90998597D01*
X132762679Y-90998599D01*
X132803659Y-91006750D01*
X133131340Y-91006749D01*
X133172321Y-90998599D01*
X133172321Y-90998598D01*
X133184303Y-90996216D01*
X133184652Y-90997971D01*
X133239510Y-90992071D01*
X133259779Y-90998021D01*
X133262676Y-90998597D01*
X133262679Y-90998599D01*
X133303659Y-91006750D01*
X133631340Y-91006749D01*
X133672321Y-90998599D01*
X133672321Y-90998598D01*
X133684303Y-90996216D01*
X133684652Y-90997971D01*
X133739510Y-90992071D01*
X133759779Y-90998021D01*
X133762676Y-90998597D01*
X133762679Y-90998599D01*
X133803659Y-91006750D01*
X134053000Y-91006749D01*
X134120039Y-91026433D01*
X134165794Y-91079237D01*
X134177000Y-91130749D01*
X134177000Y-91380086D01*
X134177001Y-91380094D01*
X134187533Y-91433051D01*
X134185779Y-91433399D01*
X134191677Y-91488270D01*
X134185728Y-91508527D01*
X134177000Y-91552411D01*
X134177000Y-91880086D01*
X134177001Y-91880094D01*
X134187533Y-91933051D01*
X134185779Y-91933399D01*
X134191677Y-91988270D01*
X134185728Y-92008527D01*
X134183064Y-92021922D01*
X134177682Y-92048983D01*
X134177000Y-92052411D01*
X134177000Y-92380086D01*
X134177001Y-92380094D01*
X134187533Y-92433051D01*
X134185779Y-92433399D01*
X134191677Y-92488270D01*
X134185728Y-92508527D01*
X134185151Y-92511429D01*
X134177362Y-92550593D01*
X134177000Y-92552411D01*
X134177000Y-92880086D01*
X134177944Y-92884833D01*
X134185151Y-92921071D01*
X134216205Y-92967545D01*
X134262679Y-92998599D01*
X134303659Y-93006750D01*
X134648753Y-93006749D01*
X134648763Y-93006750D01*
X134663196Y-93006750D01*
X136015809Y-93006750D01*
X136082848Y-93026435D01*
X136103490Y-93043069D01*
X136601520Y-93541099D01*
X136607163Y-93547583D01*
X136614160Y-93556849D01*
X136636708Y-93577403D01*
X136648288Y-93587960D01*
X136650350Y-93589929D01*
X136663620Y-93603199D01*
X136665641Y-93604583D01*
X136672363Y-93609907D01*
X136694422Y-93630016D01*
X136700217Y-93632261D01*
X136725498Y-93645586D01*
X136730629Y-93649101D01*
X136759680Y-93655933D01*
X136767868Y-93658469D01*
X136795696Y-93669250D01*
X136801911Y-93669250D01*
X136830301Y-93672543D01*
X136836352Y-93673967D01*
X136836356Y-93673966D01*
X136846426Y-93674432D01*
X136912486Y-93697190D01*
X136955755Y-93752050D01*
X136959643Y-93766465D01*
X136959862Y-93766398D01*
X136962703Y-93775595D01*
X137018112Y-93888936D01*
X137107313Y-93978137D01*
X137107314Y-93978137D01*
X137107316Y-93978139D01*
X137220651Y-94033545D01*
X137294125Y-94044250D01*
X137840874Y-94044249D01*
X137914349Y-94033545D01*
X138027684Y-93978139D01*
X138116889Y-93888934D01*
X138172295Y-93775599D01*
X138183000Y-93702125D01*
X138183000Y-93405739D01*
X146342000Y-93405739D01*
X146356481Y-93497170D01*
X146356481Y-93497171D01*
X146356482Y-93497174D01*
X146356483Y-93497175D01*
X146412449Y-93607015D01*
X146412642Y-93607392D01*
X146412645Y-93607396D01*
X146500103Y-93694854D01*
X146500105Y-93694855D01*
X146500109Y-93694859D01*
X146610323Y-93751016D01*
X146610327Y-93751018D01*
X146674898Y-93761245D01*
X146738033Y-93791174D01*
X146774964Y-93850486D01*
X146779500Y-93883718D01*
X146779500Y-94709100D01*
X146778905Y-94717673D01*
X146777302Y-94729167D01*
X146779434Y-94775286D01*
X146779500Y-94778149D01*
X146779500Y-94796921D01*
X146779950Y-94799327D01*
X146780939Y-94807858D01*
X146782318Y-94837664D01*
X146784830Y-94843354D01*
X146793280Y-94870641D01*
X146794422Y-94876753D01*
X146794425Y-94876758D01*
X146810128Y-94902121D01*
X146814136Y-94909724D01*
X146819146Y-94921069D01*
X146824661Y-94933561D01*
X146826188Y-94937018D01*
X146830580Y-94941410D01*
X146848325Y-94963812D01*
X146851596Y-94969095D01*
X146851597Y-94969096D01*
X146851599Y-94969099D01*
X146875408Y-94987078D01*
X146881885Y-94992714D01*
X147071870Y-95182699D01*
X147253181Y-95364010D01*
X147286666Y-95425333D01*
X147289500Y-95451691D01*
X147289500Y-97473836D01*
X147289501Y-97473839D01*
X147289501Y-97473840D01*
X147297651Y-97514821D01*
X147328705Y-97561295D01*
X147375179Y-97592349D01*
X147416159Y-97600500D01*
X147494880Y-97600499D01*
X147561917Y-97620183D01*
X147607673Y-97672986D01*
X147618879Y-97724499D01*
X147618879Y-100795500D01*
X147599194Y-100862539D01*
X147546390Y-100908294D01*
X147494880Y-100919500D01*
X147416163Y-100919500D01*
X147375179Y-100927651D01*
X147328705Y-100958705D01*
X147327840Y-100960000D01*
X147297651Y-101005178D01*
X147289500Y-101046160D01*
X147289500Y-104273836D01*
X147291142Y-104282092D01*
X147297651Y-104314821D01*
X147328705Y-104361295D01*
X147375179Y-104392349D01*
X147416159Y-104400500D01*
X148443840Y-104400499D01*
X148484821Y-104392349D01*
X148531295Y-104361295D01*
X148562349Y-104314821D01*
X148570500Y-104273841D01*
X148570500Y-102864500D01*
X148590185Y-102797461D01*
X148642989Y-102751706D01*
X148694500Y-102740500D01*
X153339109Y-102740500D01*
X153347685Y-102741095D01*
X153359164Y-102742696D01*
X153359170Y-102742698D01*
X153398552Y-102740877D01*
X153405287Y-102740566D01*
X153408150Y-102740500D01*
X153426913Y-102740500D01*
X153426918Y-102740500D01*
X153429325Y-102740049D01*
X153437856Y-102739059D01*
X153467662Y-102737682D01*
X153473343Y-102735173D01*
X153500651Y-102726716D01*
X153506758Y-102725575D01*
X153532121Y-102709870D01*
X153539713Y-102705867D01*
X153567016Y-102693813D01*
X153571405Y-102689423D01*
X153593820Y-102671669D01*
X153599099Y-102668401D01*
X153617083Y-102644584D01*
X153622706Y-102638121D01*
X153924448Y-102336381D01*
X155512367Y-100748460D01*
X155518842Y-100742828D01*
X155528090Y-100735843D01*
X155528098Y-100735840D01*
X155559219Y-100701700D01*
X155561170Y-100699657D01*
X155574448Y-100686381D01*
X155575831Y-100684360D01*
X155581149Y-100677644D01*
X155601266Y-100655578D01*
X155603511Y-100649782D01*
X155616839Y-100624495D01*
X155620350Y-100619372D01*
X155620350Y-100619368D01*
X155620353Y-100619365D01*
X155624991Y-100608862D01*
X155626212Y-100609401D01*
X155654711Y-100559219D01*
X155716585Y-100526763D01*
X155786183Y-100532910D01*
X155828597Y-100560671D01*
X155887313Y-100619387D01*
X155887314Y-100619387D01*
X155887316Y-100619389D01*
X156000651Y-100674795D01*
X156020878Y-100677742D01*
X156084378Y-100706885D01*
X156122042Y-100765733D01*
X156127000Y-100800446D01*
X156127000Y-101100646D01*
X156107315Y-101167685D01*
X156054511Y-101213440D01*
X156020880Y-101223350D01*
X156008153Y-101225204D01*
X155894813Y-101280612D01*
X155805612Y-101369813D01*
X155756325Y-101470633D01*
X155750205Y-101483151D01*
X155739500Y-101556625D01*
X155739500Y-101556629D01*
X155739500Y-101556630D01*
X155739500Y-102103373D01*
X155750205Y-102176849D01*
X155805612Y-102290186D01*
X155894813Y-102379387D01*
X155894814Y-102379387D01*
X155894816Y-102379389D01*
X156008151Y-102434795D01*
X156081625Y-102445500D01*
X156606163Y-102445499D01*
X156673202Y-102465183D01*
X156693844Y-102481818D01*
X157198762Y-102986736D01*
X157232247Y-103048059D01*
X157229496Y-103103024D01*
X157230509Y-103103185D01*
X157229017Y-103112599D01*
X157229011Y-103112737D01*
X157228982Y-103112826D01*
X157214500Y-103204264D01*
X157214500Y-103940739D01*
X157228981Y-104032170D01*
X157228981Y-104032171D01*
X157228982Y-104032174D01*
X157228983Y-104032175D01*
X157284090Y-104140329D01*
X157285142Y-104142392D01*
X157285145Y-104142396D01*
X157372603Y-104229854D01*
X157372605Y-104229855D01*
X157372609Y-104229859D01*
X157482825Y-104286017D01*
X157482826Y-104286017D01*
X157482828Y-104286018D01*
X157517947Y-104291579D01*
X157574265Y-104300500D01*
X158585734Y-104300499D01*
X158585739Y-104300499D01*
X158585739Y-104300498D01*
X158648869Y-104290500D01*
X158677170Y-104286018D01*
X158677171Y-104286018D01*
X158677172Y-104286017D01*
X158677175Y-104286017D01*
X158787391Y-104229859D01*
X158874859Y-104142391D01*
X158931017Y-104032175D01*
X158931017Y-104032173D01*
X158931018Y-104032172D01*
X158931018Y-104032171D01*
X158946262Y-103935924D01*
X158947705Y-103936152D01*
X158970277Y-103876964D01*
X159026516Y-103835504D01*
X159068997Y-103828000D01*
X159411004Y-103828000D01*
X159478043Y-103847685D01*
X159523798Y-103900489D01*
X159533005Y-103936038D01*
X159533738Y-103935922D01*
X159548981Y-104032170D01*
X159548981Y-104032171D01*
X159548982Y-104032174D01*
X159548983Y-104032175D01*
X159604090Y-104140329D01*
X159605142Y-104142392D01*
X159605145Y-104142396D01*
X159692603Y-104229854D01*
X159692605Y-104229855D01*
X159692609Y-104229859D01*
X159802825Y-104286017D01*
X159802826Y-104286017D01*
X159802828Y-104286018D01*
X159837947Y-104291579D01*
X159894265Y-104300500D01*
X160905734Y-104300499D01*
X160905739Y-104300499D01*
X160905739Y-104300498D01*
X160968869Y-104290500D01*
X160997170Y-104286018D01*
X160997171Y-104286018D01*
X160997172Y-104286017D01*
X160997175Y-104286017D01*
X161107391Y-104229859D01*
X161194859Y-104142391D01*
X161251017Y-104032175D01*
X161251017Y-104032173D01*
X161251018Y-104032172D01*
X161251018Y-104032171D01*
X161266262Y-103935924D01*
X161267705Y-103936152D01*
X161290277Y-103876964D01*
X161346516Y-103835504D01*
X161388997Y-103828000D01*
X161701004Y-103828000D01*
X161768043Y-103847685D01*
X161813798Y-103900489D01*
X161823005Y-103936038D01*
X161823738Y-103935922D01*
X161838981Y-104032170D01*
X161838981Y-104032171D01*
X161838982Y-104032174D01*
X161838983Y-104032175D01*
X161894090Y-104140329D01*
X161895142Y-104142392D01*
X161895145Y-104142396D01*
X161982603Y-104229854D01*
X161982605Y-104229855D01*
X161982609Y-104229859D01*
X162092825Y-104286017D01*
X162092826Y-104286017D01*
X162092828Y-104286018D01*
X162127947Y-104291579D01*
X162184265Y-104300500D01*
X163195734Y-104300499D01*
X163195739Y-104300499D01*
X163195739Y-104300498D01*
X163258869Y-104290500D01*
X163287170Y-104286018D01*
X163287171Y-104286018D01*
X163287172Y-104286017D01*
X163287175Y-104286017D01*
X163397391Y-104229859D01*
X163484859Y-104142391D01*
X163541017Y-104032175D01*
X163541017Y-104032173D01*
X163541018Y-104032172D01*
X163541018Y-104032171D01*
X163556262Y-103935924D01*
X163557705Y-103936152D01*
X163580277Y-103876964D01*
X163636516Y-103835504D01*
X163678997Y-103828000D01*
X164042323Y-103828000D01*
X164109362Y-103847685D01*
X164155117Y-103900489D01*
X164164796Y-103932603D01*
X164178981Y-104022170D01*
X164178981Y-104022171D01*
X164178982Y-104022174D01*
X164178983Y-104022175D01*
X164218248Y-104099237D01*
X164235142Y-104132392D01*
X164235145Y-104132396D01*
X164322603Y-104219854D01*
X164322605Y-104219855D01*
X164322609Y-104219859D01*
X164432825Y-104276017D01*
X164432826Y-104276017D01*
X164432828Y-104276018D01*
X164467947Y-104281579D01*
X164524265Y-104290500D01*
X165535734Y-104290499D01*
X165535739Y-104290499D01*
X165535739Y-104290498D01*
X165588836Y-104282089D01*
X165627170Y-104276018D01*
X165627171Y-104276018D01*
X165627172Y-104276017D01*
X165627175Y-104276017D01*
X165737391Y-104219859D01*
X165824859Y-104132391D01*
X165881017Y-104022175D01*
X165881017Y-104022173D01*
X165881018Y-104022172D01*
X165881018Y-104022171D01*
X165895204Y-103932603D01*
X165925133Y-103869468D01*
X165984444Y-103832536D01*
X166017677Y-103828000D01*
X166281004Y-103828000D01*
X166348043Y-103847685D01*
X166393798Y-103900489D01*
X166403005Y-103936038D01*
X166403738Y-103935922D01*
X166418981Y-104032170D01*
X166418981Y-104032171D01*
X166418982Y-104032174D01*
X166418983Y-104032175D01*
X166474090Y-104140329D01*
X166475142Y-104142392D01*
X166475145Y-104142396D01*
X166562603Y-104229854D01*
X166562605Y-104229855D01*
X166562609Y-104229859D01*
X166672825Y-104286017D01*
X166672826Y-104286017D01*
X166672828Y-104286018D01*
X166707947Y-104291579D01*
X166764265Y-104300500D01*
X167775734Y-104300499D01*
X167775739Y-104300499D01*
X167775739Y-104300498D01*
X167838869Y-104290500D01*
X167867170Y-104286018D01*
X167867171Y-104286018D01*
X167867172Y-104286017D01*
X167867175Y-104286017D01*
X167977391Y-104229859D01*
X168064859Y-104142391D01*
X168121017Y-104032175D01*
X168121017Y-104032173D01*
X168121018Y-104032172D01*
X168121018Y-104032171D01*
X168136262Y-103935924D01*
X168137705Y-103936152D01*
X168160277Y-103876964D01*
X168216516Y-103835504D01*
X168258997Y-103828000D01*
X168551004Y-103828000D01*
X168618043Y-103847685D01*
X168663798Y-103900489D01*
X168673005Y-103936038D01*
X168673738Y-103935922D01*
X168688981Y-104032170D01*
X168688981Y-104032171D01*
X168688982Y-104032174D01*
X168688983Y-104032175D01*
X168744090Y-104140329D01*
X168745142Y-104142392D01*
X168745145Y-104142396D01*
X168832603Y-104229854D01*
X168832605Y-104229855D01*
X168832609Y-104229859D01*
X168942825Y-104286017D01*
X168942826Y-104286017D01*
X168942828Y-104286018D01*
X168977947Y-104291579D01*
X169034265Y-104300500D01*
X170045734Y-104300499D01*
X170045739Y-104300499D01*
X170045739Y-104300498D01*
X170108869Y-104290500D01*
X170137170Y-104286018D01*
X170137171Y-104286018D01*
X170137172Y-104286017D01*
X170137175Y-104286017D01*
X170247391Y-104229859D01*
X170334859Y-104142391D01*
X170391017Y-104032175D01*
X170391017Y-104032173D01*
X170391018Y-104032172D01*
X170391018Y-104032171D01*
X170406262Y-103935924D01*
X170407705Y-103936152D01*
X170430277Y-103876964D01*
X170486516Y-103835504D01*
X170528997Y-103828000D01*
X170840501Y-103828000D01*
X170907540Y-103847685D01*
X170953295Y-103900489D01*
X170963186Y-103945956D01*
X170964119Y-103945883D01*
X170964501Y-103950739D01*
X170978981Y-104042170D01*
X170978981Y-104042171D01*
X170978982Y-104042174D01*
X170978983Y-104042175D01*
X171030048Y-104142396D01*
X171035142Y-104152392D01*
X171035145Y-104152396D01*
X171122603Y-104239854D01*
X171122605Y-104239855D01*
X171122609Y-104239859D01*
X171232825Y-104296017D01*
X171232826Y-104296017D01*
X171232828Y-104296018D01*
X171267947Y-104301579D01*
X171324265Y-104310500D01*
X172125784Y-104310499D01*
X172192823Y-104330183D01*
X172216646Y-104353581D01*
X172217449Y-104352779D01*
X172226082Y-104361412D01*
X172226083Y-104361413D01*
X172226085Y-104361415D01*
X172299381Y-104410389D01*
X172313907Y-104420095D01*
X172313910Y-104420095D01*
X172313911Y-104420096D01*
X172417498Y-104440701D01*
X172417500Y-104440701D01*
X172417501Y-104440701D01*
X172431667Y-104437883D01*
X172455859Y-104435500D01*
X173806147Y-104435500D01*
X173819308Y-104432881D01*
X173843501Y-104430499D01*
X174093836Y-104430499D01*
X174093840Y-104430499D01*
X174134821Y-104422349D01*
X174181295Y-104391295D01*
X174181297Y-104391291D01*
X174189930Y-104382660D01*
X174192806Y-104385536D01*
X174229024Y-104355245D01*
X174298345Y-104346510D01*
X174347492Y-104370000D01*
X174681000Y-104370000D01*
X174748039Y-104389685D01*
X174793794Y-104442489D01*
X174805000Y-104494000D01*
X174805000Y-104870000D01*
X175055000Y-104870000D01*
X175055000Y-104494000D01*
X175074685Y-104426961D01*
X175127489Y-104381206D01*
X175179000Y-104370000D01*
X175181000Y-104370000D01*
X175248039Y-104389685D01*
X175293794Y-104442489D01*
X175305000Y-104494000D01*
X175305000Y-104870000D01*
X175555000Y-104870000D01*
X175555000Y-104494000D01*
X175574685Y-104426961D01*
X175627489Y-104381206D01*
X175679000Y-104370000D01*
X176014344Y-104370000D01*
X176055079Y-104347755D01*
X176124771Y-104352738D01*
X176167789Y-104384940D01*
X176170070Y-104382660D01*
X176178702Y-104391292D01*
X176178703Y-104391293D01*
X176178705Y-104391295D01*
X176225179Y-104422349D01*
X176266159Y-104430500D01*
X176425075Y-104430499D01*
X176469870Y-104438873D01*
X176525695Y-104460500D01*
X176525696Y-104460500D01*
X177004141Y-104460500D01*
X177071180Y-104480185D01*
X177116935Y-104532989D01*
X177126879Y-104566853D01*
X177144528Y-104689606D01*
X177144530Y-104689614D01*
X177203119Y-104817907D01*
X177203121Y-104817909D01*
X177203122Y-104817911D01*
X177295488Y-104924507D01*
X177295490Y-104924508D01*
X177295489Y-104924508D01*
X177414145Y-105000764D01*
X177549474Y-105040499D01*
X177549476Y-105040500D01*
X177549477Y-105040500D01*
X177690524Y-105040500D01*
X177690524Y-105040499D01*
X177825853Y-105000764D01*
X177825854Y-105000764D01*
X177940795Y-104926896D01*
X177944512Y-104924507D01*
X178036878Y-104817911D01*
X178095471Y-104689611D01*
X178115544Y-104550000D01*
X178095471Y-104410389D01*
X178073104Y-104361412D01*
X178036880Y-104282092D01*
X178036878Y-104282090D01*
X178036878Y-104282089D01*
X177944512Y-104175493D01*
X177944510Y-104175491D01*
X177938704Y-104168791D01*
X177940561Y-104167181D01*
X177909877Y-104119439D01*
X177909875Y-104049569D01*
X177947647Y-103990790D01*
X178011202Y-103961763D01*
X178028853Y-103960500D01*
X180108309Y-103960500D01*
X180175348Y-103980185D01*
X180195990Y-103996819D01*
X180303181Y-104104010D01*
X180336666Y-104165333D01*
X180339500Y-104191691D01*
X180339500Y-105233836D01*
X180339501Y-105233839D01*
X180339501Y-105233840D01*
X180347651Y-105274821D01*
X180378705Y-105321295D01*
X180425179Y-105352349D01*
X180466159Y-105360500D01*
X181693840Y-105360499D01*
X181734821Y-105352349D01*
X181781295Y-105321295D01*
X181812349Y-105274821D01*
X181820500Y-105233841D01*
X181820499Y-103706160D01*
X181812349Y-103665179D01*
X181781295Y-103618705D01*
X181734821Y-103587651D01*
X181693841Y-103579500D01*
X181693840Y-103579500D01*
X180651691Y-103579500D01*
X180584652Y-103559815D01*
X180564010Y-103543181D01*
X180528476Y-103507647D01*
X180522832Y-103501161D01*
X180515838Y-103491900D01*
X180481721Y-103460799D01*
X180479648Y-103458819D01*
X180466380Y-103445551D01*
X180464360Y-103444167D01*
X180457624Y-103438831D01*
X180435578Y-103418734D01*
X180435576Y-103418733D01*
X180429774Y-103416485D01*
X180404501Y-103403163D01*
X180399373Y-103399651D01*
X180399372Y-103399650D01*
X180399371Y-103399649D01*
X180399370Y-103399649D01*
X180370330Y-103392818D01*
X180362124Y-103390277D01*
X180343948Y-103383236D01*
X180334305Y-103379500D01*
X180334304Y-103379500D01*
X180328090Y-103379500D01*
X180299699Y-103376206D01*
X180293649Y-103374783D01*
X180264098Y-103378905D01*
X180255525Y-103379500D01*
X176553077Y-103379500D01*
X176473242Y-103394424D01*
X176462529Y-103398575D01*
X176461486Y-103395883D01*
X176413615Y-103409500D01*
X176266163Y-103409500D01*
X176225179Y-103417651D01*
X176197891Y-103435885D01*
X176131214Y-103456763D01*
X176063834Y-103438279D01*
X176017143Y-103386300D01*
X176005000Y-103332783D01*
X176005000Y-103007216D01*
X176024685Y-102940177D01*
X176077489Y-102894422D01*
X176146647Y-102884478D01*
X176197888Y-102904113D01*
X176225179Y-102922349D01*
X176266159Y-102930500D01*
X176425075Y-102930499D01*
X176469870Y-102938873D01*
X176525695Y-102960500D01*
X176525696Y-102960500D01*
X180119109Y-102960500D01*
X180127685Y-102961095D01*
X180139164Y-102962696D01*
X180139170Y-102962698D01*
X180178552Y-102960877D01*
X180185287Y-102960566D01*
X180188150Y-102960500D01*
X180206913Y-102960500D01*
X180206918Y-102960500D01*
X180209325Y-102960049D01*
X180217856Y-102959059D01*
X180247662Y-102957682D01*
X180253343Y-102955173D01*
X180280651Y-102946716D01*
X180286758Y-102945575D01*
X180312121Y-102929870D01*
X180319713Y-102925867D01*
X180347016Y-102913813D01*
X180351405Y-102909423D01*
X180373820Y-102891669D01*
X180379099Y-102888401D01*
X180397083Y-102864584D01*
X180402706Y-102858121D01*
X180564012Y-102696815D01*
X180625333Y-102663333D01*
X180651691Y-102660499D01*
X181693836Y-102660499D01*
X181693840Y-102660499D01*
X181734821Y-102652349D01*
X181781295Y-102621295D01*
X181812349Y-102574821D01*
X181820500Y-102533841D01*
X181820499Y-101006160D01*
X181812349Y-100965179D01*
X181781295Y-100918705D01*
X181734821Y-100887651D01*
X181693841Y-100879500D01*
X181693839Y-100879500D01*
X180466163Y-100879500D01*
X180425179Y-100887651D01*
X180394286Y-100908294D01*
X180378705Y-100918705D01*
X180378174Y-100919500D01*
X180347651Y-100965178D01*
X180339500Y-101006160D01*
X180339500Y-102048308D01*
X180319815Y-102115347D01*
X180303181Y-102135989D01*
X180095990Y-102343181D01*
X180034667Y-102376666D01*
X180008309Y-102379500D01*
X177144500Y-102379500D01*
X177077461Y-102359815D01*
X177031706Y-102307011D01*
X177020500Y-102255501D01*
X177020499Y-102036163D01*
X177020499Y-102036161D01*
X177020499Y-102036160D01*
X177012349Y-101995179D01*
X176988505Y-101959495D01*
X176974510Y-101938550D01*
X176975593Y-101937826D01*
X176948334Y-101887905D01*
X176945500Y-101861547D01*
X176945500Y-99633257D01*
X176965185Y-99566218D01*
X176998377Y-99531682D01*
X177003310Y-99528226D01*
X177003316Y-99528224D01*
X177088224Y-99443316D01*
X177138972Y-99334487D01*
X177145500Y-99284901D01*
X177145499Y-98655100D01*
X177138972Y-98605513D01*
X177088224Y-98496684D01*
X177003316Y-98411776D01*
X176998372Y-98408314D01*
X176954749Y-98353735D01*
X176945500Y-98306742D01*
X176945500Y-97755071D01*
X176945736Y-97749664D01*
X176946626Y-97739500D01*
X176949437Y-97707366D01*
X176949436Y-97707365D01*
X176949437Y-97707364D01*
X176938446Y-97666349D01*
X176937280Y-97661093D01*
X176929902Y-97619246D01*
X176929900Y-97619242D01*
X176928757Y-97616102D01*
X176919777Y-97594421D01*
X176918358Y-97591380D01*
X176918358Y-97591378D01*
X176902151Y-97568232D01*
X176894000Y-97556591D01*
X176891093Y-97552027D01*
X176880387Y-97533484D01*
X176869862Y-97515254D01*
X176869859Y-97515251D01*
X176869858Y-97515250D01*
X176837370Y-97487990D01*
X176837321Y-97487948D01*
X176833349Y-97484309D01*
X175991818Y-96642778D01*
X175958333Y-96581455D01*
X175955499Y-96555097D01*
X175955499Y-95854260D01*
X175941018Y-95762829D01*
X175941018Y-95762828D01*
X175941017Y-95762826D01*
X175941017Y-95762825D01*
X175884859Y-95652609D01*
X175884857Y-95652607D01*
X175884854Y-95652603D01*
X175797396Y-95565145D01*
X175797393Y-95565143D01*
X175797391Y-95565141D01*
X175713755Y-95522526D01*
X175687172Y-95508981D01*
X175645101Y-95502318D01*
X175581966Y-95472388D01*
X175545036Y-95413076D01*
X175540500Y-95379845D01*
X175540500Y-94858195D01*
X175560185Y-94791156D01*
X175595608Y-94755095D01*
X175601295Y-94751295D01*
X175601299Y-94751288D01*
X175609933Y-94742657D01*
X175612946Y-94745670D01*
X175648690Y-94715802D01*
X175698174Y-94705500D01*
X182279790Y-94705500D01*
X182279792Y-94705500D01*
X182354182Y-94692382D01*
X182375714Y-94690499D01*
X182588836Y-94690499D01*
X182588840Y-94690499D01*
X182629821Y-94682349D01*
X182676295Y-94651295D01*
X182707349Y-94604821D01*
X182715500Y-94563841D01*
X182715499Y-94136160D01*
X182707349Y-94095179D01*
X182706487Y-94093889D01*
X182705473Y-94090652D01*
X182702676Y-94083898D01*
X182703280Y-94083647D01*
X182685610Y-94027214D01*
X182704094Y-93959833D01*
X182706491Y-93956105D01*
X182707349Y-93954821D01*
X182715500Y-93913841D01*
X182715499Y-93486160D01*
X182707349Y-93445179D01*
X182706487Y-93443889D01*
X182705473Y-93440652D01*
X182702676Y-93433898D01*
X182703280Y-93433647D01*
X182685610Y-93377214D01*
X182704094Y-93309833D01*
X182706491Y-93306105D01*
X182707349Y-93304821D01*
X182715500Y-93263841D01*
X182715499Y-92836160D01*
X182707349Y-92795179D01*
X182706487Y-92793889D01*
X182705473Y-92790652D01*
X182702676Y-92783898D01*
X182703280Y-92783647D01*
X182685610Y-92727214D01*
X182704094Y-92659833D01*
X182706491Y-92656105D01*
X182707349Y-92654821D01*
X182715500Y-92613841D01*
X182715499Y-92186160D01*
X182707349Y-92145179D01*
X182676295Y-92098705D01*
X182629821Y-92067651D01*
X182588841Y-92059500D01*
X182588839Y-92059500D01*
X181211163Y-92059500D01*
X181170179Y-92067651D01*
X181123864Y-92098599D01*
X181123705Y-92098705D01*
X181113401Y-92114124D01*
X181092651Y-92145178D01*
X181084500Y-92186160D01*
X181084500Y-92613836D01*
X181088971Y-92636315D01*
X181082740Y-92705906D01*
X181039874Y-92761081D01*
X180973983Y-92784323D01*
X180967352Y-92784500D01*
X174211335Y-92784500D01*
X174144296Y-92764815D01*
X174123654Y-92748181D01*
X173776818Y-92401344D01*
X173743333Y-92340021D01*
X173740499Y-92313663D01*
X173740499Y-91936163D01*
X173740499Y-91936160D01*
X173732349Y-91895179D01*
X173701295Y-91848705D01*
X173654821Y-91817651D01*
X173613841Y-91809500D01*
X173613839Y-91809500D01*
X172986163Y-91809500D01*
X172945179Y-91817651D01*
X172898705Y-91848705D01*
X172895661Y-91853261D01*
X172867651Y-91895178D01*
X172867651Y-91895179D01*
X172860434Y-91931466D01*
X172859500Y-91936160D01*
X172859500Y-92313663D01*
X172839815Y-92380702D01*
X172823181Y-92401344D01*
X171326345Y-93898181D01*
X171265022Y-93931666D01*
X171238664Y-93934500D01*
X167513694Y-93934500D01*
X167446655Y-93914815D01*
X167400900Y-93862011D01*
X167390953Y-93802318D01*
X167390500Y-93802318D01*
X167390500Y-93799598D01*
X167390291Y-93798344D01*
X167390500Y-93796222D01*
X167390500Y-93603773D01*
X167390499Y-93603769D01*
X167377998Y-93540918D01*
X167377997Y-93540917D01*
X167377997Y-93540916D01*
X167330367Y-93469633D01*
X167259084Y-93422003D01*
X167259083Y-93422002D01*
X167259082Y-93422002D01*
X167259081Y-93422001D01*
X167196230Y-93409500D01*
X167196226Y-93409500D01*
X165828774Y-93409500D01*
X165828769Y-93409500D01*
X165765918Y-93422001D01*
X165765917Y-93422002D01*
X165694633Y-93469633D01*
X165647002Y-93540917D01*
X165647001Y-93540918D01*
X165634500Y-93603769D01*
X165634500Y-93796230D01*
X165647001Y-93859081D01*
X165647002Y-93859082D01*
X165647002Y-93859083D01*
X165647003Y-93859084D01*
X165661720Y-93881109D01*
X165682598Y-93947787D01*
X165664113Y-94015167D01*
X165661727Y-94018879D01*
X165657972Y-94024500D01*
X165647002Y-94040917D01*
X165647001Y-94040918D01*
X165634500Y-94103769D01*
X165634500Y-94296230D01*
X165647001Y-94359081D01*
X165647002Y-94359082D01*
X165647002Y-94359083D01*
X165647003Y-94359084D01*
X165661720Y-94381109D01*
X165682598Y-94447787D01*
X165664113Y-94515167D01*
X165661720Y-94518891D01*
X165647002Y-94540917D01*
X165647001Y-94540918D01*
X165634500Y-94603769D01*
X165634500Y-94796230D01*
X165647001Y-94859081D01*
X165647002Y-94859082D01*
X165647002Y-94859083D01*
X165647003Y-94859084D01*
X165661720Y-94881109D01*
X165682598Y-94947787D01*
X165664113Y-95015167D01*
X165661720Y-95018891D01*
X165647002Y-95040917D01*
X165647001Y-95040918D01*
X165634500Y-95103769D01*
X165634500Y-95296230D01*
X165647001Y-95359081D01*
X165647002Y-95359082D01*
X165647002Y-95359083D01*
X165647003Y-95359084D01*
X165661720Y-95381109D01*
X165682598Y-95447787D01*
X165664113Y-95515167D01*
X165661720Y-95518891D01*
X165647002Y-95540917D01*
X165647001Y-95540918D01*
X165634500Y-95603769D01*
X165634500Y-95796230D01*
X165647001Y-95859078D01*
X165647002Y-95859082D01*
X165647002Y-95859083D01*
X165647003Y-95859084D01*
X165661390Y-95880615D01*
X165661720Y-95881109D01*
X165682598Y-95947787D01*
X165664113Y-96015167D01*
X165661720Y-96018891D01*
X165647002Y-96040917D01*
X165647001Y-96040918D01*
X165634500Y-96103769D01*
X165634500Y-96296230D01*
X165647001Y-96359081D01*
X165647002Y-96359082D01*
X165647002Y-96359083D01*
X165647003Y-96359084D01*
X165661720Y-96381109D01*
X165682598Y-96447787D01*
X165664113Y-96515167D01*
X165661720Y-96518891D01*
X165647002Y-96540917D01*
X165647001Y-96540918D01*
X165634500Y-96603769D01*
X165634500Y-96796230D01*
X165647001Y-96859081D01*
X165647002Y-96859082D01*
X165647002Y-96859083D01*
X165647003Y-96859084D01*
X165651450Y-96865739D01*
X165661720Y-96881109D01*
X165682598Y-96947787D01*
X165664113Y-97015167D01*
X165661720Y-97018891D01*
X165647002Y-97040917D01*
X165647001Y-97040918D01*
X165634500Y-97103769D01*
X165634500Y-97296230D01*
X165647001Y-97359081D01*
X165647002Y-97359082D01*
X165661720Y-97381109D01*
X165682598Y-97447787D01*
X165664113Y-97515167D01*
X165661720Y-97518891D01*
X165647002Y-97540917D01*
X165647001Y-97540918D01*
X165634500Y-97603769D01*
X165634500Y-97796230D01*
X165647001Y-97859081D01*
X165647002Y-97859082D01*
X165647002Y-97859083D01*
X165647003Y-97859084D01*
X165654531Y-97870350D01*
X165661720Y-97881109D01*
X165682598Y-97947787D01*
X165664113Y-98015167D01*
X165661720Y-98018891D01*
X165647002Y-98040917D01*
X165647001Y-98040918D01*
X165634500Y-98103769D01*
X165634500Y-98296230D01*
X165647001Y-98359081D01*
X165647002Y-98359082D01*
X165647002Y-98359083D01*
X165647003Y-98359084D01*
X165694633Y-98430367D01*
X165765916Y-98477997D01*
X165765917Y-98477997D01*
X165765918Y-98477998D01*
X165828769Y-98490499D01*
X165828773Y-98490500D01*
X165828774Y-98490500D01*
X167196227Y-98490500D01*
X167196228Y-98490499D01*
X167217368Y-98486294D01*
X167259081Y-98477998D01*
X167259081Y-98477997D01*
X167259084Y-98477997D01*
X167283928Y-98461396D01*
X167350604Y-98440520D01*
X167352817Y-98440500D01*
X167529020Y-98440500D01*
X167596059Y-98460185D01*
X167616701Y-98476819D01*
X167970103Y-98830221D01*
X168003588Y-98891544D01*
X168005160Y-98935548D01*
X167994456Y-99009999D01*
X168014528Y-99149606D01*
X168014530Y-99149614D01*
X168073119Y-99277907D01*
X168073121Y-99277909D01*
X168073122Y-99277911D01*
X168165488Y-99384507D01*
X168165490Y-99384508D01*
X168165489Y-99384508D01*
X168284145Y-99460764D01*
X168419474Y-99500499D01*
X168419476Y-99500500D01*
X168419477Y-99500500D01*
X168560524Y-99500500D01*
X168560524Y-99500499D01*
X168684001Y-99464244D01*
X168695853Y-99460764D01*
X168695854Y-99460764D01*
X168705600Y-99454501D01*
X168814512Y-99384507D01*
X168906878Y-99277911D01*
X168909931Y-99271227D01*
X168956802Y-99168593D01*
X168965471Y-99149611D01*
X168985544Y-99010000D01*
X168965471Y-98870389D01*
X168965469Y-98870385D01*
X168965052Y-98868963D01*
X168965051Y-98867473D01*
X168964209Y-98861611D01*
X168965051Y-98861489D01*
X168965050Y-98799093D01*
X169002822Y-98740314D01*
X169049094Y-98715047D01*
X169165854Y-98680764D01*
X169175102Y-98674821D01*
X169284512Y-98604507D01*
X169376878Y-98497911D01*
X169377439Y-98496684D01*
X169390945Y-98467108D01*
X169435471Y-98369611D01*
X169455544Y-98230000D01*
X169435471Y-98090389D01*
X169395591Y-98003064D01*
X169385647Y-97933906D01*
X169414672Y-97870350D01*
X169473450Y-97832576D01*
X169473451Y-97832576D01*
X169480521Y-97830500D01*
X169480523Y-97830500D01*
X169552021Y-97809506D01*
X169615854Y-97790764D01*
X169633791Y-97779237D01*
X169734512Y-97714507D01*
X169826878Y-97607911D01*
X169833986Y-97592348D01*
X169851327Y-97554375D01*
X169885471Y-97479611D01*
X169905544Y-97340000D01*
X169885471Y-97200389D01*
X169842370Y-97106011D01*
X169832426Y-97036853D01*
X169861451Y-96973297D01*
X169920229Y-96935523D01*
X169955164Y-96930500D01*
X170010524Y-96930500D01*
X170010524Y-96930499D01*
X170145853Y-96890764D01*
X170145854Y-96890764D01*
X170160878Y-96881109D01*
X170264512Y-96814507D01*
X170356878Y-96707911D01*
X170415471Y-96579611D01*
X170435544Y-96440000D01*
X170415471Y-96300389D01*
X170387188Y-96238458D01*
X170356880Y-96172092D01*
X170356878Y-96172090D01*
X170356878Y-96172089D01*
X170264512Y-96065493D01*
X170264509Y-96065491D01*
X170264510Y-96065491D01*
X170145854Y-95989235D01*
X170010525Y-95949500D01*
X170010523Y-95949500D01*
X169869477Y-95949500D01*
X169869474Y-95949500D01*
X169734146Y-95989235D01*
X169734145Y-95989235D01*
X169615489Y-96065491D01*
X169523122Y-96172089D01*
X169523119Y-96172092D01*
X169464530Y-96300385D01*
X169464529Y-96300388D01*
X169464529Y-96300389D01*
X169458290Y-96343786D01*
X169456944Y-96353146D01*
X169427920Y-96416702D01*
X169369142Y-96454477D01*
X169334206Y-96459500D01*
X167509117Y-96459500D01*
X167442078Y-96439815D01*
X167396323Y-96387011D01*
X167386379Y-96317853D01*
X167387500Y-96311307D01*
X167390500Y-96296226D01*
X167390500Y-96103773D01*
X167390499Y-96103769D01*
X167377998Y-96040918D01*
X167377997Y-96040917D01*
X167377997Y-96040916D01*
X167363279Y-96018890D01*
X167342402Y-95952213D01*
X167360887Y-95884833D01*
X167363280Y-95881109D01*
X167363610Y-95880615D01*
X167377997Y-95859084D01*
X167377997Y-95859080D01*
X167377999Y-95859078D01*
X167390499Y-95796230D01*
X167390500Y-95796227D01*
X167390500Y-95603773D01*
X167390499Y-95603769D01*
X167377998Y-95540918D01*
X167377997Y-95540917D01*
X167377997Y-95540916D01*
X167363279Y-95518890D01*
X167342402Y-95452213D01*
X167360887Y-95384833D01*
X167363280Y-95381109D01*
X167377997Y-95359084D01*
X167378895Y-95354573D01*
X167390499Y-95296230D01*
X167390500Y-95296227D01*
X167390500Y-95103777D01*
X167390291Y-95101656D01*
X167390500Y-95100553D01*
X167390500Y-95097682D01*
X167391045Y-95097682D01*
X167403309Y-95033010D01*
X167451373Y-94982299D01*
X167513694Y-94965500D01*
X172861636Y-94965500D01*
X172885828Y-94967883D01*
X172899999Y-94970702D01*
X172900000Y-94970702D01*
X173003593Y-94950095D01*
X173060131Y-94912318D01*
X173091415Y-94891415D01*
X173099444Y-94879397D01*
X173114856Y-94860616D01*
X173148658Y-94826814D01*
X173209980Y-94793332D01*
X173236336Y-94790499D01*
X173613836Y-94790499D01*
X173613840Y-94790499D01*
X173654821Y-94782349D01*
X173701295Y-94751295D01*
X173732349Y-94704821D01*
X173740500Y-94663841D01*
X173740499Y-94286334D01*
X173760183Y-94219296D01*
X173776813Y-94198659D01*
X173988654Y-93986819D01*
X174049977Y-93953334D01*
X174076335Y-93950500D01*
X174635500Y-93950500D01*
X174702539Y-93970185D01*
X174748294Y-94022989D01*
X174759500Y-94074500D01*
X174759500Y-94663836D01*
X174759501Y-94663839D01*
X174759501Y-94663840D01*
X174767651Y-94704821D01*
X174774989Y-94715802D01*
X174798703Y-94751293D01*
X174798704Y-94751293D01*
X174798705Y-94751295D01*
X174804390Y-94755094D01*
X174849194Y-94808702D01*
X174859500Y-94858195D01*
X174859500Y-95389104D01*
X174839815Y-95456143D01*
X174787011Y-95501898D01*
X174773826Y-95507032D01*
X174767833Y-95508979D01*
X174767825Y-95508982D01*
X174767825Y-95508983D01*
X174736135Y-95525130D01*
X174657607Y-95565142D01*
X174657603Y-95565145D01*
X174570145Y-95652603D01*
X174570143Y-95652607D01*
X174570141Y-95652609D01*
X174551421Y-95689347D01*
X174513981Y-95762827D01*
X174513981Y-95762828D01*
X174499500Y-95854264D01*
X174499500Y-96865739D01*
X174513981Y-96957170D01*
X174513981Y-96957171D01*
X174513982Y-96957174D01*
X174513983Y-96957175D01*
X174556652Y-97040918D01*
X174570142Y-97067392D01*
X174570145Y-97067396D01*
X174657603Y-97154854D01*
X174657605Y-97154855D01*
X174657609Y-97154859D01*
X174767825Y-97211017D01*
X174767826Y-97211017D01*
X174767828Y-97211018D01*
X174802947Y-97216579D01*
X174859265Y-97225500D01*
X175560097Y-97225499D01*
X175627136Y-97245183D01*
X175647778Y-97261818D01*
X176228181Y-97842221D01*
X176261666Y-97903544D01*
X176264500Y-97929902D01*
X176264500Y-98306742D01*
X176244815Y-98373781D01*
X176211628Y-98408314D01*
X176206683Y-98411776D01*
X176121776Y-98496683D01*
X176071027Y-98605514D01*
X176064500Y-98655098D01*
X176064500Y-99284894D01*
X176064501Y-99284900D01*
X176071028Y-99334487D01*
X176071029Y-99334489D01*
X176071029Y-99334490D01*
X176094353Y-99384507D01*
X176121776Y-99443316D01*
X176206684Y-99528224D01*
X176206686Y-99528225D01*
X176211623Y-99531682D01*
X176255248Y-99586259D01*
X176264500Y-99633257D01*
X176264500Y-101825099D01*
X176244815Y-101892138D01*
X176209392Y-101928200D01*
X176178704Y-101948705D01*
X176170070Y-101957340D01*
X176167199Y-101954469D01*
X176130883Y-101984794D01*
X176061554Y-101993473D01*
X176012545Y-101970000D01*
X175679000Y-101970000D01*
X175611961Y-101950315D01*
X175566206Y-101897511D01*
X175555000Y-101846000D01*
X175555000Y-101470000D01*
X175305000Y-101470000D01*
X175305000Y-101846000D01*
X175285315Y-101913039D01*
X175232511Y-101958794D01*
X175181000Y-101970000D01*
X175179000Y-101970000D01*
X175111961Y-101950315D01*
X175066206Y-101897511D01*
X175055000Y-101846000D01*
X175055000Y-101470000D01*
X174805000Y-101470000D01*
X174805000Y-101846000D01*
X174785315Y-101913039D01*
X174732511Y-101958794D01*
X174681000Y-101970000D01*
X174345655Y-101970000D01*
X174304915Y-101992245D01*
X174235223Y-101987259D01*
X174192210Y-101955059D01*
X174189930Y-101957340D01*
X174181293Y-101948703D01*
X174125607Y-101911493D01*
X174080803Y-101857880D01*
X174070500Y-101808393D01*
X174070500Y-100891691D01*
X174090185Y-100824652D01*
X174106819Y-100804010D01*
X174475507Y-100435322D01*
X174475519Y-100435308D01*
X175117371Y-99793457D01*
X175123846Y-99787825D01*
X175133090Y-99780843D01*
X175133098Y-99780840D01*
X175164210Y-99746710D01*
X175166161Y-99744667D01*
X175179449Y-99731381D01*
X175180836Y-99729354D01*
X175186159Y-99722633D01*
X175206266Y-99700578D01*
X175208511Y-99694780D01*
X175221835Y-99669501D01*
X175225350Y-99664372D01*
X175232187Y-99635302D01*
X175234720Y-99627127D01*
X175237333Y-99620384D01*
X175279922Y-99564997D01*
X175300537Y-99552834D01*
X175353316Y-99528224D01*
X175438224Y-99443316D01*
X175488972Y-99334487D01*
X175495500Y-99284901D01*
X175495499Y-98655100D01*
X175488972Y-98605513D01*
X175438224Y-98496684D01*
X175353316Y-98411776D01*
X175244487Y-98361028D01*
X175244485Y-98361027D01*
X175244486Y-98361027D01*
X175194901Y-98354500D01*
X174715105Y-98354500D01*
X174699386Y-98356569D01*
X174665513Y-98361028D01*
X174665511Y-98361029D01*
X174665509Y-98361029D01*
X174556683Y-98411776D01*
X174471776Y-98496683D01*
X174444811Y-98554511D01*
X174436013Y-98573379D01*
X174419913Y-98607905D01*
X174373741Y-98660344D01*
X174307531Y-98679500D01*
X172811175Y-98679500D01*
X172744136Y-98659815D01*
X172698381Y-98607011D01*
X172688471Y-98573379D01*
X172684795Y-98548153D01*
X172684795Y-98548151D01*
X172629389Y-98434816D01*
X172629387Y-98434814D01*
X172629387Y-98434813D01*
X172540186Y-98345612D01*
X172426849Y-98290205D01*
X172353375Y-98279500D01*
X172353369Y-98279500D01*
X171806626Y-98279500D01*
X171733150Y-98290205D01*
X171619813Y-98345612D01*
X171530612Y-98434813D01*
X171484077Y-98530004D01*
X171475205Y-98548151D01*
X171464500Y-98621625D01*
X171464500Y-98621629D01*
X171464500Y-98621630D01*
X171464500Y-99293373D01*
X171475205Y-99366849D01*
X171530612Y-99480186D01*
X171619813Y-99569387D01*
X171619814Y-99569387D01*
X171619816Y-99569389D01*
X171733151Y-99624795D01*
X171806625Y-99635500D01*
X172353374Y-99635499D01*
X172426849Y-99624795D01*
X172540184Y-99569389D01*
X172629389Y-99480184D01*
X172684795Y-99366849D01*
X172684827Y-99366625D01*
X172684939Y-99366380D01*
X172687638Y-99357649D01*
X172688784Y-99358003D01*
X172713968Y-99303125D01*
X172772816Y-99265459D01*
X172807532Y-99260500D01*
X174307530Y-99260500D01*
X174374569Y-99280185D01*
X174419912Y-99332095D01*
X174471776Y-99443317D01*
X174477998Y-99452202D01*
X174476796Y-99453043D01*
X174504619Y-99503997D01*
X174499635Y-99573689D01*
X174471134Y-99618036D01*
X174025484Y-100063687D01*
X173617648Y-100471522D01*
X173611168Y-100477161D01*
X173601904Y-100484157D01*
X173570799Y-100518277D01*
X173568824Y-100520345D01*
X173555547Y-100533623D01*
X173555547Y-100533624D01*
X173554158Y-100535651D01*
X173548830Y-100542376D01*
X173528735Y-100564419D01*
X173528734Y-100564422D01*
X173526485Y-100570226D01*
X173513164Y-100595498D01*
X173509649Y-100600629D01*
X173502818Y-100629666D01*
X173500277Y-100637873D01*
X173489500Y-100665692D01*
X173489500Y-100671910D01*
X173486206Y-100700301D01*
X173484783Y-100706348D01*
X173484783Y-100706351D01*
X173488896Y-100735838D01*
X173488905Y-100735898D01*
X173489500Y-100744474D01*
X173489500Y-101808394D01*
X173469815Y-101875433D01*
X173434392Y-101911495D01*
X173378708Y-101948703D01*
X173378705Y-101948705D01*
X173374459Y-101955059D01*
X173347651Y-101995178D01*
X173347651Y-101995179D01*
X173339633Y-102035493D01*
X173339500Y-102036161D01*
X173339500Y-102303836D01*
X173343632Y-102324614D01*
X173347651Y-102344821D01*
X173351853Y-102351109D01*
X173372730Y-102417787D01*
X173354245Y-102485167D01*
X173351855Y-102488886D01*
X173347651Y-102495176D01*
X173347651Y-102495177D01*
X173347651Y-102495179D01*
X173339962Y-102533839D01*
X173339500Y-102536161D01*
X173339500Y-102803836D01*
X173339501Y-102803840D01*
X173347651Y-102844821D01*
X173350514Y-102849105D01*
X173351853Y-102851109D01*
X173372730Y-102917787D01*
X173354245Y-102985167D01*
X173351855Y-102988886D01*
X173347651Y-102995176D01*
X173347651Y-102995177D01*
X173339500Y-103036161D01*
X173339500Y-103303836D01*
X173339501Y-103303840D01*
X173347651Y-103344821D01*
X173378705Y-103391295D01*
X173425179Y-103422349D01*
X173466159Y-103430500D01*
X173616738Y-103430499D01*
X173650672Y-103435233D01*
X173752729Y-103464271D01*
X173752730Y-103464271D01*
X173752731Y-103464270D01*
X173752732Y-103464271D01*
X173860876Y-103454250D01*
X173882467Y-103443499D01*
X173937739Y-103430499D01*
X174093836Y-103430499D01*
X174093840Y-103430499D01*
X174134821Y-103422349D01*
X174162108Y-103404115D01*
X174228784Y-103383236D01*
X174296164Y-103401719D01*
X174342856Y-103453697D01*
X174355000Y-103507216D01*
X174355000Y-103832783D01*
X174335315Y-103899822D01*
X174282511Y-103945577D01*
X174213353Y-103955521D01*
X174162108Y-103935884D01*
X174134821Y-103917651D01*
X174093841Y-103909500D01*
X174093840Y-103909500D01*
X173843499Y-103909500D01*
X173819310Y-103907118D01*
X173806147Y-103904500D01*
X172819500Y-103904500D01*
X172752461Y-103884815D01*
X172706706Y-103832011D01*
X172695500Y-103780500D01*
X172695499Y-103214260D01*
X172681018Y-103122829D01*
X172681018Y-103122828D01*
X172681017Y-103122826D01*
X172681017Y-103122825D01*
X172624859Y-103012609D01*
X172624857Y-103012607D01*
X172624854Y-103012603D01*
X172537396Y-102925145D01*
X172537393Y-102925143D01*
X172537391Y-102925141D01*
X172427175Y-102868983D01*
X172427174Y-102868982D01*
X172427171Y-102868981D01*
X172335735Y-102854500D01*
X171324260Y-102854500D01*
X171324260Y-102854501D01*
X171232829Y-102868981D01*
X171232828Y-102868981D01*
X171122607Y-102925142D01*
X171122603Y-102925145D01*
X171035145Y-103012603D01*
X171035143Y-103012607D01*
X171035141Y-103012609D01*
X171018233Y-103045792D01*
X170978981Y-103122827D01*
X170967963Y-103192398D01*
X170938034Y-103255533D01*
X170878722Y-103292464D01*
X170845490Y-103297000D01*
X170526093Y-103297000D01*
X170459054Y-103277315D01*
X170413299Y-103224511D01*
X170403620Y-103192397D01*
X170391018Y-103112829D01*
X170391018Y-103112828D01*
X170391017Y-103112826D01*
X170391017Y-103112825D01*
X170334859Y-103002609D01*
X170334857Y-103002607D01*
X170334854Y-103002603D01*
X170247396Y-102915145D01*
X170247393Y-102915143D01*
X170247391Y-102915141D01*
X170137175Y-102858983D01*
X170137174Y-102858982D01*
X170137171Y-102858981D01*
X170045735Y-102844500D01*
X169034260Y-102844500D01*
X169034260Y-102844501D01*
X168942829Y-102858981D01*
X168942828Y-102858981D01*
X168832607Y-102915142D01*
X168832603Y-102915145D01*
X168745145Y-103002603D01*
X168745143Y-103002607D01*
X168745141Y-103002609D01*
X168688983Y-103112825D01*
X168676379Y-103192400D01*
X168646452Y-103255532D01*
X168587140Y-103292464D01*
X168553907Y-103297000D01*
X168256093Y-103297000D01*
X168189054Y-103277315D01*
X168143299Y-103224511D01*
X168133620Y-103192397D01*
X168121018Y-103112829D01*
X168121018Y-103112828D01*
X168121017Y-103112826D01*
X168121017Y-103112825D01*
X168064859Y-103002609D01*
X168064857Y-103002607D01*
X168064854Y-103002603D01*
X167977396Y-102915145D01*
X167977393Y-102915143D01*
X167977391Y-102915141D01*
X167867175Y-102858983D01*
X167867174Y-102858982D01*
X167867171Y-102858981D01*
X167775735Y-102844500D01*
X166764260Y-102844500D01*
X166764260Y-102844501D01*
X166672829Y-102858981D01*
X166672828Y-102858981D01*
X166562607Y-102915142D01*
X166562603Y-102915145D01*
X166475145Y-103002603D01*
X166475143Y-103002607D01*
X166475141Y-103002609D01*
X166418983Y-103112825D01*
X166406379Y-103192400D01*
X166376452Y-103255532D01*
X166317140Y-103292464D01*
X166283907Y-103297000D01*
X166017677Y-103297000D01*
X165950638Y-103277315D01*
X165904883Y-103224511D01*
X165895204Y-103192397D01*
X165881018Y-103102829D01*
X165881018Y-103102828D01*
X165881017Y-103102826D01*
X165881017Y-103102825D01*
X165824859Y-102992609D01*
X165824857Y-102992607D01*
X165824854Y-102992603D01*
X165781819Y-102949568D01*
X165748334Y-102888245D01*
X165745500Y-102861887D01*
X165745500Y-100030863D01*
X165747883Y-100006669D01*
X165750702Y-99992500D01*
X165730095Y-99888907D01*
X165671415Y-99801085D01*
X165671413Y-99801084D01*
X165671413Y-99801083D01*
X165659395Y-99793053D01*
X165640606Y-99777633D01*
X165426819Y-99563845D01*
X165393334Y-99502522D01*
X165390500Y-99476164D01*
X165390500Y-98928773D01*
X165390499Y-98928769D01*
X165377998Y-98865918D01*
X165377997Y-98865917D01*
X165377997Y-98865916D01*
X165330367Y-98794633D01*
X165259084Y-98747003D01*
X165259083Y-98747002D01*
X165259082Y-98747002D01*
X165259081Y-98747001D01*
X165196230Y-98734500D01*
X165196226Y-98734500D01*
X165003774Y-98734500D01*
X165003769Y-98734500D01*
X164940918Y-98747001D01*
X164940917Y-98747002D01*
X164869633Y-98794633D01*
X164822002Y-98865917D01*
X164822001Y-98865918D01*
X164809500Y-98928769D01*
X164809500Y-100296230D01*
X164822001Y-100359081D01*
X164822002Y-100359082D01*
X164822002Y-100359083D01*
X164822003Y-100359084D01*
X164869633Y-100430367D01*
X164940916Y-100477997D01*
X164940917Y-100477997D01*
X164940918Y-100477998D01*
X165003769Y-100490499D01*
X165003773Y-100490500D01*
X165090500Y-100490500D01*
X165157539Y-100510185D01*
X165203294Y-100562989D01*
X165214500Y-100614500D01*
X165214500Y-102710500D01*
X165194815Y-102777539D01*
X165142011Y-102823294D01*
X165090500Y-102834500D01*
X164524266Y-102834500D01*
X164459104Y-102844821D01*
X164440989Y-102847689D01*
X164371696Y-102838734D01*
X164318245Y-102793737D01*
X164297606Y-102726986D01*
X164308799Y-102673704D01*
X164365471Y-102549611D01*
X164385544Y-102410000D01*
X164365471Y-102270389D01*
X164365469Y-102270385D01*
X164322206Y-102175652D01*
X164311000Y-102124140D01*
X164311000Y-100496967D01*
X164330685Y-100429928D01*
X164331898Y-100428077D01*
X164377996Y-100359085D01*
X164377997Y-100359084D01*
X164377997Y-100359082D01*
X164377998Y-100359081D01*
X164390499Y-100296230D01*
X164390500Y-100296227D01*
X164390500Y-98928773D01*
X164390499Y-98928769D01*
X164377998Y-98865918D01*
X164377997Y-98865917D01*
X164377997Y-98865916D01*
X164330367Y-98794633D01*
X164259084Y-98747003D01*
X164259083Y-98747002D01*
X164259082Y-98747002D01*
X164259081Y-98747001D01*
X164196230Y-98734500D01*
X164196226Y-98734500D01*
X164003774Y-98734500D01*
X164003769Y-98734500D01*
X163940918Y-98747001D01*
X163940917Y-98747002D01*
X163940916Y-98747003D01*
X163920717Y-98760500D01*
X163918891Y-98761720D01*
X163852213Y-98782598D01*
X163784833Y-98764113D01*
X163781109Y-98761720D01*
X163759084Y-98747003D01*
X163759083Y-98747002D01*
X163759082Y-98747002D01*
X163759081Y-98747001D01*
X163696230Y-98734500D01*
X163696226Y-98734500D01*
X163503774Y-98734500D01*
X163503769Y-98734500D01*
X163440918Y-98747001D01*
X163440917Y-98747002D01*
X163440916Y-98747003D01*
X163420717Y-98760500D01*
X163418891Y-98761720D01*
X163352213Y-98782598D01*
X163284833Y-98764113D01*
X163281109Y-98761720D01*
X163259084Y-98747003D01*
X163259083Y-98747002D01*
X163259082Y-98747002D01*
X163259081Y-98747001D01*
X163196230Y-98734500D01*
X163196226Y-98734500D01*
X163003774Y-98734500D01*
X163003769Y-98734500D01*
X162940918Y-98747001D01*
X162940917Y-98747002D01*
X162940916Y-98747003D01*
X162920717Y-98760500D01*
X162918891Y-98761720D01*
X162852213Y-98782598D01*
X162784833Y-98764113D01*
X162781109Y-98761720D01*
X162759084Y-98747003D01*
X162759083Y-98747002D01*
X162759082Y-98747002D01*
X162759081Y-98747001D01*
X162696230Y-98734500D01*
X162696226Y-98734500D01*
X162503774Y-98734500D01*
X162503769Y-98734500D01*
X162440918Y-98747001D01*
X162440917Y-98747002D01*
X162440916Y-98747003D01*
X162420717Y-98760500D01*
X162418891Y-98761720D01*
X162352213Y-98782598D01*
X162284833Y-98764113D01*
X162281109Y-98761720D01*
X162259084Y-98747003D01*
X162259083Y-98747002D01*
X162259082Y-98747002D01*
X162259081Y-98747001D01*
X162196230Y-98734500D01*
X162196226Y-98734500D01*
X162003774Y-98734500D01*
X162003769Y-98734500D01*
X161940918Y-98747001D01*
X161940917Y-98747002D01*
X161940916Y-98747003D01*
X161920717Y-98760500D01*
X161918891Y-98761720D01*
X161852213Y-98782598D01*
X161784833Y-98764113D01*
X161781109Y-98761720D01*
X161759084Y-98747003D01*
X161759083Y-98747002D01*
X161759082Y-98747002D01*
X161759081Y-98747001D01*
X161696230Y-98734500D01*
X161696226Y-98734500D01*
X161503774Y-98734500D01*
X161503769Y-98734500D01*
X161440918Y-98747001D01*
X161440917Y-98747002D01*
X161440916Y-98747003D01*
X161420717Y-98760500D01*
X161418891Y-98761720D01*
X161352213Y-98782598D01*
X161284833Y-98764113D01*
X161281109Y-98761720D01*
X161259084Y-98747003D01*
X161259083Y-98747002D01*
X161259082Y-98747002D01*
X161259081Y-98747001D01*
X161196230Y-98734500D01*
X161196226Y-98734500D01*
X161003774Y-98734500D01*
X161003769Y-98734500D01*
X160940918Y-98747001D01*
X160940917Y-98747002D01*
X160940916Y-98747003D01*
X160920717Y-98760500D01*
X160918891Y-98761720D01*
X160852213Y-98782598D01*
X160784833Y-98764113D01*
X160781109Y-98761720D01*
X160759084Y-98747003D01*
X160759083Y-98747002D01*
X160759082Y-98747002D01*
X160759081Y-98747001D01*
X160696230Y-98734500D01*
X160696226Y-98734500D01*
X160503774Y-98734500D01*
X160503769Y-98734500D01*
X160440918Y-98747001D01*
X160440917Y-98747002D01*
X160440916Y-98747003D01*
X160420717Y-98760500D01*
X160418891Y-98761720D01*
X160352213Y-98782598D01*
X160284833Y-98764113D01*
X160281109Y-98761720D01*
X160259084Y-98747003D01*
X160259083Y-98747002D01*
X160259082Y-98747002D01*
X160259081Y-98747001D01*
X160196230Y-98734500D01*
X160196226Y-98734500D01*
X160003774Y-98734500D01*
X160003769Y-98734500D01*
X159940918Y-98747001D01*
X159940917Y-98747002D01*
X159940916Y-98747003D01*
X159920717Y-98760500D01*
X159918891Y-98761720D01*
X159852213Y-98782598D01*
X159784833Y-98764113D01*
X159781109Y-98761720D01*
X159759084Y-98747003D01*
X159759083Y-98747002D01*
X159759082Y-98747002D01*
X159759081Y-98747001D01*
X159696230Y-98734500D01*
X159696226Y-98734500D01*
X159503774Y-98734500D01*
X159503769Y-98734500D01*
X159440918Y-98747001D01*
X159440917Y-98747002D01*
X159369633Y-98794633D01*
X159322002Y-98865917D01*
X159322001Y-98865918D01*
X159309500Y-98928769D01*
X159309500Y-100296230D01*
X159322001Y-100359081D01*
X159322002Y-100359082D01*
X159322002Y-100359083D01*
X159322003Y-100359084D01*
X159369633Y-100430367D01*
X159440916Y-100477997D01*
X159440917Y-100477997D01*
X159440918Y-100477998D01*
X159503769Y-100490499D01*
X159503773Y-100490500D01*
X159503774Y-100490500D01*
X159696227Y-100490500D01*
X159696228Y-100490499D01*
X159728100Y-100484160D01*
X159759081Y-100477998D01*
X159759081Y-100477997D01*
X159759084Y-100477997D01*
X159781109Y-100463279D01*
X159847787Y-100442402D01*
X159915167Y-100460887D01*
X159918879Y-100463272D01*
X159940916Y-100477997D01*
X159940917Y-100477997D01*
X159940918Y-100477998D01*
X160003769Y-100490499D01*
X160003773Y-100490500D01*
X160003774Y-100490500D01*
X160196227Y-100490500D01*
X160196228Y-100490499D01*
X160228100Y-100484160D01*
X160259081Y-100477998D01*
X160259081Y-100477997D01*
X160259084Y-100477997D01*
X160281109Y-100463279D01*
X160347787Y-100442402D01*
X160415167Y-100460887D01*
X160418879Y-100463272D01*
X160440916Y-100477997D01*
X160440917Y-100477997D01*
X160440918Y-100477998D01*
X160503769Y-100490499D01*
X160503773Y-100490500D01*
X160526278Y-100490500D01*
X160593317Y-100510185D01*
X160639072Y-100562989D01*
X160649016Y-100632147D01*
X160625699Y-100683202D01*
X160627917Y-100684628D01*
X160623119Y-100692092D01*
X160564530Y-100820385D01*
X160564528Y-100820393D01*
X160544456Y-100960000D01*
X160564528Y-101099606D01*
X160564530Y-101099614D01*
X160623119Y-101227907D01*
X160623121Y-101227909D01*
X160623122Y-101227911D01*
X160715488Y-101334507D01*
X160715490Y-101334508D01*
X160715489Y-101334508D01*
X160834145Y-101410764D01*
X160969474Y-101450499D01*
X160969476Y-101450500D01*
X160969477Y-101450500D01*
X161110524Y-101450500D01*
X161118416Y-101449365D01*
X161187575Y-101459306D01*
X161240380Y-101505059D01*
X161260067Y-101572098D01*
X161258805Y-101589747D01*
X161254456Y-101619997D01*
X161254456Y-101619999D01*
X161274528Y-101759606D01*
X161274530Y-101759614D01*
X161333119Y-101887907D01*
X161333121Y-101887909D01*
X161333122Y-101887911D01*
X161425488Y-101994507D01*
X161425490Y-101994508D01*
X161425489Y-101994508D01*
X161544145Y-102070764D01*
X161642593Y-102099670D01*
X161669331Y-102107521D01*
X161679474Y-102110499D01*
X161679476Y-102110500D01*
X161679477Y-102110500D01*
X161820524Y-102110500D01*
X161820524Y-102110499D01*
X161890279Y-102090018D01*
X161964366Y-102068265D01*
X161964760Y-102069608D01*
X162024608Y-102060999D01*
X162088166Y-102090018D01*
X162125945Y-102148793D01*
X162129709Y-102166090D01*
X162134528Y-102199606D01*
X162134530Y-102199614D01*
X162193119Y-102327907D01*
X162193121Y-102327909D01*
X162193122Y-102327911D01*
X162285488Y-102434507D01*
X162285490Y-102434508D01*
X162285489Y-102434508D01*
X162404145Y-102510764D01*
X162490642Y-102536161D01*
X162536449Y-102549611D01*
X162539474Y-102550499D01*
X162539476Y-102550500D01*
X162539477Y-102550500D01*
X162680524Y-102550500D01*
X162680524Y-102550499D01*
X162815853Y-102510764D01*
X162815854Y-102510764D01*
X162840110Y-102495176D01*
X162934512Y-102434507D01*
X163026878Y-102327911D01*
X163085471Y-102199611D01*
X163105544Y-102060000D01*
X163094839Y-101985547D01*
X163104782Y-101916390D01*
X163129893Y-101880223D01*
X163618319Y-101391798D01*
X163679642Y-101358313D01*
X163749334Y-101363297D01*
X163805267Y-101405169D01*
X163829684Y-101470633D01*
X163830000Y-101479479D01*
X163830000Y-101823584D01*
X163810315Y-101890623D01*
X163757511Y-101936378D01*
X163740935Y-101942561D01*
X163684145Y-101959236D01*
X163565489Y-102035491D01*
X163473122Y-102142089D01*
X163473119Y-102142092D01*
X163414530Y-102270385D01*
X163414528Y-102270393D01*
X163394456Y-102410000D01*
X163414528Y-102549606D01*
X163414530Y-102549614D01*
X163473119Y-102677907D01*
X163473122Y-102677911D01*
X163485062Y-102691690D01*
X163514088Y-102755246D01*
X163504145Y-102824404D01*
X163458391Y-102877209D01*
X163391351Y-102896894D01*
X163335056Y-102883379D01*
X163287175Y-102858982D01*
X163287171Y-102858981D01*
X163195735Y-102844500D01*
X162184260Y-102844500D01*
X162184260Y-102844501D01*
X162092829Y-102858981D01*
X162092828Y-102858981D01*
X161982607Y-102915142D01*
X161982603Y-102915145D01*
X161895145Y-103002603D01*
X161895143Y-103002607D01*
X161895141Y-103002609D01*
X161838983Y-103112825D01*
X161826379Y-103192400D01*
X161796452Y-103255532D01*
X161737140Y-103292464D01*
X161703907Y-103297000D01*
X161386093Y-103297000D01*
X161319054Y-103277315D01*
X161273299Y-103224511D01*
X161263620Y-103192397D01*
X161251018Y-103112829D01*
X161251018Y-103112828D01*
X161251017Y-103112826D01*
X161251017Y-103112825D01*
X161194859Y-103002609D01*
X161194857Y-103002607D01*
X161194854Y-103002603D01*
X161107396Y-102915145D01*
X161107393Y-102915143D01*
X161107391Y-102915141D01*
X160997175Y-102858983D01*
X160997174Y-102858982D01*
X160997171Y-102858981D01*
X160905735Y-102844500D01*
X159894260Y-102844500D01*
X159894260Y-102844501D01*
X159802829Y-102858981D01*
X159802828Y-102858981D01*
X159692607Y-102915142D01*
X159692603Y-102915145D01*
X159605145Y-103002603D01*
X159605143Y-103002607D01*
X159605141Y-103002609D01*
X159548983Y-103112825D01*
X159536379Y-103192400D01*
X159506452Y-103255532D01*
X159447140Y-103292464D01*
X159413907Y-103297000D01*
X159066093Y-103297000D01*
X158999054Y-103277315D01*
X158953299Y-103224511D01*
X158943620Y-103192397D01*
X158931018Y-103112829D01*
X158931018Y-103112828D01*
X158931017Y-103112826D01*
X158931017Y-103112825D01*
X158874859Y-103002609D01*
X158874857Y-103002607D01*
X158874854Y-103002603D01*
X158787396Y-102915145D01*
X158787393Y-102915143D01*
X158787391Y-102915141D01*
X158677175Y-102858983D01*
X158677174Y-102858982D01*
X158677171Y-102858981D01*
X158585735Y-102844500D01*
X157858836Y-102844500D01*
X157791797Y-102824815D01*
X157771155Y-102808181D01*
X157131818Y-102168844D01*
X157098333Y-102107521D01*
X157095499Y-102081171D01*
X157095499Y-101556626D01*
X157084795Y-101483151D01*
X157029389Y-101369816D01*
X157029387Y-101369814D01*
X157029387Y-101369813D01*
X156940186Y-101280612D01*
X156826847Y-101225204D01*
X156814120Y-101223350D01*
X156750620Y-101194205D01*
X156712957Y-101135355D01*
X156708000Y-101100646D01*
X156708000Y-100798260D01*
X156727685Y-100731221D01*
X156780489Y-100685466D01*
X156814125Y-100675555D01*
X156819349Y-100674795D01*
X156932684Y-100619389D01*
X157021889Y-100530184D01*
X157077295Y-100416849D01*
X157088000Y-100343375D01*
X157087999Y-99796626D01*
X157077295Y-99723151D01*
X157044475Y-99656017D01*
X157032717Y-99587147D01*
X157060061Y-99522850D01*
X157117825Y-99483543D01*
X157139684Y-99478622D01*
X157231099Y-99466588D01*
X157362577Y-99412128D01*
X157362578Y-99412128D01*
X157362578Y-99412127D01*
X157362582Y-99412126D01*
X157475489Y-99325489D01*
X157562126Y-99212582D01*
X157616588Y-99081099D01*
X157635164Y-98940000D01*
X157633685Y-98928769D01*
X157616588Y-98798902D01*
X157616586Y-98798897D01*
X157612874Y-98789936D01*
X157595091Y-98747002D01*
X157559863Y-98661952D01*
X157552394Y-98592483D01*
X157583670Y-98530004D01*
X157643759Y-98494352D01*
X157674424Y-98490500D01*
X158871227Y-98490500D01*
X158871228Y-98490499D01*
X158892368Y-98486294D01*
X158934081Y-98477998D01*
X158934081Y-98477997D01*
X158934084Y-98477997D01*
X159005367Y-98430367D01*
X159052997Y-98359084D01*
X159065500Y-98296226D01*
X159065500Y-98103774D01*
X159062931Y-98090858D01*
X159052998Y-98040918D01*
X159052997Y-98040917D01*
X159052997Y-98040916D01*
X159038279Y-98018890D01*
X159017402Y-97952213D01*
X159035887Y-97884833D01*
X159038280Y-97881109D01*
X159052997Y-97859084D01*
X159053712Y-97855493D01*
X159061730Y-97815178D01*
X159065500Y-97796226D01*
X159065500Y-97603774D01*
X159063640Y-97594421D01*
X159052998Y-97540918D01*
X159052997Y-97540917D01*
X159052997Y-97540916D01*
X159038279Y-97518890D01*
X159017402Y-97452213D01*
X159035887Y-97384833D01*
X159038280Y-97381109D01*
X159052997Y-97359084D01*
X159065500Y-97296226D01*
X159065500Y-97103774D01*
X159058264Y-97067396D01*
X159052998Y-97040918D01*
X159052997Y-97040917D01*
X159052997Y-97040916D01*
X159038279Y-97018890D01*
X159017402Y-96952213D01*
X159035887Y-96884833D01*
X159038280Y-96881109D01*
X159052997Y-96859084D01*
X159065500Y-96796226D01*
X159065500Y-96603774D01*
X159061061Y-96581455D01*
X159052998Y-96540918D01*
X159052997Y-96540917D01*
X159052997Y-96540916D01*
X159005367Y-96469633D01*
X158934084Y-96422003D01*
X158934083Y-96422002D01*
X158934082Y-96422002D01*
X158934081Y-96422001D01*
X158871230Y-96409500D01*
X158871226Y-96409500D01*
X158241804Y-96409500D01*
X157494701Y-96409500D01*
X157486125Y-96408905D01*
X157474641Y-96407302D01*
X157474640Y-96407302D01*
X157474638Y-96407302D01*
X157440723Y-96408870D01*
X157372846Y-96392301D01*
X157324702Y-96341666D01*
X157311576Y-96273040D01*
X157337636Y-96208213D01*
X157347309Y-96197329D01*
X157517820Y-96026819D01*
X157579143Y-95993334D01*
X157605501Y-95990500D01*
X158871227Y-95990500D01*
X158871228Y-95990499D01*
X158892368Y-95986294D01*
X158934081Y-95977998D01*
X158934081Y-95977997D01*
X158934084Y-95977997D01*
X159005367Y-95930367D01*
X159052997Y-95859084D01*
X159052997Y-95859080D01*
X159052999Y-95859078D01*
X159065499Y-95796230D01*
X159065500Y-95796227D01*
X159065500Y-95603773D01*
X159065499Y-95603769D01*
X159052998Y-95540918D01*
X159052997Y-95540917D01*
X159052997Y-95540916D01*
X159038279Y-95518890D01*
X159017402Y-95452213D01*
X159035887Y-95384833D01*
X159038280Y-95381109D01*
X159052997Y-95359084D01*
X159053895Y-95354573D01*
X159065499Y-95296230D01*
X159065500Y-95296227D01*
X159065500Y-95103773D01*
X159065499Y-95103769D01*
X159052998Y-95040918D01*
X159052997Y-95040917D01*
X159052997Y-95040916D01*
X159038279Y-95018890D01*
X159017402Y-94952213D01*
X159035887Y-94884833D01*
X159038280Y-94881109D01*
X159052997Y-94859084D01*
X159053510Y-94856508D01*
X159065499Y-94796230D01*
X159065500Y-94796227D01*
X159065500Y-94603773D01*
X159065499Y-94603769D01*
X159052998Y-94540918D01*
X159052997Y-94540917D01*
X159052997Y-94540916D01*
X159038279Y-94518890D01*
X159017402Y-94452213D01*
X159035887Y-94384833D01*
X159038280Y-94381109D01*
X159052997Y-94359084D01*
X159065500Y-94296226D01*
X159065500Y-94103774D01*
X159062890Y-94090652D01*
X159052998Y-94040918D01*
X159052997Y-94040917D01*
X159052997Y-94040916D01*
X159038279Y-94018890D01*
X159017402Y-93952213D01*
X159035887Y-93884833D01*
X159038280Y-93881109D01*
X159052997Y-93859084D01*
X159054156Y-93853261D01*
X159065499Y-93796230D01*
X159065500Y-93796227D01*
X159065500Y-93603773D01*
X159065499Y-93603769D01*
X159052998Y-93540918D01*
X159052997Y-93540917D01*
X159052997Y-93540916D01*
X159038279Y-93518890D01*
X159017402Y-93452213D01*
X159035887Y-93384833D01*
X159038280Y-93381109D01*
X159052997Y-93359084D01*
X159054547Y-93351295D01*
X159065499Y-93296230D01*
X159065500Y-93296227D01*
X159065500Y-93103773D01*
X159065499Y-93103769D01*
X159052998Y-93040918D01*
X159052997Y-93040917D01*
X159052997Y-93040916D01*
X159038279Y-93018890D01*
X159017402Y-92952213D01*
X159035887Y-92884833D01*
X159038280Y-92881109D01*
X159052997Y-92859084D01*
X159055071Y-92848660D01*
X159065499Y-92796230D01*
X165634500Y-92796230D01*
X165647001Y-92859081D01*
X165647002Y-92859082D01*
X165647002Y-92859083D01*
X165647003Y-92859084D01*
X165694633Y-92930367D01*
X165765916Y-92977997D01*
X165765917Y-92977997D01*
X165765918Y-92977998D01*
X165828769Y-92990499D01*
X165828773Y-92990500D01*
X165828774Y-92990500D01*
X166454681Y-92990500D01*
X166474754Y-92993300D01*
X166485231Y-92994271D01*
X166485231Y-92994270D01*
X166485232Y-92994271D01*
X166495711Y-92993300D01*
X166523072Y-92990765D01*
X166528795Y-92990500D01*
X167196227Y-92990500D01*
X167196228Y-92990499D01*
X167217368Y-92986294D01*
X167259081Y-92977998D01*
X167259081Y-92977997D01*
X167259084Y-92977997D01*
X167330367Y-92930367D01*
X167377997Y-92859084D01*
X167380071Y-92848660D01*
X167390499Y-92796230D01*
X167390500Y-92796227D01*
X167390500Y-92603773D01*
X167390499Y-92603769D01*
X167377998Y-92540918D01*
X167377997Y-92540917D01*
X167377997Y-92540916D01*
X167330367Y-92469633D01*
X167259084Y-92422003D01*
X167259083Y-92422002D01*
X167259082Y-92422002D01*
X167259081Y-92422001D01*
X167196230Y-92409500D01*
X167196226Y-92409500D01*
X166990691Y-92409500D01*
X166923652Y-92389815D01*
X166877897Y-92337011D01*
X166867953Y-92267853D01*
X166896978Y-92204297D01*
X166903001Y-92197826D01*
X166984010Y-92116817D01*
X167045331Y-92083334D01*
X167071690Y-92080500D01*
X167170524Y-92080500D01*
X167170524Y-92080499D01*
X167305853Y-92040764D01*
X167305854Y-92040764D01*
X167315600Y-92034501D01*
X167424512Y-91964507D01*
X167516878Y-91857911D01*
X167575471Y-91729611D01*
X167595544Y-91590000D01*
X167575471Y-91450389D01*
X167552319Y-91399693D01*
X167516880Y-91322092D01*
X167516878Y-91322090D01*
X167516878Y-91322089D01*
X167424512Y-91215493D01*
X167424509Y-91215491D01*
X167424510Y-91215491D01*
X167305854Y-91139235D01*
X167170525Y-91099500D01*
X167170523Y-91099500D01*
X167029477Y-91099500D01*
X167029474Y-91099500D01*
X166894146Y-91139235D01*
X166894145Y-91139235D01*
X166775489Y-91215491D01*
X166683122Y-91322089D01*
X166683119Y-91322092D01*
X166624530Y-91450385D01*
X166624528Y-91450393D01*
X166604456Y-91590000D01*
X166604456Y-91590004D01*
X166606271Y-91602630D01*
X166596326Y-91671788D01*
X166571214Y-91707955D01*
X166350147Y-91929023D01*
X166343666Y-91934663D01*
X166334403Y-91941658D01*
X166303299Y-91975777D01*
X166301324Y-91977845D01*
X166288047Y-91991123D01*
X166288047Y-91991124D01*
X166286658Y-91993151D01*
X166281330Y-91999876D01*
X166261235Y-92021919D01*
X166261234Y-92021922D01*
X166258985Y-92027726D01*
X166245664Y-92052998D01*
X166242149Y-92058129D01*
X166235318Y-92087166D01*
X166232777Y-92095373D01*
X166222000Y-92123192D01*
X166222000Y-92129410D01*
X166218706Y-92157801D01*
X166217283Y-92163848D01*
X166217283Y-92163851D01*
X166221294Y-92192607D01*
X166221405Y-92193398D01*
X166222000Y-92201974D01*
X166222000Y-92285500D01*
X166202315Y-92352539D01*
X166149511Y-92398294D01*
X166098000Y-92409500D01*
X165828769Y-92409500D01*
X165765918Y-92422001D01*
X165765917Y-92422002D01*
X165694633Y-92469633D01*
X165647002Y-92540917D01*
X165647001Y-92540918D01*
X165634500Y-92603769D01*
X165634500Y-92796230D01*
X159065499Y-92796230D01*
X159065500Y-92796227D01*
X159065500Y-92603773D01*
X159065499Y-92603769D01*
X159052998Y-92540918D01*
X159052997Y-92540917D01*
X159052997Y-92540916D01*
X159005367Y-92469633D01*
X159005366Y-92469632D01*
X159004712Y-92468978D01*
X159003741Y-92467200D01*
X158998582Y-92459479D01*
X158999273Y-92459017D01*
X158971227Y-92407655D01*
X158976211Y-92337963D01*
X159004712Y-92293616D01*
X159193616Y-92104712D01*
X159254939Y-92071227D01*
X159324631Y-92076211D01*
X159359467Y-92098599D01*
X159359479Y-92098582D01*
X159360466Y-92099241D01*
X159368978Y-92104712D01*
X159369632Y-92105366D01*
X159369633Y-92105367D01*
X159440916Y-92152997D01*
X159440917Y-92152997D01*
X159440918Y-92152998D01*
X159503769Y-92165499D01*
X159503773Y-92165500D01*
X159503774Y-92165500D01*
X159696227Y-92165500D01*
X159696228Y-92165499D01*
X159717368Y-92161294D01*
X159759081Y-92152998D01*
X159759081Y-92152997D01*
X159759084Y-92152997D01*
X159830367Y-92105367D01*
X159877997Y-92034084D01*
X159879263Y-92027723D01*
X159890499Y-91971230D01*
X160309500Y-91971230D01*
X160322001Y-92034081D01*
X160322002Y-92034082D01*
X160322002Y-92034083D01*
X160322003Y-92034084D01*
X160369633Y-92105367D01*
X160440916Y-92152997D01*
X160440917Y-92152997D01*
X160440918Y-92152998D01*
X160503769Y-92165499D01*
X160503773Y-92165500D01*
X160503774Y-92165500D01*
X160696227Y-92165500D01*
X160696228Y-92165499D01*
X160717368Y-92161294D01*
X160759081Y-92152998D01*
X160759081Y-92152997D01*
X160759084Y-92152997D01*
X160781109Y-92138279D01*
X160847787Y-92117402D01*
X160915167Y-92135887D01*
X160918879Y-92138272D01*
X160940916Y-92152997D01*
X160940917Y-92152997D01*
X160940918Y-92152998D01*
X161003769Y-92165499D01*
X161003773Y-92165500D01*
X161003774Y-92165500D01*
X161196227Y-92165500D01*
X161196228Y-92165499D01*
X161217368Y-92161294D01*
X161259081Y-92152998D01*
X161259081Y-92152997D01*
X161259084Y-92152997D01*
X161281109Y-92138279D01*
X161347787Y-92117402D01*
X161415167Y-92135887D01*
X161418879Y-92138272D01*
X161440916Y-92152997D01*
X161440917Y-92152997D01*
X161440918Y-92152998D01*
X161503769Y-92165499D01*
X161503773Y-92165500D01*
X161503774Y-92165500D01*
X161696227Y-92165500D01*
X161696228Y-92165499D01*
X161717368Y-92161294D01*
X161759081Y-92152998D01*
X161759081Y-92152997D01*
X161759084Y-92152997D01*
X161781109Y-92138279D01*
X161847787Y-92117402D01*
X161915167Y-92135887D01*
X161918879Y-92138272D01*
X161940916Y-92152997D01*
X161940917Y-92152997D01*
X161940918Y-92152998D01*
X162003769Y-92165499D01*
X162003773Y-92165500D01*
X162003774Y-92165500D01*
X162196227Y-92165500D01*
X162196228Y-92165499D01*
X162217368Y-92161294D01*
X162259081Y-92152998D01*
X162259081Y-92152997D01*
X162259084Y-92152997D01*
X162281109Y-92138279D01*
X162347787Y-92117402D01*
X162415167Y-92135887D01*
X162418879Y-92138272D01*
X162440916Y-92152997D01*
X162440917Y-92152997D01*
X162440918Y-92152998D01*
X162503769Y-92165499D01*
X162503773Y-92165500D01*
X162503774Y-92165500D01*
X162696227Y-92165500D01*
X162696228Y-92165499D01*
X162717368Y-92161294D01*
X162759081Y-92152998D01*
X162759081Y-92152997D01*
X162759084Y-92152997D01*
X162781109Y-92138279D01*
X162847787Y-92117402D01*
X162915167Y-92135887D01*
X162918879Y-92138272D01*
X162940916Y-92152997D01*
X162940917Y-92152997D01*
X162940918Y-92152998D01*
X163003769Y-92165499D01*
X163003773Y-92165500D01*
X163003774Y-92165500D01*
X163196227Y-92165500D01*
X163196228Y-92165499D01*
X163217368Y-92161294D01*
X163259081Y-92152998D01*
X163259081Y-92152997D01*
X163259084Y-92152997D01*
X163281109Y-92138279D01*
X163347787Y-92117402D01*
X163415167Y-92135887D01*
X163418879Y-92138272D01*
X163440916Y-92152997D01*
X163440917Y-92152997D01*
X163440918Y-92152998D01*
X163503769Y-92165499D01*
X163503773Y-92165500D01*
X163503774Y-92165500D01*
X163696227Y-92165500D01*
X163696228Y-92165499D01*
X163717368Y-92161294D01*
X163759081Y-92152998D01*
X163759081Y-92152997D01*
X163759084Y-92152997D01*
X163781109Y-92138279D01*
X163847787Y-92117402D01*
X163915167Y-92135887D01*
X163918879Y-92138272D01*
X163940916Y-92152997D01*
X163940917Y-92152997D01*
X163940918Y-92152998D01*
X164003769Y-92165499D01*
X164003773Y-92165500D01*
X164003774Y-92165500D01*
X164196227Y-92165500D01*
X164196228Y-92165499D01*
X164217368Y-92161294D01*
X164259081Y-92152998D01*
X164259081Y-92152997D01*
X164259084Y-92152997D01*
X164281109Y-92138279D01*
X164347787Y-92117402D01*
X164415167Y-92135887D01*
X164418879Y-92138272D01*
X164440916Y-92152997D01*
X164440917Y-92152997D01*
X164440918Y-92152998D01*
X164503769Y-92165499D01*
X164503773Y-92165500D01*
X164503774Y-92165500D01*
X164696227Y-92165500D01*
X164696228Y-92165499D01*
X164717368Y-92161294D01*
X164759081Y-92152998D01*
X164759081Y-92152997D01*
X164759084Y-92152997D01*
X164781109Y-92138279D01*
X164847787Y-92117402D01*
X164915167Y-92135887D01*
X164918879Y-92138272D01*
X164940916Y-92152997D01*
X164940917Y-92152997D01*
X164940918Y-92152998D01*
X165003769Y-92165499D01*
X165003773Y-92165500D01*
X165003774Y-92165500D01*
X165196227Y-92165500D01*
X165196228Y-92165499D01*
X165217368Y-92161294D01*
X165259081Y-92152998D01*
X165259081Y-92152997D01*
X165259084Y-92152997D01*
X165330367Y-92105367D01*
X165377997Y-92034084D01*
X165379263Y-92027723D01*
X165390499Y-91971230D01*
X165390500Y-91971227D01*
X165390500Y-90603773D01*
X165390499Y-90603769D01*
X165377998Y-90540918D01*
X165377997Y-90540917D01*
X165377997Y-90540916D01*
X165330367Y-90469633D01*
X165259084Y-90422003D01*
X165259083Y-90422002D01*
X165259082Y-90422002D01*
X165259081Y-90422001D01*
X165196230Y-90409500D01*
X165196226Y-90409500D01*
X165003774Y-90409500D01*
X165003769Y-90409500D01*
X164940918Y-90422001D01*
X164940917Y-90422002D01*
X164918891Y-90436720D01*
X164852213Y-90457598D01*
X164784833Y-90439113D01*
X164781109Y-90436720D01*
X164779270Y-90435491D01*
X164759084Y-90422003D01*
X164759083Y-90422002D01*
X164759082Y-90422002D01*
X164759081Y-90422001D01*
X164696230Y-90409500D01*
X164696226Y-90409500D01*
X164503774Y-90409500D01*
X164503769Y-90409500D01*
X164440918Y-90422001D01*
X164440917Y-90422002D01*
X164418891Y-90436720D01*
X164352213Y-90457598D01*
X164284833Y-90439113D01*
X164281109Y-90436720D01*
X164279270Y-90435491D01*
X164259084Y-90422003D01*
X164259083Y-90422002D01*
X164259082Y-90422002D01*
X164259081Y-90422001D01*
X164196230Y-90409500D01*
X164196226Y-90409500D01*
X164003774Y-90409500D01*
X164003769Y-90409500D01*
X163940918Y-90422001D01*
X163940917Y-90422002D01*
X163918891Y-90436720D01*
X163852213Y-90457598D01*
X163784833Y-90439113D01*
X163781109Y-90436720D01*
X163779270Y-90435491D01*
X163759084Y-90422003D01*
X163759083Y-90422002D01*
X163759082Y-90422002D01*
X163759081Y-90422001D01*
X163696230Y-90409500D01*
X163696226Y-90409500D01*
X163503774Y-90409500D01*
X163503769Y-90409500D01*
X163440918Y-90422001D01*
X163440917Y-90422002D01*
X163418891Y-90436720D01*
X163352213Y-90457598D01*
X163284833Y-90439113D01*
X163281109Y-90436720D01*
X163279270Y-90435491D01*
X163259084Y-90422003D01*
X163259083Y-90422002D01*
X163259082Y-90422002D01*
X163259081Y-90422001D01*
X163196230Y-90409500D01*
X163196226Y-90409500D01*
X163003774Y-90409500D01*
X163003769Y-90409500D01*
X162940918Y-90422001D01*
X162940917Y-90422002D01*
X162918891Y-90436720D01*
X162852213Y-90457598D01*
X162784833Y-90439113D01*
X162781109Y-90436720D01*
X162779270Y-90435491D01*
X162759084Y-90422003D01*
X162759083Y-90422002D01*
X162759082Y-90422002D01*
X162759081Y-90422001D01*
X162696230Y-90409500D01*
X162696226Y-90409500D01*
X162503774Y-90409500D01*
X162503769Y-90409500D01*
X162440918Y-90422001D01*
X162440917Y-90422002D01*
X162418891Y-90436720D01*
X162352213Y-90457598D01*
X162284833Y-90439113D01*
X162281109Y-90436720D01*
X162279270Y-90435491D01*
X162259084Y-90422003D01*
X162259083Y-90422002D01*
X162259082Y-90422002D01*
X162259081Y-90422001D01*
X162196230Y-90409500D01*
X162196226Y-90409500D01*
X162014500Y-90409500D01*
X161947461Y-90389815D01*
X161901706Y-90337011D01*
X161890500Y-90285500D01*
X161890500Y-88534969D01*
X161910185Y-88467930D01*
X161962095Y-88422587D01*
X161964485Y-88421472D01*
X161964487Y-88421472D01*
X162073316Y-88370724D01*
X162158224Y-88285816D01*
X162208972Y-88176987D01*
X162215500Y-88127401D01*
X162215500Y-88127394D01*
X162784500Y-88127394D01*
X162784501Y-88127400D01*
X162791028Y-88176987D01*
X162841776Y-88285816D01*
X162926684Y-88370724D01*
X163035513Y-88421472D01*
X163085099Y-88428000D01*
X163564900Y-88427999D01*
X163614487Y-88421472D01*
X163723316Y-88370724D01*
X163808224Y-88285816D01*
X163858972Y-88176987D01*
X163865500Y-88127401D01*
X163865499Y-87497600D01*
X163858972Y-87448013D01*
X163808224Y-87339184D01*
X163723316Y-87254276D01*
X163723315Y-87254275D01*
X163687093Y-87237384D01*
X163634655Y-87191211D01*
X163615500Y-87125003D01*
X163615500Y-83664499D01*
X163635185Y-83597460D01*
X163687989Y-83551705D01*
X163739500Y-83540499D01*
X163863836Y-83540499D01*
X163863840Y-83540499D01*
X163904821Y-83532349D01*
X163951295Y-83501295D01*
X163982349Y-83454821D01*
X163990500Y-83413841D01*
X163990499Y-82413836D01*
X167259500Y-82413836D01*
X167259501Y-82413839D01*
X167259501Y-82413840D01*
X167267651Y-82454821D01*
X167298705Y-82501295D01*
X167345179Y-82532349D01*
X167386159Y-82540500D01*
X168413840Y-82540499D01*
X168454821Y-82532349D01*
X168501295Y-82501295D01*
X168532349Y-82454821D01*
X168540500Y-82413841D01*
X168540499Y-81586160D01*
X168532349Y-81545179D01*
X168501295Y-81498705D01*
X168454821Y-81467651D01*
X168413841Y-81459500D01*
X168413839Y-81459500D01*
X167386163Y-81459500D01*
X167360681Y-81464568D01*
X167345179Y-81467651D01*
X167298705Y-81498705D01*
X167288401Y-81514124D01*
X167267651Y-81545178D01*
X167259500Y-81586160D01*
X167259500Y-82413836D01*
X163990499Y-82413836D01*
X163990499Y-81886160D01*
X163982349Y-81845179D01*
X163951295Y-81798705D01*
X163904821Y-81767651D01*
X163863841Y-81759500D01*
X163863839Y-81759500D01*
X163136163Y-81759500D01*
X163095179Y-81767651D01*
X163048705Y-81798705D01*
X163038401Y-81814124D01*
X163017651Y-81845178D01*
X163009500Y-81886160D01*
X163009500Y-83413836D01*
X163017651Y-83454820D01*
X163022325Y-83466104D01*
X163019409Y-83467311D01*
X163034480Y-83515429D01*
X163034500Y-83517652D01*
X163034500Y-87125003D01*
X163014815Y-87192042D01*
X162962907Y-87237384D01*
X162926684Y-87254275D01*
X162841776Y-87339183D01*
X162791027Y-87448014D01*
X162784500Y-87497598D01*
X162784500Y-88127394D01*
X162215500Y-88127394D01*
X162215499Y-87497600D01*
X162208972Y-87448013D01*
X162158224Y-87339184D01*
X162073316Y-87254276D01*
X161964487Y-87203528D01*
X161964485Y-87203527D01*
X161964486Y-87203527D01*
X161914901Y-87197000D01*
X161435105Y-87197000D01*
X161419386Y-87199069D01*
X161385513Y-87203528D01*
X161385511Y-87203529D01*
X161385509Y-87203529D01*
X161276683Y-87254276D01*
X161191776Y-87339183D01*
X161141027Y-87448014D01*
X161134500Y-87497598D01*
X161134500Y-88127394D01*
X161134501Y-88127400D01*
X161141028Y-88176987D01*
X161141029Y-88176989D01*
X161141029Y-88176990D01*
X161191776Y-88285816D01*
X161273181Y-88367221D01*
X161306666Y-88428544D01*
X161309500Y-88454902D01*
X161309500Y-90285500D01*
X161289815Y-90352539D01*
X161237011Y-90398294D01*
X161185500Y-90409500D01*
X161003769Y-90409500D01*
X160940918Y-90422001D01*
X160940917Y-90422002D01*
X160918891Y-90436720D01*
X160852213Y-90457598D01*
X160784833Y-90439113D01*
X160781109Y-90436720D01*
X160779270Y-90435491D01*
X160759084Y-90422003D01*
X160759083Y-90422002D01*
X160759082Y-90422002D01*
X160759081Y-90422001D01*
X160696230Y-90409500D01*
X160696226Y-90409500D01*
X160503774Y-90409500D01*
X160503769Y-90409500D01*
X160440918Y-90422001D01*
X160440917Y-90422002D01*
X160369633Y-90469633D01*
X160322002Y-90540917D01*
X160322001Y-90540918D01*
X160309500Y-90603769D01*
X160309500Y-91971230D01*
X159890499Y-91971230D01*
X159890500Y-91971227D01*
X159890500Y-91335589D01*
X159893794Y-91307197D01*
X159895217Y-91301148D01*
X159891094Y-91271597D01*
X159890500Y-91263024D01*
X159890500Y-90520903D01*
X159891095Y-90512328D01*
X159892698Y-90500832D01*
X159892699Y-90500830D01*
X159890566Y-90454700D01*
X159890500Y-90451836D01*
X159890500Y-90433086D01*
X159890500Y-90433082D01*
X159890049Y-90430673D01*
X159889060Y-90422144D01*
X159887682Y-90392339D01*
X159885171Y-90386654D01*
X159876716Y-90359348D01*
X159875575Y-90353242D01*
X159859869Y-90327876D01*
X159855862Y-90320274D01*
X159855433Y-90319302D01*
X159843813Y-90292984D01*
X159839418Y-90288589D01*
X159821670Y-90266181D01*
X159818401Y-90260901D01*
X159794589Y-90242919D01*
X159788111Y-90237282D01*
X159708785Y-90157956D01*
X159675300Y-90096633D01*
X159673728Y-90052626D01*
X159673759Y-90052413D01*
X159675544Y-90040000D01*
X159655471Y-89900389D01*
X159620817Y-89824507D01*
X159596880Y-89772092D01*
X159596878Y-89772090D01*
X159596878Y-89772089D01*
X159504512Y-89665493D01*
X159504509Y-89665491D01*
X159504510Y-89665491D01*
X159385854Y-89589235D01*
X159250525Y-89549500D01*
X159250523Y-89549500D01*
X159109477Y-89549500D01*
X159109474Y-89549500D01*
X158974146Y-89589235D01*
X158974145Y-89589235D01*
X158855489Y-89665491D01*
X158763122Y-89772089D01*
X158763119Y-89772092D01*
X158704530Y-89900385D01*
X158704528Y-89900393D01*
X158684456Y-90040000D01*
X158704528Y-90179606D01*
X158704530Y-90179614D01*
X158763119Y-90307907D01*
X158763121Y-90307909D01*
X158763122Y-90307911D01*
X158855488Y-90414507D01*
X158855490Y-90414508D01*
X158855489Y-90414508D01*
X158974145Y-90490764D01*
X159076792Y-90520903D01*
X159102403Y-90528423D01*
X159109474Y-90530499D01*
X159109476Y-90530500D01*
X159185500Y-90530500D01*
X159252539Y-90550185D01*
X159298294Y-90602989D01*
X159309500Y-90654500D01*
X159309500Y-91115809D01*
X159289815Y-91182848D01*
X159273181Y-91203490D01*
X158103490Y-92373181D01*
X158042167Y-92406666D01*
X158015809Y-92409500D01*
X157503769Y-92409500D01*
X157440918Y-92422001D01*
X157440917Y-92422002D01*
X157369633Y-92469633D01*
X157351293Y-92497081D01*
X157297681Y-92541886D01*
X157228356Y-92550593D01*
X157165328Y-92520438D01*
X157160510Y-92515871D01*
X156776819Y-92132180D01*
X156743334Y-92070857D01*
X156740500Y-92044499D01*
X156740500Y-87984746D01*
X156760185Y-87917707D01*
X156810038Y-87873346D01*
X156910184Y-87824389D01*
X156999389Y-87735184D01*
X157054795Y-87621849D01*
X157065500Y-87548375D01*
X157065499Y-86976626D01*
X157054795Y-86903151D01*
X156999389Y-86789816D01*
X156999387Y-86789814D01*
X156999387Y-86789813D01*
X156910186Y-86700612D01*
X156796849Y-86645205D01*
X156723375Y-86634500D01*
X156723369Y-86634500D01*
X156176626Y-86634500D01*
X156103150Y-86645205D01*
X155989813Y-86700612D01*
X155900612Y-86789813D01*
X155845949Y-86901630D01*
X155845205Y-86903151D01*
X155834500Y-86976625D01*
X155834500Y-86976629D01*
X155834500Y-86976630D01*
X155834500Y-87548373D01*
X155845205Y-87621849D01*
X155900612Y-87735186D01*
X155989814Y-87824388D01*
X155989815Y-87824388D01*
X155989816Y-87824389D01*
X156089960Y-87873346D01*
X156141542Y-87920473D01*
X156159500Y-87984746D01*
X156159500Y-91837753D01*
X156139815Y-91904792D01*
X156087011Y-91950547D01*
X156017853Y-91960491D01*
X155954297Y-91931466D01*
X155947819Y-91925434D01*
X154926819Y-90904434D01*
X154893334Y-90843111D01*
X154890500Y-90816753D01*
X154890500Y-89498403D01*
X154891095Y-89489828D01*
X154892698Y-89478332D01*
X154892699Y-89478330D01*
X154890566Y-89432200D01*
X154890500Y-89429336D01*
X154890500Y-89410586D01*
X154890500Y-89410582D01*
X154890049Y-89408173D01*
X154889060Y-89399644D01*
X154887990Y-89376510D01*
X154887682Y-89369839D01*
X154885171Y-89364154D01*
X154876716Y-89336848D01*
X154875575Y-89330742D01*
X154870776Y-89322991D01*
X154859872Y-89305379D01*
X154855863Y-89297774D01*
X154843816Y-89270489D01*
X154843815Y-89270487D01*
X154843814Y-89270485D01*
X154839420Y-89266091D01*
X154821672Y-89243684D01*
X154818401Y-89238401D01*
X154794589Y-89220419D01*
X154788111Y-89214782D01*
X153001818Y-87428489D01*
X152968333Y-87367166D01*
X152965499Y-87340808D01*
X152965499Y-86901626D01*
X152964789Y-86896750D01*
X152954795Y-86828151D01*
X152899389Y-86714816D01*
X152899387Y-86714814D01*
X152899387Y-86714813D01*
X152810186Y-86625612D01*
X152696849Y-86570205D01*
X152623375Y-86559500D01*
X152623369Y-86559500D01*
X152076626Y-86559500D01*
X152003150Y-86570205D01*
X151889813Y-86625612D01*
X151800612Y-86714813D01*
X151745205Y-86828150D01*
X151743420Y-86840396D01*
X151734500Y-86901625D01*
X151734500Y-86901629D01*
X151734500Y-86901630D01*
X151734500Y-87473373D01*
X151745205Y-87546849D01*
X151800612Y-87660186D01*
X151889813Y-87749387D01*
X151889814Y-87749387D01*
X151889816Y-87749389D01*
X152003151Y-87804795D01*
X152076625Y-87815500D01*
X152515808Y-87815499D01*
X152582847Y-87835183D01*
X152603489Y-87851818D01*
X154273181Y-89521510D01*
X154306666Y-89582833D01*
X154309500Y-89609191D01*
X154309500Y-90927544D01*
X154308905Y-90936117D01*
X154307302Y-90947611D01*
X154307302Y-90947613D01*
X154307302Y-90947614D01*
X154308286Y-90968904D01*
X154309434Y-90993730D01*
X154309500Y-90996593D01*
X154309500Y-91015365D01*
X154309950Y-91017771D01*
X154310939Y-91026302D01*
X154312318Y-91056108D01*
X154314830Y-91061798D01*
X154323280Y-91089085D01*
X154324422Y-91095197D01*
X154324425Y-91095202D01*
X154340128Y-91120565D01*
X154344136Y-91128168D01*
X154356188Y-91155462D01*
X154360580Y-91159854D01*
X154378325Y-91182256D01*
X154381596Y-91187539D01*
X154381597Y-91187540D01*
X154381599Y-91187543D01*
X154402717Y-91203490D01*
X154405408Y-91205522D01*
X154411885Y-91211158D01*
X155741643Y-92540916D01*
X157063076Y-93862349D01*
X157068719Y-93868833D01*
X157075716Y-93878099D01*
X157094452Y-93895178D01*
X157109844Y-93909210D01*
X157111906Y-93911179D01*
X157125175Y-93924448D01*
X157127198Y-93925834D01*
X157133930Y-93931166D01*
X157155978Y-93951266D01*
X157161771Y-93953510D01*
X157187054Y-93966835D01*
X157192184Y-93970350D01*
X157214039Y-93975490D01*
X157274787Y-94009999D01*
X157307238Y-94071875D01*
X157308523Y-94097682D01*
X157309500Y-94097682D01*
X157309500Y-94285500D01*
X157289815Y-94352539D01*
X157237011Y-94398294D01*
X157185500Y-94409500D01*
X154759191Y-94409500D01*
X154692152Y-94389815D01*
X154671510Y-94373181D01*
X154418149Y-94119820D01*
X154384664Y-94058497D01*
X154384213Y-94007949D01*
X154390500Y-93976341D01*
X154390499Y-92848660D01*
X154382349Y-92807679D01*
X154351295Y-92761205D01*
X154304821Y-92730151D01*
X154263841Y-92722000D01*
X154263840Y-92722000D01*
X153714500Y-92722000D01*
X153647461Y-92702315D01*
X153601706Y-92649511D01*
X153590500Y-92598000D01*
X153590500Y-92026263D01*
X153610185Y-91959224D01*
X153626819Y-91938582D01*
X153661041Y-91904360D01*
X153703010Y-91862391D01*
X153747634Y-91761327D01*
X153750500Y-91736623D01*
X153750499Y-91223378D01*
X153748729Y-91208117D01*
X153747635Y-91198678D01*
X153747634Y-91198675D01*
X153747634Y-91198673D01*
X153738060Y-91176991D01*
X153703010Y-91097609D01*
X153624891Y-91019490D01*
X153523828Y-90974866D01*
X153499123Y-90972000D01*
X153100885Y-90972000D01*
X153100861Y-90972002D01*
X153076178Y-90974864D01*
X153076168Y-90974867D01*
X152975109Y-91019489D01*
X152896990Y-91097608D01*
X152852366Y-91198670D01*
X152852366Y-91198672D01*
X152849500Y-91223373D01*
X152849500Y-91736614D01*
X152849502Y-91736638D01*
X152852364Y-91761321D01*
X152852367Y-91761331D01*
X152896989Y-91862390D01*
X152973181Y-91938582D01*
X153006666Y-91999905D01*
X153009500Y-92026263D01*
X153009500Y-92598000D01*
X152989815Y-92665039D01*
X152937011Y-92710794D01*
X152885500Y-92722000D01*
X152336163Y-92722000D01*
X152295179Y-92730151D01*
X152248891Y-92761081D01*
X152248705Y-92761205D01*
X152246293Y-92764815D01*
X152217651Y-92807678D01*
X152217651Y-92807679D01*
X152211986Y-92836163D01*
X152209500Y-92848660D01*
X152209500Y-93976336D01*
X152209501Y-93976340D01*
X152217651Y-94017321D01*
X152248705Y-94063795D01*
X152295179Y-94094849D01*
X152336159Y-94103000D01*
X153528308Y-94102999D01*
X153595347Y-94122684D01*
X153615989Y-94139318D01*
X154339020Y-94862349D01*
X154344663Y-94868833D01*
X154351660Y-94878099D01*
X154366268Y-94891415D01*
X154385788Y-94909210D01*
X154387850Y-94911179D01*
X154401119Y-94924448D01*
X154403142Y-94925834D01*
X154409874Y-94931166D01*
X154431922Y-94951266D01*
X154437715Y-94953510D01*
X154462998Y-94966835D01*
X154468128Y-94970350D01*
X154497177Y-94977182D01*
X154505356Y-94979714D01*
X154533196Y-94990500D01*
X154539410Y-94990500D01*
X154567800Y-94993793D01*
X154573851Y-94995217D01*
X154593955Y-94992412D01*
X154663067Y-95002645D01*
X154715679Y-95048621D01*
X154735083Y-95115742D01*
X154715118Y-95182699D01*
X154698765Y-95202904D01*
X153615988Y-96285681D01*
X153554665Y-96319166D01*
X153528307Y-96322000D01*
X152336163Y-96322000D01*
X152295179Y-96330151D01*
X152248706Y-96361204D01*
X152217651Y-96407678D01*
X152217651Y-96407679D01*
X152209674Y-96447787D01*
X152209500Y-96448660D01*
X152209500Y-97576336D01*
X152209501Y-97576339D01*
X152209501Y-97576340D01*
X152217651Y-97617321D01*
X152248705Y-97663795D01*
X152295179Y-97694849D01*
X152336159Y-97703000D01*
X152885500Y-97702999D01*
X152952539Y-97722683D01*
X152998294Y-97775487D01*
X153009500Y-97826999D01*
X153009500Y-98298736D01*
X152989815Y-98365775D01*
X152973182Y-98386417D01*
X152896989Y-98462610D01*
X152852366Y-98563670D01*
X152852366Y-98563672D01*
X152849500Y-98588373D01*
X152849500Y-99101614D01*
X152849502Y-99101638D01*
X152852364Y-99126321D01*
X152852367Y-99126331D01*
X152896989Y-99227390D01*
X152896990Y-99227391D01*
X152975109Y-99305510D01*
X153076173Y-99350134D01*
X153100877Y-99353000D01*
X153499122Y-99352999D01*
X153507087Y-99352075D01*
X153523821Y-99350135D01*
X153523822Y-99350134D01*
X153523827Y-99350134D01*
X153624891Y-99305510D01*
X153703010Y-99227391D01*
X153747634Y-99126327D01*
X153750500Y-99101623D01*
X153750499Y-98588378D01*
X153747634Y-98563673D01*
X153703010Y-98462609D01*
X153626818Y-98386417D01*
X153593334Y-98325093D01*
X153590500Y-98298736D01*
X153590500Y-97826999D01*
X153610185Y-97759960D01*
X153662989Y-97714205D01*
X153714500Y-97702999D01*
X154263836Y-97702999D01*
X154263840Y-97702999D01*
X154304821Y-97694849D01*
X154351295Y-97663795D01*
X154382349Y-97617321D01*
X154390500Y-97576341D01*
X154390499Y-96448660D01*
X154386861Y-96430367D01*
X154384212Y-96417045D01*
X154390442Y-96347454D01*
X154418146Y-96305181D01*
X155196510Y-95526819D01*
X155257833Y-95493334D01*
X155284191Y-95490500D01*
X156933118Y-95490500D01*
X157000157Y-95510185D01*
X157045912Y-95562989D01*
X157055856Y-95632147D01*
X157026831Y-95695703D01*
X157020799Y-95702181D01*
X155187647Y-97535333D01*
X155181166Y-97540973D01*
X155171903Y-97547968D01*
X155140799Y-97582087D01*
X155138824Y-97584155D01*
X155125547Y-97597433D01*
X155125547Y-97597434D01*
X155124158Y-97599461D01*
X155118830Y-97606186D01*
X155098735Y-97628229D01*
X155098734Y-97628232D01*
X155096485Y-97634036D01*
X155083164Y-97659308D01*
X155079649Y-97664439D01*
X155072818Y-97693476D01*
X155070277Y-97701683D01*
X155059501Y-97729500D01*
X155059500Y-97729505D01*
X155059500Y-97735720D01*
X155056206Y-97764111D01*
X155054783Y-97770158D01*
X155054783Y-97770161D01*
X155058905Y-97799708D01*
X155059500Y-97808284D01*
X155059500Y-100328309D01*
X155039815Y-100395348D01*
X155023181Y-100415990D01*
X153315990Y-102123181D01*
X153254667Y-102156666D01*
X153228309Y-102159500D01*
X148694499Y-102159500D01*
X148627460Y-102139815D01*
X148581705Y-102087011D01*
X148570499Y-102035500D01*
X148570499Y-101046163D01*
X148570499Y-101046160D01*
X148562349Y-101005179D01*
X148531295Y-100958705D01*
X148484821Y-100927651D01*
X148443841Y-100919500D01*
X148443840Y-100919500D01*
X148405121Y-100919500D01*
X148338082Y-100899815D01*
X148292327Y-100847011D01*
X148281121Y-100795500D01*
X148281121Y-97724499D01*
X148300806Y-97657460D01*
X148353610Y-97611705D01*
X148405121Y-97600499D01*
X148443836Y-97600499D01*
X148443840Y-97600499D01*
X148484821Y-97592349D01*
X148531295Y-97561295D01*
X148562349Y-97514821D01*
X148570500Y-97473841D01*
X148570499Y-94246160D01*
X148562349Y-94205179D01*
X148531295Y-94158705D01*
X148484821Y-94127651D01*
X148443841Y-94119500D01*
X148443840Y-94119500D01*
X147484500Y-94119500D01*
X147417461Y-94099815D01*
X147371706Y-94047011D01*
X147360500Y-93995500D01*
X147360500Y-93883717D01*
X147380185Y-93816678D01*
X147432989Y-93770923D01*
X147465100Y-93761243D01*
X147529675Y-93751017D01*
X147639891Y-93694859D01*
X147727359Y-93607391D01*
X147783517Y-93497175D01*
X147783517Y-93497173D01*
X147783518Y-93497172D01*
X147783518Y-93497171D01*
X147788972Y-93462735D01*
X147798000Y-93405735D01*
X147797999Y-92394266D01*
X147797999Y-92394264D01*
X147797999Y-92394260D01*
X147783518Y-92302829D01*
X147783518Y-92302828D01*
X147783517Y-92302826D01*
X147783517Y-92302825D01*
X147727359Y-92192609D01*
X147727357Y-92192607D01*
X147727354Y-92192603D01*
X147639896Y-92105145D01*
X147639893Y-92105143D01*
X147639891Y-92105141D01*
X147529675Y-92048983D01*
X147529674Y-92048982D01*
X147529671Y-92048981D01*
X147438235Y-92034500D01*
X146701760Y-92034500D01*
X146701760Y-92034501D01*
X146610329Y-92048981D01*
X146610328Y-92048981D01*
X146500107Y-92105142D01*
X146500103Y-92105145D01*
X146412645Y-92192603D01*
X146412643Y-92192607D01*
X146412641Y-92192609D01*
X146406686Y-92204297D01*
X146356481Y-92302827D01*
X146356481Y-92302828D01*
X146342000Y-92394264D01*
X146342000Y-93405739D01*
X138183000Y-93405739D01*
X138182999Y-93055376D01*
X138172295Y-92981901D01*
X138116889Y-92868566D01*
X138116887Y-92868564D01*
X138116887Y-92868563D01*
X138027686Y-92779362D01*
X137914349Y-92723955D01*
X137840875Y-92713250D01*
X137840869Y-92713250D01*
X137294126Y-92713250D01*
X137220650Y-92723955D01*
X137107313Y-92779362D01*
X137018111Y-92868564D01*
X137018110Y-92868566D01*
X137006563Y-92892185D01*
X136959434Y-92943766D01*
X136891899Y-92961679D01*
X136825401Y-92940236D01*
X136807483Y-92925403D01*
X136423797Y-92541717D01*
X136411575Y-92525534D01*
X136404862Y-92517450D01*
X136383182Y-92499447D01*
X136375623Y-92493170D01*
X136371401Y-92489322D01*
X136363881Y-92481802D01*
X136363875Y-92481798D01*
X136363873Y-92481796D01*
X136355112Y-92475794D01*
X136350541Y-92472342D01*
X136332232Y-92457139D01*
X136321307Y-92448067D01*
X136321306Y-92448066D01*
X136321304Y-92448065D01*
X136312132Y-92442956D01*
X136306491Y-92440147D01*
X136296873Y-92435900D01*
X136259880Y-92427199D01*
X136254371Y-92425631D01*
X136218334Y-92413553D01*
X136218332Y-92413552D01*
X136218330Y-92413552D01*
X136218327Y-92413552D01*
X136207943Y-92412103D01*
X136201622Y-92411517D01*
X136191149Y-92411033D01*
X136191148Y-92411033D01*
X136191145Y-92411033D01*
X136153507Y-92416283D01*
X136147806Y-92416811D01*
X136109840Y-92418567D01*
X136098658Y-92421198D01*
X136098201Y-92419257D01*
X136067417Y-92425750D01*
X135382000Y-92425750D01*
X135314961Y-92406065D01*
X135269206Y-92353261D01*
X135258000Y-92301751D01*
X135257999Y-92130751D01*
X135277683Y-92063711D01*
X135330487Y-92017956D01*
X135381999Y-92006750D01*
X136006609Y-92006750D01*
X136015185Y-92007345D01*
X136026664Y-92008946D01*
X136026670Y-92008948D01*
X136066052Y-92007127D01*
X136072787Y-92006816D01*
X136075650Y-92006750D01*
X136094413Y-92006750D01*
X136094418Y-92006750D01*
X136096825Y-92006299D01*
X136105356Y-92005309D01*
X136135162Y-92003932D01*
X136140843Y-92001423D01*
X136168151Y-91992966D01*
X136174258Y-91991825D01*
X136199621Y-91976120D01*
X136207213Y-91972117D01*
X136234516Y-91960063D01*
X136238905Y-91955673D01*
X136261320Y-91937919D01*
X136266599Y-91934651D01*
X136284580Y-91910838D01*
X136290218Y-91904360D01*
X136401512Y-91793068D01*
X136462835Y-91759584D01*
X136489192Y-91756750D01*
X136888147Y-91756750D01*
X136955186Y-91776435D01*
X137000941Y-91829239D01*
X137010850Y-91862870D01*
X137012705Y-91875599D01*
X137059454Y-91971226D01*
X137068112Y-91988936D01*
X137157313Y-92078137D01*
X137157314Y-92078137D01*
X137157316Y-92078139D01*
X137270651Y-92133545D01*
X137344125Y-92144250D01*
X137890874Y-92144249D01*
X137964349Y-92133545D01*
X138077684Y-92078139D01*
X138166889Y-91988934D01*
X138222295Y-91875599D01*
X138224150Y-91862870D01*
X138253295Y-91799370D01*
X138312145Y-91761707D01*
X138346854Y-91756750D01*
X138738147Y-91756750D01*
X138805186Y-91776435D01*
X138850941Y-91829239D01*
X138860850Y-91862870D01*
X138862705Y-91875599D01*
X138909454Y-91971226D01*
X138918112Y-91988936D01*
X139007313Y-92078137D01*
X139007314Y-92078137D01*
X139007316Y-92078139D01*
X139120651Y-92133545D01*
X139194125Y-92144250D01*
X139740874Y-92144249D01*
X139814349Y-92133545D01*
X139927684Y-92078139D01*
X140016889Y-91988934D01*
X140072295Y-91875599D01*
X140080611Y-91818517D01*
X140109754Y-91755019D01*
X140138042Y-91730967D01*
X140143378Y-91727663D01*
X140145879Y-91726116D01*
X140153476Y-91722111D01*
X140180766Y-91710063D01*
X140185155Y-91705673D01*
X140207570Y-91687919D01*
X140212849Y-91684651D01*
X140230833Y-91660834D01*
X140236456Y-91654371D01*
X140554009Y-91336819D01*
X140615332Y-91303334D01*
X140641690Y-91300500D01*
X140740524Y-91300500D01*
X140740524Y-91300499D01*
X140845542Y-91269663D01*
X140875853Y-91260764D01*
X140875854Y-91260764D01*
X140897247Y-91247016D01*
X140994512Y-91184507D01*
X141086878Y-91077911D01*
X141093364Y-91063710D01*
X141099930Y-91049332D01*
X141145471Y-90949611D01*
X141165544Y-90810000D01*
X141145471Y-90670389D01*
X141115049Y-90603774D01*
X141086880Y-90542092D01*
X141086878Y-90542090D01*
X141086878Y-90542089D01*
X140994512Y-90435493D01*
X140994509Y-90435491D01*
X140994510Y-90435491D01*
X140875854Y-90359235D01*
X140740525Y-90319500D01*
X140740523Y-90319500D01*
X140599477Y-90319500D01*
X140599474Y-90319500D01*
X140464146Y-90359235D01*
X140464145Y-90359235D01*
X140345489Y-90435491D01*
X140253122Y-90542089D01*
X140253119Y-90542092D01*
X140194530Y-90670385D01*
X140194528Y-90670393D01*
X140173194Y-90818778D01*
X140169613Y-90818263D01*
X140154771Y-90868809D01*
X140101967Y-90914564D01*
X140032809Y-90924508D01*
X139969253Y-90895483D01*
X139962775Y-90889451D01*
X139927686Y-90854362D01*
X139924159Y-90852638D01*
X139814349Y-90798955D01*
X139740875Y-90788250D01*
X139740869Y-90788250D01*
X139194126Y-90788250D01*
X139120650Y-90798955D01*
X139007313Y-90854362D01*
X138918112Y-90943563D01*
X138862704Y-91056902D01*
X138860850Y-91069630D01*
X138831705Y-91133130D01*
X138772855Y-91170793D01*
X138738146Y-91175750D01*
X138346853Y-91175750D01*
X138279814Y-91156065D01*
X138234059Y-91103261D01*
X138224149Y-91069629D01*
X138222295Y-91056901D01*
X138166889Y-90943566D01*
X138166887Y-90943564D01*
X138166887Y-90943563D01*
X138077686Y-90854362D01*
X138074159Y-90852638D01*
X137964349Y-90798955D01*
X137890875Y-90788250D01*
X137890869Y-90788250D01*
X137344126Y-90788250D01*
X137270650Y-90798955D01*
X137157313Y-90854362D01*
X137068112Y-90943563D01*
X137012704Y-91056902D01*
X137010850Y-91069630D01*
X136981705Y-91133130D01*
X136922855Y-91170793D01*
X136888146Y-91175750D01*
X136815467Y-91175750D01*
X136748428Y-91156065D01*
X136702673Y-91103261D01*
X136692729Y-91034103D01*
X136721754Y-90970547D01*
X136723606Y-90968410D01*
X136811929Y-90866480D01*
X136818251Y-90852638D01*
X136837723Y-90810000D01*
X136870522Y-90738180D01*
X136890595Y-90598569D01*
X136870522Y-90458958D01*
X136842818Y-90398294D01*
X136811931Y-90330661D01*
X136811929Y-90330659D01*
X136811929Y-90330658D01*
X136719563Y-90224062D01*
X136717780Y-90222916D01*
X136708925Y-90217225D01*
X136663170Y-90164421D01*
X136653227Y-90095262D01*
X136675120Y-90047323D01*
X136672083Y-90045371D01*
X136676872Y-90037917D01*
X136676878Y-90037911D01*
X136735471Y-89909611D01*
X136755544Y-89770000D01*
X136735471Y-89630389D01*
X136716677Y-89589237D01*
X136676880Y-89502092D01*
X136676878Y-89502090D01*
X136676878Y-89502089D01*
X136584512Y-89395493D01*
X136584509Y-89395491D01*
X136584510Y-89395491D01*
X136465854Y-89319235D01*
X136330525Y-89279500D01*
X136330523Y-89279500D01*
X136189477Y-89279500D01*
X136189474Y-89279500D01*
X136054146Y-89319235D01*
X136054145Y-89319235D01*
X135935489Y-89395491D01*
X135935485Y-89395495D01*
X135917932Y-89415753D01*
X135859154Y-89453527D01*
X135789284Y-89453527D01*
X135730507Y-89415752D01*
X135701482Y-89352197D01*
X135699428Y-89337911D01*
X135695471Y-89310389D01*
X135647802Y-89206010D01*
X135637859Y-89136853D01*
X135666884Y-89073297D01*
X135725662Y-89035523D01*
X135760597Y-89030500D01*
X136099109Y-89030500D01*
X136107685Y-89031095D01*
X136119164Y-89032696D01*
X136119170Y-89032698D01*
X136158552Y-89030877D01*
X136165287Y-89030566D01*
X136168150Y-89030500D01*
X136186913Y-89030500D01*
X136186918Y-89030500D01*
X136189325Y-89030049D01*
X136197856Y-89029059D01*
X136227662Y-89027682D01*
X136233343Y-89025173D01*
X136260651Y-89016716D01*
X136266758Y-89015575D01*
X136292121Y-88999870D01*
X136299713Y-88995867D01*
X136327016Y-88983813D01*
X136331405Y-88979423D01*
X136353820Y-88961669D01*
X136359099Y-88958401D01*
X136377083Y-88934584D01*
X136382706Y-88928121D01*
X137489858Y-87820969D01*
X137496340Y-87815329D01*
X137505593Y-87808342D01*
X137505598Y-87808340D01*
X137536719Y-87774200D01*
X137538670Y-87772157D01*
X137551948Y-87758881D01*
X137553331Y-87756860D01*
X137558649Y-87750144D01*
X137578766Y-87728078D01*
X137581011Y-87722282D01*
X137594339Y-87696995D01*
X137597850Y-87691872D01*
X137604680Y-87662829D01*
X137607217Y-87654635D01*
X137618000Y-87626804D01*
X137618000Y-87620590D01*
X137621294Y-87592198D01*
X137622717Y-87586149D01*
X137618595Y-87556601D01*
X137618000Y-87548025D01*
X137618000Y-86990996D01*
X137637685Y-86923957D01*
X137687538Y-86879596D01*
X137787684Y-86830639D01*
X137876889Y-86741434D01*
X137931957Y-86628789D01*
X137979085Y-86577207D01*
X138043358Y-86559250D01*
X139311642Y-86559250D01*
X139378681Y-86578935D01*
X139423043Y-86628790D01*
X139478112Y-86741436D01*
X139567313Y-86830637D01*
X139567314Y-86830637D01*
X139567316Y-86830639D01*
X139680651Y-86886045D01*
X139754125Y-86896750D01*
X140300874Y-86896749D01*
X140374349Y-86886045D01*
X140487684Y-86830639D01*
X140576889Y-86741434D01*
X140632295Y-86628099D01*
X140634150Y-86615370D01*
X140663295Y-86551870D01*
X140722145Y-86514207D01*
X140756854Y-86509250D01*
X140920359Y-86509250D01*
X140928935Y-86509845D01*
X140940414Y-86511446D01*
X140940420Y-86511448D01*
X140979802Y-86509627D01*
X140986537Y-86509316D01*
X140989400Y-86509250D01*
X141008163Y-86509250D01*
X141008168Y-86509250D01*
X141010575Y-86508799D01*
X141019106Y-86507809D01*
X141048912Y-86506432D01*
X141054593Y-86503923D01*
X141081901Y-86495466D01*
X141088008Y-86494325D01*
X141113371Y-86478620D01*
X141120963Y-86474617D01*
X141148266Y-86462563D01*
X141152655Y-86458173D01*
X141175070Y-86440419D01*
X141180349Y-86437151D01*
X141198333Y-86413334D01*
X141203956Y-86406871D01*
X143147821Y-84463006D01*
X143209142Y-84429523D01*
X143278834Y-84434507D01*
X143334767Y-84476379D01*
X143359184Y-84541843D01*
X143359500Y-84550689D01*
X143359500Y-84813836D01*
X143359501Y-84813839D01*
X143359501Y-84813840D01*
X143367651Y-84854821D01*
X143398705Y-84901295D01*
X143445179Y-84932349D01*
X143486159Y-84940500D01*
X143544879Y-84940499D01*
X143611917Y-84960183D01*
X143657673Y-85012986D01*
X143668879Y-85064499D01*
X143668879Y-88135500D01*
X143649194Y-88202539D01*
X143596390Y-88248294D01*
X143544881Y-88259500D01*
X143486163Y-88259500D01*
X143445179Y-88267651D01*
X143425181Y-88281014D01*
X143398705Y-88298705D01*
X143394828Y-88304507D01*
X143367651Y-88345178D01*
X143363575Y-88365669D01*
X143359527Y-88386026D01*
X143359500Y-88386160D01*
X143359500Y-91613836D01*
X143359501Y-91613839D01*
X143359501Y-91613840D01*
X143367651Y-91654821D01*
X143398705Y-91701295D01*
X143445179Y-91732349D01*
X143486159Y-91740500D01*
X144513840Y-91740499D01*
X144554821Y-91732349D01*
X144601295Y-91701295D01*
X144632349Y-91654821D01*
X144640500Y-91613841D01*
X144640499Y-88386160D01*
X144632349Y-88345179D01*
X144601295Y-88298705D01*
X144554821Y-88267651D01*
X144513841Y-88259500D01*
X144513840Y-88259500D01*
X144455121Y-88259500D01*
X144388082Y-88239815D01*
X144342327Y-88187011D01*
X144331121Y-88135500D01*
X144331121Y-85648373D01*
X151734500Y-85648373D01*
X151745205Y-85721849D01*
X151788006Y-85809401D01*
X151800612Y-85835186D01*
X151889813Y-85924387D01*
X151889814Y-85924387D01*
X151889816Y-85924389D01*
X152003151Y-85979795D01*
X152076625Y-85990500D01*
X152623374Y-85990499D01*
X152696849Y-85979795D01*
X152810184Y-85924389D01*
X152899389Y-85835184D01*
X152954050Y-85723373D01*
X155834500Y-85723373D01*
X155845205Y-85796849D01*
X155900612Y-85910186D01*
X155989813Y-85999387D01*
X155989814Y-85999387D01*
X155989816Y-85999389D01*
X156103151Y-86054795D01*
X156176625Y-86065500D01*
X156723374Y-86065499D01*
X156796849Y-86054795D01*
X156910184Y-85999389D01*
X156999389Y-85910184D01*
X157054795Y-85796849D01*
X157065500Y-85723375D01*
X157065499Y-85151626D01*
X157054795Y-85078151D01*
X156999389Y-84964816D01*
X156999387Y-84964814D01*
X156999387Y-84964813D01*
X156910185Y-84875611D01*
X156810039Y-84826652D01*
X156758457Y-84779524D01*
X156740500Y-84715252D01*
X156740500Y-84284746D01*
X156760185Y-84217707D01*
X156810038Y-84173346D01*
X156910184Y-84124389D01*
X156999389Y-84035184D01*
X157011701Y-84010000D01*
X161114456Y-84010000D01*
X161134528Y-84149606D01*
X161134530Y-84149614D01*
X161193119Y-84277907D01*
X161193121Y-84277909D01*
X161193122Y-84277911D01*
X161285488Y-84384507D01*
X161285490Y-84384508D01*
X161285489Y-84384508D01*
X161404145Y-84460764D01*
X161539474Y-84500499D01*
X161539476Y-84500500D01*
X161539477Y-84500500D01*
X161680524Y-84500500D01*
X161680524Y-84500499D01*
X161815853Y-84460764D01*
X161815854Y-84460764D01*
X161856711Y-84434507D01*
X161934512Y-84384507D01*
X162026878Y-84277911D01*
X162085471Y-84149611D01*
X162105544Y-84010000D01*
X162103728Y-83997370D01*
X162113671Y-83928212D01*
X162138782Y-83892045D01*
X162162358Y-83868469D01*
X162168840Y-83862829D01*
X162178093Y-83855842D01*
X162178098Y-83855840D01*
X162209219Y-83821700D01*
X162211170Y-83819657D01*
X162224448Y-83806381D01*
X162225831Y-83804360D01*
X162231149Y-83797644D01*
X162251266Y-83775578D01*
X162253511Y-83769782D01*
X162266839Y-83744495D01*
X162270350Y-83739372D01*
X162277180Y-83710329D01*
X162279717Y-83702135D01*
X162290500Y-83674304D01*
X162290500Y-83668090D01*
X162293794Y-83639698D01*
X162296567Y-83627909D01*
X162331079Y-83567157D01*
X162392957Y-83534709D01*
X162393036Y-83534692D01*
X162404821Y-83532349D01*
X162451295Y-83501295D01*
X162482349Y-83454821D01*
X162490500Y-83413841D01*
X162490499Y-81886160D01*
X162482349Y-81845179D01*
X162451295Y-81798705D01*
X162404821Y-81767651D01*
X162363841Y-81759500D01*
X162363839Y-81759500D01*
X161636163Y-81759500D01*
X161595179Y-81767651D01*
X161548705Y-81798705D01*
X161538401Y-81814124D01*
X161517651Y-81845178D01*
X161509500Y-81886160D01*
X161509500Y-83413836D01*
X161510098Y-83419898D01*
X161508055Y-83420099D01*
X161502658Y-83480365D01*
X161459791Y-83535539D01*
X161422210Y-83553931D01*
X161404146Y-83559235D01*
X161404145Y-83559235D01*
X161285489Y-83635491D01*
X161193122Y-83742089D01*
X161193119Y-83742092D01*
X161134530Y-83870385D01*
X161134528Y-83870393D01*
X161114456Y-84010000D01*
X157011701Y-84010000D01*
X157054795Y-83921849D01*
X157065500Y-83848375D01*
X157065499Y-83201626D01*
X157054795Y-83128151D01*
X156999389Y-83014816D01*
X156999387Y-83014814D01*
X156999387Y-83014813D01*
X156910186Y-82925612D01*
X156796849Y-82870205D01*
X156723375Y-82859500D01*
X156723369Y-82859500D01*
X156176626Y-82859500D01*
X156103150Y-82870205D01*
X155989813Y-82925612D01*
X155900612Y-83014813D01*
X155877501Y-83062089D01*
X155845205Y-83128151D01*
X155834500Y-83201625D01*
X155834500Y-83201629D01*
X155834500Y-83201630D01*
X155834500Y-83848373D01*
X155845205Y-83921849D01*
X155900612Y-84035186D01*
X155989814Y-84124388D01*
X155989815Y-84124388D01*
X155989816Y-84124389D01*
X156089960Y-84173346D01*
X156141542Y-84220473D01*
X156159500Y-84284746D01*
X156159500Y-84715252D01*
X156139815Y-84782291D01*
X156089961Y-84826652D01*
X155989814Y-84875611D01*
X155900612Y-84964813D01*
X155845949Y-85076630D01*
X155845205Y-85078151D01*
X155834500Y-85151625D01*
X155834500Y-85151629D01*
X155834500Y-85151630D01*
X155834500Y-85723373D01*
X152954050Y-85723373D01*
X152954795Y-85721849D01*
X152965500Y-85648375D01*
X152965499Y-85076626D01*
X152954795Y-85003151D01*
X152899389Y-84889816D01*
X152899387Y-84889814D01*
X152899387Y-84889813D01*
X152810185Y-84800611D01*
X152710039Y-84751652D01*
X152658457Y-84704524D01*
X152640500Y-84640252D01*
X152640500Y-84309746D01*
X152660185Y-84242707D01*
X152710038Y-84198346D01*
X152810184Y-84149389D01*
X152899389Y-84060184D01*
X152954795Y-83946849D01*
X152965500Y-83873375D01*
X152965499Y-83226626D01*
X152954795Y-83153151D01*
X152899389Y-83039816D01*
X152899387Y-83039814D01*
X152899387Y-83039813D01*
X152810186Y-82950612D01*
X152696849Y-82895205D01*
X152623375Y-82884500D01*
X152623369Y-82884500D01*
X152076626Y-82884500D01*
X152003150Y-82895205D01*
X151889813Y-82950612D01*
X151800612Y-83039813D01*
X151757427Y-83128151D01*
X151745205Y-83153151D01*
X151734500Y-83226625D01*
X151734500Y-83226629D01*
X151734500Y-83226630D01*
X151734500Y-83873373D01*
X151745205Y-83946849D01*
X151800612Y-84060186D01*
X151889814Y-84149388D01*
X151889815Y-84149388D01*
X151889816Y-84149389D01*
X151989960Y-84198346D01*
X152041542Y-84245473D01*
X152059500Y-84309746D01*
X152059500Y-84640252D01*
X152039815Y-84707291D01*
X151989961Y-84751652D01*
X151889814Y-84800611D01*
X151800612Y-84889813D01*
X151745205Y-85003150D01*
X151743772Y-85012986D01*
X151734500Y-85076625D01*
X151734500Y-85076629D01*
X151734500Y-85076630D01*
X151734500Y-85648373D01*
X144331121Y-85648373D01*
X144331121Y-85064499D01*
X144350806Y-84997460D01*
X144403610Y-84951705D01*
X144455121Y-84940499D01*
X144513836Y-84940499D01*
X144513840Y-84940499D01*
X144554821Y-84932349D01*
X144601295Y-84901295D01*
X144632349Y-84854821D01*
X144640500Y-84813841D01*
X144640499Y-82413836D01*
X159959500Y-82413836D01*
X159959501Y-82413839D01*
X159959501Y-82413840D01*
X159967651Y-82454821D01*
X159998705Y-82501295D01*
X160045179Y-82532349D01*
X160086159Y-82540500D01*
X161113840Y-82540499D01*
X161154821Y-82532349D01*
X161201295Y-82501295D01*
X161232349Y-82454821D01*
X161240500Y-82413841D01*
X161240499Y-81586160D01*
X161232349Y-81545179D01*
X161201295Y-81498705D01*
X161154821Y-81467651D01*
X161113841Y-81459500D01*
X161113839Y-81459500D01*
X160086163Y-81459500D01*
X160060681Y-81464568D01*
X160045179Y-81467651D01*
X159998705Y-81498705D01*
X159988401Y-81514124D01*
X159967651Y-81545178D01*
X159959500Y-81586160D01*
X159959500Y-82413836D01*
X144640499Y-82413836D01*
X144640499Y-81586160D01*
X144632349Y-81545179D01*
X144601295Y-81498705D01*
X144554821Y-81467651D01*
X144513841Y-81459500D01*
X144513839Y-81459500D01*
X143486163Y-81459500D01*
X143460681Y-81464568D01*
X143445179Y-81467651D01*
X143398705Y-81498705D01*
X143388401Y-81514124D01*
X143367651Y-81545178D01*
X143359500Y-81586160D01*
X143359500Y-83378308D01*
X143339815Y-83445347D01*
X143323181Y-83465989D01*
X140897240Y-85891931D01*
X140835917Y-85925416D01*
X140809559Y-85928250D01*
X140756853Y-85928250D01*
X140689814Y-85908565D01*
X140644059Y-85855761D01*
X140634149Y-85822129D01*
X140632295Y-85809401D01*
X140576889Y-85696066D01*
X140576887Y-85696064D01*
X140576887Y-85696063D01*
X140487686Y-85606862D01*
X140374349Y-85551455D01*
X140300875Y-85540750D01*
X140300869Y-85540750D01*
X139754126Y-85540750D01*
X139680650Y-85551455D01*
X139567313Y-85606862D01*
X139478112Y-85696063D01*
X139422705Y-85809399D01*
X139422705Y-85809401D01*
X139413565Y-85872130D01*
X139384423Y-85935628D01*
X139325574Y-85973292D01*
X139290862Y-85978250D01*
X138043358Y-85978250D01*
X137976319Y-85958565D01*
X137931957Y-85908710D01*
X137923754Y-85891931D01*
X137876889Y-85796066D01*
X137876887Y-85796064D01*
X137876887Y-85796063D01*
X137787686Y-85706862D01*
X137674349Y-85651455D01*
X137600875Y-85640750D01*
X137600869Y-85640750D01*
X137054126Y-85640750D01*
X136980650Y-85651455D01*
X136867313Y-85706862D01*
X136778112Y-85796063D01*
X136722705Y-85909400D01*
X136720920Y-85921646D01*
X136712000Y-85982875D01*
X136712000Y-85982879D01*
X136712000Y-85982880D01*
X136712000Y-86554623D01*
X136722705Y-86628099D01*
X136778112Y-86741436D01*
X136867314Y-86830638D01*
X136867315Y-86830638D01*
X136867316Y-86830639D01*
X136967460Y-86879596D01*
X137019042Y-86926723D01*
X137037000Y-86990996D01*
X137037000Y-87400809D01*
X137017315Y-87467848D01*
X137000681Y-87488490D01*
X136075990Y-88413181D01*
X136014667Y-88446666D01*
X135988309Y-88449500D01*
X133580891Y-88449500D01*
X133572315Y-88448905D01*
X133560831Y-88447302D01*
X133560830Y-88447302D01*
X133560828Y-88447302D01*
X133514713Y-88449434D01*
X133511850Y-88449500D01*
X133493082Y-88449500D01*
X133493079Y-88449500D01*
X133493072Y-88449501D01*
X133490670Y-88449950D01*
X133482141Y-88450939D01*
X133452338Y-88452318D01*
X133446646Y-88454831D01*
X133419353Y-88463282D01*
X133407489Y-88465500D01*
X133337974Y-88458471D01*
X133283295Y-88414974D01*
X133260811Y-88348821D01*
X133277663Y-88281014D01*
X133290990Y-88262409D01*
X133346875Y-88197915D01*
X133346876Y-88197913D01*
X133346878Y-88197911D01*
X133405471Y-88069611D01*
X133425544Y-87930000D01*
X133405471Y-87790389D01*
X133386746Y-87749387D01*
X133346880Y-87662092D01*
X133346878Y-87662090D01*
X133346878Y-87662089D01*
X133254512Y-87555493D01*
X133254509Y-87555491D01*
X133254510Y-87555491D01*
X133135854Y-87479235D01*
X133000525Y-87439500D01*
X133000523Y-87439500D01*
X132859477Y-87439500D01*
X132859474Y-87439500D01*
X132724146Y-87479235D01*
X132724145Y-87479235D01*
X132605489Y-87555491D01*
X132605489Y-87555492D01*
X132559735Y-87608294D01*
X132500956Y-87646068D01*
X132431087Y-87646067D01*
X132372309Y-87608292D01*
X132343285Y-87544737D01*
X132335471Y-87490389D01*
X132316119Y-87448014D01*
X132276880Y-87362092D01*
X132276878Y-87362090D01*
X132276878Y-87362089D01*
X132184512Y-87255493D01*
X132184509Y-87255491D01*
X132184510Y-87255491D01*
X132065854Y-87179235D01*
X131930525Y-87139500D01*
X131930523Y-87139500D01*
X131789477Y-87139500D01*
X131789474Y-87139500D01*
X131654146Y-87179235D01*
X131654145Y-87179235D01*
X131535489Y-87255491D01*
X131443122Y-87362089D01*
X131443119Y-87362092D01*
X131384530Y-87490385D01*
X131384528Y-87490393D01*
X131364456Y-87630000D01*
X131384528Y-87769606D01*
X131384530Y-87769614D01*
X131443119Y-87897907D01*
X131443121Y-87897909D01*
X131443122Y-87897911D01*
X131535488Y-88004507D01*
X131535490Y-88004508D01*
X131535489Y-88004508D01*
X131654142Y-88080762D01*
X131654510Y-88080930D01*
X131654815Y-88081194D01*
X131661605Y-88085558D01*
X131660977Y-88086534D01*
X131707315Y-88126684D01*
X131727000Y-88193723D01*
X131727000Y-88514988D01*
X131707315Y-88582027D01*
X131654511Y-88627782D01*
X131585353Y-88637726D01*
X131544173Y-88622368D01*
X131543921Y-88622920D01*
X131536209Y-88619397D01*
X131535968Y-88619308D01*
X131535859Y-88619238D01*
X131535853Y-88619235D01*
X131400525Y-88579500D01*
X131400523Y-88579500D01*
X131259477Y-88579500D01*
X131259474Y-88579500D01*
X131124146Y-88619235D01*
X131124145Y-88619235D01*
X131005489Y-88695491D01*
X130913122Y-88802089D01*
X130913119Y-88802092D01*
X130854530Y-88930385D01*
X130854528Y-88930393D01*
X130839819Y-89032697D01*
X130834456Y-89070000D01*
X130849963Y-89177853D01*
X130840019Y-89247011D01*
X130794264Y-89299815D01*
X130727225Y-89319500D01*
X130699474Y-89319500D01*
X130558934Y-89360766D01*
X130489065Y-89360766D01*
X130430287Y-89322991D01*
X130401262Y-89259436D01*
X130400000Y-89241789D01*
X130400000Y-84729623D01*
X136712000Y-84729623D01*
X136722705Y-84803099D01*
X136778112Y-84916436D01*
X136867313Y-85005637D01*
X136867314Y-85005637D01*
X136867316Y-85005639D01*
X136980651Y-85061045D01*
X137054125Y-85071750D01*
X137600874Y-85071749D01*
X137674349Y-85061045D01*
X137787684Y-85005639D01*
X137876889Y-84916434D01*
X137932295Y-84803099D01*
X137943000Y-84729625D01*
X137942999Y-84259189D01*
X137962683Y-84192151D01*
X137979313Y-84171514D01*
X138294009Y-83856819D01*
X138355332Y-83823334D01*
X138381690Y-83820500D01*
X138480524Y-83820500D01*
X138480524Y-83820499D01*
X138615853Y-83780764D01*
X138615854Y-83780764D01*
X138617929Y-83779431D01*
X138734512Y-83704507D01*
X138826878Y-83597911D01*
X138885471Y-83469611D01*
X138905544Y-83330000D01*
X138885471Y-83190389D01*
X138857047Y-83128150D01*
X138826880Y-83062092D01*
X138826878Y-83062090D01*
X138826878Y-83062089D01*
X138734512Y-82955493D01*
X138734509Y-82955491D01*
X138734510Y-82955491D01*
X138615854Y-82879235D01*
X138480525Y-82839500D01*
X138480523Y-82839500D01*
X138339477Y-82839500D01*
X138339474Y-82839500D01*
X138204146Y-82879235D01*
X138204145Y-82879235D01*
X138085489Y-82955491D01*
X137993122Y-83062089D01*
X137993119Y-83062092D01*
X137934530Y-83190385D01*
X137934528Y-83190393D01*
X137914456Y-83330000D01*
X137914456Y-83330004D01*
X137916271Y-83342630D01*
X137906326Y-83411788D01*
X137881214Y-83447955D01*
X137549738Y-83779431D01*
X137488415Y-83812916D01*
X137462057Y-83815750D01*
X137054126Y-83815750D01*
X136980650Y-83826455D01*
X136867313Y-83881862D01*
X136778112Y-83971063D01*
X136734543Y-84060186D01*
X136722705Y-84084401D01*
X136712000Y-84157875D01*
X136712000Y-84157879D01*
X136712000Y-84157880D01*
X136712000Y-84729623D01*
X130400000Y-84729623D01*
X130400000Y-80848833D01*
X162095624Y-80848833D01*
X162105944Y-81012860D01*
X162156732Y-81169171D01*
X162156734Y-81169175D01*
X162244798Y-81307940D01*
X162364603Y-81420445D01*
X162364611Y-81420451D01*
X162508628Y-81499625D01*
X162508632Y-81499627D01*
X162667823Y-81540500D01*
X162667827Y-81540500D01*
X162790923Y-81540500D01*
X162790925Y-81540500D01*
X162790930Y-81540499D01*
X162790934Y-81540499D01*
X162804174Y-81538826D01*
X162913058Y-81525071D01*
X163065871Y-81464568D01*
X163072847Y-81459500D01*
X163198835Y-81367965D01*
X163198835Y-81367963D01*
X163198837Y-81367963D01*
X163303600Y-81241326D01*
X163373579Y-81092613D01*
X163404376Y-80931170D01*
X163399196Y-80848833D01*
X165095624Y-80848833D01*
X165105944Y-81012860D01*
X165156732Y-81169171D01*
X165156734Y-81169175D01*
X165244798Y-81307940D01*
X165364603Y-81420445D01*
X165364611Y-81420451D01*
X165508628Y-81499625D01*
X165508632Y-81499627D01*
X165667823Y-81540500D01*
X165667827Y-81540500D01*
X165790923Y-81540500D01*
X165790925Y-81540500D01*
X165790930Y-81540499D01*
X165790934Y-81540499D01*
X165804174Y-81538826D01*
X165913058Y-81525071D01*
X166065871Y-81464568D01*
X166072847Y-81459500D01*
X166198835Y-81367965D01*
X166198835Y-81367963D01*
X166198837Y-81367963D01*
X166303600Y-81241326D01*
X166373579Y-81092613D01*
X166404376Y-80931170D01*
X166394056Y-80767140D01*
X166343268Y-80610829D01*
X166255202Y-80472060D01*
X166139670Y-80363568D01*
X166135396Y-80359554D01*
X166135388Y-80359548D01*
X165991371Y-80280374D01*
X165991361Y-80280371D01*
X165832180Y-80239500D01*
X165832177Y-80239500D01*
X165709075Y-80239500D01*
X165709065Y-80239500D01*
X165586942Y-80254929D01*
X165586939Y-80254929D01*
X165434130Y-80315431D01*
X165434121Y-80315436D01*
X165301164Y-80412034D01*
X165301162Y-80412037D01*
X165196400Y-80538673D01*
X165126420Y-80687387D01*
X165111207Y-80767139D01*
X165095624Y-80848830D01*
X165095624Y-80848832D01*
X165095624Y-80848833D01*
X163399196Y-80848833D01*
X163394056Y-80767140D01*
X163343268Y-80610829D01*
X163255202Y-80472060D01*
X163139670Y-80363568D01*
X163135396Y-80359554D01*
X163135388Y-80359548D01*
X162991371Y-80280374D01*
X162991361Y-80280371D01*
X162832180Y-80239500D01*
X162832177Y-80239500D01*
X162709075Y-80239500D01*
X162709065Y-80239500D01*
X162586942Y-80254929D01*
X162586939Y-80254929D01*
X162434130Y-80315431D01*
X162434121Y-80315436D01*
X162301164Y-80412034D01*
X162301162Y-80412037D01*
X162196400Y-80538673D01*
X162126420Y-80687387D01*
X162111207Y-80767139D01*
X162095624Y-80848830D01*
X162095624Y-80848832D01*
X162095624Y-80848833D01*
X130400000Y-80848833D01*
X130400000Y-80203836D01*
X159959500Y-80203836D01*
X159959501Y-80203839D01*
X159959501Y-80203840D01*
X159967651Y-80244821D01*
X159998705Y-80291295D01*
X160045179Y-80322349D01*
X160086159Y-80330500D01*
X161113840Y-80330499D01*
X161154821Y-80322349D01*
X161201295Y-80291295D01*
X161232349Y-80244821D01*
X161240500Y-80203841D01*
X161240500Y-80203836D01*
X167259500Y-80203836D01*
X167259501Y-80203839D01*
X167259501Y-80203840D01*
X167267651Y-80244821D01*
X167298705Y-80291295D01*
X167345179Y-80322349D01*
X167386159Y-80330500D01*
X168413840Y-80330499D01*
X168454821Y-80322349D01*
X168501295Y-80291295D01*
X168532349Y-80244821D01*
X168540500Y-80203841D01*
X168540499Y-79376160D01*
X168532349Y-79335179D01*
X168501295Y-79288705D01*
X168454821Y-79257651D01*
X168413841Y-79249500D01*
X168413839Y-79249500D01*
X167386163Y-79249500D01*
X167345179Y-79257651D01*
X167298705Y-79288705D01*
X167288401Y-79304124D01*
X167267651Y-79335178D01*
X167259500Y-79376160D01*
X167259500Y-80203836D01*
X161240500Y-80203836D01*
X161240499Y-79376160D01*
X161232349Y-79335179D01*
X161201295Y-79288705D01*
X161154821Y-79257651D01*
X161113841Y-79249500D01*
X161113839Y-79249500D01*
X160086163Y-79249500D01*
X160045179Y-79257651D01*
X159998705Y-79288705D01*
X159988401Y-79304124D01*
X159967651Y-79335178D01*
X159959500Y-79376160D01*
X159959500Y-80203836D01*
X130400000Y-80203836D01*
X130400000Y-79124500D01*
X130419685Y-79057461D01*
X130472489Y-79011706D01*
X130524000Y-79000500D01*
X182998378Y-79000500D01*
X183001619Y-79000584D01*
G37*
G04 #@! TD.AperFunction*
G04 #@! TA.AperFunction,Conductor*
G36*
X131120039Y-94026434D02*
G01*
X131165794Y-94079238D01*
X131177000Y-94130749D01*
X131177000Y-94880086D01*
X131185150Y-94921069D01*
X131185150Y-94921070D01*
X131185151Y-94921071D01*
X131206102Y-94952425D01*
X131226980Y-95019099D01*
X131227000Y-95021315D01*
X131227000Y-95116839D01*
X131207315Y-95183878D01*
X131170040Y-95221154D01*
X131085490Y-95275491D01*
X131085488Y-95275492D01*
X131085488Y-95275493D01*
X131067523Y-95296226D01*
X130993122Y-95382089D01*
X130993119Y-95382092D01*
X130934530Y-95510385D01*
X130934528Y-95510393D01*
X130914456Y-95650000D01*
X130934528Y-95789606D01*
X130934530Y-95789614D01*
X130993119Y-95917907D01*
X130993121Y-95917909D01*
X130993122Y-95917911D01*
X131085488Y-96024507D01*
X131085490Y-96024508D01*
X131085489Y-96024508D01*
X131204145Y-96100764D01*
X131327991Y-96137128D01*
X131386770Y-96174902D01*
X131415795Y-96238458D01*
X131405852Y-96307616D01*
X131380738Y-96343786D01*
X130729387Y-96995137D01*
X130710599Y-97010556D01*
X130698589Y-97018580D01*
X130698584Y-97018585D01*
X130665974Y-97067391D01*
X130639904Y-97106406D01*
X130638560Y-97109653D01*
X130633737Y-97115637D01*
X130633120Y-97116561D01*
X130633037Y-97116505D01*
X130594717Y-97164055D01*
X130528422Y-97186118D01*
X130460723Y-97168837D01*
X130413114Y-97117698D01*
X130400000Y-97062197D01*
X130400000Y-94495940D01*
X130419685Y-94428901D01*
X130436319Y-94408259D01*
X130801510Y-94043068D01*
X130862833Y-94009583D01*
X130889191Y-94006749D01*
X131053000Y-94006749D01*
X131120039Y-94026434D01*
G37*
G04 #@! TD.AperFunction*
G04 #@! TA.AperFunction,Conductor*
G36*
X96460000Y-82060004D02*
G01*
X96460000Y-88346000D01*
X96440315Y-88413039D01*
X96387511Y-88458794D01*
X96336000Y-88470000D01*
X95324000Y-88470000D01*
X95256961Y-88450315D01*
X95211206Y-88397511D01*
X95200000Y-88346000D01*
X95200000Y-82060000D01*
X96460000Y-82060000D01*
X96460000Y-82060004D01*
G37*
G04 #@! TD.AperFunction*
G04 #@! TA.AperFunction,Conductor*
G36*
X96410000Y-103983396D02*
G01*
X96410728Y-103984730D01*
X96413562Y-104011088D01*
X96413562Y-104086167D01*
X96422729Y-104196164D01*
X96423562Y-104206164D01*
X96443561Y-104316161D01*
X96443562Y-104316162D01*
X96443562Y-104316164D01*
X96466417Y-104401871D01*
X96483559Y-104466155D01*
X96483562Y-104466165D01*
X96509277Y-104534737D01*
X96543562Y-104626164D01*
X96543564Y-104626168D01*
X96543563Y-104626168D01*
X96557408Y-104656164D01*
X96603562Y-104756164D01*
X96673562Y-104866164D01*
X96743562Y-104966164D01*
X96793562Y-105026164D01*
X96853562Y-105096164D01*
X96903562Y-105146164D01*
X96903574Y-105146175D01*
X96903573Y-105146175D01*
X96993566Y-105226168D01*
X97062312Y-105276164D01*
X97103562Y-105306164D01*
X97203562Y-105366164D01*
X97313562Y-105426164D01*
X97349564Y-105441165D01*
X97433563Y-105476165D01*
X97433562Y-105476164D01*
X97553562Y-105516164D01*
X97606900Y-105529498D01*
X97633569Y-105536166D01*
X97633570Y-105536166D01*
X97743562Y-105556164D01*
X97873555Y-105576163D01*
X97873556Y-105576163D01*
X97873562Y-105576164D01*
X98003562Y-105586164D01*
X98003562Y-106846164D01*
X97945621Y-106846164D01*
X97941517Y-106846027D01*
X97793562Y-106836164D01*
X97666294Y-106826374D01*
X97660855Y-106825712D01*
X97543562Y-106806164D01*
X97417052Y-106786700D01*
X97410162Y-106785236D01*
X97303562Y-106756164D01*
X97177246Y-106727013D01*
X97169993Y-106724866D01*
X97063562Y-106686164D01*
X96897202Y-106627448D01*
X96890109Y-106624437D01*
X96813562Y-106586164D01*
X96665875Y-106517243D01*
X96661332Y-106514889D01*
X96523562Y-106436164D01*
X96426302Y-106377808D01*
X96421003Y-106374245D01*
X96343562Y-106316164D01*
X96246052Y-106247907D01*
X96241254Y-106244186D01*
X96103562Y-106126164D01*
X96006133Y-106038478D01*
X96001266Y-106033580D01*
X95923573Y-105946175D01*
X95923573Y-105946176D01*
X95923562Y-105946164D01*
X95839794Y-105862396D01*
X95828275Y-105849115D01*
X95803562Y-105816164D01*
X95695522Y-105678659D01*
X95691862Y-105673473D01*
X95617772Y-105556164D01*
X95573562Y-105486164D01*
X95515705Y-105399378D01*
X95511834Y-105392708D01*
X95453562Y-105276164D01*
X95425784Y-105226164D01*
X95408030Y-105194206D01*
X95400325Y-105177533D01*
X95373562Y-105106163D01*
X95304653Y-104938812D01*
X95302723Y-104933436D01*
X95263562Y-104806164D01*
X95223986Y-104657754D01*
X95223222Y-104654551D01*
X95217246Y-104626164D01*
X95184179Y-104469099D01*
X95183231Y-104463183D01*
X95153798Y-104198292D01*
X95153473Y-104194025D01*
X95152417Y-104168694D01*
X95146084Y-104016707D01*
X95150000Y-104000978D01*
X95150000Y-103956164D01*
X96410000Y-103956164D01*
X96410000Y-103983396D01*
G37*
G04 #@! TD.AperFunction*
G04 #@! TA.AperFunction,Conductor*
G36*
X130042932Y-79219685D02*
G01*
X130088687Y-79272489D01*
X130099892Y-79324106D01*
X130098966Y-80397511D01*
X130090107Y-90656107D01*
X130070365Y-90723130D01*
X130017521Y-90768839D01*
X129966107Y-90780000D01*
X129024000Y-90780000D01*
X128956961Y-90760315D01*
X128911206Y-90707511D01*
X128900000Y-90656000D01*
X128900000Y-80470000D01*
X98090000Y-80470000D01*
X98090000Y-79200000D01*
X129975893Y-79200000D01*
X130042932Y-79219685D01*
G37*
G04 #@! TD.AperFunction*
G04 #@! TA.AperFunction,Conductor*
G36*
X98090000Y-80470000D02*
G01*
X97959997Y-80470000D01*
X97840008Y-80479999D01*
X97839998Y-80480000D01*
X97785000Y-80490000D01*
X97730000Y-80500000D01*
X97658005Y-80519198D01*
X97580008Y-80539997D01*
X97579998Y-80540000D01*
X97483996Y-80576001D01*
X97420000Y-80600000D01*
X97419996Y-80600002D01*
X97419996Y-80600001D01*
X97340553Y-80636667D01*
X97290000Y-80660000D01*
X97199219Y-80717770D01*
X97180000Y-80730000D01*
X97079997Y-80800002D01*
X97020000Y-80850000D01*
X96950000Y-80910000D01*
X96900000Y-80960000D01*
X96899989Y-80960012D01*
X96899989Y-80960011D01*
X96819995Y-81050004D01*
X96756552Y-81137240D01*
X96740000Y-81160000D01*
X96698000Y-81230000D01*
X96680000Y-81260000D01*
X96619998Y-81370003D01*
X96569999Y-81490001D01*
X96570000Y-81490000D01*
X96530000Y-81610000D01*
X96530000Y-81610002D01*
X96509998Y-81690007D01*
X96509998Y-81690008D01*
X96490000Y-81800000D01*
X96470000Y-81930000D01*
X96460000Y-82060000D01*
X95200000Y-82060000D01*
X95200000Y-82002059D01*
X95200136Y-81997955D01*
X95210000Y-81850000D01*
X95219791Y-81722715D01*
X95220451Y-81717292D01*
X95224999Y-81690008D01*
X95240000Y-81600000D01*
X95259463Y-81473491D01*
X95260925Y-81466608D01*
X95290000Y-81360000D01*
X95319150Y-81233684D01*
X95321293Y-81226443D01*
X95360000Y-81120000D01*
X95418716Y-80953635D01*
X95421723Y-80946553D01*
X95460000Y-80870000D01*
X95528921Y-80722311D01*
X95531274Y-80717770D01*
X95610000Y-80580000D01*
X95668364Y-80482726D01*
X95671907Y-80477457D01*
X95730000Y-80400000D01*
X95798266Y-80302476D01*
X95801964Y-80297707D01*
X95920000Y-80160000D01*
X96007695Y-80062560D01*
X96012573Y-80057712D01*
X96051915Y-80022741D01*
X96099989Y-79980011D01*
X96099988Y-79980011D01*
X96100000Y-79980000D01*
X96183781Y-79896218D01*
X96197038Y-79884721D01*
X96230000Y-79860000D01*
X96367513Y-79751953D01*
X96372675Y-79748310D01*
X96560000Y-79630000D01*
X96646788Y-79572140D01*
X96653443Y-79568278D01*
X96770000Y-79510000D01*
X96851951Y-79464471D01*
X96868615Y-79456769D01*
X96924707Y-79435734D01*
X96940001Y-79430000D01*
X97107350Y-79361091D01*
X97112727Y-79359161D01*
X97240000Y-79320000D01*
X97388418Y-79280421D01*
X97391589Y-79279665D01*
X97577067Y-79240617D01*
X97582980Y-79239669D01*
X97627128Y-79234763D01*
X97847886Y-79210234D01*
X97852138Y-79209911D01*
X98090000Y-79200000D01*
X98090000Y-80470000D01*
G37*
G04 #@! TD.AperFunction*
M02*
