G04 #@! TF.GenerationSoftware,KiCad,Pcbnew,7.0.9-1.fc38*
G04 #@! TF.CreationDate,2023-11-15T09:02:08+02:00*
G04 #@! TF.ProjectId,transceiver_board,7472616e-7363-4656-9976-65725f626f61,rev?*
G04 #@! TF.SameCoordinates,Original*
G04 #@! TF.FileFunction,Soldermask,Top*
G04 #@! TF.FilePolarity,Negative*
%FSLAX46Y46*%
G04 Gerber Fmt 4.6, Leading zero omitted, Abs format (unit mm)*
G04 Created by KiCad (PCBNEW 7.0.9-1.fc38) date 2023-11-15 09:02:08*
%MOMM*%
%LPD*%
G01*
G04 APERTURE LIST*
G04 Aperture macros list*
%AMRoundRect*
0 Rectangle with rounded corners*
0 $1 Rounding radius*
0 $2 $3 $4 $5 $6 $7 $8 $9 X,Y pos of 4 corners*
0 Add a 4 corners polygon primitive as box body*
4,1,4,$2,$3,$4,$5,$6,$7,$8,$9,$2,$3,0*
0 Add four circle primitives for the rounded corners*
1,1,$1+$1,$2,$3*
1,1,$1+$1,$4,$5*
1,1,$1+$1,$6,$7*
1,1,$1+$1,$8,$9*
0 Add four rect primitives between the rounded corners*
20,1,$1+$1,$2,$3,$4,$5,0*
20,1,$1+$1,$4,$5,$6,$7,0*
20,1,$1+$1,$6,$7,$8,$9,0*
20,1,$1+$1,$8,$9,$2,$3,0*%
%AMFreePoly0*
4,1,21,-0.125000,1.200000,0.125000,1.200000,0.125000,1.700000,0.375000,1.700000,0.375000,1.200000,0.825000,1.200000,0.825000,-1.200000,0.375000,-1.200000,0.375000,-1.700000,0.125000,-1.700000,0.125000,-1.200000,-0.125000,-1.200000,-0.125000,-1.700000,-0.375000,-1.700000,-0.375000,-1.200000,-0.825000,-1.200000,-0.825000,1.200000,-0.375000,1.200000,-0.375000,1.700000,-0.125000,1.700000,
-0.125000,1.200000,-0.125000,1.200000,$1*%
G04 Aperture macros list end*
%ADD10C,0.000000*%
%ADD11C,0.300000*%
%ADD12RoundRect,0.237500X-0.300000X-0.237500X0.300000X-0.237500X0.300000X0.237500X-0.300000X0.237500X0*%
%ADD13RoundRect,0.237500X-0.237500X0.300000X-0.237500X-0.300000X0.237500X-0.300000X0.237500X0.300000X0*%
%ADD14RoundRect,0.200100X0.949900X-0.949900X0.949900X0.949900X-0.949900X0.949900X-0.949900X-0.949900X0*%
%ADD15C,2.500000*%
%ADD16R,1.000000X3.200000*%
%ADD17RoundRect,0.237500X0.287500X0.237500X-0.287500X0.237500X-0.287500X-0.237500X0.287500X-0.237500X0*%
%ADD18RoundRect,0.075000X-0.662500X-0.075000X0.662500X-0.075000X0.662500X0.075000X-0.662500X0.075000X0*%
%ADD19RoundRect,0.075000X-0.075000X-0.662500X0.075000X-0.662500X0.075000X0.662500X-0.075000X0.662500X0*%
%ADD20RoundRect,0.237500X-0.237500X0.287500X-0.237500X-0.287500X0.237500X-0.287500X0.237500X0.287500X0*%
%ADD21RoundRect,0.250000X0.337500X0.475000X-0.337500X0.475000X-0.337500X-0.475000X0.337500X-0.475000X0*%
%ADD22RoundRect,0.155000X0.212500X0.155000X-0.212500X0.155000X-0.212500X-0.155000X0.212500X-0.155000X0*%
%ADD23R,1.000000X0.800000*%
%ADD24C,0.900000*%
%ADD25R,0.700000X1.500000*%
%ADD26RoundRect,0.155000X0.155000X-0.212500X0.155000X0.212500X-0.155000X0.212500X-0.155000X-0.212500X0*%
%ADD27R,0.850000X0.750000*%
%ADD28R,0.600000X0.240000*%
%ADD29FreePoly0,180.000000*%
%ADD30RoundRect,0.237500X0.237500X-0.300000X0.237500X0.300000X-0.237500X0.300000X-0.237500X-0.300000X0*%
%ADD31RoundRect,0.250000X-0.475000X0.337500X-0.475000X-0.337500X0.475000X-0.337500X0.475000X0.337500X0*%
%ADD32RoundRect,0.237500X-0.237500X0.250000X-0.237500X-0.250000X0.237500X-0.250000X0.237500X0.250000X0*%
%ADD33RoundRect,0.155000X-0.155000X0.212500X-0.155000X-0.212500X0.155000X-0.212500X0.155000X0.212500X0*%
%ADD34RoundRect,0.200000X0.200000X0.275000X-0.200000X0.275000X-0.200000X-0.275000X0.200000X-0.275000X0*%
%ADD35R,1.200000X1.500000*%
%ADD36R,1.900000X1.100000*%
%ADD37RoundRect,0.237500X0.237500X-0.250000X0.237500X0.250000X-0.237500X0.250000X-0.237500X-0.250000X0*%
%ADD38R,1.350000X0.400000*%
%ADD39O,1.900000X1.200000*%
%ADD40R,1.900000X1.200000*%
%ADD41C,1.450000*%
%ADD42R,1.900000X1.500000*%
%ADD43RoundRect,0.237500X0.300000X0.237500X-0.300000X0.237500X-0.300000X-0.237500X0.300000X-0.237500X0*%
%ADD44RoundRect,0.237500X0.237500X-0.287500X0.237500X0.287500X-0.237500X0.287500X-0.237500X-0.287500X0*%
%ADD45R,1.000000X0.700000*%
%ADD46R,0.600000X0.700000*%
%ADD47R,0.300000X0.800000*%
%ADD48R,0.800000X0.300000*%
%ADD49R,0.675000X0.675000*%
%ADD50C,0.700000*%
G04 APERTURE END LIST*
D10*
G36*
X98431181Y-79844178D02*
G01*
X98150902Y-80313931D01*
X98091181Y-80464178D01*
X97531181Y-80464178D01*
X96861460Y-80783915D01*
X96511181Y-81354178D01*
X96411181Y-81874178D01*
X96461181Y-82054178D01*
X96091181Y-82324178D01*
X95201181Y-82054178D01*
X95391181Y-81154178D01*
X95941181Y-80254178D01*
X96641181Y-79664178D01*
X97781181Y-79294178D01*
X98091181Y-79194178D01*
X98431181Y-79844178D01*
G37*
G36*
X130050000Y-96905000D02*
G01*
X130050000Y-106845000D01*
X98040000Y-106845000D01*
X98040000Y-105575000D01*
X128850000Y-105575000D01*
X128850000Y-96895000D01*
X130050000Y-96905000D01*
G37*
G36*
X130090000Y-90780000D02*
G01*
X128900000Y-90780000D01*
X128900000Y-80470000D01*
X98090000Y-80470000D01*
X98090000Y-79200000D01*
X130100000Y-79200000D01*
X130090000Y-90780000D01*
G37*
G36*
X96410000Y-103990000D02*
G01*
X95150000Y-103990000D01*
X95150000Y-97460000D01*
X96410000Y-97460000D01*
X96410000Y-103990000D01*
G37*
D11*
X98149721Y-80319753D02*
G75*
G03*
X96316882Y-82050000I-99721J-1730247D01*
G01*
X95307918Y-103810553D02*
G75*
G03*
X98099888Y-106696891I2692082J-189447D01*
G01*
D10*
G36*
X96460000Y-88470000D02*
G01*
X95200000Y-88470000D01*
X95200000Y-82060000D01*
X96460000Y-82060000D01*
X96460000Y-88470000D01*
G37*
D11*
X98149888Y-79353110D02*
G75*
G03*
X95357919Y-82239447I-99888J-2696890D01*
G01*
D10*
G36*
X96412167Y-103992683D02*
G01*
X96362167Y-104172683D01*
X96462167Y-104692683D01*
X96812446Y-105262946D01*
X97482167Y-105582683D01*
X98042167Y-105582683D01*
X98101888Y-105732930D01*
X98382167Y-106202683D01*
X98042167Y-106852683D01*
X97732167Y-106752683D01*
X96592167Y-106382683D01*
X95892167Y-105792683D01*
X95342167Y-104892683D01*
X95152167Y-103992683D01*
X96042167Y-103722683D01*
X96412167Y-103992683D01*
G37*
D11*
X96266882Y-104000000D02*
G75*
G03*
X98099721Y-105730247I1733118J0D01*
G01*
D12*
X156417500Y-101830000D03*
X158142500Y-101830000D03*
D13*
X137617500Y-89741250D03*
X137617500Y-91466250D03*
D14*
X99540000Y-93046250D03*
D15*
X97000000Y-95586250D03*
X102080000Y-95586250D03*
X97000000Y-90506250D03*
X102080000Y-90506250D03*
D16*
X144000000Y-90000000D03*
X144000000Y-83200000D03*
X148000000Y-90000000D03*
X148000000Y-83200000D03*
D17*
X124242500Y-90166250D03*
X122492500Y-90166250D03*
D18*
X158187500Y-92700000D03*
X158187500Y-93200000D03*
X158187500Y-93700000D03*
X158187500Y-94200000D03*
X158187500Y-94700000D03*
X158187500Y-95200000D03*
X158187500Y-95700000D03*
X158187500Y-96200000D03*
X158187500Y-96700000D03*
X158187500Y-97200000D03*
X158187500Y-97700000D03*
X158187500Y-98200000D03*
D19*
X159600000Y-99612500D03*
X160100000Y-99612500D03*
X160600000Y-99612500D03*
X161100000Y-99612500D03*
X161600000Y-99612500D03*
X162100000Y-99612500D03*
X162600000Y-99612500D03*
X163100000Y-99612500D03*
X163600000Y-99612500D03*
X164100000Y-99612500D03*
X164600000Y-99612500D03*
X165100000Y-99612500D03*
D18*
X166512500Y-98200000D03*
X166512500Y-97700000D03*
X166512500Y-97200000D03*
X166512500Y-96700000D03*
X166512500Y-96200000D03*
X166512500Y-95700000D03*
X166512500Y-95200000D03*
X166512500Y-94700000D03*
X166512500Y-94200000D03*
X166512500Y-93700000D03*
X166512500Y-93200000D03*
X166512500Y-92700000D03*
D19*
X165100000Y-91287500D03*
X164600000Y-91287500D03*
X164100000Y-91287500D03*
X163600000Y-91287500D03*
X163100000Y-91287500D03*
X162600000Y-91287500D03*
X162100000Y-91287500D03*
X161600000Y-91287500D03*
X161100000Y-91287500D03*
X160600000Y-91287500D03*
X160100000Y-91287500D03*
X159600000Y-91287500D03*
D20*
X152350000Y-81800000D03*
X152350000Y-83550000D03*
D13*
X172080000Y-98957500D03*
X172080000Y-100682500D03*
D21*
X175227500Y-96360000D03*
X173152500Y-96360000D03*
D13*
X140027500Y-84493750D03*
X140027500Y-86218750D03*
D20*
X126817500Y-89791250D03*
X126817500Y-91541250D03*
D22*
X123485000Y-93066250D03*
X122350000Y-93066250D03*
D17*
X116342500Y-93066250D03*
X114592500Y-93066250D03*
D23*
X167900000Y-82000000D03*
X167900000Y-79790000D03*
D24*
X165750000Y-80890000D03*
X162750000Y-80890000D03*
D23*
X160600000Y-82000000D03*
X160600000Y-79790000D03*
D25*
X166500000Y-82650000D03*
X163500000Y-82650000D03*
X162000000Y-82650000D03*
D26*
X153300000Y-91480000D03*
X153300000Y-90345000D03*
D27*
X133145000Y-98245000D03*
X131795000Y-98245000D03*
X131795000Y-99295000D03*
X133145000Y-99295000D03*
D28*
X176580000Y-104170000D03*
X176580000Y-103670000D03*
X176580000Y-103170000D03*
X176580000Y-102670000D03*
X176580000Y-102170000D03*
X173780000Y-102170000D03*
X173780000Y-102670000D03*
X173780000Y-103170000D03*
X173780000Y-103670000D03*
X173780000Y-104170000D03*
D29*
X175180000Y-103170000D03*
D30*
X139467500Y-95116250D03*
X139467500Y-93391250D03*
D26*
X119067500Y-93033750D03*
X119067500Y-91898750D03*
D31*
X160400000Y-103572500D03*
X160400000Y-105647500D03*
D32*
X137327500Y-84443750D03*
X137327500Y-86268750D03*
D17*
X120792500Y-94766250D03*
X119042500Y-94766250D03*
D20*
X156450000Y-81775000D03*
X156450000Y-83525000D03*
D13*
X139467500Y-89741250D03*
X139467500Y-91466250D03*
D31*
X165030000Y-103562500D03*
X165030000Y-105637500D03*
X171830000Y-103582500D03*
X171830000Y-105657500D03*
D33*
X128567500Y-94648750D03*
X128567500Y-95783750D03*
D31*
X169540000Y-103572500D03*
X169540000Y-105647500D03*
D21*
X147070000Y-92900000D03*
X144995000Y-92900000D03*
D34*
X176605000Y-98970000D03*
X174955000Y-98970000D03*
D33*
X153300000Y-98845000D03*
X153300000Y-99980000D03*
D17*
X125192500Y-94666250D03*
X123442500Y-94666250D03*
D12*
X156410000Y-100070000D03*
X158135000Y-100070000D03*
D35*
X181080000Y-104470000D03*
X181080000Y-101770000D03*
D33*
X127067500Y-94648750D03*
X127067500Y-95783750D03*
D36*
X153300000Y-93412500D03*
X153300000Y-97012500D03*
D17*
X109142500Y-93066250D03*
X107392500Y-93066250D03*
D37*
X152350000Y-87187500D03*
X152350000Y-85362500D03*
D22*
X112335000Y-93066250D03*
X111200000Y-93066250D03*
D38*
X181900000Y-94350000D03*
X181900000Y-93700000D03*
X181900000Y-93050000D03*
X181900000Y-92400000D03*
X181900000Y-91750000D03*
D39*
X184600000Y-96550000D03*
D40*
X184600000Y-95950000D03*
D41*
X181900000Y-95550000D03*
D42*
X184600000Y-94050000D03*
X184600000Y-92050000D03*
D41*
X181900000Y-90550000D03*
D40*
X184600000Y-90150000D03*
D39*
X184600000Y-89550000D03*
D16*
X143930000Y-102660000D03*
X143930000Y-95860000D03*
X147930000Y-102660000D03*
X147930000Y-95860000D03*
D43*
X124230000Y-88416250D03*
X122505000Y-88416250D03*
D31*
X167270000Y-103572500D03*
X167270000Y-105647500D03*
D34*
X163325000Y-87812500D03*
X161675000Y-87812500D03*
D31*
X162690000Y-103572500D03*
X162690000Y-105647500D03*
D26*
X120767500Y-93033750D03*
X120767500Y-91898750D03*
D22*
X120485000Y-96666250D03*
X119350000Y-96666250D03*
D31*
X158080000Y-103572500D03*
X158080000Y-105647500D03*
D22*
X123502500Y-91816250D03*
X122367500Y-91816250D03*
D44*
X137567500Y-95128750D03*
X137567500Y-93378750D03*
D45*
X175000000Y-92300000D03*
D46*
X173300000Y-92300000D03*
X173300000Y-94300000D03*
X175200000Y-94300000D03*
D30*
X107417500Y-90628750D03*
X107417500Y-88903750D03*
D37*
X156450000Y-87262500D03*
X156450000Y-85437500D03*
D26*
X111217500Y-91333750D03*
X111217500Y-90198750D03*
D47*
X131467500Y-94466250D03*
X131967500Y-94466250D03*
X132467500Y-94466250D03*
X132967500Y-94466250D03*
X133467500Y-94466250D03*
X133967500Y-94466250D03*
D48*
X134717500Y-93716250D03*
X134717500Y-93216250D03*
X134717500Y-92716250D03*
X134717500Y-92216250D03*
X134717500Y-91716250D03*
X134717500Y-91216250D03*
D47*
X133967500Y-90466250D03*
X133467500Y-90466250D03*
X132967500Y-90466250D03*
X132467500Y-90466250D03*
X131967500Y-90466250D03*
X131467500Y-90466250D03*
D48*
X130717500Y-91216250D03*
X130717500Y-91716250D03*
X130717500Y-92216250D03*
X130717500Y-92716250D03*
X130717500Y-93216250D03*
X130717500Y-93716250D03*
D49*
X131705000Y-93478750D03*
X132380000Y-93478750D03*
X133055000Y-93478750D03*
X133730000Y-93478750D03*
D50*
X132042500Y-93141250D03*
X133392500Y-93141250D03*
D49*
X131705000Y-92803750D03*
X132380000Y-92803750D03*
X133055000Y-92803750D03*
X133730000Y-92803750D03*
X131705000Y-92128750D03*
X132380000Y-92128750D03*
X133055000Y-92128750D03*
X133730000Y-92128750D03*
D50*
X132042500Y-91791250D03*
X133392500Y-91791250D03*
D49*
X131705000Y-91453750D03*
X132380000Y-91453750D03*
X133055000Y-91453750D03*
X133730000Y-91453750D03*
M02*
