M48
; DRILL file {KiCad 7.0.9-1.fc38} date Wed 15 Nov 2023 09:02:18 EET
; FORMAT={-:-/ absolute / metric / decimal}
; #@! TF.CreationDate,2023-11-15T09:02:18+02:00
; #@! TF.GenerationSoftware,Kicad,Pcbnew,7.0.9-1.fc38
; #@! TF.FileFunction,Plated,1,4,PTH
FMAT,2
METRIC
; #@! TA.AperFunction,Plated,PTH,ComponentDrill
T1C0.200
; #@! TA.AperFunction,Plated,PTH,ViaDrill
T2C0.300
; #@! TA.AperFunction,Plated,PTH,ComponentDrill
T3C0.300
; #@! TA.AperFunction,Plated,PTH,ViaDrill
T4C0.400
; #@! TA.AperFunction,Plated,PTH,ComponentDrill
T5C0.600
; #@! TA.AperFunction,Plated,PTH,ComponentDrill
T6C0.850
; #@! TA.AperFunction,Plated,PTH,ComponentDrill
T7C1.500
; #@! TA.AperFunction,Plated,PTH,ComponentDrill
T8C1.700
%
G90
G05
T1
X174.605Y-103.17
X175.18Y-102.22
X175.18Y-104.12
X175.755Y-103.17
T2
X108.73Y-88.91
X111.22Y-88.97
X119.88Y-90.89
X122.53Y-87.23
X127.83Y-96.77
X130.77Y-89.81
X130.794Y-94.65
X131.33Y-89.07
X131.41Y-95.65
X131.86Y-87.63
X132.09Y-97.11
X132.93Y-87.93
X134.17Y-95.47
X135.22Y-89.45
X136.26Y-89.77
X136.395Y-90.599
X138.41Y-83.33
X138.59Y-88.62
X139.36Y-83.32
X140.67Y-90.81
X140.693Y-93.457
X142.83Y-92.95
X152.21Y-99.99
X152.32Y-90.31
X159.12Y-100.81
X159.18Y-90.04
X159.24Y-104.58
X159.81Y-96.02
X160.19Y-89.82
X161.04Y-100.96
X161.52Y-104.58
X161.61Y-84.01
X161.75Y-101.62
X162.61Y-102.06
X163.88Y-104.61
X163.89Y-102.41
X164.73Y-101.6
X166.19Y-104.63
X166.48Y-84.01
X167.1Y-91.59
X167.84Y-93.18
X168.42Y-104.61
X168.49Y-99.01
X168.93Y-100.74
X168.96Y-98.23
X169.41Y-97.34
X169.94Y-96.44
X170.72Y-104.58
X171.66Y-96.63
X174.99Y-91.21
X177.62Y-104.55
T3
X132.042Y-91.791
X132.042Y-93.141
X133.392Y-91.791
X133.392Y-93.141
T4
X95.76Y-98.24
X95.76Y-100.64
X95.76Y-103.19
X95.78Y-85.24
X95.8Y-82.75
X95.82Y-87.74
X96.51Y-80.44
X96.51Y-105.62
X98.72Y-106.22
X98.75Y-79.84
X102.55Y-106.22
X102.584Y-79.84
X106.38Y-106.22
X106.417Y-79.84
X110.21Y-106.22
X110.251Y-79.84
X114.04Y-106.22
X114.085Y-79.84
X117.87Y-106.22
X117.919Y-79.84
X121.7Y-106.22
X121.752Y-79.84
X125.53Y-106.22
X125.586Y-79.84
X129.36Y-106.22
X129.42Y-79.84
X129.44Y-100.6
X129.48Y-97.76
X129.48Y-103.3
X129.51Y-83.06
X129.51Y-86.53
X129.52Y-90.0
X143.98Y-98.88
X147.94Y-86.58
X154.44Y-81.77
X157.09Y-98.94
T6
X181.9Y-90.55
X181.9Y-95.55
T7
X99.54Y-93.046
T8
X97.0Y-90.506
X97.0Y-95.586
X102.08Y-90.506
X102.08Y-95.586
T5
X184.25Y-89.55G85X184.95Y-89.55
G05
X184.95Y-96.55G85X184.25Y-96.55
G05
T0
M30
