G04 #@! TF.GenerationSoftware,KiCad,Pcbnew,7.0.9-1.fc38*
G04 #@! TF.CreationDate,2023-11-15T09:02:08+02:00*
G04 #@! TF.ProjectId,transceiver_board,7472616e-7363-4656-9976-65725f626f61,rev?*
G04 #@! TF.SameCoordinates,Original*
G04 #@! TF.FileFunction,Copper,L4,Bot*
G04 #@! TF.FilePolarity,Positive*
%FSLAX46Y46*%
G04 Gerber Fmt 4.6, Leading zero omitted, Abs format (unit mm)*
G04 Created by KiCad (PCBNEW 7.0.9-1.fc38) date 2023-11-15 09:02:08*
%MOMM*%
%LPD*%
G01*
G04 APERTURE LIST*
G04 Aperture macros list*
%AMRoundRect*
0 Rectangle with rounded corners*
0 $1 Rounding radius*
0 $2 $3 $4 $5 $6 $7 $8 $9 X,Y pos of 4 corners*
0 Add a 4 corners polygon primitive as box body*
4,1,4,$2,$3,$4,$5,$6,$7,$8,$9,$2,$3,0*
0 Add four circle primitives for the rounded corners*
1,1,$1+$1,$2,$3*
1,1,$1+$1,$4,$5*
1,1,$1+$1,$6,$7*
1,1,$1+$1,$8,$9*
0 Add four rect primitives between the rounded corners*
20,1,$1+$1,$2,$3,$4,$5,0*
20,1,$1+$1,$4,$5,$6,$7,0*
20,1,$1+$1,$6,$7,$8,$9,0*
20,1,$1+$1,$8,$9,$2,$3,0*%
G04 Aperture macros list end*
G04 #@! TA.AperFunction,ComponentPad*
%ADD10RoundRect,0.200100X0.949900X-0.949900X0.949900X0.949900X-0.949900X0.949900X-0.949900X-0.949900X0*%
G04 #@! TD*
G04 #@! TA.AperFunction,ComponentPad*
%ADD11C,2.500000*%
G04 #@! TD*
G04 #@! TA.AperFunction,ComponentPad*
%ADD12C,0.500000*%
G04 #@! TD*
G04 #@! TA.AperFunction,ComponentPad*
%ADD13O,1.900000X1.200000*%
G04 #@! TD*
G04 #@! TA.AperFunction,ComponentPad*
%ADD14C,1.450000*%
G04 #@! TD*
G04 #@! TA.AperFunction,ComponentPad*
%ADD15C,0.700000*%
G04 #@! TD*
G04 #@! TA.AperFunction,ViaPad*
%ADD16C,0.800000*%
G04 #@! TD*
G04 #@! TA.AperFunction,ViaPad*
%ADD17C,0.700000*%
G04 #@! TD*
G04 #@! TA.AperFunction,Conductor*
%ADD18C,0.200000*%
G04 #@! TD*
G04 APERTURE END LIST*
D10*
X99540000Y-93046250D03*
D11*
X97000000Y-95586250D03*
X102080000Y-95586250D03*
X97000000Y-90506250D03*
X102080000Y-90506250D03*
D12*
X175755000Y-103170000D03*
X175180000Y-104120000D03*
X175180000Y-102220000D03*
X174605000Y-103170000D03*
D13*
X184600000Y-96550000D03*
D14*
X181900000Y-95550000D03*
X181900000Y-90550000D03*
D13*
X184600000Y-89550000D03*
D15*
X132042500Y-93141250D03*
X133392500Y-93141250D03*
X132042500Y-91791250D03*
X133392500Y-91791250D03*
D16*
X125530000Y-106220000D03*
X106380000Y-106220000D03*
D17*
X174990000Y-91210000D03*
D16*
X129440000Y-100600000D03*
D17*
X127830000Y-96770000D03*
D16*
X110210000Y-106220000D03*
X117870000Y-106220000D03*
X129520000Y-90000000D03*
D17*
X166480000Y-84010000D03*
X160190000Y-89820000D03*
D16*
X147940000Y-86580000D03*
D17*
X122530000Y-87230000D03*
D16*
X129480000Y-97760000D03*
X98720000Y-106220000D03*
X121752500Y-79840000D03*
X129480000Y-103300000D03*
D17*
X130793933Y-94650000D03*
X161520000Y-104580000D03*
D16*
X95800000Y-82750000D03*
X96510000Y-105620000D03*
X121700000Y-106220000D03*
D17*
X119880000Y-90890000D03*
D16*
X154440000Y-81770000D03*
D17*
X171660000Y-96630000D03*
D16*
X129510000Y-83060000D03*
X102550000Y-106220000D03*
X106417500Y-79840000D03*
X125586250Y-79840000D03*
D17*
X164730000Y-101600000D03*
D16*
X143980000Y-98880000D03*
X95820000Y-87740000D03*
D17*
X159120000Y-100810000D03*
D16*
X117918750Y-79840000D03*
X110251250Y-79840000D03*
D17*
X132090000Y-97110000D03*
X152320000Y-90310000D03*
D16*
X129510000Y-86530000D03*
D17*
X168420000Y-104610000D03*
X140693160Y-93456840D03*
X138590000Y-88620000D03*
X159240000Y-104580000D03*
D16*
X129360000Y-106220000D03*
X129420000Y-79840000D03*
D17*
X108730000Y-88910000D03*
X142830000Y-92950000D03*
D16*
X95760000Y-103190000D03*
D17*
X159810000Y-96020000D03*
X167840000Y-93180000D03*
D16*
X95760000Y-100640000D03*
D17*
X152210000Y-99990000D03*
D16*
X114085000Y-79840000D03*
X102583750Y-79840000D03*
D17*
X111220000Y-88970000D03*
X170720000Y-104580000D03*
D16*
X98750000Y-79840000D03*
X114040000Y-106220000D03*
X95760000Y-98240000D03*
D17*
X168930000Y-100740000D03*
X163880000Y-104610000D03*
D16*
X96510000Y-80440000D03*
D17*
X166190000Y-104630000D03*
X139360000Y-83320000D03*
D16*
X95780000Y-85240000D03*
D17*
X167100000Y-91590000D03*
X161610000Y-84010000D03*
X131410000Y-95650000D03*
X177620000Y-104550000D03*
X138410000Y-83330000D03*
X140670000Y-90810000D03*
D16*
X157090000Y-98940000D03*
D17*
X159180000Y-90040000D03*
X163890000Y-102410000D03*
X134170000Y-95470000D03*
X161040000Y-100960000D03*
X136395051Y-90598569D03*
X136260000Y-89770000D03*
X161750000Y-101620000D03*
X162610000Y-102060000D03*
X135220000Y-89450000D03*
X132930000Y-87930000D03*
X169410000Y-97340000D03*
X131860000Y-87630000D03*
X169940000Y-96440000D03*
X131330000Y-89070000D03*
X168960000Y-98230000D03*
X168490000Y-99010000D03*
X130770000Y-89810000D03*
D18*
X168960000Y-98230000D02*
X168180000Y-97450000D01*
X133302965Y-88840000D02*
X131560000Y-88840000D01*
X168180000Y-97450000D02*
X147230000Y-97450000D01*
X147230000Y-97450000D02*
X147210000Y-97470000D01*
X147210000Y-97470000D02*
X146390000Y-97470000D01*
X146390000Y-97470000D02*
X137110000Y-88190000D01*
X137110000Y-88190000D02*
X133952965Y-88190000D01*
X133952965Y-88190000D02*
X133302965Y-88840000D01*
X131560000Y-88840000D02*
X131330000Y-89070000D01*
X138550000Y-87690000D02*
X147640000Y-96780000D01*
X132930000Y-87930000D02*
X133170000Y-87690000D01*
X133170000Y-87690000D02*
X138550000Y-87690000D01*
X147640000Y-96780000D02*
X168318740Y-96780000D01*
X168318740Y-96780000D02*
X168878740Y-97340000D01*
X168878740Y-97340000D02*
X169410000Y-97340000D01*
X169940000Y-96440000D02*
X168890000Y-95390000D01*
X147970000Y-95390000D02*
X139650000Y-87070000D01*
X132420000Y-87070000D02*
X131860000Y-87630000D01*
X168890000Y-95390000D02*
X147970000Y-95390000D01*
X139650000Y-87070000D02*
X132420000Y-87070000D01*
X146280000Y-98210000D02*
X136860000Y-88790000D01*
X136860000Y-88790000D02*
X134140000Y-88790000D01*
X131010000Y-90050000D02*
X130770000Y-89810000D01*
X167690000Y-98210000D02*
X146280000Y-98210000D01*
X168490000Y-99010000D02*
X167690000Y-98210000D01*
X134140000Y-88790000D02*
X132880000Y-90050000D01*
X132880000Y-90050000D02*
X131010000Y-90050000D01*
X136395051Y-90598569D02*
X136603666Y-90598569D01*
X136603666Y-90598569D02*
X147495097Y-101490000D01*
X147495097Y-101490000D02*
X160510000Y-101490000D01*
X160510000Y-101490000D02*
X161040000Y-100960000D01*
X135220000Y-92000000D02*
X145940000Y-102720000D01*
X135220000Y-89450000D02*
X135220000Y-92000000D01*
X145940000Y-102720000D02*
X161950000Y-102720000D01*
X161950000Y-102720000D02*
X162610000Y-102060000D01*
X135730000Y-90300000D02*
X135730000Y-91535097D01*
X161310000Y-102060000D02*
X161750000Y-101620000D01*
X146254903Y-102060000D02*
X161310000Y-102060000D01*
X136260000Y-89770000D02*
X135730000Y-90300000D01*
X135730000Y-91535097D02*
X146254903Y-102060000D01*
X163890000Y-102410000D02*
X162880000Y-103420000D01*
X162880000Y-103420000D02*
X142120000Y-103420000D01*
X142120000Y-103420000D02*
X134170000Y-95470000D01*
G04 #@! TA.AperFunction,Conductor*
G36*
X136161540Y-91031559D02*
G01*
X136189196Y-91049333D01*
X136324525Y-91089068D01*
X136324527Y-91089069D01*
X136324528Y-91089069D01*
X136465575Y-91089069D01*
X136465575Y-91089068D01*
X136517115Y-91073935D01*
X136609417Y-91046834D01*
X136609817Y-91048197D01*
X136669597Y-91039599D01*
X136733154Y-91068622D01*
X136739636Y-91074657D01*
X147272798Y-101607819D01*
X147306283Y-101669142D01*
X147301299Y-101738834D01*
X147259427Y-101794767D01*
X147193963Y-101819184D01*
X147185117Y-101819500D01*
X146405884Y-101819500D01*
X146338845Y-101799815D01*
X146318203Y-101783181D01*
X136006819Y-91471797D01*
X135973334Y-91410474D01*
X135970500Y-91384116D01*
X135970500Y-91135874D01*
X135990185Y-91068835D01*
X136042989Y-91023080D01*
X136112147Y-91013136D01*
X136161540Y-91031559D01*
G37*
G04 #@! TD.AperFunction*
G04 #@! TA.AperFunction,Conductor*
G36*
X141361366Y-90841484D02*
G01*
X147464351Y-96944469D01*
X147466567Y-96946805D01*
X147495479Y-96978915D01*
X147495481Y-96978915D01*
X147495482Y-96978917D01*
X147504107Y-96985184D01*
X147546772Y-97040515D01*
X147552748Y-97110129D01*
X147520141Y-97171923D01*
X147459301Y-97206278D01*
X147431219Y-97209500D01*
X147237917Y-97209500D01*
X147234671Y-97209415D01*
X147191538Y-97207154D01*
X147191535Y-97207154D01*
X147170590Y-97215194D01*
X147151943Y-97220717D01*
X147123382Y-97226789D01*
X147097596Y-97229500D01*
X146540981Y-97229500D01*
X146473942Y-97209815D01*
X146453300Y-97193181D01*
X143602416Y-94342297D01*
X140749230Y-91489112D01*
X140715746Y-91427790D01*
X140720730Y-91358098D01*
X140762602Y-91302165D01*
X140801973Y-91282456D01*
X140875856Y-91260763D01*
X140994512Y-91184507D01*
X141086878Y-91077911D01*
X141145471Y-90949611D01*
X141150947Y-90911519D01*
X141179970Y-90847964D01*
X141238748Y-90810189D01*
X141308617Y-90810187D01*
X141361366Y-90841484D01*
G37*
G04 #@! TD.AperFunction*
G04 #@! TA.AperFunction,Conductor*
G36*
X139566059Y-87330185D02*
G01*
X139586700Y-87346818D01*
X143709684Y-91469803D01*
X147794342Y-95554461D01*
X147796577Y-95556816D01*
X147825479Y-95588915D01*
X147845972Y-95598039D01*
X147863065Y-95607319D01*
X147881888Y-95619543D01*
X147884974Y-95620031D01*
X147916020Y-95629226D01*
X147918880Y-95630500D01*
X147941315Y-95630500D01*
X147960711Y-95632026D01*
X147982868Y-95635536D01*
X147985895Y-95634724D01*
X148017987Y-95630500D01*
X168739020Y-95630500D01*
X168806059Y-95650185D01*
X168826701Y-95666819D01*
X169420103Y-96260221D01*
X169453588Y-96321544D01*
X169455160Y-96365548D01*
X169444456Y-96439999D01*
X169464528Y-96579606D01*
X169464530Y-96579614D01*
X169507630Y-96673989D01*
X169517574Y-96743147D01*
X169488549Y-96806703D01*
X169429771Y-96844477D01*
X169394836Y-96849500D01*
X169339474Y-96849500D01*
X169204146Y-96889235D01*
X169204145Y-96889235D01*
X169085489Y-96965491D01*
X169085488Y-96965493D01*
X169060758Y-96994032D01*
X169001979Y-97031805D01*
X168932110Y-97031803D01*
X168879367Y-97000509D01*
X168494404Y-96615546D01*
X168492170Y-96613192D01*
X168463261Y-96581084D01*
X168463259Y-96581083D01*
X168442763Y-96571958D01*
X168425664Y-96562674D01*
X168406853Y-96550458D01*
X168403756Y-96549967D01*
X168372720Y-96540773D01*
X168369862Y-96539500D01*
X168369860Y-96539500D01*
X168347425Y-96539500D01*
X168328027Y-96537973D01*
X168305872Y-96534463D01*
X168305871Y-96534463D01*
X168302845Y-96535275D01*
X168270752Y-96539500D01*
X147790980Y-96539500D01*
X147723941Y-96519815D01*
X147703299Y-96503181D01*
X138725664Y-87525546D01*
X138723427Y-87523189D01*
X138718276Y-87517467D01*
X138688049Y-87454474D01*
X138696678Y-87385139D01*
X138741422Y-87331476D01*
X138808076Y-87310522D01*
X138810430Y-87310500D01*
X139499020Y-87310500D01*
X139566059Y-87330185D01*
G37*
G04 #@! TD.AperFunction*
G04 #@! TA.AperFunction,Conductor*
G36*
X138466059Y-87950185D02*
G01*
X138486701Y-87966819D01*
X140637149Y-90117267D01*
X140670634Y-90178590D01*
X140665650Y-90248282D01*
X140623778Y-90304215D01*
X140584403Y-90323925D01*
X140464145Y-90359236D01*
X140345489Y-90435491D01*
X140253122Y-90542089D01*
X140253119Y-90542092D01*
X140194527Y-90670392D01*
X140193476Y-90673972D01*
X140191461Y-90677105D01*
X140190845Y-90678456D01*
X140190650Y-90678367D01*
X140155694Y-90732746D01*
X140092135Y-90761763D01*
X140022978Y-90751811D01*
X139986822Y-90726704D01*
X137402299Y-88142181D01*
X137368814Y-88080858D01*
X137373798Y-88011166D01*
X137415670Y-87955233D01*
X137481134Y-87930816D01*
X137489980Y-87930500D01*
X138399020Y-87930500D01*
X138466059Y-87950185D01*
G37*
G04 #@! TD.AperFunction*
G04 #@! TA.AperFunction,Conductor*
G36*
X183001619Y-79000584D02*
G01*
X183133628Y-79007503D01*
X183317027Y-79017803D01*
X183323212Y-79018465D01*
X183475647Y-79042608D01*
X183638194Y-79070226D01*
X183643811Y-79071453D01*
X183796693Y-79112418D01*
X183889122Y-79139046D01*
X183951724Y-79157082D01*
X183956759Y-79158769D01*
X184106183Y-79216127D01*
X184254007Y-79277358D01*
X184258412Y-79279388D01*
X184324180Y-79312899D01*
X184401921Y-79352511D01*
X184477428Y-79394241D01*
X184541480Y-79429641D01*
X184545215Y-79431882D01*
X184619487Y-79480115D01*
X184680872Y-79519980D01*
X184768357Y-79582053D01*
X184810764Y-79612142D01*
X184813886Y-79614510D01*
X184938748Y-79715621D01*
X184941034Y-79717567D01*
X185058721Y-79822738D01*
X185061248Y-79825128D01*
X185174870Y-79938750D01*
X185177260Y-79941277D01*
X185282431Y-80058964D01*
X185284385Y-80061260D01*
X185385480Y-80186102D01*
X185387862Y-80189243D01*
X185480019Y-80319127D01*
X185533758Y-80401875D01*
X185568106Y-80454767D01*
X185570364Y-80458531D01*
X185647488Y-80598078D01*
X185720604Y-80741575D01*
X185722643Y-80745997D01*
X185783877Y-80893829D01*
X185841221Y-81043217D01*
X185842916Y-81048273D01*
X185887579Y-81203297D01*
X185928541Y-81356171D01*
X185929778Y-81361835D01*
X185957394Y-81524369D01*
X185981530Y-81676758D01*
X185982196Y-81682985D01*
X185992509Y-81866617D01*
X185999415Y-81998377D01*
X185999500Y-82001623D01*
X185999500Y-88741342D01*
X185979815Y-88808381D01*
X185927011Y-88854136D01*
X185857853Y-88864080D01*
X185794297Y-88835055D01*
X185789532Y-88830292D01*
X185789381Y-88830452D01*
X185633067Y-88681407D01*
X185456342Y-88567833D01*
X185261314Y-88489755D01*
X185055038Y-88450000D01*
X184850000Y-88450000D01*
X184850000Y-89250000D01*
X184350000Y-89250000D01*
X184350000Y-88450000D01*
X184197602Y-88450000D01*
X184040877Y-88464965D01*
X184040873Y-88464966D01*
X183839313Y-88524149D01*
X183652585Y-88620413D01*
X183487462Y-88750268D01*
X183487459Y-88750271D01*
X183349894Y-88909030D01*
X183349885Y-88909041D01*
X183244855Y-89090960D01*
X183244852Y-89090967D01*
X183176144Y-89289482D01*
X183176144Y-89289484D01*
X183174632Y-89300000D01*
X184083889Y-89300000D01*
X184044390Y-89324457D01*
X183976799Y-89413962D01*
X183946105Y-89521840D01*
X183956454Y-89633521D01*
X184006448Y-89733922D01*
X184078931Y-89800000D01*
X183178742Y-89800000D01*
X183187277Y-89835181D01*
X183183952Y-89904971D01*
X183143424Y-89961885D01*
X183078559Y-89987853D01*
X183009952Y-89974631D01*
X182965197Y-89935538D01*
X182925173Y-89878378D01*
X182319804Y-90483747D01*
X182309238Y-90417031D01*
X182248118Y-90297077D01*
X182152923Y-90201882D01*
X182032969Y-90140762D01*
X181966251Y-90130195D01*
X182571620Y-89524825D01*
X182514839Y-89485067D01*
X182320576Y-89394481D01*
X182320567Y-89394477D01*
X182113537Y-89339004D01*
X182113527Y-89339002D01*
X181900001Y-89320321D01*
X181899999Y-89320321D01*
X181686472Y-89339002D01*
X181686462Y-89339004D01*
X181479432Y-89394477D01*
X181479423Y-89394481D01*
X181285158Y-89485068D01*
X181228378Y-89524824D01*
X181833748Y-90130194D01*
X181767031Y-90140762D01*
X181647077Y-90201882D01*
X181551882Y-90297077D01*
X181490762Y-90417031D01*
X181480195Y-90483749D01*
X180874824Y-89878378D01*
X180835068Y-89935158D01*
X180744481Y-90129423D01*
X180744477Y-90129432D01*
X180689004Y-90336462D01*
X180689002Y-90336472D01*
X180670321Y-90549999D01*
X180670321Y-90550000D01*
X180689002Y-90763527D01*
X180689004Y-90763537D01*
X180744477Y-90970567D01*
X180744481Y-90970576D01*
X180835067Y-91164839D01*
X180874825Y-91221620D01*
X181480195Y-90616250D01*
X181490762Y-90682969D01*
X181551882Y-90802923D01*
X181647077Y-90898118D01*
X181767031Y-90959238D01*
X181833747Y-90969804D01*
X181228378Y-91575173D01*
X181285160Y-91614933D01*
X181479423Y-91705518D01*
X181479432Y-91705522D01*
X181686462Y-91760995D01*
X181686472Y-91760997D01*
X181899999Y-91779679D01*
X181900001Y-91779679D01*
X182113527Y-91760997D01*
X182113537Y-91760995D01*
X182320567Y-91705522D01*
X182320581Y-91705517D01*
X182514835Y-91614935D01*
X182571620Y-91575173D01*
X181966252Y-90969804D01*
X182032969Y-90959238D01*
X182152923Y-90898118D01*
X182248118Y-90802923D01*
X182309238Y-90682969D01*
X182319804Y-90616251D01*
X182925173Y-91221619D01*
X182964935Y-91164835D01*
X183055517Y-90970581D01*
X183055522Y-90970567D01*
X183110995Y-90763537D01*
X183110997Y-90763527D01*
X183129679Y-90550000D01*
X183129679Y-90549999D01*
X183110997Y-90336472D01*
X183110995Y-90336462D01*
X183078545Y-90215355D01*
X183080208Y-90145505D01*
X183119371Y-90087643D01*
X183183599Y-90060139D01*
X183252501Y-90071726D01*
X183299327Y-90111335D01*
X183414889Y-90273619D01*
X183414895Y-90273625D01*
X183566932Y-90418592D01*
X183743657Y-90532166D01*
X183938685Y-90610244D01*
X184144962Y-90650000D01*
X184350000Y-90650000D01*
X184350000Y-89850000D01*
X184850000Y-89850000D01*
X184850000Y-90650000D01*
X185002398Y-90650000D01*
X185159122Y-90635034D01*
X185159126Y-90635033D01*
X185360686Y-90575850D01*
X185547414Y-90479586D01*
X185712537Y-90349731D01*
X185712545Y-90349723D01*
X185781787Y-90269814D01*
X185840565Y-90232039D01*
X185910434Y-90232039D01*
X185969213Y-90269813D01*
X185998238Y-90333368D01*
X185999500Y-90351016D01*
X185999500Y-95741342D01*
X185979815Y-95808381D01*
X185927011Y-95854136D01*
X185857853Y-95864080D01*
X185794297Y-95835055D01*
X185789532Y-95830292D01*
X185789381Y-95830452D01*
X185633067Y-95681407D01*
X185456342Y-95567833D01*
X185261314Y-95489755D01*
X185055038Y-95450000D01*
X184850000Y-95450000D01*
X184850000Y-96250000D01*
X184350000Y-96250000D01*
X184350000Y-95450000D01*
X184197602Y-95450000D01*
X184040877Y-95464965D01*
X184040873Y-95464966D01*
X183839313Y-95524149D01*
X183652585Y-95620413D01*
X183487462Y-95750268D01*
X183487459Y-95750271D01*
X183349894Y-95909030D01*
X183349885Y-95909042D01*
X183302295Y-95991471D01*
X183251728Y-96039687D01*
X183183121Y-96052909D01*
X183118256Y-96026941D01*
X183077728Y-95970027D01*
X183074403Y-95900236D01*
X183075133Y-95897377D01*
X183110996Y-95763534D01*
X183110997Y-95763527D01*
X183129679Y-95550000D01*
X183129679Y-95549999D01*
X183110997Y-95336472D01*
X183110995Y-95336462D01*
X183055522Y-95129432D01*
X183055518Y-95129423D01*
X182964933Y-94935162D01*
X182925173Y-94878378D01*
X182319804Y-95483747D01*
X182309238Y-95417031D01*
X182248118Y-95297077D01*
X182152923Y-95201882D01*
X182032969Y-95140762D01*
X181966251Y-95130195D01*
X182571620Y-94524825D01*
X182514839Y-94485067D01*
X182320576Y-94394481D01*
X182320567Y-94394477D01*
X182113537Y-94339004D01*
X182113527Y-94339002D01*
X181900001Y-94320321D01*
X181899999Y-94320321D01*
X181686472Y-94339002D01*
X181686462Y-94339004D01*
X181479432Y-94394477D01*
X181479423Y-94394481D01*
X181285158Y-94485068D01*
X181228378Y-94524824D01*
X181833748Y-95130194D01*
X181767031Y-95140762D01*
X181647077Y-95201882D01*
X181551882Y-95297077D01*
X181490762Y-95417031D01*
X181480195Y-95483749D01*
X180874824Y-94878378D01*
X180835068Y-94935158D01*
X180744481Y-95129423D01*
X180744477Y-95129432D01*
X180689004Y-95336462D01*
X180689002Y-95336472D01*
X180670321Y-95549999D01*
X180670321Y-95550000D01*
X180689002Y-95763527D01*
X180689004Y-95763537D01*
X180744477Y-95970567D01*
X180744481Y-95970576D01*
X180835067Y-96164839D01*
X180874825Y-96221620D01*
X181480195Y-95616250D01*
X181490762Y-95682969D01*
X181551882Y-95802923D01*
X181647077Y-95898118D01*
X181767031Y-95959238D01*
X181833747Y-95969804D01*
X181228378Y-96575173D01*
X181285160Y-96614933D01*
X181479423Y-96705518D01*
X181479432Y-96705522D01*
X181686462Y-96760995D01*
X181686472Y-96760997D01*
X181899999Y-96779679D01*
X181900001Y-96779679D01*
X182113527Y-96760997D01*
X182113537Y-96760995D01*
X182320567Y-96705522D01*
X182320581Y-96705517D01*
X182514835Y-96614935D01*
X182571620Y-96575173D01*
X181966252Y-95969804D01*
X182032969Y-95959238D01*
X182152923Y-95898118D01*
X182248118Y-95802923D01*
X182309238Y-95682969D01*
X182319804Y-95616251D01*
X182925173Y-96221619D01*
X182958888Y-96173470D01*
X183013466Y-96129845D01*
X183082964Y-96122653D01*
X183145319Y-96154175D01*
X183180732Y-96214405D01*
X183177961Y-96284220D01*
X183177647Y-96285140D01*
X183176145Y-96289478D01*
X183176144Y-96289484D01*
X183174632Y-96300000D01*
X184083889Y-96300000D01*
X184044390Y-96324457D01*
X183976799Y-96413962D01*
X183946105Y-96521840D01*
X183956454Y-96633521D01*
X184006448Y-96733922D01*
X184078931Y-96800000D01*
X183178742Y-96800000D01*
X183205770Y-96911409D01*
X183293040Y-97102507D01*
X183414889Y-97273619D01*
X183414895Y-97273625D01*
X183566932Y-97418592D01*
X183743657Y-97532166D01*
X183938685Y-97610244D01*
X184144962Y-97650000D01*
X184350000Y-97650000D01*
X184350000Y-96850000D01*
X184850000Y-96850000D01*
X184850000Y-97650000D01*
X185002398Y-97650000D01*
X185159122Y-97635034D01*
X185159126Y-97635033D01*
X185360686Y-97575850D01*
X185547414Y-97479586D01*
X185712537Y-97349731D01*
X185712545Y-97349723D01*
X185781787Y-97269814D01*
X185840565Y-97232039D01*
X185910434Y-97232039D01*
X185969213Y-97269813D01*
X185998238Y-97333368D01*
X185999500Y-97351016D01*
X185999500Y-103998376D01*
X185999415Y-104001622D01*
X185992509Y-104133382D01*
X185982196Y-104317013D01*
X185981530Y-104323240D01*
X185957394Y-104475630D01*
X185929778Y-104638163D01*
X185928541Y-104643827D01*
X185887579Y-104796702D01*
X185842916Y-104951725D01*
X185841221Y-104956781D01*
X185783877Y-105106170D01*
X185722643Y-105254001D01*
X185720604Y-105258423D01*
X185647488Y-105401921D01*
X185570364Y-105541467D01*
X185568097Y-105545246D01*
X185480019Y-105680872D01*
X185387862Y-105810755D01*
X185385480Y-105813896D01*
X185284385Y-105938738D01*
X185282431Y-105941034D01*
X185177260Y-106058721D01*
X185174870Y-106061248D01*
X185061248Y-106174870D01*
X185058721Y-106177260D01*
X184941034Y-106282431D01*
X184938738Y-106284385D01*
X184813896Y-106385480D01*
X184810755Y-106387862D01*
X184680872Y-106480019D01*
X184545246Y-106568097D01*
X184541467Y-106570364D01*
X184401921Y-106647488D01*
X184258423Y-106720604D01*
X184254001Y-106722643D01*
X184106170Y-106783877D01*
X183956781Y-106841221D01*
X183951725Y-106842916D01*
X183796702Y-106887579D01*
X183643827Y-106928541D01*
X183638163Y-106929778D01*
X183475630Y-106957394D01*
X183323238Y-106981530D01*
X183317012Y-106982196D01*
X183133189Y-106992519D01*
X183053742Y-106996683D01*
X183050428Y-106996768D01*
X97276369Y-106902820D01*
X97244413Y-106898595D01*
X97203324Y-106887586D01*
X97048280Y-106842918D01*
X97043223Y-106841223D01*
X96893829Y-106783877D01*
X96745997Y-106722643D01*
X96741575Y-106720604D01*
X96598078Y-106647488D01*
X96458531Y-106570364D01*
X96454767Y-106568106D01*
X96401875Y-106533758D01*
X96319127Y-106480019D01*
X96189243Y-106387862D01*
X96186102Y-106385480D01*
X96061260Y-106284385D01*
X96058964Y-106282431D01*
X95941277Y-106177260D01*
X95938750Y-106174870D01*
X95825128Y-106061248D01*
X95822738Y-106058721D01*
X95717567Y-105941034D01*
X95715613Y-105938738D01*
X95676848Y-105890867D01*
X95614510Y-105813886D01*
X95612136Y-105810755D01*
X95519980Y-105680872D01*
X95487406Y-105630715D01*
X95431882Y-105545215D01*
X95429641Y-105541480D01*
X95394241Y-105477428D01*
X95352511Y-105401921D01*
X95312899Y-105324180D01*
X95279388Y-105258412D01*
X95277358Y-105254007D01*
X95216122Y-105106170D01*
X95158769Y-104956759D01*
X95157082Y-104951724D01*
X95118530Y-104817910D01*
X95113447Y-104800266D01*
X174853285Y-104800266D01*
X175012056Y-104855824D01*
X175179996Y-104874746D01*
X175180004Y-104874746D01*
X175347943Y-104855824D01*
X175506713Y-104800267D01*
X175506714Y-104800266D01*
X175256448Y-104550000D01*
X177124456Y-104550000D01*
X177144528Y-104689606D01*
X177144530Y-104689614D01*
X177203119Y-104817907D01*
X177203121Y-104817909D01*
X177203122Y-104817911D01*
X177295488Y-104924507D01*
X177295490Y-104924508D01*
X177295489Y-104924508D01*
X177414145Y-105000764D01*
X177549474Y-105040499D01*
X177549476Y-105040500D01*
X177549477Y-105040500D01*
X177690524Y-105040500D01*
X177690524Y-105040499D01*
X177825853Y-105000764D01*
X177825854Y-105000764D01*
X177902162Y-104951724D01*
X177944512Y-104924507D01*
X178036878Y-104817911D01*
X178095471Y-104689611D01*
X178115544Y-104550000D01*
X178095471Y-104410389D01*
X178082831Y-104382711D01*
X178036880Y-104282092D01*
X178036878Y-104282090D01*
X178036878Y-104282089D01*
X177944512Y-104175493D01*
X177944509Y-104175491D01*
X177944510Y-104175491D01*
X177825854Y-104099235D01*
X177690525Y-104059500D01*
X177690523Y-104059500D01*
X177549477Y-104059500D01*
X177549474Y-104059500D01*
X177414146Y-104099235D01*
X177414145Y-104099235D01*
X177295489Y-104175491D01*
X177203122Y-104282089D01*
X177203119Y-104282092D01*
X177144530Y-104410385D01*
X177144528Y-104410393D01*
X177124456Y-104550000D01*
X175256448Y-104550000D01*
X175180001Y-104473553D01*
X175180000Y-104473553D01*
X174853285Y-104800266D01*
X95113447Y-104800266D01*
X95112414Y-104796679D01*
X95083725Y-104689611D01*
X95071453Y-104643811D01*
X95070226Y-104638194D01*
X95042601Y-104475606D01*
X95042276Y-104473553D01*
X95018465Y-104323212D01*
X95017803Y-104317027D01*
X95007490Y-104133382D01*
X95000584Y-104001620D01*
X95000500Y-103998377D01*
X95000500Y-103850267D01*
X174278285Y-103850267D01*
X174355580Y-103877314D01*
X174412356Y-103918036D01*
X174438103Y-103982988D01*
X174437845Y-104008237D01*
X174425254Y-104119994D01*
X174425254Y-104120003D01*
X174444175Y-104287938D01*
X174444176Y-104287943D01*
X174499732Y-104446713D01*
X174793953Y-104152492D01*
X175080000Y-104152492D01*
X175118197Y-104205065D01*
X175164162Y-104220000D01*
X175195838Y-104220000D01*
X175241803Y-104205065D01*
X175280000Y-104152492D01*
X175280000Y-104087508D01*
X175241803Y-104034935D01*
X175195838Y-104020000D01*
X175164162Y-104020000D01*
X175118197Y-104034935D01*
X175080000Y-104087508D01*
X175080000Y-104152492D01*
X174793953Y-104152492D01*
X175092318Y-103854128D01*
X175153641Y-103820643D01*
X175223333Y-103825627D01*
X175267680Y-103854128D01*
X175860266Y-104446714D01*
X175860267Y-104446713D01*
X175915824Y-104287943D01*
X175934746Y-104120003D01*
X175934746Y-104119996D01*
X175922154Y-104008238D01*
X175934209Y-103939417D01*
X175981558Y-103888037D01*
X176004419Y-103877314D01*
X176081713Y-103850267D01*
X176081714Y-103850266D01*
X175489128Y-103257680D01*
X175458993Y-103202492D01*
X175655000Y-103202492D01*
X175693197Y-103255065D01*
X175739162Y-103270000D01*
X175770838Y-103270000D01*
X175816803Y-103255065D01*
X175855000Y-103202492D01*
X175855000Y-103170001D01*
X176108553Y-103170001D01*
X176435266Y-103496714D01*
X176435267Y-103496713D01*
X176490824Y-103337943D01*
X176509746Y-103170003D01*
X176509746Y-103169996D01*
X176490824Y-103002056D01*
X176435266Y-102843285D01*
X176108553Y-103169999D01*
X176108553Y-103170001D01*
X175855000Y-103170001D01*
X175855000Y-103137508D01*
X175816803Y-103084935D01*
X175770838Y-103070000D01*
X175739162Y-103070000D01*
X175693197Y-103084935D01*
X175655000Y-103137508D01*
X175655000Y-103202492D01*
X175458993Y-103202492D01*
X175455643Y-103196357D01*
X175460627Y-103126665D01*
X175489128Y-103082318D01*
X175755000Y-102816447D01*
X176081714Y-102489732D01*
X176004420Y-102462686D01*
X175947644Y-102421964D01*
X175921896Y-102357011D01*
X175922154Y-102331760D01*
X175934746Y-102220002D01*
X175934746Y-102219996D01*
X175915824Y-102052056D01*
X175860266Y-101893285D01*
X175267680Y-102485871D01*
X175206357Y-102519356D01*
X175136665Y-102514372D01*
X175092318Y-102485871D01*
X174858939Y-102252492D01*
X175080000Y-102252492D01*
X175118197Y-102305065D01*
X175164162Y-102320000D01*
X175195838Y-102320000D01*
X175241803Y-102305065D01*
X175280000Y-102252492D01*
X175280000Y-102187508D01*
X175241803Y-102134935D01*
X175195838Y-102120000D01*
X175164162Y-102120000D01*
X175118197Y-102134935D01*
X175080000Y-102187508D01*
X175080000Y-102252492D01*
X174858939Y-102252492D01*
X174499732Y-101893285D01*
X174444176Y-102052053D01*
X174444175Y-102052058D01*
X174425254Y-102219996D01*
X174425254Y-102220004D01*
X174437845Y-102331760D01*
X174425790Y-102400582D01*
X174378441Y-102451961D01*
X174355580Y-102462684D01*
X174278285Y-102489730D01*
X174278285Y-102489732D01*
X174870871Y-103082318D01*
X174904356Y-103143641D01*
X174899372Y-103213333D01*
X174870871Y-103257680D01*
X174278285Y-103850266D01*
X174278285Y-103850267D01*
X95000500Y-103850267D01*
X95000500Y-95636353D01*
X95015489Y-95585302D01*
X95233120Y-95585302D01*
X95243477Y-95601418D01*
X95248153Y-95627087D01*
X95264692Y-95847795D01*
X95264693Y-95847800D01*
X95323058Y-96103520D01*
X95418883Y-96347676D01*
X95418882Y-96347676D01*
X95550030Y-96574827D01*
X95597873Y-96634821D01*
X95597874Y-96634821D01*
X96248766Y-95983929D01*
X96292316Y-96066072D01*
X96412009Y-96206985D01*
X96559195Y-96318873D01*
X96601402Y-96338400D01*
X95950831Y-96988970D01*
X96122546Y-97106043D01*
X96122550Y-97106045D01*
X96358854Y-97219844D01*
X96358858Y-97219845D01*
X96609494Y-97297157D01*
X96609500Y-97297159D01*
X96868848Y-97336249D01*
X96868857Y-97336250D01*
X97131143Y-97336250D01*
X97131151Y-97336249D01*
X97390499Y-97297159D01*
X97390505Y-97297157D01*
X97641143Y-97219845D01*
X97877445Y-97106048D01*
X97877456Y-97106041D01*
X98049167Y-96988970D01*
X97398609Y-96338411D01*
X97517431Y-96266919D01*
X97651658Y-96139773D01*
X97754861Y-95987558D01*
X98402124Y-96634821D01*
X98449974Y-96574820D01*
X98581116Y-96347676D01*
X98676941Y-96103520D01*
X98735306Y-95847800D01*
X98735307Y-95847795D01*
X98754907Y-95586254D01*
X98754907Y-95586245D01*
X98735307Y-95324704D01*
X98735306Y-95324699D01*
X98676941Y-95068979D01*
X98581116Y-94824823D01*
X98581117Y-94824823D01*
X98449972Y-94597676D01*
X98397424Y-94531784D01*
X98371016Y-94467098D01*
X98383771Y-94398402D01*
X98431642Y-94347508D01*
X98499428Y-94330574D01*
X98510556Y-94331532D01*
X98527247Y-94333729D01*
X98550193Y-94336750D01*
X100529806Y-94336749D01*
X100569445Y-94331531D01*
X100638479Y-94342297D01*
X100690734Y-94388677D01*
X100709619Y-94455947D01*
X100689138Y-94522747D01*
X100682576Y-94531782D01*
X100630027Y-94597676D01*
X100498883Y-94824823D01*
X100403058Y-95068979D01*
X100344693Y-95324699D01*
X100344692Y-95324704D01*
X100325093Y-95586245D01*
X100325093Y-95586254D01*
X100344692Y-95847795D01*
X100344693Y-95847800D01*
X100403058Y-96103520D01*
X100498883Y-96347676D01*
X100498882Y-96347676D01*
X100630030Y-96574827D01*
X100677873Y-96634821D01*
X101328766Y-95983928D01*
X101372316Y-96066072D01*
X101492009Y-96206985D01*
X101639195Y-96318873D01*
X101681402Y-96338400D01*
X101030831Y-96988970D01*
X101202546Y-97106043D01*
X101202550Y-97106045D01*
X101438854Y-97219844D01*
X101438858Y-97219845D01*
X101689494Y-97297157D01*
X101689500Y-97297159D01*
X101948848Y-97336249D01*
X101948857Y-97336250D01*
X102211143Y-97336250D01*
X102211151Y-97336249D01*
X102470499Y-97297159D01*
X102470505Y-97297157D01*
X102721143Y-97219845D01*
X102957445Y-97106048D01*
X102957456Y-97106041D01*
X103129167Y-96988970D01*
X102478609Y-96338411D01*
X102597431Y-96266919D01*
X102731658Y-96139773D01*
X102834861Y-95987558D01*
X103482124Y-96634821D01*
X103529974Y-96574820D01*
X103661116Y-96347676D01*
X103756941Y-96103520D01*
X103815306Y-95847800D01*
X103815307Y-95847795D01*
X103830130Y-95650000D01*
X130914456Y-95650000D01*
X130934528Y-95789606D01*
X130934530Y-95789614D01*
X130993119Y-95917907D01*
X130993121Y-95917909D01*
X130993122Y-95917911D01*
X131085488Y-96024507D01*
X131085490Y-96024508D01*
X131085489Y-96024508D01*
X131204145Y-96100764D01*
X131339474Y-96140499D01*
X131339476Y-96140500D01*
X131339477Y-96140500D01*
X131480524Y-96140500D01*
X131480524Y-96140499D01*
X131585542Y-96109663D01*
X131615853Y-96100764D01*
X131615854Y-96100764D01*
X131670737Y-96065493D01*
X131734512Y-96024507D01*
X131826878Y-95917911D01*
X131827912Y-95915648D01*
X131860400Y-95844508D01*
X131885471Y-95789611D01*
X131905544Y-95650000D01*
X131885471Y-95510389D01*
X131864727Y-95464966D01*
X131826880Y-95382092D01*
X131826878Y-95382090D01*
X131826878Y-95382089D01*
X131734512Y-95275493D01*
X131734509Y-95275491D01*
X131734510Y-95275491D01*
X131615854Y-95199235D01*
X131480525Y-95159500D01*
X131480523Y-95159500D01*
X131339477Y-95159500D01*
X131339474Y-95159500D01*
X131204146Y-95199235D01*
X131204145Y-95199235D01*
X131085489Y-95275491D01*
X130993122Y-95382089D01*
X130993119Y-95382092D01*
X130934530Y-95510385D01*
X130934528Y-95510393D01*
X130914456Y-95650000D01*
X103830130Y-95650000D01*
X103834907Y-95586254D01*
X103834907Y-95586245D01*
X103815307Y-95324704D01*
X103815306Y-95324699D01*
X103756941Y-95068979D01*
X103661116Y-94824823D01*
X103661117Y-94824823D01*
X103529971Y-94597676D01*
X103482125Y-94537677D01*
X102831232Y-95188569D01*
X102787684Y-95106428D01*
X102667991Y-94965515D01*
X102520805Y-94853627D01*
X102478596Y-94834099D01*
X103129167Y-94183528D01*
X102957447Y-94066452D01*
X102957445Y-94066451D01*
X102721142Y-93952654D01*
X102721144Y-93952654D01*
X102530892Y-93893969D01*
X131643332Y-93893969D01*
X131643333Y-93893970D01*
X131778384Y-93954099D01*
X131778389Y-93954101D01*
X131953161Y-93991250D01*
X132131839Y-93991250D01*
X132306610Y-93954101D01*
X132306615Y-93954099D01*
X132441665Y-93893970D01*
X132441665Y-93893969D01*
X132993332Y-93893969D01*
X132993333Y-93893970D01*
X133128384Y-93954099D01*
X133128389Y-93954101D01*
X133303161Y-93991250D01*
X133481839Y-93991250D01*
X133656610Y-93954101D01*
X133656615Y-93954099D01*
X133791665Y-93893970D01*
X133791665Y-93893969D01*
X133392501Y-93494803D01*
X133392500Y-93494803D01*
X132993332Y-93893969D01*
X132441665Y-93893969D01*
X132042501Y-93494803D01*
X132042500Y-93494803D01*
X131643332Y-93893969D01*
X102530892Y-93893969D01*
X102470505Y-93875342D01*
X102470499Y-93875340D01*
X102211151Y-93836250D01*
X101948848Y-93836250D01*
X101689500Y-93875340D01*
X101689494Y-93875342D01*
X101438858Y-93952654D01*
X101438854Y-93952655D01*
X101202550Y-94066454D01*
X101202546Y-94066456D01*
X101018376Y-94192020D01*
X100951896Y-94213520D01*
X100884347Y-94195666D01*
X100837173Y-94144125D01*
X100825353Y-94075263D01*
X100825580Y-94073426D01*
X100830500Y-94036057D01*
X100830500Y-93141250D01*
X131187818Y-93141250D01*
X131206495Y-93318950D01*
X131206496Y-93318952D01*
X131261706Y-93488874D01*
X131261709Y-93488880D01*
X131290847Y-93539348D01*
X131688946Y-93141250D01*
X131887209Y-93141250D01*
X131908014Y-93218895D01*
X131964855Y-93275736D01*
X132022754Y-93291250D01*
X132062246Y-93291250D01*
X132120145Y-93275736D01*
X132176986Y-93218896D01*
X132197791Y-93141250D01*
X132176986Y-93063605D01*
X132120145Y-93006764D01*
X132062246Y-92991250D01*
X132022754Y-92991250D01*
X131964855Y-93006764D01*
X131908014Y-93063604D01*
X131887209Y-93141250D01*
X131688946Y-93141250D01*
X131688946Y-93141249D01*
X131290847Y-92743150D01*
X131290846Y-92743151D01*
X131261710Y-92793616D01*
X131261709Y-92793618D01*
X131206496Y-92963547D01*
X131206495Y-92963549D01*
X131187818Y-93141250D01*
X100830500Y-93141250D01*
X100830499Y-92466250D01*
X131721053Y-92466250D01*
X132042500Y-92787697D01*
X132717500Y-93462696D01*
X133038946Y-93141250D01*
X133237209Y-93141250D01*
X133258014Y-93218895D01*
X133314855Y-93275736D01*
X133372754Y-93291250D01*
X133412246Y-93291250D01*
X133470145Y-93275736D01*
X133526986Y-93218896D01*
X133547791Y-93141250D01*
X133746053Y-93141250D01*
X134144151Y-93539347D01*
X134173291Y-93488878D01*
X134228503Y-93318952D01*
X134228504Y-93318950D01*
X134247181Y-93141250D01*
X134228504Y-92963549D01*
X134228503Y-92963547D01*
X134173290Y-92793618D01*
X134144152Y-92743150D01*
X134144151Y-92743150D01*
X133746053Y-93141249D01*
X133746053Y-93141250D01*
X133547791Y-93141250D01*
X133526986Y-93063605D01*
X133470145Y-93006764D01*
X133412246Y-92991250D01*
X133372754Y-92991250D01*
X133314855Y-93006764D01*
X133258014Y-93063604D01*
X133237209Y-93141250D01*
X133038946Y-93141250D01*
X133392500Y-92787697D01*
X133713946Y-92466250D01*
X133713946Y-92466249D01*
X133038947Y-91791250D01*
X133237209Y-91791250D01*
X133258014Y-91868895D01*
X133314855Y-91925736D01*
X133372754Y-91941250D01*
X133412246Y-91941250D01*
X133470145Y-91925736D01*
X133526986Y-91868896D01*
X133547791Y-91791250D01*
X133746053Y-91791250D01*
X134144151Y-92189347D01*
X134173291Y-92138878D01*
X134228503Y-91968952D01*
X134228504Y-91968950D01*
X134247181Y-91791250D01*
X134228504Y-91613549D01*
X134228503Y-91613547D01*
X134173290Y-91443618D01*
X134144152Y-91393150D01*
X134144151Y-91393150D01*
X133746053Y-91791249D01*
X133746053Y-91791250D01*
X133547791Y-91791250D01*
X133526986Y-91713605D01*
X133470145Y-91656764D01*
X133412246Y-91641250D01*
X133372754Y-91641250D01*
X133314855Y-91656764D01*
X133258014Y-91713604D01*
X133237209Y-91791250D01*
X133038947Y-91791250D01*
X132717500Y-91469803D01*
X131721053Y-92466250D01*
X100830499Y-92466250D01*
X100830499Y-92056444D01*
X100825585Y-92019115D01*
X100836351Y-91950081D01*
X100882731Y-91897826D01*
X100950000Y-91878941D01*
X101016801Y-91899422D01*
X101018375Y-91900478D01*
X101202546Y-92026043D01*
X101202550Y-92026045D01*
X101438854Y-92139844D01*
X101438858Y-92139845D01*
X101689494Y-92217157D01*
X101689500Y-92217159D01*
X101948848Y-92256249D01*
X101948857Y-92256250D01*
X102211143Y-92256250D01*
X102211151Y-92256249D01*
X102470499Y-92217159D01*
X102470505Y-92217157D01*
X102721143Y-92139845D01*
X102957445Y-92026048D01*
X102957456Y-92026041D01*
X103129167Y-91908970D01*
X103011447Y-91791250D01*
X131187818Y-91791250D01*
X131206495Y-91968950D01*
X131206496Y-91968952D01*
X131261706Y-92138874D01*
X131261709Y-92138880D01*
X131290847Y-92189348D01*
X131688946Y-91791250D01*
X131887209Y-91791250D01*
X131908014Y-91868895D01*
X131964855Y-91925736D01*
X132022754Y-91941250D01*
X132062246Y-91941250D01*
X132120145Y-91925736D01*
X132176986Y-91868896D01*
X132197791Y-91791250D01*
X132176986Y-91713605D01*
X132120145Y-91656764D01*
X132062246Y-91641250D01*
X132022754Y-91641250D01*
X131964855Y-91656764D01*
X131908014Y-91713604D01*
X131887209Y-91791250D01*
X131688946Y-91791250D01*
X131688946Y-91791249D01*
X131290847Y-91393150D01*
X131290846Y-91393151D01*
X131261710Y-91443616D01*
X131261709Y-91443618D01*
X131206496Y-91613547D01*
X131206495Y-91613549D01*
X131187818Y-91791250D01*
X103011447Y-91791250D01*
X102478609Y-91258412D01*
X102597431Y-91186919D01*
X102731658Y-91059773D01*
X102834861Y-90907558D01*
X103482124Y-91554821D01*
X103529974Y-91494820D01*
X103661116Y-91267676D01*
X103751050Y-91038529D01*
X131643332Y-91038529D01*
X132042500Y-91437696D01*
X132042501Y-91437696D01*
X132441666Y-91038529D01*
X132993332Y-91038529D01*
X133392500Y-91437696D01*
X133392501Y-91437696D01*
X133791666Y-91038529D01*
X133656608Y-90978398D01*
X133656609Y-90978398D01*
X133481839Y-90941250D01*
X133303161Y-90941250D01*
X133128390Y-90978398D01*
X133128389Y-90978398D01*
X132993332Y-91038529D01*
X132441666Y-91038529D01*
X132306608Y-90978398D01*
X132306609Y-90978398D01*
X132131839Y-90941250D01*
X131953161Y-90941250D01*
X131778390Y-90978398D01*
X131778389Y-90978398D01*
X131643332Y-91038529D01*
X103751050Y-91038529D01*
X103756941Y-91023520D01*
X103815306Y-90767800D01*
X103815307Y-90767795D01*
X103834907Y-90506254D01*
X103834907Y-90506245D01*
X103815307Y-90244704D01*
X103815306Y-90244699D01*
X103756941Y-89988979D01*
X103686696Y-89810000D01*
X130274456Y-89810000D01*
X130294528Y-89949606D01*
X130294530Y-89949614D01*
X130353119Y-90077907D01*
X130353121Y-90077909D01*
X130353122Y-90077911D01*
X130445488Y-90184507D01*
X130445490Y-90184508D01*
X130445489Y-90184508D01*
X130564145Y-90260764D01*
X130699474Y-90300499D01*
X130699476Y-90300500D01*
X130699477Y-90300500D01*
X130840525Y-90300500D01*
X130840525Y-90300499D01*
X130877532Y-90289633D01*
X130881643Y-90288426D01*
X130945995Y-90288424D01*
X130946130Y-90287790D01*
X130949112Y-90288424D01*
X130951513Y-90288424D01*
X130954803Y-90289633D01*
X130958879Y-90290500D01*
X130958880Y-90290500D01*
X130981315Y-90290500D01*
X131000713Y-90292027D01*
X131022867Y-90295536D01*
X131022868Y-90295536D01*
X131025895Y-90294725D01*
X131057988Y-90290500D01*
X132872076Y-90290500D01*
X132875319Y-90290584D01*
X132918462Y-90292846D01*
X132939411Y-90284803D01*
X132958058Y-90279280D01*
X132980006Y-90274616D01*
X132982536Y-90272778D01*
X133010990Y-90257327D01*
X133013912Y-90256206D01*
X133029776Y-90240340D01*
X133044566Y-90227709D01*
X133062719Y-90214521D01*
X133064283Y-90211811D01*
X133083989Y-90186127D01*
X134203299Y-89066819D01*
X134264622Y-89033334D01*
X134290980Y-89030500D01*
X134679403Y-89030500D01*
X134746442Y-89050185D01*
X134792197Y-89102989D01*
X134802141Y-89172147D01*
X134792197Y-89206012D01*
X134744529Y-89310388D01*
X134744528Y-89310393D01*
X134724456Y-89450000D01*
X134744528Y-89589606D01*
X134744530Y-89589614D01*
X134803119Y-89717907D01*
X134803121Y-89717909D01*
X134803122Y-89717911D01*
X134895488Y-89824507D01*
X134895490Y-89824508D01*
X134895490Y-89824509D01*
X134922538Y-89841891D01*
X134968294Y-89894694D01*
X134979500Y-89946207D01*
X134979500Y-91992075D01*
X134979415Y-91995320D01*
X134977154Y-92038462D01*
X134984058Y-92056449D01*
X134985193Y-92059404D01*
X134990718Y-92078056D01*
X134991238Y-92080500D01*
X134995384Y-92100007D01*
X134997227Y-92102543D01*
X135012670Y-92130985D01*
X135013792Y-92133909D01*
X135013794Y-92133912D01*
X135029652Y-92149770D01*
X135042288Y-92164564D01*
X135055478Y-92182719D01*
X135058188Y-92184283D01*
X135083874Y-92203992D01*
X145764351Y-102884469D01*
X145766567Y-102886805D01*
X145795479Y-102918915D01*
X145815980Y-102928042D01*
X145833072Y-102937323D01*
X145840452Y-102942116D01*
X145854913Y-102951508D01*
X145900414Y-103004532D01*
X145910025Y-103073737D01*
X145880694Y-103137152D01*
X145821735Y-103174644D01*
X145787373Y-103179500D01*
X142270981Y-103179500D01*
X142203942Y-103159815D01*
X142183300Y-103143181D01*
X134689896Y-95649778D01*
X134656411Y-95588455D01*
X134654839Y-95544452D01*
X134665544Y-95470000D01*
X134645471Y-95330389D01*
X134617790Y-95269777D01*
X134586880Y-95202092D01*
X134586878Y-95202090D01*
X134586878Y-95202089D01*
X134494512Y-95095493D01*
X134494509Y-95095491D01*
X134494510Y-95095491D01*
X134375854Y-95019235D01*
X134240525Y-94979500D01*
X134240523Y-94979500D01*
X134099477Y-94979500D01*
X134099474Y-94979500D01*
X133964146Y-95019235D01*
X133964145Y-95019235D01*
X133845489Y-95095491D01*
X133753122Y-95202089D01*
X133753119Y-95202092D01*
X133694530Y-95330385D01*
X133694528Y-95330393D01*
X133674456Y-95470000D01*
X133694528Y-95609606D01*
X133694530Y-95609614D01*
X133753119Y-95737907D01*
X133753121Y-95737909D01*
X133753122Y-95737911D01*
X133845488Y-95844507D01*
X133845490Y-95844508D01*
X133845489Y-95844508D01*
X133964145Y-95920764D01*
X134099474Y-95960499D01*
X134099476Y-95960500D01*
X134099477Y-95960500D01*
X134240522Y-95960500D01*
X134240523Y-95960500D01*
X134240523Y-95960499D01*
X134248900Y-95959295D01*
X134318059Y-95969235D01*
X134354233Y-95994351D01*
X141944342Y-103584461D01*
X141946577Y-103586816D01*
X141975479Y-103618915D01*
X141995972Y-103628039D01*
X142013065Y-103637319D01*
X142031888Y-103649543D01*
X142034974Y-103650031D01*
X142066020Y-103659226D01*
X142068880Y-103660500D01*
X142091315Y-103660500D01*
X142110711Y-103662026D01*
X142132868Y-103665536D01*
X142135895Y-103664724D01*
X142167987Y-103660500D01*
X162872076Y-103660500D01*
X162875319Y-103660584D01*
X162918462Y-103662846D01*
X162939411Y-103654803D01*
X162958058Y-103649280D01*
X162980006Y-103644616D01*
X162982536Y-103642778D01*
X163010990Y-103627327D01*
X163013912Y-103626206D01*
X163029776Y-103610340D01*
X163044566Y-103597709D01*
X163062719Y-103584521D01*
X163064283Y-103581811D01*
X163083989Y-103556127D01*
X163470113Y-103170003D01*
X173850254Y-103170003D01*
X173869175Y-103337938D01*
X173869176Y-103337943D01*
X173924732Y-103496714D01*
X174218955Y-103202492D01*
X174505000Y-103202492D01*
X174543197Y-103255065D01*
X174589162Y-103270000D01*
X174620838Y-103270000D01*
X174666803Y-103255065D01*
X174705000Y-103202492D01*
X174705000Y-103137508D01*
X174666803Y-103084935D01*
X174620838Y-103070000D01*
X174589162Y-103070000D01*
X174543197Y-103084935D01*
X174505000Y-103137508D01*
X174505000Y-103202492D01*
X174218955Y-103202492D01*
X174251447Y-103170000D01*
X173924732Y-102843285D01*
X173869176Y-103002053D01*
X173869175Y-103002058D01*
X173850254Y-103169996D01*
X173850254Y-103170003D01*
X163470113Y-103170003D01*
X163705767Y-102934349D01*
X163767088Y-102900866D01*
X163811096Y-102899295D01*
X163819475Y-102900500D01*
X163819477Y-102900500D01*
X163960524Y-102900500D01*
X163960524Y-102900499D01*
X164095853Y-102860764D01*
X164095854Y-102860764D01*
X164103076Y-102856123D01*
X164214512Y-102784507D01*
X164306878Y-102677911D01*
X164365471Y-102549611D01*
X164385544Y-102410000D01*
X164365471Y-102270389D01*
X164333148Y-102199611D01*
X164306880Y-102142092D01*
X164306878Y-102142090D01*
X164306878Y-102142089D01*
X164214512Y-102035493D01*
X164214509Y-102035491D01*
X164214510Y-102035491D01*
X164095854Y-101959235D01*
X163960525Y-101919500D01*
X163960523Y-101919500D01*
X163819477Y-101919500D01*
X163819474Y-101919500D01*
X163684146Y-101959235D01*
X163684145Y-101959235D01*
X163565489Y-102035491D01*
X163473122Y-102142089D01*
X163473119Y-102142092D01*
X163414530Y-102270385D01*
X163414528Y-102270393D01*
X163394456Y-102410000D01*
X163394456Y-102410001D01*
X163405159Y-102484451D01*
X163395215Y-102553609D01*
X163370102Y-102589777D01*
X162816701Y-103143181D01*
X162755378Y-103176666D01*
X162729020Y-103179500D01*
X162105823Y-103179500D01*
X162038784Y-103159815D01*
X161993029Y-103107011D01*
X161983085Y-103037853D01*
X162012110Y-102974297D01*
X162040282Y-102953415D01*
X162039458Y-102952281D01*
X162052536Y-102942778D01*
X162080990Y-102927327D01*
X162083912Y-102926206D01*
X162099776Y-102910340D01*
X162114566Y-102897709D01*
X162132719Y-102884521D01*
X162134283Y-102881811D01*
X162153989Y-102856127D01*
X162425767Y-102584349D01*
X162487088Y-102550866D01*
X162531096Y-102549295D01*
X162539475Y-102550500D01*
X162539477Y-102550500D01*
X162680524Y-102550500D01*
X162680524Y-102550499D01*
X162815853Y-102510764D01*
X162815854Y-102510764D01*
X162848581Y-102489732D01*
X162934512Y-102434507D01*
X163026878Y-102327911D01*
X163037312Y-102305065D01*
X163051874Y-102273178D01*
X163085471Y-102199611D01*
X163105544Y-102060000D01*
X163085471Y-101920389D01*
X163072831Y-101892711D01*
X163026880Y-101792092D01*
X163026878Y-101792090D01*
X163026878Y-101792089D01*
X162934512Y-101685493D01*
X162934509Y-101685491D01*
X162934510Y-101685491D01*
X162815854Y-101609235D01*
X162680525Y-101569500D01*
X162680523Y-101569500D01*
X162539477Y-101569500D01*
X162539474Y-101569500D01*
X162395634Y-101611735D01*
X162395240Y-101610394D01*
X162335372Y-101618998D01*
X162271818Y-101589968D01*
X162239539Y-101539732D01*
X174853285Y-101539732D01*
X175180000Y-101866447D01*
X175180001Y-101866447D01*
X175506714Y-101539732D01*
X175347943Y-101484176D01*
X175347938Y-101484175D01*
X175180004Y-101465254D01*
X175179996Y-101465254D01*
X175012058Y-101484175D01*
X175012053Y-101484176D01*
X174853285Y-101539732D01*
X162239539Y-101539732D01*
X162234048Y-101531187D01*
X162230290Y-101513907D01*
X162229018Y-101505059D01*
X162225471Y-101480389D01*
X162168553Y-101355756D01*
X162166880Y-101352092D01*
X162166878Y-101352090D01*
X162166878Y-101352089D01*
X162074512Y-101245493D01*
X162074509Y-101245491D01*
X162074510Y-101245491D01*
X161955854Y-101169235D01*
X161820525Y-101129500D01*
X161820523Y-101129500D01*
X161679477Y-101129500D01*
X161671574Y-101130636D01*
X161602416Y-101120689D01*
X161549614Y-101074932D01*
X161529932Y-101007892D01*
X161531193Y-100990261D01*
X161535544Y-100960000D01*
X161515471Y-100820389D01*
X161502831Y-100792711D01*
X161456880Y-100692092D01*
X161456878Y-100692090D01*
X161456878Y-100692089D01*
X161364512Y-100585493D01*
X161364509Y-100585491D01*
X161364510Y-100585491D01*
X161245854Y-100509235D01*
X161110525Y-100469500D01*
X161110523Y-100469500D01*
X160969477Y-100469500D01*
X160969474Y-100469500D01*
X160834146Y-100509235D01*
X160834145Y-100509235D01*
X160715489Y-100585491D01*
X160623122Y-100692089D01*
X160623119Y-100692092D01*
X160564530Y-100820385D01*
X160564528Y-100820393D01*
X160544456Y-100960000D01*
X160544456Y-100960001D01*
X160555159Y-101034451D01*
X160545215Y-101103609D01*
X160520103Y-101139776D01*
X160446701Y-101213180D01*
X160385379Y-101246666D01*
X160359019Y-101249500D01*
X147646077Y-101249500D01*
X147579038Y-101229815D01*
X147558396Y-101213181D01*
X136910846Y-90565631D01*
X136877361Y-90504308D01*
X136875789Y-90495594D01*
X136875095Y-90490764D01*
X136870522Y-90458958D01*
X136851374Y-90417031D01*
X136828948Y-90367924D01*
X136811929Y-90330658D01*
X136719563Y-90224062D01*
X136719560Y-90224060D01*
X136708925Y-90217225D01*
X136663170Y-90164421D01*
X136653227Y-90095262D01*
X136675120Y-90047323D01*
X136672083Y-90045371D01*
X136676872Y-90037917D01*
X136676878Y-90037911D01*
X136735471Y-89909611D01*
X136755544Y-89770000D01*
X136735471Y-89630389D01*
X136716677Y-89589237D01*
X136676880Y-89502092D01*
X136676878Y-89502090D01*
X136676878Y-89502089D01*
X136584512Y-89395493D01*
X136584509Y-89395491D01*
X136584510Y-89395491D01*
X136465854Y-89319235D01*
X136330525Y-89279500D01*
X136330523Y-89279500D01*
X136189477Y-89279500D01*
X136189474Y-89279500D01*
X136054146Y-89319235D01*
X136054145Y-89319235D01*
X135935489Y-89395491D01*
X135935485Y-89395495D01*
X135917932Y-89415753D01*
X135859154Y-89453527D01*
X135789284Y-89453527D01*
X135730507Y-89415752D01*
X135701482Y-89352197D01*
X135699428Y-89337909D01*
X135695471Y-89310389D01*
X135647802Y-89206010D01*
X135637859Y-89136853D01*
X135666884Y-89073297D01*
X135725662Y-89035523D01*
X135760597Y-89030500D01*
X136709020Y-89030500D01*
X136776059Y-89050185D01*
X136796701Y-89066819D01*
X146104342Y-98374461D01*
X146106577Y-98376816D01*
X146135479Y-98408915D01*
X146155972Y-98418039D01*
X146173065Y-98427319D01*
X146191888Y-98439543D01*
X146194974Y-98440031D01*
X146226020Y-98449226D01*
X146228880Y-98450500D01*
X146251315Y-98450500D01*
X146270711Y-98452026D01*
X146292868Y-98455536D01*
X146295895Y-98454724D01*
X146327987Y-98450500D01*
X156532874Y-98450500D01*
X156599913Y-98470185D01*
X156645668Y-98522989D01*
X156655612Y-98592147D01*
X156631250Y-98649986D01*
X156617874Y-98667417D01*
X156617871Y-98667422D01*
X156563413Y-98798897D01*
X156563411Y-98798902D01*
X156544836Y-98939999D01*
X156544836Y-98940000D01*
X156563411Y-99081097D01*
X156563413Y-99081102D01*
X156617871Y-99212577D01*
X156617871Y-99212578D01*
X156617873Y-99212581D01*
X156617874Y-99212582D01*
X156704511Y-99325489D01*
X156817418Y-99412126D01*
X156817421Y-99412127D01*
X156817422Y-99412128D01*
X156883159Y-99439357D01*
X156948901Y-99466588D01*
X157019450Y-99475876D01*
X157089999Y-99485164D01*
X157090000Y-99485164D01*
X157090001Y-99485164D01*
X157137033Y-99478972D01*
X157231099Y-99466588D01*
X157362577Y-99412128D01*
X157362578Y-99412128D01*
X157362578Y-99412127D01*
X157362582Y-99412126D01*
X157475489Y-99325489D01*
X157562126Y-99212582D01*
X157616588Y-99081099D01*
X157635164Y-98940000D01*
X157616588Y-98798901D01*
X157562126Y-98667418D01*
X157548750Y-98649986D01*
X157523556Y-98584817D01*
X157537594Y-98516372D01*
X157586408Y-98466383D01*
X157647126Y-98450500D01*
X167539020Y-98450500D01*
X167606059Y-98470185D01*
X167626700Y-98486818D01*
X167970104Y-98830222D01*
X168003588Y-98891544D01*
X168005160Y-98935548D01*
X167994456Y-99009999D01*
X168014528Y-99149606D01*
X168014530Y-99149614D01*
X168073119Y-99277907D01*
X168073121Y-99277909D01*
X168073122Y-99277911D01*
X168165488Y-99384507D01*
X168165490Y-99384508D01*
X168165489Y-99384508D01*
X168284145Y-99460764D01*
X168419474Y-99500499D01*
X168419476Y-99500500D01*
X168419477Y-99500500D01*
X168560524Y-99500500D01*
X168560524Y-99500499D01*
X168695853Y-99460764D01*
X168695854Y-99460764D01*
X168814510Y-99384508D01*
X168814509Y-99384508D01*
X168814512Y-99384507D01*
X168906878Y-99277911D01*
X168965471Y-99149611D01*
X168985544Y-99010000D01*
X168965471Y-98870389D01*
X168965469Y-98870385D01*
X168965052Y-98868963D01*
X168965051Y-98867473D01*
X168964209Y-98861611D01*
X168965051Y-98861489D01*
X168965050Y-98799093D01*
X169002822Y-98740314D01*
X169049094Y-98715047D01*
X169165854Y-98680764D01*
X169186615Y-98667422D01*
X169284512Y-98604507D01*
X169376878Y-98497911D01*
X169381956Y-98486793D01*
X169396230Y-98455536D01*
X169435471Y-98369611D01*
X169455544Y-98230000D01*
X169435471Y-98090389D01*
X169399254Y-98011085D01*
X169395591Y-98003064D01*
X169385647Y-97933906D01*
X169414672Y-97870350D01*
X169473450Y-97832576D01*
X169473451Y-97832576D01*
X169480521Y-97830500D01*
X169480523Y-97830500D01*
X169552021Y-97809506D01*
X169615854Y-97790764D01*
X169633791Y-97779237D01*
X169734512Y-97714507D01*
X169826878Y-97607911D01*
X169885471Y-97479611D01*
X169905544Y-97340000D01*
X169885471Y-97200389D01*
X169867755Y-97161596D01*
X169842370Y-97106011D01*
X169832426Y-97036853D01*
X169861451Y-96973297D01*
X169920229Y-96935523D01*
X169955164Y-96930500D01*
X170010524Y-96930500D01*
X170010524Y-96930499D01*
X170145853Y-96890764D01*
X170145854Y-96890764D01*
X170148234Y-96889235D01*
X170264512Y-96814507D01*
X170356878Y-96707911D01*
X170415471Y-96579611D01*
X170435544Y-96440000D01*
X170415471Y-96300389D01*
X170392459Y-96250000D01*
X170356880Y-96172092D01*
X170356878Y-96172090D01*
X170356878Y-96172089D01*
X170264512Y-96065493D01*
X170264509Y-96065491D01*
X170264510Y-96065491D01*
X170145854Y-95989235D01*
X170010525Y-95949500D01*
X170010523Y-95949500D01*
X169869477Y-95949500D01*
X169869473Y-95949500D01*
X169861090Y-95950705D01*
X169791932Y-95940760D01*
X169755766Y-95915648D01*
X169065665Y-95225547D01*
X169063430Y-95223192D01*
X169034521Y-95191084D01*
X169034519Y-95191083D01*
X169014023Y-95181958D01*
X168996924Y-95172674D01*
X168978113Y-95160458D01*
X168975016Y-95159967D01*
X168943980Y-95150773D01*
X168941122Y-95149500D01*
X168941120Y-95149500D01*
X168918685Y-95149500D01*
X168899287Y-95147973D01*
X168877132Y-95144463D01*
X168877131Y-95144463D01*
X168874105Y-95145275D01*
X168842012Y-95149500D01*
X148120981Y-95149500D01*
X148053942Y-95129815D01*
X148033300Y-95113181D01*
X144510118Y-91590000D01*
X166604456Y-91590000D01*
X166624528Y-91729606D01*
X166624530Y-91729614D01*
X166683119Y-91857907D01*
X166683121Y-91857909D01*
X166683122Y-91857911D01*
X166775488Y-91964507D01*
X166775490Y-91964508D01*
X166775489Y-91964508D01*
X166894145Y-92040764D01*
X167029474Y-92080499D01*
X167029476Y-92080500D01*
X167029477Y-92080500D01*
X167170524Y-92080500D01*
X167170524Y-92080499D01*
X167305853Y-92040764D01*
X167305854Y-92040764D01*
X167328753Y-92026048D01*
X167424512Y-91964507D01*
X167516878Y-91857911D01*
X167575471Y-91729611D01*
X167595544Y-91590000D01*
X167575471Y-91450389D01*
X167525639Y-91341272D01*
X167516880Y-91322092D01*
X167516878Y-91322090D01*
X167516878Y-91322089D01*
X167424512Y-91215493D01*
X167424509Y-91215491D01*
X167424510Y-91215491D01*
X167305854Y-91139235D01*
X167170525Y-91099500D01*
X167170523Y-91099500D01*
X167029477Y-91099500D01*
X167029474Y-91099500D01*
X166894146Y-91139235D01*
X166894145Y-91139235D01*
X166775489Y-91215491D01*
X166683122Y-91322089D01*
X166683119Y-91322092D01*
X166624530Y-91450385D01*
X166624528Y-91450393D01*
X166604456Y-91590000D01*
X144510118Y-91590000D01*
X142960118Y-90040000D01*
X158684456Y-90040000D01*
X158704528Y-90179606D01*
X158704530Y-90179614D01*
X158763119Y-90307907D01*
X158763121Y-90307909D01*
X158763122Y-90307911D01*
X158855488Y-90414507D01*
X158855490Y-90414508D01*
X158855489Y-90414508D01*
X158974145Y-90490764D01*
X159109474Y-90530499D01*
X159109476Y-90530500D01*
X159109477Y-90530500D01*
X159250524Y-90530500D01*
X159250524Y-90530499D01*
X159385853Y-90490764D01*
X159385854Y-90490764D01*
X159403248Y-90479586D01*
X159504512Y-90414507D01*
X159596878Y-90307911D01*
X159603759Y-90292845D01*
X159627733Y-90240348D01*
X159655471Y-90179611D01*
X159675544Y-90040000D01*
X159655471Y-89900389D01*
X159628756Y-89841891D01*
X159596880Y-89772092D01*
X159596878Y-89772090D01*
X159596878Y-89772089D01*
X159504512Y-89665493D01*
X159504509Y-89665491D01*
X159504510Y-89665491D01*
X159385854Y-89589235D01*
X159250525Y-89549500D01*
X159250523Y-89549500D01*
X159109477Y-89549500D01*
X159109474Y-89549500D01*
X158974146Y-89589235D01*
X158974145Y-89589235D01*
X158855489Y-89665491D01*
X158763122Y-89772089D01*
X158763119Y-89772092D01*
X158704530Y-89900385D01*
X158704528Y-89900393D01*
X158684456Y-90040000D01*
X142960118Y-90040000D01*
X139825665Y-86905547D01*
X139823430Y-86903192D01*
X139794521Y-86871084D01*
X139794519Y-86871083D01*
X139774023Y-86861958D01*
X139756924Y-86852674D01*
X139738113Y-86840458D01*
X139735016Y-86839967D01*
X139703980Y-86830773D01*
X139701122Y-86829500D01*
X139701120Y-86829500D01*
X139678685Y-86829500D01*
X139659287Y-86827973D01*
X139637132Y-86824463D01*
X139637131Y-86824463D01*
X139634105Y-86825275D01*
X139602012Y-86829500D01*
X132427924Y-86829500D01*
X132424680Y-86829415D01*
X132412708Y-86828787D01*
X132381541Y-86827154D01*
X132381536Y-86827154D01*
X132360588Y-86835195D01*
X132341944Y-86840717D01*
X132319996Y-86845383D01*
X132319989Y-86845386D01*
X132317447Y-86847233D01*
X132289027Y-86862663D01*
X132286093Y-86863789D01*
X132286088Y-86863792D01*
X132270219Y-86879661D01*
X132255432Y-86892290D01*
X132237280Y-86905479D01*
X132235710Y-86908199D01*
X132216009Y-86933870D01*
X132044232Y-87105648D01*
X131982909Y-87139133D01*
X131938905Y-87140705D01*
X131930524Y-87139500D01*
X131930523Y-87139500D01*
X131789477Y-87139500D01*
X131789474Y-87139500D01*
X131654146Y-87179235D01*
X131654145Y-87179235D01*
X131535489Y-87255491D01*
X131443122Y-87362089D01*
X131443119Y-87362092D01*
X131384530Y-87490385D01*
X131384528Y-87490393D01*
X131364456Y-87630000D01*
X131384528Y-87769606D01*
X131384530Y-87769614D01*
X131443119Y-87897907D01*
X131443121Y-87897909D01*
X131443122Y-87897911D01*
X131535488Y-88004507D01*
X131535490Y-88004508D01*
X131535489Y-88004508D01*
X131654145Y-88080764D01*
X131789474Y-88120499D01*
X131789476Y-88120500D01*
X131789477Y-88120500D01*
X131930524Y-88120500D01*
X131930524Y-88120499D01*
X132035542Y-88089663D01*
X132065853Y-88080764D01*
X132065854Y-88080764D01*
X132083209Y-88069611D01*
X132184512Y-88004507D01*
X132230264Y-87951706D01*
X132289040Y-87913932D01*
X132358910Y-87913932D01*
X132417688Y-87951706D01*
X132446714Y-88015261D01*
X132454528Y-88069606D01*
X132454530Y-88069614D01*
X132513119Y-88197907D01*
X132513121Y-88197909D01*
X132513122Y-88197911D01*
X132605488Y-88304507D01*
X132605490Y-88304508D01*
X132605489Y-88304508D01*
X132709240Y-88371185D01*
X132754994Y-88423989D01*
X132764938Y-88493147D01*
X132735913Y-88556703D01*
X132677135Y-88594477D01*
X132642200Y-88599500D01*
X131567917Y-88599500D01*
X131564671Y-88599415D01*
X131557784Y-88599054D01*
X131521538Y-88597154D01*
X131521537Y-88597154D01*
X131521535Y-88597154D01*
X131509537Y-88599054D01*
X131455209Y-88595557D01*
X131400524Y-88579500D01*
X131400523Y-88579500D01*
X131259477Y-88579500D01*
X131259474Y-88579500D01*
X131124146Y-88619235D01*
X131124145Y-88619235D01*
X131005489Y-88695491D01*
X130913122Y-88802089D01*
X130913119Y-88802092D01*
X130854530Y-88930385D01*
X130854528Y-88930393D01*
X130835230Y-89064616D01*
X130834456Y-89070000D01*
X130849963Y-89177853D01*
X130840019Y-89247011D01*
X130794264Y-89299815D01*
X130727225Y-89319500D01*
X130699474Y-89319500D01*
X130564146Y-89359235D01*
X130564145Y-89359235D01*
X130445489Y-89435491D01*
X130353122Y-89542089D01*
X130353119Y-89542092D01*
X130294530Y-89670385D01*
X130294528Y-89670393D01*
X130274456Y-89810000D01*
X103686696Y-89810000D01*
X103661116Y-89744823D01*
X103661117Y-89744823D01*
X103529971Y-89517676D01*
X103482125Y-89457677D01*
X102831232Y-90108569D01*
X102787684Y-90026428D01*
X102667991Y-89885515D01*
X102520805Y-89773627D01*
X102478596Y-89754099D01*
X103129167Y-89103528D01*
X102957447Y-88986452D01*
X102957445Y-88986451D01*
X102721142Y-88872654D01*
X102721144Y-88872654D01*
X102470505Y-88795342D01*
X102470499Y-88795340D01*
X102211151Y-88756250D01*
X101948848Y-88756250D01*
X101689500Y-88795340D01*
X101689494Y-88795342D01*
X101438858Y-88872654D01*
X101438854Y-88872655D01*
X101202550Y-88986454D01*
X101202546Y-88986456D01*
X101030832Y-89103528D01*
X101681391Y-89754087D01*
X101562569Y-89825581D01*
X101428342Y-89952727D01*
X101325138Y-90104941D01*
X100677874Y-89457678D01*
X100630027Y-89517676D01*
X100498883Y-89744823D01*
X100403058Y-89988979D01*
X100344693Y-90244699D01*
X100344692Y-90244704D01*
X100325093Y-90506245D01*
X100325093Y-90506254D01*
X100344692Y-90767795D01*
X100344693Y-90767800D01*
X100403058Y-91023520D01*
X100498883Y-91267676D01*
X100498882Y-91267676D01*
X100630027Y-91494823D01*
X100682575Y-91560715D01*
X100708983Y-91625401D01*
X100696228Y-91694097D01*
X100648357Y-91744991D01*
X100580571Y-91761925D01*
X100569445Y-91760968D01*
X100549500Y-91758342D01*
X100529807Y-91755750D01*
X100529803Y-91755750D01*
X98550196Y-91755750D01*
X98510552Y-91760969D01*
X98441517Y-91750201D01*
X98389263Y-91703819D01*
X98370380Y-91636549D01*
X98390863Y-91569750D01*
X98397424Y-91560716D01*
X98449972Y-91494823D01*
X98581116Y-91267676D01*
X98676941Y-91023520D01*
X98735306Y-90767800D01*
X98735307Y-90767795D01*
X98754907Y-90506254D01*
X98754907Y-90506245D01*
X98735307Y-90244704D01*
X98735306Y-90244699D01*
X98676941Y-89988979D01*
X98581116Y-89744823D01*
X98581117Y-89744823D01*
X98449971Y-89517676D01*
X98402125Y-89457677D01*
X97751232Y-90108569D01*
X97707684Y-90026428D01*
X97587991Y-89885515D01*
X97440805Y-89773627D01*
X97398596Y-89754099D01*
X98049167Y-89103528D01*
X97877447Y-88986452D01*
X97877445Y-88986451D01*
X97641142Y-88872654D01*
X97641144Y-88872654D01*
X97390505Y-88795342D01*
X97390499Y-88795340D01*
X97131151Y-88756250D01*
X96868848Y-88756250D01*
X96609500Y-88795340D01*
X96609494Y-88795342D01*
X96358858Y-88872654D01*
X96358854Y-88872655D01*
X96122550Y-88986454D01*
X96122546Y-88986456D01*
X95950832Y-89103528D01*
X96601391Y-89754087D01*
X96482569Y-89825581D01*
X96348342Y-89952727D01*
X96245138Y-90104941D01*
X95597873Y-89457677D01*
X95550029Y-89517673D01*
X95418883Y-89744823D01*
X95323058Y-89988979D01*
X95264693Y-90244699D01*
X95264692Y-90244704D01*
X95248153Y-90465412D01*
X95233120Y-90505302D01*
X95243477Y-90521418D01*
X95248153Y-90547087D01*
X95264692Y-90767795D01*
X95264693Y-90767800D01*
X95323058Y-91023520D01*
X95418883Y-91267676D01*
X95418882Y-91267676D01*
X95550030Y-91494827D01*
X95597873Y-91554821D01*
X95597874Y-91554821D01*
X96248766Y-90903929D01*
X96292316Y-90986072D01*
X96412009Y-91126985D01*
X96559195Y-91238873D01*
X96601402Y-91258400D01*
X95950831Y-91908970D01*
X96122546Y-92026043D01*
X96122550Y-92026045D01*
X96358854Y-92139844D01*
X96358858Y-92139845D01*
X96609494Y-92217157D01*
X96609500Y-92217159D01*
X96868848Y-92256249D01*
X96868857Y-92256250D01*
X97131143Y-92256250D01*
X97131151Y-92256249D01*
X97390499Y-92217159D01*
X97390505Y-92217157D01*
X97641143Y-92139845D01*
X97877445Y-92026048D01*
X97877447Y-92026047D01*
X98061622Y-91900479D01*
X98128101Y-91878979D01*
X98195651Y-91896833D01*
X98242826Y-91948373D01*
X98254646Y-92017235D01*
X98254413Y-92019116D01*
X98249501Y-92056427D01*
X98249500Y-92056449D01*
X98249500Y-94036051D01*
X98251646Y-94052355D01*
X98253502Y-94066454D01*
X98254415Y-94073384D01*
X98243647Y-94142419D01*
X98197266Y-94194673D01*
X98129997Y-94213557D01*
X98063197Y-94193075D01*
X98061624Y-94192020D01*
X97877454Y-94066456D01*
X97877445Y-94066451D01*
X97641142Y-93952654D01*
X97641144Y-93952654D01*
X97390505Y-93875342D01*
X97390499Y-93875340D01*
X97131151Y-93836250D01*
X96868848Y-93836250D01*
X96609500Y-93875340D01*
X96609494Y-93875342D01*
X96358858Y-93952654D01*
X96358854Y-93952655D01*
X96122550Y-94066454D01*
X96122546Y-94066456D01*
X95950832Y-94183528D01*
X96601391Y-94834087D01*
X96482569Y-94905581D01*
X96348342Y-95032727D01*
X96245138Y-95184941D01*
X95597873Y-94537677D01*
X95550029Y-94597673D01*
X95418883Y-94824823D01*
X95323058Y-95068979D01*
X95264693Y-95324699D01*
X95264692Y-95324704D01*
X95248153Y-95545412D01*
X95233120Y-95585302D01*
X95015489Y-95585302D01*
X95015604Y-95584911D01*
X95003245Y-95562092D01*
X95000500Y-95536146D01*
X95000500Y-90556353D01*
X95015604Y-90504911D01*
X95003245Y-90482092D01*
X95000500Y-90456146D01*
X95000500Y-84010000D01*
X161114456Y-84010000D01*
X161134528Y-84149606D01*
X161134530Y-84149614D01*
X161193119Y-84277907D01*
X161193121Y-84277909D01*
X161193122Y-84277911D01*
X161285488Y-84384507D01*
X161285490Y-84384508D01*
X161285489Y-84384508D01*
X161404145Y-84460764D01*
X161539474Y-84500499D01*
X161539476Y-84500500D01*
X161539477Y-84500500D01*
X161680524Y-84500500D01*
X161680524Y-84500499D01*
X161815853Y-84460764D01*
X161815854Y-84460764D01*
X161934510Y-84384508D01*
X161934509Y-84384508D01*
X161934512Y-84384507D01*
X162026878Y-84277911D01*
X162085471Y-84149611D01*
X162105544Y-84010000D01*
X162085471Y-83870389D01*
X162062687Y-83820499D01*
X162026880Y-83742092D01*
X162026878Y-83742090D01*
X162026878Y-83742089D01*
X161934512Y-83635493D01*
X161934509Y-83635491D01*
X161934510Y-83635491D01*
X161815854Y-83559235D01*
X161680525Y-83519500D01*
X161680523Y-83519500D01*
X161539477Y-83519500D01*
X161539474Y-83519500D01*
X161404146Y-83559235D01*
X161404145Y-83559235D01*
X161285489Y-83635491D01*
X161193122Y-83742089D01*
X161193119Y-83742092D01*
X161134530Y-83870385D01*
X161134528Y-83870393D01*
X161114456Y-84010000D01*
X95000500Y-84010000D01*
X95000500Y-83330000D01*
X137914456Y-83330000D01*
X137934528Y-83469606D01*
X137934530Y-83469614D01*
X137993119Y-83597907D01*
X137993121Y-83597909D01*
X137993122Y-83597911D01*
X138085488Y-83704507D01*
X138085490Y-83704508D01*
X138085489Y-83704508D01*
X138204145Y-83780764D01*
X138339474Y-83820499D01*
X138339476Y-83820500D01*
X138339477Y-83820500D01*
X138480524Y-83820500D01*
X138480524Y-83820499D01*
X138615853Y-83780764D01*
X138615854Y-83780764D01*
X138676029Y-83742092D01*
X138734512Y-83704507D01*
X138826878Y-83597911D01*
X138885471Y-83469611D01*
X138905544Y-83330000D01*
X138885471Y-83190389D01*
X138872831Y-83162711D01*
X138826880Y-83062092D01*
X138826878Y-83062090D01*
X138826878Y-83062089D01*
X138734512Y-82955493D01*
X138734509Y-82955491D01*
X138734510Y-82955491D01*
X138615854Y-82879235D01*
X138480525Y-82839500D01*
X138480523Y-82839500D01*
X138339477Y-82839500D01*
X138339474Y-82839500D01*
X138204146Y-82879235D01*
X138204145Y-82879235D01*
X138085489Y-82955491D01*
X137993122Y-83062089D01*
X137993119Y-83062092D01*
X137934530Y-83190385D01*
X137934528Y-83190393D01*
X137914456Y-83330000D01*
X95000500Y-83330000D01*
X95000500Y-82001622D01*
X95000585Y-81998376D01*
X95007490Y-81866617D01*
X95017803Y-81682968D01*
X95018464Y-81676791D01*
X95042611Y-81524331D01*
X95070227Y-81361796D01*
X95071451Y-81356196D01*
X95112425Y-81203279D01*
X95157083Y-81048268D01*
X95158764Y-81043254D01*
X95216127Y-80893815D01*
X95234759Y-80848833D01*
X162095624Y-80848833D01*
X162105944Y-81012860D01*
X162156732Y-81169171D01*
X162156734Y-81169175D01*
X162244798Y-81307940D01*
X162364603Y-81420445D01*
X162364611Y-81420451D01*
X162444860Y-81464568D01*
X162508632Y-81499627D01*
X162667823Y-81540500D01*
X162667827Y-81540500D01*
X162790923Y-81540500D01*
X162790925Y-81540500D01*
X162790930Y-81540499D01*
X162790934Y-81540499D01*
X162804174Y-81538826D01*
X162913058Y-81525071D01*
X163065871Y-81464568D01*
X163065878Y-81464563D01*
X163198835Y-81367965D01*
X163198835Y-81367963D01*
X163198837Y-81367963D01*
X163303600Y-81241326D01*
X163373579Y-81092613D01*
X163404376Y-80931170D01*
X163399196Y-80848833D01*
X165095624Y-80848833D01*
X165105944Y-81012860D01*
X165156732Y-81169171D01*
X165156734Y-81169175D01*
X165244798Y-81307940D01*
X165364603Y-81420445D01*
X165364611Y-81420451D01*
X165444860Y-81464568D01*
X165508632Y-81499627D01*
X165667823Y-81540500D01*
X165667827Y-81540500D01*
X165790923Y-81540500D01*
X165790925Y-81540500D01*
X165790930Y-81540499D01*
X165790934Y-81540499D01*
X165804174Y-81538826D01*
X165913058Y-81525071D01*
X166065871Y-81464568D01*
X166065878Y-81464563D01*
X166198835Y-81367965D01*
X166198835Y-81367963D01*
X166198837Y-81367963D01*
X166303600Y-81241326D01*
X166373579Y-81092613D01*
X166404376Y-80931170D01*
X166394056Y-80767140D01*
X166343268Y-80610829D01*
X166326933Y-80585090D01*
X166255201Y-80472059D01*
X166135396Y-80359554D01*
X166135388Y-80359548D01*
X165991371Y-80280374D01*
X165991361Y-80280371D01*
X165832180Y-80239500D01*
X165832177Y-80239500D01*
X165709075Y-80239500D01*
X165709065Y-80239500D01*
X165586942Y-80254929D01*
X165586939Y-80254929D01*
X165434130Y-80315431D01*
X165434121Y-80315436D01*
X165301164Y-80412034D01*
X165301162Y-80412037D01*
X165196400Y-80538673D01*
X165126420Y-80687387D01*
X165111207Y-80767139D01*
X165095624Y-80848830D01*
X165095624Y-80848832D01*
X165095624Y-80848833D01*
X163399196Y-80848833D01*
X163394056Y-80767140D01*
X163343268Y-80610829D01*
X163326933Y-80585090D01*
X163255201Y-80472059D01*
X163135396Y-80359554D01*
X163135388Y-80359548D01*
X162991371Y-80280374D01*
X162991361Y-80280371D01*
X162832180Y-80239500D01*
X162832177Y-80239500D01*
X162709075Y-80239500D01*
X162709065Y-80239500D01*
X162586942Y-80254929D01*
X162586939Y-80254929D01*
X162434130Y-80315431D01*
X162434121Y-80315436D01*
X162301164Y-80412034D01*
X162301162Y-80412037D01*
X162196400Y-80538673D01*
X162126420Y-80687387D01*
X162111207Y-80767139D01*
X162095624Y-80848830D01*
X162095624Y-80848832D01*
X162095624Y-80848833D01*
X95234759Y-80848833D01*
X95277366Y-80745972D01*
X95279379Y-80741606D01*
X95352511Y-80598078D01*
X95359688Y-80585090D01*
X95429655Y-80458494D01*
X95431867Y-80454808D01*
X95519980Y-80319127D01*
X95534130Y-80299182D01*
X95612154Y-80189220D01*
X95614486Y-80186143D01*
X95715655Y-80061209D01*
X95717537Y-80058998D01*
X95822773Y-79941239D01*
X95825092Y-79938787D01*
X95938787Y-79825092D01*
X95941239Y-79822773D01*
X96058998Y-79717537D01*
X96061209Y-79715655D01*
X96186143Y-79614486D01*
X96189220Y-79612154D01*
X96319127Y-79519980D01*
X96329046Y-79513537D01*
X96454808Y-79431867D01*
X96458494Y-79429655D01*
X96598078Y-79352511D01*
X96610063Y-79346403D01*
X96741606Y-79279379D01*
X96745972Y-79277366D01*
X96893815Y-79216127D01*
X97043254Y-79158764D01*
X97048268Y-79157083D01*
X97203279Y-79112425D01*
X97356196Y-79071451D01*
X97361796Y-79070227D01*
X97524284Y-79042618D01*
X97676791Y-79018464D01*
X97682968Y-79017803D01*
X97866566Y-79007493D01*
X97998380Y-79000584D01*
X98001622Y-79000500D01*
X182998378Y-79000500D01*
X183001619Y-79000584D01*
G37*
G04 #@! TD.AperFunction*
M02*
