G04 #@! TF.GenerationSoftware,KiCad,Pcbnew,7.0.9-1.fc38*
G04 #@! TF.CreationDate,2023-11-15T09:02:08+02:00*
G04 #@! TF.ProjectId,transceiver_board,7472616e-7363-4656-9976-65725f626f61,rev?*
G04 #@! TF.SameCoordinates,Original*
G04 #@! TF.FileFunction,Paste,Top*
G04 #@! TF.FilePolarity,Positive*
%FSLAX46Y46*%
G04 Gerber Fmt 4.6, Leading zero omitted, Abs format (unit mm)*
G04 Created by KiCad (PCBNEW 7.0.9-1.fc38) date 2023-11-15 09:02:08*
%MOMM*%
%LPD*%
G01*
G04 APERTURE LIST*
G04 Aperture macros list*
%AMRoundRect*
0 Rectangle with rounded corners*
0 $1 Rounding radius*
0 $2 $3 $4 $5 $6 $7 $8 $9 X,Y pos of 4 corners*
0 Add a 4 corners polygon primitive as box body*
4,1,4,$2,$3,$4,$5,$6,$7,$8,$9,$2,$3,0*
0 Add four circle primitives for the rounded corners*
1,1,$1+$1,$2,$3*
1,1,$1+$1,$4,$5*
1,1,$1+$1,$6,$7*
1,1,$1+$1,$8,$9*
0 Add four rect primitives between the rounded corners*
20,1,$1+$1,$2,$3,$4,$5,0*
20,1,$1+$1,$4,$5,$6,$7,0*
20,1,$1+$1,$6,$7,$8,$9,0*
20,1,$1+$1,$8,$9,$2,$3,0*%
G04 Aperture macros list end*
%ADD10RoundRect,0.237500X-0.300000X-0.237500X0.300000X-0.237500X0.300000X0.237500X-0.300000X0.237500X0*%
%ADD11RoundRect,0.237500X-0.237500X0.300000X-0.237500X-0.300000X0.237500X-0.300000X0.237500X0.300000X0*%
%ADD12R,1.000000X3.200000*%
%ADD13RoundRect,0.237500X0.287500X0.237500X-0.287500X0.237500X-0.287500X-0.237500X0.287500X-0.237500X0*%
%ADD14RoundRect,0.075000X-0.662500X-0.075000X0.662500X-0.075000X0.662500X0.075000X-0.662500X0.075000X0*%
%ADD15RoundRect,0.075000X-0.075000X-0.662500X0.075000X-0.662500X0.075000X0.662500X-0.075000X0.662500X0*%
%ADD16RoundRect,0.237500X-0.237500X0.287500X-0.237500X-0.287500X0.237500X-0.287500X0.237500X0.287500X0*%
%ADD17RoundRect,0.250000X0.337500X0.475000X-0.337500X0.475000X-0.337500X-0.475000X0.337500X-0.475000X0*%
%ADD18RoundRect,0.155000X0.212500X0.155000X-0.212500X0.155000X-0.212500X-0.155000X0.212500X-0.155000X0*%
%ADD19R,1.000000X0.800000*%
%ADD20R,0.700000X1.500000*%
%ADD21RoundRect,0.155000X0.155000X-0.212500X0.155000X0.212500X-0.155000X0.212500X-0.155000X-0.212500X0*%
%ADD22R,0.850000X0.750000*%
%ADD23RoundRect,0.025000X0.100000X0.145000X-0.100000X0.145000X-0.100000X-0.145000X0.100000X-0.145000X0*%
%ADD24RoundRect,0.106000X0.644000X0.424000X-0.644000X0.424000X-0.644000X-0.424000X0.644000X-0.424000X0*%
%ADD25R,0.600000X0.240000*%
%ADD26RoundRect,0.237500X0.237500X-0.300000X0.237500X0.300000X-0.237500X0.300000X-0.237500X-0.300000X0*%
%ADD27RoundRect,0.250000X-0.475000X0.337500X-0.475000X-0.337500X0.475000X-0.337500X0.475000X0.337500X0*%
%ADD28RoundRect,0.237500X-0.237500X0.250000X-0.237500X-0.250000X0.237500X-0.250000X0.237500X0.250000X0*%
%ADD29RoundRect,0.155000X-0.155000X0.212500X-0.155000X-0.212500X0.155000X-0.212500X0.155000X0.212500X0*%
%ADD30RoundRect,0.200000X0.200000X0.275000X-0.200000X0.275000X-0.200000X-0.275000X0.200000X-0.275000X0*%
%ADD31R,1.200000X1.500000*%
%ADD32R,1.900000X1.100000*%
%ADD33RoundRect,0.237500X0.237500X-0.250000X0.237500X0.250000X-0.237500X0.250000X-0.237500X-0.250000X0*%
%ADD34R,1.350000X0.400000*%
%ADD35R,1.900000X1.500000*%
%ADD36RoundRect,0.237500X0.300000X0.237500X-0.300000X0.237500X-0.300000X-0.237500X0.300000X-0.237500X0*%
%ADD37RoundRect,0.237500X0.237500X-0.287500X0.237500X0.287500X-0.237500X0.287500X-0.237500X-0.287500X0*%
%ADD38R,1.000000X0.700000*%
%ADD39R,0.600000X0.700000*%
%ADD40R,0.300000X0.800000*%
%ADD41R,0.800000X0.300000*%
G04 APERTURE END LIST*
D10*
X156417500Y-101830000D03*
X158142500Y-101830000D03*
D11*
X137617500Y-89741250D03*
X137617500Y-91466250D03*
D12*
X144000000Y-90000000D03*
X144000000Y-83200000D03*
X148000000Y-90000000D03*
X148000000Y-83200000D03*
D13*
X124242500Y-90166250D03*
X122492500Y-90166250D03*
D14*
X158187500Y-92700000D03*
X158187500Y-93200000D03*
X158187500Y-93700000D03*
X158187500Y-94200000D03*
X158187500Y-94700000D03*
X158187500Y-95200000D03*
X158187500Y-95700000D03*
X158187500Y-96200000D03*
X158187500Y-96700000D03*
X158187500Y-97200000D03*
X158187500Y-97700000D03*
X158187500Y-98200000D03*
D15*
X159600000Y-99612500D03*
X160100000Y-99612500D03*
X160600000Y-99612500D03*
X161100000Y-99612500D03*
X161600000Y-99612500D03*
X162100000Y-99612500D03*
X162600000Y-99612500D03*
X163100000Y-99612500D03*
X163600000Y-99612500D03*
X164100000Y-99612500D03*
X164600000Y-99612500D03*
X165100000Y-99612500D03*
D14*
X166512500Y-98200000D03*
X166512500Y-97700000D03*
X166512500Y-97200000D03*
X166512500Y-96700000D03*
X166512500Y-96200000D03*
X166512500Y-95700000D03*
X166512500Y-95200000D03*
X166512500Y-94700000D03*
X166512500Y-94200000D03*
X166512500Y-93700000D03*
X166512500Y-93200000D03*
X166512500Y-92700000D03*
D15*
X165100000Y-91287500D03*
X164600000Y-91287500D03*
X164100000Y-91287500D03*
X163600000Y-91287500D03*
X163100000Y-91287500D03*
X162600000Y-91287500D03*
X162100000Y-91287500D03*
X161600000Y-91287500D03*
X161100000Y-91287500D03*
X160600000Y-91287500D03*
X160100000Y-91287500D03*
X159600000Y-91287500D03*
D16*
X152350000Y-81800000D03*
X152350000Y-83550000D03*
D11*
X172080000Y-98957500D03*
X172080000Y-100682500D03*
D17*
X175227500Y-96360000D03*
X173152500Y-96360000D03*
D11*
X140027500Y-84493750D03*
X140027500Y-86218750D03*
D16*
X126817500Y-89791250D03*
X126817500Y-91541250D03*
D18*
X123485000Y-93066250D03*
X122350000Y-93066250D03*
D13*
X116342500Y-93066250D03*
X114592500Y-93066250D03*
D19*
X167900000Y-82000000D03*
X167900000Y-79790000D03*
X160600000Y-82000000D03*
X160600000Y-79790000D03*
D20*
X166500000Y-82650000D03*
X163500000Y-82650000D03*
X162000000Y-82650000D03*
D21*
X153300000Y-91480000D03*
X153300000Y-90345000D03*
D22*
X133145000Y-98245000D03*
X131795000Y-98245000D03*
X131795000Y-99295000D03*
X133145000Y-99295000D03*
D23*
X175430000Y-104700000D03*
X175430000Y-101640000D03*
D24*
X175180000Y-103800000D03*
X175180000Y-102540000D03*
D23*
X174930000Y-104700000D03*
X174930000Y-101640000D03*
D25*
X176580000Y-104170000D03*
X176580000Y-103670000D03*
X176580000Y-103170000D03*
X176580000Y-102670000D03*
X176580000Y-102170000D03*
X173780000Y-102170000D03*
X173780000Y-102670000D03*
X173780000Y-103170000D03*
X173780000Y-103670000D03*
X173780000Y-104170000D03*
D26*
X139467500Y-95116250D03*
X139467500Y-93391250D03*
D21*
X119067500Y-93033750D03*
X119067500Y-91898750D03*
D27*
X160400000Y-103572500D03*
X160400000Y-105647500D03*
D28*
X137327500Y-84443750D03*
X137327500Y-86268750D03*
D13*
X120792500Y-94766250D03*
X119042500Y-94766250D03*
D16*
X156450000Y-81775000D03*
X156450000Y-83525000D03*
D11*
X139467500Y-89741250D03*
X139467500Y-91466250D03*
D27*
X165030000Y-103562500D03*
X165030000Y-105637500D03*
X171830000Y-103582500D03*
X171830000Y-105657500D03*
D29*
X128567500Y-94648750D03*
X128567500Y-95783750D03*
D27*
X169540000Y-103572500D03*
X169540000Y-105647500D03*
D17*
X147070000Y-92900000D03*
X144995000Y-92900000D03*
D30*
X176605000Y-98970000D03*
X174955000Y-98970000D03*
D29*
X153300000Y-98845000D03*
X153300000Y-99980000D03*
D13*
X125192500Y-94666250D03*
X123442500Y-94666250D03*
D10*
X156410000Y-100070000D03*
X158135000Y-100070000D03*
D31*
X181080000Y-104470000D03*
X181080000Y-101770000D03*
D29*
X127067500Y-94648750D03*
X127067500Y-95783750D03*
D32*
X153300000Y-93412500D03*
X153300000Y-97012500D03*
D13*
X109142500Y-93066250D03*
X107392500Y-93066250D03*
D33*
X152350000Y-87187500D03*
X152350000Y-85362500D03*
D18*
X112335000Y-93066250D03*
X111200000Y-93066250D03*
D34*
X181900000Y-94350000D03*
X181900000Y-93700000D03*
X181900000Y-93050000D03*
X181900000Y-92400000D03*
X181900000Y-91750000D03*
D35*
X184600000Y-94050000D03*
X184600000Y-92050000D03*
D12*
X143930000Y-102660000D03*
X143930000Y-95860000D03*
X147930000Y-102660000D03*
X147930000Y-95860000D03*
D36*
X124230000Y-88416250D03*
X122505000Y-88416250D03*
D27*
X167270000Y-103572500D03*
X167270000Y-105647500D03*
D30*
X163325000Y-87812500D03*
X161675000Y-87812500D03*
D27*
X162690000Y-103572500D03*
X162690000Y-105647500D03*
D21*
X120767500Y-93033750D03*
X120767500Y-91898750D03*
D18*
X120485000Y-96666250D03*
X119350000Y-96666250D03*
D27*
X158080000Y-103572500D03*
X158080000Y-105647500D03*
D18*
X123502500Y-91816250D03*
X122367500Y-91816250D03*
D37*
X137567500Y-95128750D03*
X137567500Y-93378750D03*
D38*
X175000000Y-92300000D03*
D39*
X173300000Y-92300000D03*
X173300000Y-94300000D03*
X175200000Y-94300000D03*
D26*
X107417500Y-90628750D03*
X107417500Y-88903750D03*
D33*
X156450000Y-87262500D03*
X156450000Y-85437500D03*
D21*
X111217500Y-91333750D03*
X111217500Y-90198750D03*
D40*
X131467500Y-94466250D03*
X131967500Y-94466250D03*
X132467500Y-94466250D03*
X132967500Y-94466250D03*
X133467500Y-94466250D03*
X133967500Y-94466250D03*
D41*
X134717500Y-93716250D03*
X134717500Y-93216250D03*
X134717500Y-92716250D03*
X134717500Y-92216250D03*
X134717500Y-91716250D03*
X134717500Y-91216250D03*
D40*
X133967500Y-90466250D03*
X133467500Y-90466250D03*
X132967500Y-90466250D03*
X132467500Y-90466250D03*
X131967500Y-90466250D03*
X131467500Y-90466250D03*
D41*
X130717500Y-91216250D03*
X130717500Y-91716250D03*
X130717500Y-92216250D03*
X130717500Y-92716250D03*
X130717500Y-93216250D03*
X130717500Y-93716250D03*
M02*
