%TF.GenerationSoftware,KiCad,Pcbnew,7.0.9-1.fc38*%
%TF.CreationDate,2023-11-15T09:02:19+02:00*%
%TF.ProjectId,transceiver_board,7472616e-7363-4656-9976-65725f626f61,rev?*%
%TF.SameCoordinates,Original*%
%TF.FileFunction,Drillmap*%
%TF.FilePolarity,Positive*%
%FSLAX45Y45*%
G04 Gerber Fmt 4.5, Leading zero omitted, Abs format (unit mm)*
G04 Created by KiCad (PCBNEW 7.0.9-1.fc38) date 2023-11-15 09:02:19*
%MOMM*%
%LPD*%
G01*
G04 APERTURE LIST*
%ADD10C,0.100000*%
%ADD11C,0.200000*%
G04 APERTURE END LIST*
D10*
X18600000Y-8200000D02*
G75*
G03*
X18300000Y-7900000I-300000J0D01*
G01*
X18600000Y-8200000D02*
X18600000Y-10400000D01*
X18300000Y-10700000D02*
G75*
G03*
X18600000Y-10400000I0J300000D01*
G01*
X18300000Y-10700000D02*
X9800000Y-10700000D01*
X9800000Y-7900000D02*
X18300000Y-7900000D01*
X9500000Y-10400000D02*
G75*
G03*
X9800000Y-10700000I300000J0D01*
G01*
X9500000Y-10400000D02*
X9500000Y-8200000D01*
X9800000Y-7900000D02*
G75*
G03*
X9500000Y-8200000I0J-300000D01*
G01*
D11*
D10*
X16230000Y-8044000D02*
X16320000Y-8134000D01*
X16320000Y-8044000D02*
X16230000Y-8134000D01*
X16530000Y-8044000D02*
X16620000Y-8134000D01*
X16620000Y-8044000D02*
X16530000Y-8134000D01*
D11*
X9755777Y-11016484D02*
X9755777Y-10816484D01*
X9755777Y-10816484D02*
X9803396Y-10816484D01*
X9803396Y-10816484D02*
X9831967Y-10826008D01*
X9831967Y-10826008D02*
X9851015Y-10845055D01*
X9851015Y-10845055D02*
X9860539Y-10864103D01*
X9860539Y-10864103D02*
X9870063Y-10902198D01*
X9870063Y-10902198D02*
X9870063Y-10930770D01*
X9870063Y-10930770D02*
X9860539Y-10968865D01*
X9860539Y-10968865D02*
X9851015Y-10987912D01*
X9851015Y-10987912D02*
X9831967Y-11006960D01*
X9831967Y-11006960D02*
X9803396Y-11016484D01*
X9803396Y-11016484D02*
X9755777Y-11016484D01*
X9955777Y-11016484D02*
X9955777Y-10883150D01*
X9955777Y-10921246D02*
X9965301Y-10902198D01*
X9965301Y-10902198D02*
X9974824Y-10892674D01*
X9974824Y-10892674D02*
X9993872Y-10883150D01*
X9993872Y-10883150D02*
X10012920Y-10883150D01*
X10079586Y-11016484D02*
X10079586Y-10883150D01*
X10079586Y-10816484D02*
X10070063Y-10826008D01*
X10070063Y-10826008D02*
X10079586Y-10835531D01*
X10079586Y-10835531D02*
X10089110Y-10826008D01*
X10089110Y-10826008D02*
X10079586Y-10816484D01*
X10079586Y-10816484D02*
X10079586Y-10835531D01*
X10203396Y-11016484D02*
X10184348Y-11006960D01*
X10184348Y-11006960D02*
X10174824Y-10987912D01*
X10174824Y-10987912D02*
X10174824Y-10816484D01*
X10308158Y-11016484D02*
X10289110Y-11006960D01*
X10289110Y-11006960D02*
X10279586Y-10987912D01*
X10279586Y-10987912D02*
X10279586Y-10816484D01*
X10536729Y-11016484D02*
X10536729Y-10816484D01*
X10536729Y-10816484D02*
X10603396Y-10959341D01*
X10603396Y-10959341D02*
X10670063Y-10816484D01*
X10670063Y-10816484D02*
X10670063Y-11016484D01*
X10851015Y-11016484D02*
X10851015Y-10911722D01*
X10851015Y-10911722D02*
X10841491Y-10892674D01*
X10841491Y-10892674D02*
X10822444Y-10883150D01*
X10822444Y-10883150D02*
X10784348Y-10883150D01*
X10784348Y-10883150D02*
X10765301Y-10892674D01*
X10851015Y-11006960D02*
X10831967Y-11016484D01*
X10831967Y-11016484D02*
X10784348Y-11016484D01*
X10784348Y-11016484D02*
X10765301Y-11006960D01*
X10765301Y-11006960D02*
X10755777Y-10987912D01*
X10755777Y-10987912D02*
X10755777Y-10968865D01*
X10755777Y-10968865D02*
X10765301Y-10949817D01*
X10765301Y-10949817D02*
X10784348Y-10940293D01*
X10784348Y-10940293D02*
X10831967Y-10940293D01*
X10831967Y-10940293D02*
X10851015Y-10930770D01*
X10946253Y-10883150D02*
X10946253Y-11083150D01*
X10946253Y-10892674D02*
X10965301Y-10883150D01*
X10965301Y-10883150D02*
X11003396Y-10883150D01*
X11003396Y-10883150D02*
X11022444Y-10892674D01*
X11022444Y-10892674D02*
X11031967Y-10902198D01*
X11031967Y-10902198D02*
X11041491Y-10921246D01*
X11041491Y-10921246D02*
X11041491Y-10978389D01*
X11041491Y-10978389D02*
X11031967Y-10997436D01*
X11031967Y-10997436D02*
X11022444Y-11006960D01*
X11022444Y-11006960D02*
X11003396Y-11016484D01*
X11003396Y-11016484D02*
X10965301Y-11016484D01*
X10965301Y-11016484D02*
X10946253Y-11006960D01*
X11127205Y-10997436D02*
X11136729Y-11006960D01*
X11136729Y-11006960D02*
X11127205Y-11016484D01*
X11127205Y-11016484D02*
X11117682Y-11006960D01*
X11117682Y-11006960D02*
X11127205Y-10997436D01*
X11127205Y-10997436D02*
X11127205Y-11016484D01*
X11127205Y-10892674D02*
X11136729Y-10902198D01*
X11136729Y-10902198D02*
X11127205Y-10911722D01*
X11127205Y-10911722D02*
X11117682Y-10902198D01*
X11117682Y-10902198D02*
X11127205Y-10892674D01*
X11127205Y-10892674D02*
X11127205Y-10911722D01*
D10*
X9405000Y-11300000D02*
X9495000Y-11390000D01*
X9495000Y-11300000D02*
X9405000Y-11390000D01*
D11*
X9793872Y-11236484D02*
X9812920Y-11236484D01*
X9812920Y-11236484D02*
X9831967Y-11246008D01*
X9831967Y-11246008D02*
X9841491Y-11255531D01*
X9841491Y-11255531D02*
X9851015Y-11274579D01*
X9851015Y-11274579D02*
X9860539Y-11312674D01*
X9860539Y-11312674D02*
X9860539Y-11360293D01*
X9860539Y-11360293D02*
X9851015Y-11398388D01*
X9851015Y-11398388D02*
X9841491Y-11417436D01*
X9841491Y-11417436D02*
X9831967Y-11426960D01*
X9831967Y-11426960D02*
X9812920Y-11436484D01*
X9812920Y-11436484D02*
X9793872Y-11436484D01*
X9793872Y-11436484D02*
X9774824Y-11426960D01*
X9774824Y-11426960D02*
X9765301Y-11417436D01*
X9765301Y-11417436D02*
X9755777Y-11398388D01*
X9755777Y-11398388D02*
X9746253Y-11360293D01*
X9746253Y-11360293D02*
X9746253Y-11312674D01*
X9746253Y-11312674D02*
X9755777Y-11274579D01*
X9755777Y-11274579D02*
X9765301Y-11255531D01*
X9765301Y-11255531D02*
X9774824Y-11246008D01*
X9774824Y-11246008D02*
X9793872Y-11236484D01*
X9946253Y-11417436D02*
X9955777Y-11426960D01*
X9955777Y-11426960D02*
X9946253Y-11436484D01*
X9946253Y-11436484D02*
X9936729Y-11426960D01*
X9936729Y-11426960D02*
X9946253Y-11417436D01*
X9946253Y-11417436D02*
X9946253Y-11436484D01*
X10051015Y-11436484D02*
X10089110Y-11436484D01*
X10089110Y-11436484D02*
X10108158Y-11426960D01*
X10108158Y-11426960D02*
X10117682Y-11417436D01*
X10117682Y-11417436D02*
X10136729Y-11388865D01*
X10136729Y-11388865D02*
X10146253Y-11350769D01*
X10146253Y-11350769D02*
X10146253Y-11274579D01*
X10146253Y-11274579D02*
X10136729Y-11255531D01*
X10136729Y-11255531D02*
X10127205Y-11246008D01*
X10127205Y-11246008D02*
X10108158Y-11236484D01*
X10108158Y-11236484D02*
X10070063Y-11236484D01*
X10070063Y-11236484D02*
X10051015Y-11246008D01*
X10051015Y-11246008D02*
X10041491Y-11255531D01*
X10041491Y-11255531D02*
X10031967Y-11274579D01*
X10031967Y-11274579D02*
X10031967Y-11322198D01*
X10031967Y-11322198D02*
X10041491Y-11341246D01*
X10041491Y-11341246D02*
X10051015Y-11350769D01*
X10051015Y-11350769D02*
X10070063Y-11360293D01*
X10070063Y-11360293D02*
X10108158Y-11360293D01*
X10108158Y-11360293D02*
X10127205Y-11350769D01*
X10127205Y-11350769D02*
X10136729Y-11341246D01*
X10136729Y-11341246D02*
X10146253Y-11322198D01*
X10270063Y-11236484D02*
X10289110Y-11236484D01*
X10289110Y-11236484D02*
X10308158Y-11246008D01*
X10308158Y-11246008D02*
X10317682Y-11255531D01*
X10317682Y-11255531D02*
X10327205Y-11274579D01*
X10327205Y-11274579D02*
X10336729Y-11312674D01*
X10336729Y-11312674D02*
X10336729Y-11360293D01*
X10336729Y-11360293D02*
X10327205Y-11398388D01*
X10327205Y-11398388D02*
X10317682Y-11417436D01*
X10317682Y-11417436D02*
X10308158Y-11426960D01*
X10308158Y-11426960D02*
X10289110Y-11436484D01*
X10289110Y-11436484D02*
X10270063Y-11436484D01*
X10270063Y-11436484D02*
X10251015Y-11426960D01*
X10251015Y-11426960D02*
X10241491Y-11417436D01*
X10241491Y-11417436D02*
X10231967Y-11398388D01*
X10231967Y-11398388D02*
X10222444Y-11360293D01*
X10222444Y-11360293D02*
X10222444Y-11312674D01*
X10222444Y-11312674D02*
X10231967Y-11274579D01*
X10231967Y-11274579D02*
X10241491Y-11255531D01*
X10241491Y-11255531D02*
X10251015Y-11246008D01*
X10251015Y-11246008D02*
X10270063Y-11236484D01*
X10460539Y-11236484D02*
X10479586Y-11236484D01*
X10479586Y-11236484D02*
X10498634Y-11246008D01*
X10498634Y-11246008D02*
X10508158Y-11255531D01*
X10508158Y-11255531D02*
X10517682Y-11274579D01*
X10517682Y-11274579D02*
X10527205Y-11312674D01*
X10527205Y-11312674D02*
X10527205Y-11360293D01*
X10527205Y-11360293D02*
X10517682Y-11398388D01*
X10517682Y-11398388D02*
X10508158Y-11417436D01*
X10508158Y-11417436D02*
X10498634Y-11426960D01*
X10498634Y-11426960D02*
X10479586Y-11436484D01*
X10479586Y-11436484D02*
X10460539Y-11436484D01*
X10460539Y-11436484D02*
X10441491Y-11426960D01*
X10441491Y-11426960D02*
X10431967Y-11417436D01*
X10431967Y-11417436D02*
X10422444Y-11398388D01*
X10422444Y-11398388D02*
X10412920Y-11360293D01*
X10412920Y-11360293D02*
X10412920Y-11312674D01*
X10412920Y-11312674D02*
X10422444Y-11274579D01*
X10422444Y-11274579D02*
X10431967Y-11255531D01*
X10431967Y-11255531D02*
X10441491Y-11246008D01*
X10441491Y-11246008D02*
X10460539Y-11236484D01*
X10612920Y-11436484D02*
X10612920Y-11303150D01*
X10612920Y-11322198D02*
X10622444Y-11312674D01*
X10622444Y-11312674D02*
X10641491Y-11303150D01*
X10641491Y-11303150D02*
X10670063Y-11303150D01*
X10670063Y-11303150D02*
X10689110Y-11312674D01*
X10689110Y-11312674D02*
X10698634Y-11331722D01*
X10698634Y-11331722D02*
X10698634Y-11436484D01*
X10698634Y-11331722D02*
X10708158Y-11312674D01*
X10708158Y-11312674D02*
X10727205Y-11303150D01*
X10727205Y-11303150D02*
X10755777Y-11303150D01*
X10755777Y-11303150D02*
X10774825Y-11312674D01*
X10774825Y-11312674D02*
X10784348Y-11331722D01*
X10784348Y-11331722D02*
X10784348Y-11436484D01*
X10879586Y-11436484D02*
X10879586Y-11303150D01*
X10879586Y-11322198D02*
X10889110Y-11312674D01*
X10889110Y-11312674D02*
X10908158Y-11303150D01*
X10908158Y-11303150D02*
X10936729Y-11303150D01*
X10936729Y-11303150D02*
X10955777Y-11312674D01*
X10955777Y-11312674D02*
X10965301Y-11331722D01*
X10965301Y-11331722D02*
X10965301Y-11436484D01*
X10965301Y-11331722D02*
X10974825Y-11312674D01*
X10974825Y-11312674D02*
X10993872Y-11303150D01*
X10993872Y-11303150D02*
X11022444Y-11303150D01*
X11022444Y-11303150D02*
X11041491Y-11312674D01*
X11041491Y-11312674D02*
X11051015Y-11331722D01*
X11051015Y-11331722D02*
X11051015Y-11436484D01*
X11441491Y-11226960D02*
X11270063Y-11484103D01*
X11698634Y-11236484D02*
X11717682Y-11236484D01*
X11717682Y-11236484D02*
X11736729Y-11246008D01*
X11736729Y-11246008D02*
X11746253Y-11255531D01*
X11746253Y-11255531D02*
X11755777Y-11274579D01*
X11755777Y-11274579D02*
X11765301Y-11312674D01*
X11765301Y-11312674D02*
X11765301Y-11360293D01*
X11765301Y-11360293D02*
X11755777Y-11398388D01*
X11755777Y-11398388D02*
X11746253Y-11417436D01*
X11746253Y-11417436D02*
X11736729Y-11426960D01*
X11736729Y-11426960D02*
X11717682Y-11436484D01*
X11717682Y-11436484D02*
X11698634Y-11436484D01*
X11698634Y-11436484D02*
X11679586Y-11426960D01*
X11679586Y-11426960D02*
X11670063Y-11417436D01*
X11670063Y-11417436D02*
X11660539Y-11398388D01*
X11660539Y-11398388D02*
X11651015Y-11360293D01*
X11651015Y-11360293D02*
X11651015Y-11312674D01*
X11651015Y-11312674D02*
X11660539Y-11274579D01*
X11660539Y-11274579D02*
X11670063Y-11255531D01*
X11670063Y-11255531D02*
X11679586Y-11246008D01*
X11679586Y-11246008D02*
X11698634Y-11236484D01*
X11851015Y-11417436D02*
X11860539Y-11426960D01*
X11860539Y-11426960D02*
X11851015Y-11436484D01*
X11851015Y-11436484D02*
X11841491Y-11426960D01*
X11841491Y-11426960D02*
X11851015Y-11417436D01*
X11851015Y-11417436D02*
X11851015Y-11436484D01*
X11984348Y-11236484D02*
X12003396Y-11236484D01*
X12003396Y-11236484D02*
X12022444Y-11246008D01*
X12022444Y-11246008D02*
X12031967Y-11255531D01*
X12031967Y-11255531D02*
X12041491Y-11274579D01*
X12041491Y-11274579D02*
X12051015Y-11312674D01*
X12051015Y-11312674D02*
X12051015Y-11360293D01*
X12051015Y-11360293D02*
X12041491Y-11398388D01*
X12041491Y-11398388D02*
X12031967Y-11417436D01*
X12031967Y-11417436D02*
X12022444Y-11426960D01*
X12022444Y-11426960D02*
X12003396Y-11436484D01*
X12003396Y-11436484D02*
X11984348Y-11436484D01*
X11984348Y-11436484D02*
X11965301Y-11426960D01*
X11965301Y-11426960D02*
X11955777Y-11417436D01*
X11955777Y-11417436D02*
X11946253Y-11398388D01*
X11946253Y-11398388D02*
X11936729Y-11360293D01*
X11936729Y-11360293D02*
X11936729Y-11312674D01*
X11936729Y-11312674D02*
X11946253Y-11274579D01*
X11946253Y-11274579D02*
X11955777Y-11255531D01*
X11955777Y-11255531D02*
X11965301Y-11246008D01*
X11965301Y-11246008D02*
X11984348Y-11236484D01*
X12117682Y-11236484D02*
X12241491Y-11236484D01*
X12241491Y-11236484D02*
X12174825Y-11312674D01*
X12174825Y-11312674D02*
X12203396Y-11312674D01*
X12203396Y-11312674D02*
X12222444Y-11322198D01*
X12222444Y-11322198D02*
X12231967Y-11331722D01*
X12231967Y-11331722D02*
X12241491Y-11350769D01*
X12241491Y-11350769D02*
X12241491Y-11398388D01*
X12241491Y-11398388D02*
X12231967Y-11417436D01*
X12231967Y-11417436D02*
X12222444Y-11426960D01*
X12222444Y-11426960D02*
X12203396Y-11436484D01*
X12203396Y-11436484D02*
X12146253Y-11436484D01*
X12146253Y-11436484D02*
X12127206Y-11426960D01*
X12127206Y-11426960D02*
X12117682Y-11417436D01*
X12422444Y-11236484D02*
X12327206Y-11236484D01*
X12327206Y-11236484D02*
X12317682Y-11331722D01*
X12317682Y-11331722D02*
X12327206Y-11322198D01*
X12327206Y-11322198D02*
X12346253Y-11312674D01*
X12346253Y-11312674D02*
X12393872Y-11312674D01*
X12393872Y-11312674D02*
X12412920Y-11322198D01*
X12412920Y-11322198D02*
X12422444Y-11331722D01*
X12422444Y-11331722D02*
X12431967Y-11350769D01*
X12431967Y-11350769D02*
X12431967Y-11398388D01*
X12431967Y-11398388D02*
X12422444Y-11417436D01*
X12422444Y-11417436D02*
X12412920Y-11426960D01*
X12412920Y-11426960D02*
X12393872Y-11436484D01*
X12393872Y-11436484D02*
X12346253Y-11436484D01*
X12346253Y-11436484D02*
X12327206Y-11426960D01*
X12327206Y-11426960D02*
X12317682Y-11417436D01*
X12603396Y-11303150D02*
X12603396Y-11436484D01*
X12555777Y-11226960D02*
X12508158Y-11369817D01*
X12508158Y-11369817D02*
X12631967Y-11369817D01*
X12698634Y-11236484D02*
X12698634Y-11274579D01*
X12774825Y-11236484D02*
X12774825Y-11274579D01*
X13070063Y-11512674D02*
X13060539Y-11503150D01*
X13060539Y-11503150D02*
X13041491Y-11474579D01*
X13041491Y-11474579D02*
X13031968Y-11455531D01*
X13031968Y-11455531D02*
X13022444Y-11426960D01*
X13022444Y-11426960D02*
X13012920Y-11379341D01*
X13012920Y-11379341D02*
X13012920Y-11341246D01*
X13012920Y-11341246D02*
X13022444Y-11293627D01*
X13022444Y-11293627D02*
X13031968Y-11265055D01*
X13031968Y-11265055D02*
X13041491Y-11246008D01*
X13041491Y-11246008D02*
X13060539Y-11217436D01*
X13060539Y-11217436D02*
X13070063Y-11207912D01*
X13136729Y-11255531D02*
X13146253Y-11246008D01*
X13146253Y-11246008D02*
X13165301Y-11236484D01*
X13165301Y-11236484D02*
X13212920Y-11236484D01*
X13212920Y-11236484D02*
X13231968Y-11246008D01*
X13231968Y-11246008D02*
X13241491Y-11255531D01*
X13241491Y-11255531D02*
X13251015Y-11274579D01*
X13251015Y-11274579D02*
X13251015Y-11293627D01*
X13251015Y-11293627D02*
X13241491Y-11322198D01*
X13241491Y-11322198D02*
X13127206Y-11436484D01*
X13127206Y-11436484D02*
X13251015Y-11436484D01*
X13489110Y-11436484D02*
X13489110Y-11236484D01*
X13574825Y-11436484D02*
X13574825Y-11331722D01*
X13574825Y-11331722D02*
X13565301Y-11312674D01*
X13565301Y-11312674D02*
X13546253Y-11303150D01*
X13546253Y-11303150D02*
X13517682Y-11303150D01*
X13517682Y-11303150D02*
X13498634Y-11312674D01*
X13498634Y-11312674D02*
X13489110Y-11322198D01*
X13698634Y-11436484D02*
X13679587Y-11426960D01*
X13679587Y-11426960D02*
X13670063Y-11417436D01*
X13670063Y-11417436D02*
X13660539Y-11398388D01*
X13660539Y-11398388D02*
X13660539Y-11341246D01*
X13660539Y-11341246D02*
X13670063Y-11322198D01*
X13670063Y-11322198D02*
X13679587Y-11312674D01*
X13679587Y-11312674D02*
X13698634Y-11303150D01*
X13698634Y-11303150D02*
X13727206Y-11303150D01*
X13727206Y-11303150D02*
X13746253Y-11312674D01*
X13746253Y-11312674D02*
X13755777Y-11322198D01*
X13755777Y-11322198D02*
X13765301Y-11341246D01*
X13765301Y-11341246D02*
X13765301Y-11398388D01*
X13765301Y-11398388D02*
X13755777Y-11417436D01*
X13755777Y-11417436D02*
X13746253Y-11426960D01*
X13746253Y-11426960D02*
X13727206Y-11436484D01*
X13727206Y-11436484D02*
X13698634Y-11436484D01*
X13879587Y-11436484D02*
X13860539Y-11426960D01*
X13860539Y-11426960D02*
X13851015Y-11407912D01*
X13851015Y-11407912D02*
X13851015Y-11236484D01*
X14031968Y-11426960D02*
X14012920Y-11436484D01*
X14012920Y-11436484D02*
X13974825Y-11436484D01*
X13974825Y-11436484D02*
X13955777Y-11426960D01*
X13955777Y-11426960D02*
X13946253Y-11407912D01*
X13946253Y-11407912D02*
X13946253Y-11331722D01*
X13946253Y-11331722D02*
X13955777Y-11312674D01*
X13955777Y-11312674D02*
X13974825Y-11303150D01*
X13974825Y-11303150D02*
X14012920Y-11303150D01*
X14012920Y-11303150D02*
X14031968Y-11312674D01*
X14031968Y-11312674D02*
X14041491Y-11331722D01*
X14041491Y-11331722D02*
X14041491Y-11350769D01*
X14041491Y-11350769D02*
X13946253Y-11369817D01*
X14117682Y-11426960D02*
X14136730Y-11436484D01*
X14136730Y-11436484D02*
X14174825Y-11436484D01*
X14174825Y-11436484D02*
X14193872Y-11426960D01*
X14193872Y-11426960D02*
X14203396Y-11407912D01*
X14203396Y-11407912D02*
X14203396Y-11398388D01*
X14203396Y-11398388D02*
X14193872Y-11379341D01*
X14193872Y-11379341D02*
X14174825Y-11369817D01*
X14174825Y-11369817D02*
X14146253Y-11369817D01*
X14146253Y-11369817D02*
X14127206Y-11360293D01*
X14127206Y-11360293D02*
X14117682Y-11341246D01*
X14117682Y-11341246D02*
X14117682Y-11331722D01*
X14117682Y-11331722D02*
X14127206Y-11312674D01*
X14127206Y-11312674D02*
X14146253Y-11303150D01*
X14146253Y-11303150D02*
X14174825Y-11303150D01*
X14174825Y-11303150D02*
X14193872Y-11312674D01*
X14270063Y-11512674D02*
X14279587Y-11503150D01*
X14279587Y-11503150D02*
X14298634Y-11474579D01*
X14298634Y-11474579D02*
X14308158Y-11455531D01*
X14308158Y-11455531D02*
X14317682Y-11426960D01*
X14317682Y-11426960D02*
X14327206Y-11379341D01*
X14327206Y-11379341D02*
X14327206Y-11341246D01*
X14327206Y-11341246D02*
X14317682Y-11293627D01*
X14317682Y-11293627D02*
X14308158Y-11265055D01*
X14308158Y-11265055D02*
X14298634Y-11246008D01*
X14298634Y-11246008D02*
X14279587Y-11217436D01*
X14279587Y-11217436D02*
X14270063Y-11207912D01*
X14631968Y-11512674D02*
X14622444Y-11503150D01*
X14622444Y-11503150D02*
X14603396Y-11474579D01*
X14603396Y-11474579D02*
X14593872Y-11455531D01*
X14593872Y-11455531D02*
X14584349Y-11426960D01*
X14584349Y-11426960D02*
X14574825Y-11379341D01*
X14574825Y-11379341D02*
X14574825Y-11341246D01*
X14574825Y-11341246D02*
X14584349Y-11293627D01*
X14584349Y-11293627D02*
X14593872Y-11265055D01*
X14593872Y-11265055D02*
X14603396Y-11246008D01*
X14603396Y-11246008D02*
X14622444Y-11217436D01*
X14622444Y-11217436D02*
X14631968Y-11207912D01*
X14708158Y-11303150D02*
X14708158Y-11436484D01*
X14708158Y-11322198D02*
X14717682Y-11312674D01*
X14717682Y-11312674D02*
X14736730Y-11303150D01*
X14736730Y-11303150D02*
X14765301Y-11303150D01*
X14765301Y-11303150D02*
X14784349Y-11312674D01*
X14784349Y-11312674D02*
X14793872Y-11331722D01*
X14793872Y-11331722D02*
X14793872Y-11436484D01*
X14917682Y-11436484D02*
X14898634Y-11426960D01*
X14898634Y-11426960D02*
X14889111Y-11417436D01*
X14889111Y-11417436D02*
X14879587Y-11398388D01*
X14879587Y-11398388D02*
X14879587Y-11341246D01*
X14879587Y-11341246D02*
X14889111Y-11322198D01*
X14889111Y-11322198D02*
X14898634Y-11312674D01*
X14898634Y-11312674D02*
X14917682Y-11303150D01*
X14917682Y-11303150D02*
X14946253Y-11303150D01*
X14946253Y-11303150D02*
X14965301Y-11312674D01*
X14965301Y-11312674D02*
X14974825Y-11322198D01*
X14974825Y-11322198D02*
X14984349Y-11341246D01*
X14984349Y-11341246D02*
X14984349Y-11398388D01*
X14984349Y-11398388D02*
X14974825Y-11417436D01*
X14974825Y-11417436D02*
X14965301Y-11426960D01*
X14965301Y-11426960D02*
X14946253Y-11436484D01*
X14946253Y-11436484D02*
X14917682Y-11436484D01*
X15041492Y-11303150D02*
X15117682Y-11303150D01*
X15070063Y-11236484D02*
X15070063Y-11407912D01*
X15070063Y-11407912D02*
X15079587Y-11426960D01*
X15079587Y-11426960D02*
X15098634Y-11436484D01*
X15098634Y-11436484D02*
X15117682Y-11436484D01*
X15336730Y-11303150D02*
X15336730Y-11503150D01*
X15336730Y-11312674D02*
X15355777Y-11303150D01*
X15355777Y-11303150D02*
X15393873Y-11303150D01*
X15393873Y-11303150D02*
X15412920Y-11312674D01*
X15412920Y-11312674D02*
X15422444Y-11322198D01*
X15422444Y-11322198D02*
X15431968Y-11341246D01*
X15431968Y-11341246D02*
X15431968Y-11398388D01*
X15431968Y-11398388D02*
X15422444Y-11417436D01*
X15422444Y-11417436D02*
X15412920Y-11426960D01*
X15412920Y-11426960D02*
X15393873Y-11436484D01*
X15393873Y-11436484D02*
X15355777Y-11436484D01*
X15355777Y-11436484D02*
X15336730Y-11426960D01*
X15546253Y-11436484D02*
X15527206Y-11426960D01*
X15527206Y-11426960D02*
X15517682Y-11407912D01*
X15517682Y-11407912D02*
X15517682Y-11236484D01*
X15708158Y-11436484D02*
X15708158Y-11331722D01*
X15708158Y-11331722D02*
X15698634Y-11312674D01*
X15698634Y-11312674D02*
X15679587Y-11303150D01*
X15679587Y-11303150D02*
X15641492Y-11303150D01*
X15641492Y-11303150D02*
X15622444Y-11312674D01*
X15708158Y-11426960D02*
X15689111Y-11436484D01*
X15689111Y-11436484D02*
X15641492Y-11436484D01*
X15641492Y-11436484D02*
X15622444Y-11426960D01*
X15622444Y-11426960D02*
X15612920Y-11407912D01*
X15612920Y-11407912D02*
X15612920Y-11388865D01*
X15612920Y-11388865D02*
X15622444Y-11369817D01*
X15622444Y-11369817D02*
X15641492Y-11360293D01*
X15641492Y-11360293D02*
X15689111Y-11360293D01*
X15689111Y-11360293D02*
X15708158Y-11350769D01*
X15774825Y-11303150D02*
X15851015Y-11303150D01*
X15803396Y-11236484D02*
X15803396Y-11407912D01*
X15803396Y-11407912D02*
X15812920Y-11426960D01*
X15812920Y-11426960D02*
X15831968Y-11436484D01*
X15831968Y-11436484D02*
X15851015Y-11436484D01*
X15993873Y-11426960D02*
X15974825Y-11436484D01*
X15974825Y-11436484D02*
X15936730Y-11436484D01*
X15936730Y-11436484D02*
X15917682Y-11426960D01*
X15917682Y-11426960D02*
X15908158Y-11407912D01*
X15908158Y-11407912D02*
X15908158Y-11331722D01*
X15908158Y-11331722D02*
X15917682Y-11312674D01*
X15917682Y-11312674D02*
X15936730Y-11303150D01*
X15936730Y-11303150D02*
X15974825Y-11303150D01*
X15974825Y-11303150D02*
X15993873Y-11312674D01*
X15993873Y-11312674D02*
X16003396Y-11331722D01*
X16003396Y-11331722D02*
X16003396Y-11350769D01*
X16003396Y-11350769D02*
X15908158Y-11369817D01*
X16174825Y-11436484D02*
X16174825Y-11236484D01*
X16174825Y-11426960D02*
X16155777Y-11436484D01*
X16155777Y-11436484D02*
X16117682Y-11436484D01*
X16117682Y-11436484D02*
X16098634Y-11426960D01*
X16098634Y-11426960D02*
X16089111Y-11417436D01*
X16089111Y-11417436D02*
X16079587Y-11398388D01*
X16079587Y-11398388D02*
X16079587Y-11341246D01*
X16079587Y-11341246D02*
X16089111Y-11322198D01*
X16089111Y-11322198D02*
X16098634Y-11312674D01*
X16098634Y-11312674D02*
X16117682Y-11303150D01*
X16117682Y-11303150D02*
X16155777Y-11303150D01*
X16155777Y-11303150D02*
X16174825Y-11312674D01*
X16251015Y-11512674D02*
X16260539Y-11503150D01*
X16260539Y-11503150D02*
X16279587Y-11474579D01*
X16279587Y-11474579D02*
X16289111Y-11455531D01*
X16289111Y-11455531D02*
X16298634Y-11426960D01*
X16298634Y-11426960D02*
X16308158Y-11379341D01*
X16308158Y-11379341D02*
X16308158Y-11341246D01*
X16308158Y-11341246D02*
X16298634Y-11293627D01*
X16298634Y-11293627D02*
X16289111Y-11265055D01*
X16289111Y-11265055D02*
X16279587Y-11246008D01*
X16279587Y-11246008D02*
X16260539Y-11217436D01*
X16260539Y-11217436D02*
X16251015Y-11207912D01*
M02*
